<svg xmlns="http://www.w3.org/2000/svg" width="500" height="500" viewBox="0 0 500 500">
  <defs>
    <style>
      .cls-1 {
        fill: #33b0e8;
      }

      .cls-1, .cls-2 {
        fill-rule: evenodd;
      }

      .cls-2 {
        fill: #37373a;
      }
    </style>
  </defs>
  <path id="Idux" class="cls-1" d="M83.9,203.8c-0.927-21.328,0-23.183,3.709-24.11,6.491-.927,12.983,0,16.692,3.709,2.782,3.71,4.868,12.055,7.65,40.8,1.855,17.619,3.71,33.615,10.2,100.615,3.246,15.532-5.564,18.546-12.055,18.546-9.274-.927-16-4.637-16.924-12.982C91.32,317.4,84.829,226.056,83.9,203.8Zm100.147-18.778c0-1.855,1.854-2.782,3.709-3.709,4.405-2.782,13.446.232,17.155,5.564,4.173,3.941,3.478,48.453,3.478,63.753,0,30.6.927,39.644,7.187,66.536,1.854,12.519,1.854,13.446-1.855,17.156-1.855,2.782-12.287,2.782-16,0-1.855-.928-1.855-0.928-3.71,0-3.709,3.709-18.778,9.041-26.892,8.114-25.038,1.623-28.747-11.824-31.529-16.228-3.246-24.343,8.114-41.5,12.519-47.758,7.186-10.9,20.633-23.415,28.747-27.82,3.709-1.854,3.709-1.622,3.709-11.591C180.571,223.738,183.121,186.877,184.049,185.022Zm1.854,123.1c-0.927-6.26-2.782-21.561-2.782-25.965a22.939,22.939,0,0,0-.7-5.333c-0.928,0-2.782,1.623-5.564,4.405-10.9,13.446-19.706,40.339-15.3,42.194,2.782,0.927,10.9-1.855,18.083-7.187C185.9,310.907,186.831,310.907,185.9,308.125Zm45.2-54.249c1.623-9.737,4.637-19.474,7.187-22.024s12.982-1.855,17.155,2.318c2.551,2.551,2.551,5.8.928,23.647-1.623,17.156-1.623,57.263,0,56.335,18.314-7.418,25.269-57.958,26.892-70.94,0.927-5.8,2.318-7.419,6.491-9.042,7.419-1.622,16.229,1.623,19.474,7.419,1.623,2.55,1.623,2.55,0,13.91-9.737,41.5,0,58.653,4.869,63.522,5.8,5.564.927,12.055-4.869,12.055a22.713,22.713,0,0,1-20.4-8.81c-1.623-1.622-2.318-2.55-3.246-2.55a27.091,27.091,0,0,0-1.622,2.55c-5.8,10.665-9.737,15.533-16.229,18.779-16,3.477-25.269-.232-31.065-5.1-4.868-5.8-6.491-9.736-8.114-21.1C226.93,300.938,228.553,268.481,231.1,253.876ZM380.164,234.4c1.391-1.391,3.014-4.4,4.405-5.8,11.824-9.041,19.01,3.478,18.315,7.883,0,5.1-14.606,50.307-14.606,51-0.695,0,25.734,29.21,26.429,30.6,0.7,0.7,1.391,3.246,1.391,4.637,0,5.1-6.955,7.882-14.373,6.491-5.1-1.391-6.955-2.318-15.069-11.128-6.492-7.418-6.492-7.186-10.2,4.637-5.564,19.706-17.619,19.01-22.024,17.619-3.709-1.391-8.346-6.027-9.041-8.114,0-2.086,14.141-43.352,14.141-44.048a31.13,31.13,0,0,0-3.709-4.636c-2.086-2.087-22.488-20.633-24.11-31.53,0.695-1.391.463-3.013,1.854-4.4,12.983-9.969,35.47,19.01,35.47,18.314S379.469,237.416,380.164,234.4Z"/>
  <path id="Studio" class="cls-2" d="M233.567,168.892c3.676-3.676,5.744-4.9,9.114-5.515a10.5,10.5,0,0,1,3.371-.306c4.825,0.306,8.2,2.374,9.114,6.357a10.273,10.273,0,0,1,.23,6.741c-0.459,3.446-6.664,2.757-7.889.306-0.919-.613-0.919-0.613-0.613-3.677,0.306-2.451.306-3.063-.306-3.063s-2.988,2.144-5.132,4.289c-5.132,6.051-6.664,10.034-4.826,12.178,0.307,0.613,2.375,1.762,5.132,3.294,7.277,3.677,9.728,5.745,11.872,9.728,3.294,12.178-4.595,15.472-9.114,17a13.15,13.15,0,0,1-9.115-.613c-4.06-1.685-6.434-6.97-6.434-8.5,0-2.451,1.225-3.294,4.289-2.987s4.826,1.761,4.826,3.906c0.306,2.145,4.289.613,6.127-2.451a5.437,5.437,0,0,0,0-6.051c-1.225-1.532-2.451-2.375-8.5-5.438-6.97-3.37-9.115-5.821-9.727-10.341C225.371,179.768,228.741,173.411,233.567,168.892Zm33.392-10.11a2.276,2.276,0,0,1,1.149-2.145c1.839-.383,4.673.689,5.362,2.528,0.689,1.455,1,5.361,1,11.412s0,6.128,2.527,5.745c6.894-.843,6.817,2.834,6.434,3.906s-1.455,1.379-5.361,3.217c-3.217,1.072-3.217,1.072-3.217,11.8v11.795c0.383,1.838.383,1.762,1.838,1.379,3.217,0,5.362,1.838,5.362,3.983,0,3.523-5.362,4.519-10.724,3.217-5.974-1.838-5.744-6.358-5.744-16.774-0.383-10.417-.307-10.417-2.145-10.417-2.528.383-4.289-.307-5.362-2.145a1.009,1.009,0,0,1,0-1.762c0.383-1.072,2.834-2.527,6.051-3.983,1.839-.383,1.762-0.306,1.762-4.978C265.887,169.122,266.27,160.926,266.959,158.782Zm23.436,28.8c0.537-3.217,1.532-6.434,2.375-7.276s4.289-.613,5.668.766c0.842,0.842.842,1.914,0.306,7.812-0.536,5.668-.536,18.919,0,18.613,6.051-2.451,8.349-19.149,8.885-23.438,0.307-1.915.766-2.451,2.145-2.987,2.451-.537,5.362.536,6.434,2.451,0.536,0.842.536,0.842,0,4.595-3.217,13.711,0,19.379,1.608,20.987,1.915,1.839.307,3.983-1.608,3.983a7.5,7.5,0,0,1-6.74-2.91,2.1,2.1,0,0,0-1.073-.843,8.743,8.743,0,0,0-.536.843c-1.915,3.523-3.217,5.131-5.362,6.2-5.285,1.149-8.348-.077-10.263-1.685-1.609-1.915-2.145-3.217-2.681-6.97C289.017,203.13,289.553,192.407,290.4,187.581ZM338.8,164.833a1.651,1.651,0,0,1,1.226-1.226c1.455-.919,4.442.077,5.668,1.838,1.378,1.3,1.149,16.009,1.149,21.064,0,10.11.306,13.1,2.374,21.983,0.613,4.136.613,4.442-.613,5.668-0.612.919-4.059,0.919-5.285,0a0.93,0.93,0,0,0-1.225,0c-1.226,1.225-6.2,2.987-8.885,2.68-8.272.536-9.5-3.906-10.417-5.361a21.977,21.977,0,0,1,4.136-15.779,33.34,33.34,0,0,1,9.5-9.191c1.225-.613,1.225-0.536,1.225-3.83C337.652,177.624,338.5,165.445,338.8,164.833Zm0.613,40.671c-0.306-2.068-.919-7.123-0.919-8.578a7.569,7.569,0,0,0-.23-1.762,4.857,4.857,0,0,0-1.838,1.455c-3.6,4.443-6.511,13.328-5.055,13.941,0.919,0.306,3.6-.613,5.974-2.375C339.414,206.423,339.72,206.423,339.414,205.5Zm15.47-23.974c0.076-1.838.459-2.451,0.689-2.681,1-.766,3.6-0.689,4.9,0,4.289,2.375,1.915,7.124.46,7.277C354.271,187.811,354.807,182.909,354.884,181.53Zm-0.307,13.711c0-3.447.536-4.749,1.456-5.209s3.753-.076,4.9.536c1.608,1.149,1.915,1.762,2.3,10.034,0.154,1.609.46,5.592,0.843,8.5s1.072,3.524.536,6.051c-0.536,2.758-5.591,1.762-6.51,1.456a6.042,6.042,0,0,1-2.911-3.83C354.5,209.028,354.271,199.989,354.577,195.241Zm18.075-8.809c2.3-4.136,3.753-5.515,5.821-6.2,10.264,0.306,12.945,4.519,14.783,10.417a24.575,24.575,0,0,1,0,10.034c-2.987,11.949-12.868,14.246-17.234,13.557-8.578,0-8.578-8.578-8.349-11.259A34.043,34.043,0,0,1,372.652,186.432Zm11.719,12.409c1.149-3.83.536-9.268-1.3-11.566a1.136,1.136,0,0,0-.69-0.23c-1.148,0-4.672,6.434-5.821,11.413-0.919,3.829-.306,9.268.613,9.038C382.916,206.117,383.452,201.828,384.371,198.841Z"/>
</svg>
