<?xml version="1.0" encoding="UTF-8"?> <!-- Generator: Adobe Illustrator 22.0.1, SVG Export Plug-In . SVG Version: 6.00 Build 0) --> <svg xmlns="http://www.w3.org/2000/svg" xmlns:xlink="http://www.w3.org/1999/xlink" id="Layer_1" x="0px" y="0px" viewBox="0 0 800 600" style="enable-background:new 0 0 800 600;" xml:space="preserve"> <style type="text/css"> .st0{fill:url(#SVGID_1_);filter:url(#Adobe_OpacityMaskFilter);} .st1{mask:url(#TranspMask_2_);fill:#7F7F7F;} .st2{fill:url(#SVGID_2_);} .st3{fill:url(#SVGID_3_);} .st4{fill:#333333;} .st5{fill:url(#SVGID_4_);} </style> <g id="Document" transform="scale(1 -1)"> <g id="Spread" transform="translate(0 -2437.8)"> <g id="Logo"> <g id="Group"> <defs> <filter id="Adobe_OpacityMaskFilter" filterUnits="userSpaceOnUse" x="24.4" y="-2072.2" width="92.7" height="24.7"> <feColorMatrix type="matrix" values="1 0 0 0 0 0 1 0 0 0 0 0 1 0 0 0 0 0 1 0"></feColorMatrix> </filter> </defs> <mask maskUnits="userSpaceOnUse" x="24.4" y="-2072.2" width="92.7" height="24.7" id="TranspMask_2_"> <radialGradient id="SVGID_1_" cx="-648.861" cy="7046.5347" r="46.368" gradientTransform="matrix(1 0 0 0.2667 719.664 180.3102)" gradientUnits="userSpaceOnUse"> <stop offset="0" style="stop-color:#727272"></stop> <stop offset="1" style="stop-color:#000000"></stop> </radialGradient> <rect x="-129.9" y="2372.7" class="st0" width="1064.1" height="-455.3"></rect> </mask> <path marker-start="none" marker-end="none" class="st1" d="M117.2,2059.9c0-6.8-20.8-12.4-46.4-12.4 c-25.6,0-46.4,5.5-46.4,12.4c0,6.8,20.8,12.4,46.4,12.4C96.4,2072.2,117.2,2066.7,117.2,2059.9L117.2,2059.9z"></path> <g id="Group_1"> <g id="Group_2"> <linearGradient id="SVGID_2_" gradientUnits="userSpaceOnUse" x1="-518.6152" y1="2019.8962" x2="-413.788" y2="2019.8962" gradientTransform="matrix(0.755 -0.6558 0.6558 0.755 -936.0414 357.8157)"> <stop offset="0" style="stop-color:#5A9FD4"></stop> <stop offset="1" style="stop-color:#306998"></stop> </linearGradient> <path marker-start="none" marker-end="none" class="st2" d="M71.4,2227c-5.9,0-11.6-0.5-16.5-1.4c-14.6-2.6-17.3-8-17.3-18 v-13.2h34.6v-4.4H37.6h-13c-10.1,0-18.9-6-21.6-17.5c-3.2-13.2-3.3-21.4,0-35.2c2.5-10.2,8.3-17.5,18.4-17.5h11.9v15.8 c0,11.4,9.9,21.5,21.6,21.5h34.6c9.6,0,17.3,7.9,17.3,17.6v32.9c0,9.4-7.9,16.4-17.3,18C83.5,2226.5,77.3,2227,71.4,2227 L71.4,2227z M52.7,2216.4c3.6,0,6.5-3,6.5-6.6c0-3.6-2.9-6.6-6.5-6.6c-3.6,0-6.5,2.9-6.5,6.6 C46.2,2213.4,49.1,2216.4,52.7,2216.4L52.7,2216.4z"></path> <linearGradient id="SVGID_3_" gradientUnits="userSpaceOnUse" x1="1391.0593" y1="1769.6381" x2="1440.3358" y2="1769.6381" gradientTransform="matrix(-0.5735 0.8192 -0.8192 -0.5735 2354.3345 1987.717)"> <stop offset="0" style="stop-color:#FFD43B"></stop> <stop offset="1" style="stop-color:#FFE873"></stop> </linearGradient> <path marker-start="none" marker-end="none" class="st3" d="M111.1,2190v-15.4c0-11.9-10.1-21.9-21.6-21.9H54.9 c-9.5,0-17.3-8.1-17.3-17.6v-32.9c0-9.4,8.2-14.9,17.3-17.6c11-3.2,21.5-3.8,34.6,0c8.7,2.5,17.3,7.6,17.3,17.6v13.2H72.2v4.4 h34.6H124c10.1,0,13.8,7,17.3,17.5c3.6,10.8,3.5,21.3,0,35.2c-2.5,10-7.2,17.5-17.3,17.5H111.1L111.1,2190z M91.6,2106.6 c3.6,0,6.5-2.9,6.5-6.6c0-3.6-2.9-6.6-6.5-6.6c-3.6,0-6.5,3-6.5,6.6C85.1,2103.6,88,2106.6,91.6,2106.6L91.6,2106.6z"></path> </g> </g> <g id="Group_3"> <g id="Group_4"> <path marker-start="none" marker-end="none" class="st4" d="M231.7,2152.9c0-9.2-2.2-16.8-6.5-22.9 c-4.9-6.9-11.6-10.4-20.2-10.6c-6.5-0.2-13.1,1.8-20,6.1v-39.3l-10.9,3.9v87.2c1.8,2.2,4.2,4.1,7,5.8c6.6,3.8,14.6,5.8,24,5.9 l0.2-0.2c8.6,0.1,15.3-3.4,19.9-10.6C229.5,2171.7,231.7,2163.2,231.7,2152.9z M219,2153.6c0,18.1-5.2,27.4-15.6,27.9 c-4.1,0.2-8.2-0.5-12.1-2c-3.1-1.1-5.2-2.2-6.3-3.3V2133c6.6-4.1,12.5-6.1,17.7-5.8C213.5,2128,219,2136.8,219,2153.6z"></path> <path marker-start="none" marker-end="none" class="st4" d="M299.6,2127.1c0-12.3-1.2-20.9-3.7-25.6 c-2.5-4.8-7.2-8.5-14.2-11.4c-5.7-2.2-11.8-3.4-18.4-3.6l-1.8,7c6.7,0.9,11.4,1.8,14.1,2.7c5.4,1.8,9,4.6,11.1,8.3 c1.6,3,2.4,8.9,2.4,17.5c0,1.9,0,2.9,0,2.9c-7.6-3.4-15.5-5.2-23.8-5.2c-5.5,0-10.3,1.7-14.4,5.2c-4.7,3.7-7,8.5-7,14.3v46.1 l11.2,3.8v-46.4c0-5,1.6-8.8,4.8-11.5c3.2-2.7,7.3-4,12.4-3.9c5.1,0.1,10.5,2.1,16.2,5.9v54.2h11.1V2127.1z"></path> <path marker-start="none" marker-end="none" class="st4" d="M342.8,2120c-1.3-0.1-2.5-0.2-3.6-0.2c-6.3,0-11.2,1.5-14.6,4.5 c-3.5,3-5.2,7.1-5.2,12.4v43.5h-7.6v7.1h7.6v18.5l11.1,3.9v-22.4h12.4v-7.1h-12.4V2137c0-4.1,1.1-7.1,3.3-8.8 c1.9-1.4,5-2.2,9.1-2.4V2120z"></path> <path marker-start="none" marker-end="none" class="st4" d="M412,2120.9h-11.2v42.8c0,4.3-1,8.1-3,11.2 c-2.3,3.5-5.6,5.3-9.7,5.3c-5.1,0-11.4-2.7-19-8v-51.3h-11.1v102.3l11.1,3.5v-46.6c7.1,5.1,14.8,7.7,23.2,7.7 c5.9,0,10.6-2,14.3-5.9c3.6-3.9,5.5-8.8,5.5-14.7V2120.9z"></path> <path marker-start="none" marker-end="none" class="st4" d="M484.9,2155.3c0-9.9-2.5-18.2-7.6-24.7 c-5.6-7.4-13.3-11.1-23.1-11.1c-9.7,0-17.3,3.7-22.8,11.1c-5,6.6-7.4,14.8-7.4,24.7c0,9.3,2.7,17.1,8,23.5 c5.7,6.8,13.1,10.2,22.3,10.2c9.2,0,16.7-3.4,22.5-10.2C482.3,2172.5,484.9,2164.6,484.9,2155.3z M472.8,2155.3 c0,7-1.3,12.7-3.9,17.3c-3.1,5.6-8,8.5-14.6,8.8c-12.1-0.7-18.2-9.4-18.2-26.1l0,0c0-7.7,1.3-14.1,3.8-19.3 c3.2-6.6,8.1-9.8,14.6-9.7C466.7,2126.4,472.8,2136.1,472.8,2155.3z"></path> <path marker-start="none" marker-end="none" class="st4" d="M550.6,2120.9h-11.1v45.2c0,5-1.5,8.8-4.5,11.6 c-3,2.8-7,4.1-11.9,4c-5.3-0.1-10.3-1.8-15-5.2v-55.7h-11.1v57c6.4,4.7,12.2,7.7,17.6,9.1c5.1,1.3,9.5,2,13.4,2 c2.6,0,5.1-0.3,7.4-0.8c4.4-1,7.9-2.9,10.6-5.6c3-3,4.6-6.7,4.6-10.9V2120.9z"></path> </g> </g> <g id="Group_5"> <g id="Group_6"> <path marker-start="none" marker-end="none" class="st4" d="M589.1,2167.8c0-2.8-1.4-5.1-4.1-7v0c-1.9-1.2-4-1.8-6.5-1.8 c-1.6,0-3.3,0.4-5.1,1.1c-1.6,0.7-2.9,1.5-4,2.5l1.4,2.4c2.5-2,5-3.1,7.7-3c1.8,0,3.3,0.4,4.4,1.2c1.5,1.1,2.2,2.5,2.2,4.1 c0,1.3-0.4,2.3-1.2,3.1c-0.8,0.8-2.1,1.5-3.9,2.1l-2.9,1c-2.5,0.8-4.3,1.8-5.3,2.8c-1.1,1.2-1.7,2.8-1.7,4.7 c0,2.5,0.9,4.5,2.6,6c1.7,1.6,4,2.3,6.8,2.3c2.5,0,5-0.9,7.4-2.7l-1.4-2.2c-1.9,1.4-3.8,2.1-5.8,2.1c-1.8,0-3.2-0.4-4.2-1.3 c-1-0.9-1.6-2-1.6-3.5c0-2,1.6-3.5,5-4.6l3.3-1.1c2.4-0.8,4.1-1.8,5.2-3.1C588.6,2171.6,589.1,2169.9,589.1,2167.8z"></path> <path marker-start="none" marker-end="none" class="st4" d="M617.1,2174.5L617.1,2174.5c0-4-1.1-7.5-3.2-10.5 c-2.4-3.4-5.5-5.1-9.4-5.1c-3.8,0-7,1.7-9.4,5.1c-2.1,3-3.2,6.5-3.2,10.5c0,3.9,1.1,7.3,3.3,10.2c2.4,3.1,5.5,4.7,9.3,4.7 c3.8,0,6.9-1.6,9.3-4.7C616,2181.8,617.1,2178.4,617.1,2174.5z M613.2,2174.5c0,3.2-0.7,5.9-2.1,8.2c-1.6,2.7-3.8,4-6.6,4 c-2.8,0-5-1.3-6.6-4c-1.5-2.3-2.2-5.1-2.2-8.2c0-3.4,0.7-6.3,2.2-8.8c1.7-2.7,3.8-4.1,6.5-4.1c2.7,0,4.8,1.4,6.5,4.1 C612.5,2168.2,613.2,2171.1,613.2,2174.5z"></path> <path marker-start="none" marker-end="none" class="st4" d="M637.6,2188.7l-1.2-2.4h-11.7v-10h9.8l-1.3-2.3h-8.6v-14.6h-3.4 v29.3H637.6z"></path> <path marker-start="none" marker-end="none" class="st4" d="M659.4,2186.4h-8.6v-27h-3.4v27h-8.7l1.1,2.3l19.7,0V2186.4z"></path> <path marker-start="none" marker-end="none" class="st4" d="M696.1,2188.9l-7.7-29l-2.6-0.9l-7.1,25.3l-6.4-24.4l-2.6-0.9 l-8.2,29.1l3.3,1.2l6.6-23.7l6.2,22.5l3.3,1.2l6.6-23.8l6.6,23.8L696.1,2188.9z"></path> <path marker-start="none" marker-end="none" class="st4" d="M720,2159.4h-3.6l-3.2,9.1H702l-3.4-9.1h-2.6l10.6,28.8l3.3,1.1 L720,2159.4z M712.6,2170.7l-4.7,13.9l-5.2-13.9H712.6z"></path> <path marker-start="none" marker-end="none" class="st4" d="M741,2159.4h-4.1l-7.8,13.7h-2.5v-13.7h-3.4v29.4h9.3 c2.3,0,4.3-0.8,5.9-2.3c1.6-1.5,2.4-3.4,2.4-5.6c0-2.2-0.7-4.1-2.2-5.5c-1.5-1.5-3.4-2.2-5.6-2.2L741,2159.4z M737.4,2180.9 c0,1.4-0.5,2.6-1.6,3.7c-1.1,1.1-2.3,1.7-3.7,1.7h-5.4v-10.8h5.4c1.6,0,2.9,0.5,3.9,1.6 C736.9,2178.1,737.4,2179.4,737.4,2180.9z"></path> <path marker-start="none" marker-end="none" class="st4" d="M761.5,2188.7l-1.2-2.4h-11.8v-10h9.8l-1.2-2.3h-8.6v-12.3h12.7 v-2.3h-16v29.3L761.5,2188.7z"></path> </g> <g id="Group_7"> <path marker-start="none" marker-end="none" class="st4" d="M587.2,2149.7l-1.2-2.4h-11.7v-10h9.8l-1.3-2.3h-8.6v-14.6h-3.4 v29.3H587.2z"></path> <path marker-start="none" marker-end="none" class="st4" d="M613.3,2135.6L613.3,2135.6c0-4-1.1-7.5-3.2-10.5 c-2.4-3.4-5.6-5.1-9.4-5.1c-3.8,0-7,1.7-9.4,5.1c-2.1,3-3.2,6.5-3.2,10.5c0,3.9,1.1,7.3,3.3,10.2c2.4,3.1,5.5,4.7,9.3,4.7 c3.8,0,7-1.6,9.3-4.7C612.2,2142.9,613.3,2139.5,613.3,2135.6z M609.4,2135.6c0,3.2-0.7,5.9-2.1,8.2c-1.6,2.7-3.8,4-6.6,4 c-2.8,0-5-1.3-6.6-4c-1.5-2.3-2.2-5.1-2.2-8.2c0-3.4,0.7-6.3,2.2-8.8c1.7-2.7,3.8-4.1,6.5-4.1c2.7,0,4.8,1.4,6.5,4.1 C608.7,2129.3,609.4,2132.2,609.4,2135.6z"></path> <path marker-start="none" marker-end="none" class="st4" d="M638.5,2130.4c0-3-1-5.5-3-7.5c-2-1.9-4.6-2.9-7.7-2.9 c-3,0-5.5,1-7.5,2.9c-2,1.9-3,4.4-3,7.4v18.8l3.5,1.2v-19.4c0-5.4,2.4-8.1,7.3-8.1c2.4,0,4.3,0.7,5.7,2.2 c1.4,1.5,2.1,3.5,2.1,6v18.7h2.6V2130.4z"></path> <path marker-start="none" marker-end="none" class="st4" d="M666,2120.4h-3.4l-16.4,24v-24h-2.4v29l2.7,0.9l17.1-25v24.4h2.3 V2120.4z"></path> <path marker-start="none" marker-end="none" class="st4" d="M692.5,2134.6c0-3.8-1.1-7.1-3.2-10c-2.3-3-5.1-4.6-8.5-4.6 c-3.2,0-6.3,1.2-9.3,3.6v26.1l9.4-0.1c3.8,0,6.7-1.6,8.8-4.8C691.6,2142.1,692.5,2138.7,692.5,2134.6z M688.6,2134.3 c0,8.8-3.3,13.2-10,13.2H675v-22.9c1.5-1.4,3.2-2,5.1-2c2.7,0,4.8,1.3,6.4,3.9C687.9,2128.6,688.6,2131.3,688.6,2134.3z"></path> <path marker-start="none" marker-end="none" class="st4" d="M718.3,2120.4h-3.6l-3.2,9.1h-11.3l-3.4-9.1h-2.6l10.6,28.8 l3.3,1.1L718.3,2120.4z M710.9,2131.8l-4.7,13.9l-5.2-13.9H710.9z"></path> <path marker-start="none" marker-end="none" class="st4" d="M737.2,2147.5h-8.6v-27h-3.4v27h-8.7l1.1,2.3l19.7,0V2147.5z"></path> <path marker-start="none" marker-end="none" class="st4" d="M744.4,2120.4H741v28.7l3.4,1.2V2120.4z"></path> <path marker-start="none" marker-end="none" class="st4" d="M773.8,2135.6L773.8,2135.6c0-4-1.1-7.5-3.2-10.5 c-2.4-3.4-5.6-5.1-9.4-5.1c-3.8,0-7,1.7-9.4,5.1c-2.1,3-3.2,6.5-3.2,10.5c0,3.9,1.1,7.3,3.3,10.2c2.4,3.1,5.5,4.7,9.3,4.7 c3.8,0,6.9-1.6,9.3-4.7C772.7,2142.9,773.8,2139.5,773.8,2135.6z M769.9,2135.6c0,3.2-0.7,5.9-2.1,8.2c-1.6,2.7-3.8,4-6.6,4 c-2.8,0-5-1.3-6.6-4c-1.5-2.3-2.2-5.1-2.2-8.2c0-3.4,0.7-6.3,2.2-8.8c1.7-2.7,3.8-4.1,6.5-4.1c2.7,0,4.8,1.4,6.5,4.1 C769.2,2129.3,769.9,2132.2,769.9,2135.6z"></path> <path marker-start="none" marker-end="none" class="st4" d="M800.2,2120.4h-3.4l-16.4,24v-24H778v29l2.7,0.9l17.1-25v24.4h2.3 V2120.4z"></path> </g> </g> <linearGradient id="SVGID_4_" gradientUnits="userSpaceOnUse" x1="-3302.8979" y1="3005.5984" x2="-3062.3506" y2="3005.5984" gradientTransform="matrix(1 0 0 1 3862.8899 -905.0281)"> <stop offset="0" style="stop-color:#4C8CBF"></stop> <stop offset="1" style="stop-color:#306898"></stop> </linearGradient> <path marker-start="none" marker-end="none" class="st5" d="M319.5,2100.6L319.5,2100.6c0-3.1,2.5-5.6,5.6-5.6l470,0 c3.1,0,5.6,2.5,5.6,5.6v0c0,3.1-2.5,5.6-5.6,5.6l-470,0C321.9,2106.1,319.4,2103.6,319.5,2100.6z"></path> </g> </g> <g id="Layer_1_1_"> </g> </g> </g> </svg> 