<?xml version="1.0" encoding="UTF-8"?>
<!DOCTYPE svg PUBLIC "-//W3C//DTD SVG 1.1//EN" "http://www.w3.org/Graphics/SVG/1.1/DTD/svg11.dtd">
<!-- Creator: CorelDRAW (Evaluation Version) -->
<svg xmlns="http://www.w3.org/2000/svg" xml:space="preserve" width="699px" height="441px" version="1.1" style="shape-rendering:geometricPrecision; text-rendering:geometricPrecision; image-rendering:optimizeQuality; fill-rule:evenodd; clip-rule:evenodd"
viewBox="0 0 344.74 217.54"
 xmlns:xlink="http://www.w3.org/1999/xlink">
 <defs>
  <style type="text/css">
   <![CDATA[
    .fil0 {fill:#33416B}
    .fil1 {fill:url(#id0)}
   ]]>
  </style>
  <linearGradient id="id0" gradientUnits="userSpaceOnUse" x1="153.73" y1="115.54" x2="219.66" y2="-73.96">
   <stop offset="0" style="stop-opacity:1; stop-color:#0AB9C6"/>
   <stop offset="1" style="stop-opacity:1; stop-color:#64CADF"/>
  </linearGradient>
 </defs>
 <g id="Camada_x0020_1">
  <metadata id="CorelCorpID_0Corel-Layer"/>
  <g id="_105553379303136">
   <path class="fil0" d="M0 187.67l0 -7.59 30.47 0c1.61,0 2.76,-0.23 3.47,-0.68 0.7,-0.45 1.06,-1.36 1.06,-2.73l0 -2.18c0,-1.25 -0.36,-2.15 -1.06,-2.67 -0.71,-0.53 -1.85,-0.8 -3.41,-0.8l-19.12 0c-2.23,0 -4.09,-0.2 -5.56,-0.62 -1.47,-0.41 -2.64,-1.04 -3.5,-1.88 -0.86,-0.84 -1.46,-1.9 -1.79,-3.17 -0.33,-1.28 -0.5,-2.78 -0.5,-4.5l0 -2c0,-2.04 0.21,-3.79 0.65,-5.24 0.43,-1.45 1.09,-2.62 2,-3.5 0.9,-0.88 2.07,-1.53 3.52,-1.94 1.46,-0.41 3.18,-0.62 5.18,-0.62l12.47 0 0 7.59 -11.65 0c-1.37,0 -2.38,0.26 -3.02,0.79 -0.65,0.53 -0.98,1.6 -0.98,3.21l0 1.29c0,1.26 0.3,2.15 0.89,2.68 0.58,0.53 1.6,0.79 3.06,0.79l18.76 0c2.23,0 4.13,0.19 5.67,0.56 1.55,0.38 2.82,0.97 3.8,1.8 0.98,0.82 1.68,1.88 2.12,3.17 0.43,1.3 0.64,2.85 0.64,4.65l0 3.18c0,1.88 -0.21,3.48 -0.64,4.79 -0.44,1.31 -1.14,2.38 -2.12,3.21 -0.98,0.82 -2.25,1.43 -3.8,1.82 -1.54,0.39 -3.44,0.59 -5.67,0.59l-30.94 0zm63.76 0l0 0c-2.94,0 -5.39,-0.25 -7.35,-0.74 -1.96,-0.49 -3.53,-1.27 -4.71,-2.35 -1.17,-1.08 -2.01,-2.49 -2.5,-4.24 -0.49,-1.74 -0.73,-3.89 -0.73,-6.44l0 -12.58c0,-2.51 0.24,-4.65 0.73,-6.42 0.49,-1.76 1.33,-3.18 2.5,-4.26 1.18,-1.08 2.75,-1.86 4.71,-2.35 1.96,-0.49 4.41,-0.74 7.35,-0.74l15.23 0c2.98,0 5.45,0.25 7.41,0.74 1.96,0.49 3.53,1.27 4.71,2.35 1.18,1.08 2.01,2.5 2.5,4.26 0.49,1.77 0.74,3.91 0.74,6.42l0 12.58c0,2.55 -0.25,4.7 -0.74,6.44 -0.49,1.75 -1.32,3.16 -2.5,4.24 -1.18,1.08 -2.75,1.86 -4.71,2.35 -1.96,0.49 -4.43,0.74 -7.41,0.74l-15.23 0zm21.64 -25.94l0 0c0,-1.26 -0.1,-2.3 -0.32,-3.12 -0.22,-0.82 -0.58,-1.49 -1.09,-2 -0.51,-0.51 -1.2,-0.86 -2.09,-1.06 -0.88,-0.19 -1.97,-0.29 -3.26,-0.29l-14.47 0c-1.41,0 -2.56,0.1 -3.44,0.29 -0.88,0.2 -1.58,0.55 -2.09,1.06 -0.51,0.51 -0.85,1.18 -1.03,2 -0.17,0.82 -0.26,1.86 -0.26,3.12l0 11.82c0,1.29 0.09,2.36 0.26,3.21 0.18,0.84 0.52,1.51 1.03,2 0.51,0.49 1.21,0.82 2.09,1 0.88,0.17 2.03,0.26 3.44,0.26l14.47 0c1.29,0 2.38,-0.09 3.26,-0.26 0.89,-0.18 1.58,-0.51 2.09,-1 0.51,-0.49 0.87,-1.16 1.09,-2 0.22,-0.85 0.32,-1.92 0.32,-3.21l0 -11.82zm30.71 25.94l0 0c-2.94,0 -5.39,-0.25 -7.35,-0.74 -1.96,-0.49 -3.53,-1.27 -4.71,-2.35 -1.18,-1.08 -2.01,-2.49 -2.5,-4.24 -0.49,-1.74 -0.74,-3.89 -0.74,-6.44l0 -26.35 8.89 0 0 26c0,1.18 0.1,2.17 0.32,2.97 0.21,0.8 0.6,1.47 1.15,2 0.55,0.53 1.28,0.91 2.2,1.15 0.92,0.23 2.09,0.35 3.5,0.35l23.82 0 0 7.65 -24.58 0zm44.35 0l0 0c-2.94,0 -5.39,-0.25 -7.36,-0.74 -1.96,-0.49 -3.53,-1.27 -4.7,-2.35 -1.18,-1.08 -2.01,-2.49 -2.5,-4.24 -0.49,-1.74 -0.74,-3.89 -0.74,-6.44l0 -26.35 9 0 0 26.06c0,1.25 0.13,2.28 0.39,3.09 0.25,0.8 0.65,1.46 1.2,1.97 0.55,0.51 1.29,0.86 2.21,1.06 0.92,0.19 2.05,0.29 3.38,0.29l13.47 0c1.33,0 2.46,-0.1 3.38,-0.29 0.92,-0.2 1.66,-0.55 2.21,-1.06 0.55,-0.51 0.95,-1.18 1.2,-2 0.26,-0.83 0.38,-1.86 0.38,-3.12l0 -26 8.89 0 0 26.35c0,2.55 -0.25,4.7 -0.74,6.44 -0.49,1.75 -1.32,3.16 -2.5,4.24 -1.18,1.08 -2.74,1.86 -4.7,2.35 -1.96,0.49 -4.44,0.74 -7.42,0.74l-15.05 0zm52.11 0l0 0c-2.94,0 -5.39,-0.25 -7.35,-0.74 -1.96,-0.49 -3.53,-1.27 -4.71,-2.35 -1.17,-1.08 -2.01,-2.49 -2.5,-4.24 -0.49,-1.74 -0.73,-3.89 -0.73,-6.44l0 -12.58c0,-2.51 0.24,-4.65 0.73,-6.42 0.49,-1.76 1.33,-3.18 2.5,-4.26 1.18,-1.08 2.75,-1.86 4.71,-2.35 1.96,-0.49 4.41,-0.74 7.35,-0.74l9.88 0 0 7.59 -9.88 0c-1.29,0 -2.35,0.11 -3.18,0.32 -0.82,0.22 -1.48,0.56 -1.97,1.03 -0.49,0.47 -0.82,1.1 -1,1.89 -0.17,0.78 -0.26,1.76 -0.26,2.94l0 2.7 34.17 0 0 7.12 -34.17 0 0 2.82c0,1.22 0.09,2.22 0.26,3 0.18,0.79 0.5,1.41 0.97,1.88 0.47,0.48 1.13,0.8 1.97,0.97 0.85,0.18 1.92,0.27 3.21,0.27l28 0 0 7.59 -28 0zm61.76 -2.94l0 0 23.17 -37.18 -10.64 0 -18.94 31 -19 -31 -10.82 0 23.05 37.18c0.75,1.21 1.59,2.15 2.53,2.82 0.94,0.67 2.3,1 4.06,1 1.77,0 3.12,-0.33 4.06,-1 0.94,-0.67 1.78,-1.61 2.53,-2.82zm39.82 2.94l0 0c-2.94,0 -5.39,-0.25 -7.35,-0.74 -1.96,-0.49 -3.53,-1.27 -4.71,-2.35 -1.17,-1.08 -2.01,-2.49 -2.5,-4.24 -0.49,-1.74 -0.73,-3.89 -0.73,-6.44l0 -12.58c0,-2.51 0.24,-4.65 0.73,-6.42 0.49,-1.76 1.33,-3.18 2.5,-4.26 1.18,-1.08 2.75,-1.86 4.71,-2.35 1.96,-0.49 4.41,-0.74 7.35,-0.74l15.23 0c2.98,0 5.45,0.25 7.41,0.74 1.96,0.49 3.53,1.27 4.71,2.35 1.18,1.08 2.01,2.5 2.5,4.26 0.49,1.77 0.74,3.91 0.74,6.42l0 12.58c0,2.55 -0.25,4.7 -0.74,6.44 -0.49,1.75 -1.32,3.16 -2.5,4.24 -1.18,1.08 -2.75,1.86 -4.71,2.35 -1.96,0.49 -4.43,0.74 -7.41,0.74l-15.23 0zm21.64 -25.94l0 0c0,-1.26 -0.1,-2.3 -0.32,-3.12 -0.21,-0.82 -0.58,-1.49 -1.09,-2 -0.51,-0.51 -1.2,-0.86 -2.08,-1.06 -0.89,-0.19 -1.98,-0.29 -3.27,-0.29l-14.47 0c-1.41,0 -2.56,0.1 -3.44,0.29 -0.88,0.2 -1.58,0.55 -2.09,1.06 -0.51,0.51 -0.85,1.18 -1.03,2 -0.17,0.82 -0.26,1.86 -0.26,3.12l0 11.82c0,1.29 0.09,2.36 0.26,3.21 0.18,0.84 0.52,1.51 1.03,2 0.51,0.49 1.21,0.82 2.09,1 0.88,0.17 2.03,0.26 3.44,0.26l14.47 0c1.29,0 2.38,-0.09 3.27,-0.26 0.88,-0.18 1.57,-0.51 2.08,-1 0.51,-0.49 0.88,-1.16 1.09,-2 0.22,-0.85 0.32,-1.92 0.32,-3.21l0 -11.82z"/>
   <path class="fil0" d="M0.13 212.44c1.55,1.35 3.24,1.91 4.72,1.91 2.35,0 4.2,-1.42 4.2,-3.35 0,-4.3 -6.53,-2.49 -6.53,-4.57 0,-0.73 0.74,-1.03 1.66,-1.03 0.93,0 2.04,0.31 2.74,0.83l1.31 -1.6c-1.22,-0.88 -2.71,-1.31 -4.06,-1.31 -2.12,0 -3.93,1.08 -3.93,3.28 0,3.99 6.53,2.43 6.53,4.41 0,0.74 -0.86,1.25 -1.99,1.24 -1.01,0 -2.22,-0.39 -3.24,-1.38l-1.41 1.57zm20.39 -3.6l0 0c0,-1.86 1.19,-3.44 3.23,-3.44 1.84,0 3.23,1.4 3.23,3.44 0,1.86 -1.17,3.45 -3.23,3.45 -1.96,0 -3.23,-1.57 -3.23,-3.45zm-2.4 0l0 0c0,3.03 2.29,5.53 5.63,5.53 3.09,0 5.63,-2.25 5.63,-5.53 0,-3 -2.27,-5.52 -5.63,-5.52 -3.15,0 -5.63,2.38 -5.63,5.52zm20.77 -5.54l0 0 0 11.06 7.76 0 0 -2.12 -5.46 0 0 -8.94 -2.3 0zm23.99 0l0 0 0 5.9c0,1.6 -0.84,3.04 -2.48,3.04 -1.75,0 -2.49,-1.56 -2.49,-3.04l0 -5.9 -2.3 0 0 6.01c0,2.88 1.92,5.05 4.78,5.05 2.95,0 4.79,-2.21 4.79,-5.05l0 -6.01 -2.3 0zm17.65 11.42l0 0 0 -0.37c2.35,-0.16 4.32,-1.66 4.95,-3.86l-2.2 -0.68c-0.42,1.52 -1.61,2.48 -3.16,2.48 -1.95,0 -3.23,-1.59 -3.23,-3.45 0,-1.95 1.31,-3.46 3.23,-3.46 1.54,0 2.77,1.03 3.16,2.48l2.2 -0.68c-0.72,-2.44 -2.92,-3.88 -5.36,-3.88 -3.19,0 -5.63,2.43 -5.63,5.54 0,2.98 2.26,5.24 5.08,5.5l0 1.1c2.05,0 2.04,1.3 -0.87,0.65l-0.31 1.18c4.49,1.24 5.53,-2.27 2.14,-2.56l0 0.01zm16.35 -5.88l0 0c0,-1.86 1.2,-3.44 3.24,-3.44 1.84,0 3.23,1.4 3.23,3.44 0,1.86 -1.17,3.45 -3.23,3.45 -1.96,0 -3.24,-1.57 -3.24,-3.45zm-2.39 0l0 0c0,3.03 2.29,5.53 5.63,5.53 3.09,0 5.62,-2.25 5.62,-5.53 0,-3 -2.26,-5.52 -5.62,-5.52 -3.15,0 -5.63,2.38 -5.63,5.52zm3.8 -6.46l0 0 -1.1 -1.05c2.67,-2.39 3.11,0.58 4.81,-0.95l1.1 1.04c-2.67,2.38 -3.11,-0.57 -4.81,0.96zm16.98 0.94l0 0 0 11.04 7.76 0 0 -2.12 -5.46 0 0 -2.86 4.07 0 0 -2.12 -4.07 0 0 -1.82 5.46 0 0 -2.12 -7.76 0zm16.57 9.12l0 0c1.55,1.35 3.24,1.91 4.72,1.91 2.35,0 4.2,-1.42 4.2,-3.35 0,-4.3 -6.53,-2.49 -6.53,-4.57 0,-0.73 0.74,-1.03 1.66,-1.03 0.93,0 2.04,0.31 2.74,0.83l1.31 -1.6c-1.22,-0.88 -2.71,-1.31 -4.06,-1.31 -2.13,0 -3.93,1.08 -3.93,3.28 0,3.99 6.53,2.43 6.53,4.41 0,0.74 -0.86,1.25 -1.99,1.24 -1.01,0 -2.22,-0.39 -3.24,-1.38l-1.41 1.57zm24.28 -9.12l0 0 0 11.04 7.76 0 0 -2.12 -5.46 0 0 -2.86 4.07 0 0 -2.12 -4.07 0 0 -1.82 5.46 0 0 -2.12 -7.76 0zm27.79 0l0 0 -4.83 5.52 -4.83 -5.52 -1.15 0 0 11.05 2.3 0 0 -6.9 3.68 4.2 3.68 -4.2 0 6.9 2.3 0 0 -11.05 -1.15 0zm16.43 9.12l0 0c1.56,1.35 3.24,1.91 4.72,1.91 2.35,0 4.2,-1.42 4.2,-3.35 0,-4.3 -6.52,-2.49 -6.52,-4.57 0,-0.73 0.73,-1.03 1.65,-1.03 0.93,0 2.05,0.31 2.75,0.83l1.3 -1.6c-1.22,-0.88 -2.7,-1.31 -4.06,-1.31 -2.12,0 -3.92,1.08 -3.92,3.28 0,3.99 6.52,2.43 6.52,4.41 0,0.74 -0.86,1.25 -1.99,1.24 -1.01,0 -2.22,-0.39 -3.24,-1.38l-1.41 1.57zm20.39 -3.6l0 0c0,-1.86 1.19,-3.44 3.23,-3.44 1.84,0 3.23,1.4 3.23,3.44 0,1.86 -1.17,3.45 -3.23,3.45 -1.96,0 -3.23,-1.57 -3.23,-3.45zm-2.4 0l0 0c0,3.03 2.29,5.53 5.63,5.53 3.1,0 5.63,-2.25 5.63,-5.53 0,-3 -2.27,-5.52 -5.63,-5.52 -3.15,0 -5.63,2.38 -5.63,5.52zm20.77 -5.52l0 0 0 11.05 2.3 0 0 -4.99 4.07 0 0 -2.12 -4.07 0 0 -1.82 5.46 0 0 -2.12 -7.76 0zm16.32 -0.02l0 0 0 2.13 3.62 0 0 8.94 2.31 0 0 -8.94 3.63 0 0 -2.13 -9.56 0zm30.78 0l0 0 -1.92 7.25 -1.91 -7.25 -2.26 0 -1.91 7.25 -1.92 -7.25 -2.44 0 2.95 11.07 2.33 0 2.12 -7.85 2.12 7.85 2.33 0 2.95 -11.07 -2.44 0zm15.67 0.02l0 0 -4.38 11.05 2.28 0 0.66 -1.69 5.15 0 0.67 1.69 2.28 0 -4.38 -11.05 -2.28 0zm1.14 2.68l0 0 1.75 4.6 -3.5 0 1.75 -4.6zm17.05 -0.56l0 0 3.03 0c0.71,0 1.39,0.44 1.39,1.18 0,0.77 -0.72,1.17 -1.39,1.17l-3.03 0 0 -2.35zm7.26 8.93l0 0 -2.74 -4.71c1.45,-0.53 2.15,-1.6 2.15,-3.04 0,-2.02 -1.48,-3.3 -3.35,-3.3l-5.62 0 0 11.05 2.3 0 0 -4.5 2.05 0 2.63 4.5 2.58 0zm9.53 -11.05l0 0 0 11.04 7.76 0 0 -2.12 -5.46 0 0 -2.86 4.07 0 0 -2.12 -4.07 0 0 -1.82 5.46 0 0 -2.12 -7.76 0z"/>
   <path class="fil1" d="M157.67 7.14c9.35,-2.51 18.78,-2.53 27.59,-0.46 16.26,-10.35 38.14,-8.71 52.63,5.21l7.33 7.03 -0.22 0.02c0.27,-0.04 0.54,-0.05 0.81,-0.04l-5.2 5.21 0 -0.39 -7.33 -7.03c-10.73,-10.3 -26.26,-12.64 -39.18,-7.16l0.02 0c-1.75,0.74 -3.44,1.61 -5.08,2.63l-0.46 0.29 -0.08 0.06 -0.04 0.02 0 0c-2.24,1.47 -4.35,3.2 -6.27,5.21l-33.47 34.86 -4.8 -4.61 33.46 -34.86c0.22,-0.23 0.44,-0.45 0.66,-0.67 -6.05,-0.69 -12.33,-0.28 -18.57,1.39 -26.58,7.12 -42.35,34.45 -35.23,61.03 2.36,8.8 6.93,16.41 12.96,22.41 -4.28,0.18 -8.62,-1.28 -11.91,-4.44l-1.49 -1.43c-2.71,-4.49 -4.85,-9.43 -6.28,-14.74 -8.11,-30.3 9.86,-61.43 40.15,-69.54zm-53.54 92.71l0 0 -5.2 5.21c0.19,0 0.39,0 0.59,-0.02l7.32 7.03c14.5,13.92 36.38,15.57 52.64,5.21 8.8,2.07 18.24,2.05 27.58,-0.45 30.29,-8.12 48.27,-39.26 40.15,-69.54 -1.42,-5.32 -3.56,-10.26 -6.28,-14.75l-1.49 -1.43c-3.28,-3.16 -7.63,-4.62 -11.9,-4.43 6.03,5.99 10.6,13.6 12.96,22.4 7.12,26.58 -8.66,53.91 -35.23,61.03 -6.24,1.67 -12.52,2.08 -18.57,1.39 0.22,-0.22 0.44,-0.44 0.65,-0.67l33.47 -34.86 -4.81 -4.61 -33.46 34.86c-2.13,2.22 -4.47,4.1 -6.97,5.65l-0.16 0.1 -0.12 0.08 -0.27 0.15c-1.43,0.85 -2.9,1.59 -4.41,2.23l0.02 0c-12.92,5.48 -28.46,3.14 -39.19,-7.16l-7.32 -7.03 0 -0.39zm9.22 -9.22l0 0 -4.81 4.82 0.2 -0.01 7.32 7.02c11.71,11.24 30.45,10.86 41.68,-0.85l33.47 -34.86 -4.81 -4.61 -33.46 34.86c-8.69,9.05 -23.21,9.35 -32.27,0.66l-7.32 -7.03zm122.65 -62.1l0 0 -7.33 -7.04c-11.7,-11.23 -30.44,-10.85 -41.68,0.86l-33.46 34.86 4.8 4.62 33.47 -34.87c8.69,-9.05 23.21,-9.35 32.26,-0.66l7.32 7.03 4.82 -4.82 -0.2 0.02z"/>
  </g>
 </g>
</svg>
