<?xml version="1.0" encoding="UTF-8" standalone="no"?>
<!-- Generator: Adobe Illustrator 23.0.3, SVG Export Plug-In . SVG Version: 6.00 Build 0)  -->

<svg
   xmlns:dc="http://purl.org/dc/elements/1.1/"
   xmlns:cc="http://creativecommons.org/ns#"
   xmlns:rdf="http://www.w3.org/1999/02/22-rdf-syntax-ns#"
   xmlns:svg="http://www.w3.org/2000/svg"
   xmlns="http://www.w3.org/2000/svg"
   xmlns:sodipodi="http://sodipodi.sourceforge.net/DTD/sodipodi-0.dtd"
   xmlns:inkscape="http://www.inkscape.org/namespaces/inkscape"
   version="1.1"
   id="Isolation_Mode"
   x="0px"
   y="0px"
   viewBox="0 0 495.39001 200.24"
   xml:space="preserve"
   sodipodi:docname="tempest.svg"
   width="495.39001"
   height="200.23999"
   inkscape:version="0.92.4 (unknown)"><metadata
   id="metadata5322"><rdf:RDF><cc:Work
       rdf:about=""><dc:format>image/svg+xml</dc:format><dc:type
         rdf:resource="http://purl.org/dc/dcmitype/StillImage" /><dc:title></dc:title></cc:Work></rdf:RDF></metadata><defs
   id="defs5320" /><sodipodi:namedview
   pagecolor="#ffffff"
   bordercolor="#666666"
   borderopacity="1"
   objecttolerance="10"
   gridtolerance="10"
   guidetolerance="10"
   inkscape:pageopacity="0"
   inkscape:pageshadow="2"
   inkscape:window-width="1853"
   inkscape:window-height="1025"
   id="namedview5318"
   showgrid="false"
   inkscape:zoom="0.40216841"
   inkscape:cx="425.19501"
   inkscape:cy="255.12"
   inkscape:window-x="67"
   inkscape:window-y="27"
   inkscape:window-maximized="1"
   inkscape:current-layer="Isolation_Mode" />
<style
   type="text/css"
   id="style5221">
	.st0{fill:#DADD2C;}
	.st1{fill:#576973;}
</style>
<g
   id="g5315"
   transform="translate(-176.54296,-143.40313)">
	<g
   id="g5245">
		<polygon
   class="st0"
   points="266.03,249.86 310.72,249.86 310.72,236.02 281.38,236.02 281.38,221.96 298.76,221.96 298.76,208.14 281.38,208.14 281.38,195.12 310.72,195.12 310.72,181.28 266.03,181.28 "
   id="polygon5223"
   style="fill:#dadd2c" />
		<polygon
   class="st0"
   points="481.51,249.86 526.2,249.86 526.2,236.02 496.86,236.02 496.86,221.96 514.24,221.96 514.24,208.14 496.86,208.14 496.86,195.45 526.2,195.45 526.2,181.43 481.51,181.43 "
   id="polygon5225"
   style="fill:#dadd2c" />
		<path
   class="st0"
   d="m 446.63,181.28 h -32.51 v 68.59 h 16.7 v -21.32 h 15.81 c 5.88,0 10.85,-1.94 14.37,-5.6 3.48,-3.62 5.33,-8.68 5.33,-14.64 v -6.77 c 0,-12.12 -7.92,-20.26 -19.7,-20.26 z m 3.32,27.73 c 0,3.14 -2.15,5.33 -5.23,5.33 h -14.08 v -19.22 h 14.08 c 2.94,0 5.23,2.34 5.23,5.33 z"
   id="path5227"
   inkscape:connector-curvature="0"
   style="fill:#dadd2c" />
		<g
   id="g5233">
			<rect
   x="190.00999"
   y="181.28"
   class="st0"
   width="13.83"
   height="13.83"
   id="rect5229"
   style="fill:#dadd2c" />
			<polygon
   class="st0"
   points="228.34,195.11 248.46,195.12 248.46,181.28 211.94,181.28 211.94,249.86 228.34,249.86 "
   id="polygon5231"
   style="fill:#dadd2c" />
		</g>
		<g
   id="g5239">
			<rect
   x="642.77002"
   y="181.28"
   class="st0"
   width="13.83"
   height="13.83"
   id="rect5235"
   style="fill:#dadd2c" />
			<polygon
   class="st0"
   points="618.27,195.11 598.16,195.12 598.16,181.28 634.67,181.28 634.67,249.86 618.27,249.86 "
   id="polygon5237"
   style="fill:#dadd2c" />
		</g>
		<path
   class="st0"
   d="m 583.61,216.73 c -1.95,-2.55 -4.9,-4.54 -9.56,-6.45 l -13.48,-6.24 c -1.36,-0.69 -2.8,-2.1 -2.8,-4.04 v -0.12 c 0,-0.14 0.01,-0.29 0.02,-0.43 0,-0.05 0.01,-0.1 0.02,-0.15 0.28,-2.36 2.29,-4.2 4.73,-4.2 h 20.04 v -13.84 c 0,0 -19.26,0 -19.29,0 -14.23,0.05 -21.7,7.12 -21.7,19.91 v 0.59 c 0.26,6.95 4.47,12.71 11.46,15.46 l 14.77,6.31 c 1.91,0.87 3.23,2.79 3.24,5.02 v 1.79 c 0,3.21 -2.46,5.64 -5.7,5.67 H 542.1 v 13.84 h 21.99 c 14.7,0 22.86,-7.34 22.96,-20.69 v -1.49 c 0,-4.72 -1.34,-8.2 -3.44,-10.94 z"
   id="path5241"
   inkscape:connector-curvature="0"
   style="fill:#dadd2c" />
		<polygon
   class="st0"
   points="379.32,249.86 396.02,249.86 396.02,181.29 379.63,181.29 364.01,208.25 360.59,208.25 344.97,181.29 328.58,181.29 328.58,249.86 345.28,249.86 345.28,211.89 355.92,230.16 368.67,230.16 379.32,211.89 "
   id="polygon5243"
   style="fill:#dadd2c" />
	</g>
	<g
   id="g5313">
		<path
   class="st1"
   d="m 381.3,288.54 v -20.91 c 1.23,-0.21 3.03,-0.3 5.4,-0.3 5.25,0 7.89,1.92 7.89,6.57 0,4.47 -2.64,6.93 -7.53,6.93 -0.99,0 -1.89,-0.03 -2.76,-0.09 v 7.8 z m 3,-10.35 c 0.87,0.06 1.68,0.09 2.46,0.09 3.09,0 4.74,-1.2 4.74,-4.32 0,-2.91 -1.44,-4.11 -4.56,-4.11 -1.11,0 -1.98,0.03 -2.64,0.12 z"
   id="path5247"
   inkscape:connector-curvature="0"
   style="fill:#576973" />
		<path
   class="st1"
   d="m 406.17,275.16 c -0.27,-0.03 -0.69,-0.03 -1.2,-0.03 -1.47,0 -2.97,0.36 -4.44,1.11 v 12.3 h -3 v -16.23 h 2.34 c 0.21,0.39 0.33,1.05 0.42,1.95 1.8,-1.44 3.51,-2.16 5.13,-2.16 0.39,0 0.63,0.03 0.75,0.06 z"
   id="path5249"
   inkscape:connector-curvature="0"
   style="fill:#576973" />
		<path
   class="st1"
   d="m 415.02,272.01 c 4.77,0 7.05,2.49 7.05,8.28 0,5.7 -2.4,8.55 -7.23,8.55 -4.77,0 -7.02,-2.49 -7.02,-8.28 0,-5.7 2.4,-8.55 7.2,-8.55 z m -0.09,14.34 c 2.85,0 4.08,-1.74 4.08,-5.97 0,-4.2 -1.2,-5.88 -4.05,-5.88 -2.91,0 -4.14,1.74 -4.14,5.97 0,4.17 1.23,5.88 4.11,5.88 z"
   id="path5251"
   inkscape:connector-curvature="0"
   style="fill:#576973" />
		<path
   class="st1"
   d="m 434.07,288.33 c -0.57,0.24 -1.53,0.36 -2.85,0.36 -3.21,0 -4.83,-1.59 -4.83,-4.74 v -9.21 h -2.58 v -2.01 l 2.61,-0.42 v -3.54 l 2.94,-0.39 v 3.93 h 4.41 v 2.43 h -4.41 v 8.79 c 0,2.04 0.66,2.61 2.37,2.61 0.93,0 1.65,-0.06 2.13,-0.18 z"
   id="path5253"
   inkscape:connector-curvature="0"
   style="fill:#576973" />
		<path
   class="st1"
   d="m 438.93,281.28 c 0.09,3.63 1.77,4.95 5.49,4.95 1.41,0 2.73,-0.18 3.99,-0.54 l 0.45,2.22 c -1.02,0.57 -2.7,0.87 -5.01,0.87 -5.52,0 -7.92,-2.7 -7.92,-8.25 0,-5.43 2.64,-8.52 7.17,-8.52 4.2,0 6.42,2.58 6.42,6.93 0,0.87 -0.06,1.65 -0.21,2.34 z m 0.09,-2.19 h 7.62 c 0.21,-3.12 -0.99,-4.68 -3.6,-4.68 -2.49,0 -3.84,1.56 -4.02,4.68 z"
   id="path5255"
   inkscape:connector-curvature="0"
   style="fill:#576973" />
		<path
   class="st1"
   d="m 462.48,287.67 c -1.02,0.39 -2.22,0.6 -3.6,0.6 -4.56,0 -6.84,-2.55 -6.84,-7.68 0,-5.52 3.03,-8.52 8.04,-8.52 2.37,0 4.14,0.33 5.37,0.99 v 15.63 c 0,4.17 -2.52,6.27 -7.53,6.27 -2.13,0 -3.69,-0.21 -4.74,-0.6 l 0.3,-2.43 c 1.41,0.33 2.88,0.48 4.44,0.48 3.15,0 4.56,-1.05 4.56,-3.57 z m 0.02,-2.52 v -10.14 c -0.66,-0.24 -1.56,-0.36 -2.7,-0.36 -3.03,0 -4.71,2.01 -4.71,5.64 0,3.93 1.23,5.43 4.5,5.43 0.88,0 1.86,-0.18 2.91,-0.57 z"
   id="path5257"
   inkscape:connector-curvature="0"
   style="fill:#576973" />
		<path
   class="st1"
   d="m 471.77,281.28 c 0.09,3.63 1.77,4.95 5.49,4.95 1.41,0 2.73,-0.18 3.99,-0.54 l 0.45,2.22 c -1.02,0.57 -2.7,0.87 -5.01,0.87 -5.52,0 -7.92,-2.7 -7.92,-8.25 0,-5.43 2.64,-8.52 7.17,-8.52 4.2,0 6.42,2.58 6.42,6.93 0,0.87 -0.06,1.65 -0.21,2.34 z m 0.09,-2.19 h 7.62 c 0.21,-3.12 -0.99,-4.68 -3.6,-4.68 -2.49,0 -3.84,1.56 -4.02,4.68 z"
   id="path5259"
   inkscape:connector-curvature="0"
   style="fill:#576973" />
		<path
   class="st1"
   d="m 488.57,288.54 h -2.97 v -15.33 c 1.62,-0.75 3.96,-1.14 7.05,-1.14 3.96,0 5.91,1.17 5.91,4.65 v 11.82 h -2.97 v -11.31 c 0,-1.83 -0.72,-2.58 -3.24,-2.58 -1.5,0 -2.76,0.15 -3.78,0.42 z"
   id="path5261"
   inkscape:connector-curvature="0"
   style="fill:#576973" />
		<path
   class="st1"
   d="m 515.51,265.77 v 22.77 h -2.19 c -0.03,-0.09 -0.18,-0.54 -0.45,-1.41 -1.05,1.11 -2.52,1.65 -4.35,1.65 -4.41,0 -6.63,-2.67 -6.63,-7.98 0,-5.61 2.58,-8.67 7.53,-8.67 0.93,0 1.98,0.12 3.12,0.33 v -6.33 z m -2.97,9.27 c -0.87,-0.21 -1.83,-0.33 -2.85,-0.33 -3.27,0 -4.74,1.95 -4.74,5.88 0,4.08 1.32,5.61 4.23,5.61 1.29,0 2.43,-0.33 3.42,-1.02 -0.03,-1.08 -0.06,-2.04 -0.06,-2.88 z"
   id="path5263"
   inkscape:connector-curvature="0"
   style="fill:#576973" />
		<path
   class="st1"
   d="m 526.13,272.01 c 4.77,0 7.05,2.49 7.05,8.28 0,5.7 -2.4,8.55 -7.23,8.55 -4.77,0 -7.02,-2.49 -7.02,-8.28 0,-5.7 2.4,-8.55 7.2,-8.55 z m -0.09,14.34 c 2.85,0 4.08,-1.74 4.08,-5.97 0,-4.2 -1.2,-5.88 -4.05,-5.88 -2.91,0 -4.14,1.74 -4.14,5.97 0,4.17 1.23,5.88 4.11,5.88 z"
   id="path5265"
   inkscape:connector-curvature="0"
   style="fill:#576973" />
		<path
   class="st1"
   d="m 545.21,288.54 h -2.97 v -15.33 c 1.62,-0.75 3.96,-1.14 7.05,-1.14 3.96,0 5.91,1.17 5.91,4.65 v 11.82 h -2.97 v -11.31 c 0,-1.83 -0.72,-2.58 -3.24,-2.58 -1.5,0 -2.76,0.15 -3.78,0.42 z"
   id="path5267"
   inkscape:connector-curvature="0"
   style="fill:#576973" />
		<path
   class="st1"
   d="m 561.53,281.28 c 0.09,3.63 1.77,4.95 5.49,4.95 1.41,0 2.73,-0.18 3.99,-0.54 l 0.45,2.22 c -1.02,0.57 -2.7,0.87 -5.01,0.87 -5.52,0 -7.92,-2.7 -7.92,-8.25 0,-5.43 2.64,-8.52 7.17,-8.52 4.2,0 6.42,2.58 6.42,6.93 0,0.87 -0.06,1.65 -0.21,2.34 z m 0.09,-2.19 h 7.62 c 0.21,-3.12 -0.99,-4.68 -3.6,-4.68 -2.49,0 -3.84,1.56 -4.02,4.68 z"
   id="path5269"
   inkscape:connector-curvature="0"
   style="fill:#576973" />
		<path
   class="st1"
   d="m 585.08,287.67 c -1.02,0.39 -2.22,0.6 -3.6,0.6 -4.56,0 -6.84,-2.55 -6.84,-7.68 0,-5.52 3.03,-8.52 8.04,-8.52 2.37,0 4.14,0.33 5.37,0.99 v 15.63 c 0,4.17 -2.52,6.27 -7.53,6.27 -2.13,0 -3.69,-0.21 -4.74,-0.6 l 0.3,-2.43 c 1.41,0.33 2.88,0.48 4.44,0.48 3.15,0 4.56,-1.05 4.56,-3.57 z m 0.03,-2.52 v -10.14 c -0.66,-0.24 -1.56,-0.36 -2.7,-0.36 -3.03,0 -4.71,2.01 -4.71,5.64 0,3.93 1.23,5.43 4.5,5.43 0.87,0 1.86,-0.18 2.91,-0.57 z"
   id="path5271"
   inkscape:connector-curvature="0"
   style="fill:#576973" />
		<path
   class="st1"
   d="m 598.61,272.01 c 4.77,0 7.05,2.49 7.05,8.28 0,5.7 -2.4,8.55 -7.23,8.55 -4.77,0 -7.02,-2.49 -7.02,-8.28 0,-5.7 2.4,-8.55 7.2,-8.55 z m -0.09,14.34 c 2.85,0 4.08,-1.74 4.08,-5.97 0,-4.2 -1.2,-5.88 -4.05,-5.88 -2.91,0 -4.14,1.74 -4.14,5.97 0,4.17 1.23,5.88 4.11,5.88 z m 1.77,-21.12 2.52,1.26 -4.23,3.45 -1.98,-0.51 z"
   id="path5273"
   inkscape:connector-curvature="0"
   style="fill:#576973" />
		<path
   class="st1"
   d="m 619.52,288.24 c -0.9,0.27 -2.1,0.42 -3.57,0.42 -5.04,0 -7.65,-2.73 -7.65,-8.01 0,-5.37 2.82,-8.46 7.89,-8.46 1.53,0 2.64,0.12 3.27,0.39 l -0.36,2.4 c -0.96,-0.18 -1.8,-0.27 -2.55,-0.27 -3.51,0 -5.25,1.92 -5.25,5.79 0,3.96 1.68,5.58 5.16,5.58 1.02,0 1.98,-0.09 2.85,-0.27 z"
   id="path5275"
   inkscape:connector-curvature="0"
   style="fill:#576973" />
		<path
   class="st1"
   d="m 625.7,269.76 h -2.94 v -3.78 l 2.94,-0.36 z m 0,18.78 h -2.94 v -16.23 h 2.94 z"
   id="path5277"
   inkscape:connector-curvature="0"
   style="fill:#576973" />
		<path
   class="st1"
   d="m 636.35,272.01 c 4.77,0 7.05,2.49 7.05,8.28 0,5.7 -2.4,8.55 -7.23,8.55 -4.77,0 -7.02,-2.49 -7.02,-8.28 0,-5.7 2.4,-8.55 7.2,-8.55 z m -0.09,14.34 c 2.85,0 4.08,-1.74 4.08,-5.97 0,-4.2 -1.2,-5.88 -4.05,-5.88 -2.91,0 -4.14,1.74 -4.14,5.97 0,4.17 1.23,5.88 4.11,5.88 z"
   id="path5279"
   inkscape:connector-curvature="0"
   style="fill:#576973" />
		<path
   class="st1"
   d="m 655.85,274.95 c -1.56,-0.27 -2.88,-0.39 -3.96,-0.39 -2.19,0 -3.03,0.69 -3.03,2.1 0,1.32 0.45,1.74 2.52,2.37 l 1.89,0.57 c 2.79,0.84 3.75,1.95 3.75,4.26 0,3.24 -2.04,4.86 -6.12,4.86 -2.25,0 -3.84,-0.21 -4.83,-0.66 l 0.33,-2.34 c 1.35,0.36 2.85,0.54 4.5,0.54 2.25,0 3.36,-0.75 3.36,-2.22 0,-0.57 -0.15,-1.02 -0.45,-1.29 -0.33,-0.27 -1.02,-0.57 -2.13,-0.9 l -1.89,-0.54 c -2.73,-0.81 -3.75,-2.1 -3.75,-4.62 0,-3 2.07,-4.56 5.79,-4.56 1.95,0 3.42,0.18 4.35,0.51 z"
   id="path5281"
   inkscape:connector-curvature="0"
   style="fill:#576973" />
		<path
   class="st1"
   d="m 439.38,322.54 h -2.97 v -15.33 c 1.62,-0.75 3.96,-1.14 7.05,-1.14 3.96,0 5.91,1.17 5.91,4.65 v 11.82 h -2.97 v -11.31 c 0,-1.83 -0.72,-2.58 -3.24,-2.58 -1.5,0 -2.76,0.15 -3.78,0.42 z"
   id="path5283"
   inkscape:connector-curvature="0"
   style="fill:#576973" />
		<path
   class="st1"
   d="m 459.93,306.01 c 4.77,0 7.05,2.49 7.05,8.28 0,5.7 -2.4,8.55 -7.23,8.55 -4.77,0 -7.02,-2.49 -7.02,-8.28 0,-5.7 2.4,-8.55 7.2,-8.55 z m -0.09,14.34 c 2.85,0 4.08,-1.74 4.08,-5.97 0,-4.2 -1.2,-5.88 -4.05,-5.88 -2.91,0 -4.14,1.74 -4.14,5.97 0,4.17 1.23,5.88 4.11,5.88 z"
   id="path5285"
   inkscape:connector-curvature="0"
   style="fill:#576973" />
		<path
   class="st1"
   d="m 479.01,322.54 h -2.97 v -15.33 c 1.65,-0.75 3.9,-1.14 6.75,-1.14 1.98,0 3.42,0.33 4.29,0.99 1.38,-0.66 3.09,-0.99 5.13,-0.99 3.84,0 5.61,1.14 5.61,4.65 v 11.82 h -2.97 V 311.2 c 0,-1.8 -0.6,-2.55 -2.85,-2.55 -1.38,0 -2.64,0.18 -3.78,0.57 0.15,0.42 0.21,0.93 0.21,1.5 v 11.82 h -2.97 V 311.2 c 0,-1.8 -0.6,-2.55 -2.88,-2.55 -1.47,0 -2.67,0.12 -3.57,0.39 z"
   id="path5287"
   inkscape:connector-curvature="0"
   style="fill:#576973" />
		<path
   class="st1"
   d="m 511.64,306.31 h 2.97 v 16.23 h -2.28 c -0.15,-0.39 -0.3,-0.84 -0.39,-1.35 -1.23,1.05 -2.91,1.59 -5.04,1.59 -3.72,0 -5.13,-1.89 -5.13,-5.28 v -11.19 h 2.97 v 10.71 c 0,2.4 0.54,3.21 2.91,3.21 1.5,0 2.85,-0.36 4.05,-1.05 -0.03,-0.39 -0.06,-1.23 -0.06,-2.55 z"
   id="path5289"
   inkscape:connector-curvature="0"
   style="fill:#576973" />
		<path
   class="st1"
   d="m 521.69,322.54 h -2.97 v -15.33 c 1.62,-0.75 3.96,-1.14 7.05,-1.14 3.96,0 5.91,1.17 5.91,4.65 v 11.82 h -2.97 v -11.31 c 0,-1.83 -0.72,-2.58 -3.24,-2.58 -1.5,0 -2.76,0.15 -3.78,0.42 z"
   id="path5291"
   inkscape:connector-curvature="0"
   style="fill:#576973" />
		<path
   class="st1"
   d="m 548.63,299.77 v 22.77 h -2.19 c -0.03,-0.09 -0.18,-0.54 -0.45,-1.41 -1.05,1.11 -2.52,1.65 -4.35,1.65 -4.41,0 -6.63,-2.67 -6.63,-7.98 0,-5.61 2.58,-8.67 7.53,-8.67 0.93,0 1.98,0.12 3.12,0.33 v -6.33 z m -2.97,9.27 c -0.87,-0.21 -1.83,-0.33 -2.85,-0.33 -3.27,0 -4.74,1.95 -4.74,5.88 0,4.08 1.32,5.61 4.23,5.61 1.29,0 2.43,-0.33 3.42,-1.02 -0.03,-1.08 -0.06,-2.04 -0.06,-2.88 z"
   id="path5293"
   inkscape:connector-curvature="0"
   style="fill:#576973" />
		<path
   class="st1"
   d="m 559.25,306.01 c 4.77,0 7.05,2.49 7.05,8.28 0,5.7 -2.4,8.55 -7.23,8.55 -4.77,0 -7.02,-2.49 -7.02,-8.28 0,-5.7 2.4,-8.55 7.2,-8.55 z m -0.09,14.34 c 2.85,0 4.08,-1.74 4.08,-5.97 0,-4.2 -1.2,-5.88 -4.05,-5.88 -2.91,0 -4.14,1.74 -4.14,5.97 0,4.17 1.23,5.88 4.11,5.88 z"
   id="path5295"
   inkscape:connector-curvature="0"
   style="fill:#576973" />
		<path
   class="st1"
   d="m 588.26,299.77 v 22.77 h -2.19 c -0.03,-0.09 -0.18,-0.54 -0.45,-1.41 -1.05,1.11 -2.52,1.65 -4.35,1.65 -4.41,0 -6.63,-2.67 -6.63,-7.98 0,-5.61 2.58,-8.67 7.53,-8.67 0.93,0 1.98,0.12 3.12,0.33 v -6.33 z m -2.97,9.27 c -0.87,-0.21 -1.83,-0.33 -2.85,-0.33 -3.27,0 -4.74,1.95 -4.74,5.88 0,4.08 1.32,5.61 4.23,5.61 1.29,0 2.43,-0.33 3.42,-1.02 -0.03,-1.08 -0.06,-2.04 -0.06,-2.88 z"
   id="path5297"
   inkscape:connector-curvature="0"
   style="fill:#576973" />
		<path
   class="st1"
   d="m 595.37,303.76 h -2.94 v -3.78 l 2.94,-0.36 z m 0,18.78 h -2.94 v -16.23 h 2.94 z"
   id="path5299"
   inkscape:connector-curvature="0"
   style="fill:#576973" />
		<path
   class="st1"
   d="m 609.23,321.67 c -1.02,0.39 -2.22,0.6 -3.6,0.6 -4.56,0 -6.84,-2.55 -6.84,-7.68 0,-5.52 3.03,-8.52 8.04,-8.52 2.37,0 4.14,0.33 5.37,0.99 v 15.63 c 0,4.17 -2.52,6.27 -7.53,6.27 -2.13,0 -3.69,-0.21 -4.74,-0.6 l 0.3,-2.43 c 1.41,0.33 2.88,0.48 4.44,0.48 3.15,0 4.56,-1.05 4.56,-3.57 z m 0.03,-2.52 v -10.14 c -0.66,-0.24 -1.56,-0.36 -2.7,-0.36 -3.03,0 -4.71,2.01 -4.71,5.64 0,3.93 1.23,5.43 4.5,5.43 0.87,0 1.86,-0.18 2.91,-0.57 z"
   id="path5301"
   inkscape:connector-curvature="0"
   style="fill:#576973" />
		<path
   class="st1"
   d="m 619.25,303.76 h -2.94 v -3.78 l 2.94,-0.36 z m 0,18.78 h -2.94 v -16.23 h 2.94 z"
   id="path5303"
   inkscape:connector-curvature="0"
   style="fill:#576973" />
		<path
   class="st1"
   d="m 632.12,322.33 c -0.57,0.24 -1.53,0.36 -2.85,0.36 -3.21,0 -4.83,-1.59 -4.83,-4.74 v -9.21 h -2.58 v -2.01 l 2.61,-0.42 v -3.54 l 2.94,-0.39 v 3.93 h 4.41 v 2.43 h -4.41 v 8.79 c 0,2.04 0.66,2.61 2.37,2.61 0.93,0 1.65,-0.06 2.13,-0.18 z"
   id="path5305"
   inkscape:connector-curvature="0"
   style="fill:#576973" />
		<path
   class="st1"
   d="m 646.1,311.11 v 11.43 h -2.13 c -0.18,-0.36 -0.33,-0.84 -0.48,-1.47 -1.02,1.11 -2.67,1.68 -4.98,1.68 -3.24,0 -4.86,-1.53 -4.86,-4.59 0,-3.09 2.16,-4.71 5.91,-4.8 l 3.63,-0.12 v -1.83 c 0,-1.92 -0.87,-2.7 -3.3,-2.7 -1.65,0 -3.21,0.15 -4.68,0.45 l -0.3,-2.37 c 1.2,-0.45 2.94,-0.66 5.22,-0.66 3.84,0 5.97,1.35 5.97,4.98 z m -2.85,4.32 -3.27,0.09 c -2.4,0.03 -3.42,0.84 -3.42,2.49 0,1.77 0.84,2.46 2.91,2.46 1.44,0 2.7,-0.45 3.81,-1.32 -0.03,-0.21 -0.03,-0.78 -0.03,-1.68 z"
   id="path5307"
   inkscape:connector-curvature="0"
   style="fill:#576973" />
		<path
   class="st1"
   d="m 653.21,322.54 h -2.97 v -22.41 l 2.97,-0.36 z"
   id="path5309"
   inkscape:connector-curvature="0"
   style="fill:#576973" />
		<path
   class="st1"
   d="m 657.32,318.4 h 3.06 v 4.14 h -3.06 z"
   id="path5311"
   inkscape:connector-curvature="0"
   style="fill:#576973" />
	</g>
</g>
</svg>