<svg xmlns="http://www.w3.org/2000/svg" xmlns:xlink="http://www.w3.org/1999/xlink" viewBox="0 0 202 378.47"><defs><style>.cls-1{fill:none;}.cls-2{isolation:isolate;}.cls-3{clip-path:url(#clip-path);}.cls-4,.cls-7{fill:#d5d879;}.cls-4,.cls-6{fill-rule:evenodd;}.cls-5{opacity:0.7;mix-blend-mode:multiply;}.cls-6{fill:#95a300;}</style><clipPath id="clip-path" transform="translate(-6.42 -5.56)"><rect class="cls-1" width="218" height="365"/></clipPath></defs><title>cacto</title><g class="cls-2"><g id="Layer_2" data-name="Layer 2"><g id="Layer_2-2" data-name="Layer 2"><g class="cls-3"><path class="cls-4" d="M6.42,366S8.35,106.69,8.35,87.41s1-62.67,11.57-71.35S48.85.64,62.34,10.28s14.9,86.8,14.2,122S79.7,366,79.7,366Z" transform="translate(-6.42 -5.56)"/><g class="cls-5"><path class="cls-6" d="M67.07,370.65c.35-4.54-1.44-10.95-.55-16.06,1-1.08,3-.47,4-.09C69.72,359.65,76,373.29,67.07,370.65Z" transform="translate(-6.42 -5.56)"/><path class="cls-6" d="M68.93,334.56c-.61-3.48-4-12.06-.91-15.07,1.51-.43,2.06.41,3,.78C70.19,323.89,76.16,335.28,68.93,334.56Z" transform="translate(-6.42 -5.56)"/><path class="cls-6" d="M67.34,293.52c1.48-.08,1.33-.66,2.49-.3,2.53,2.94,4.68,17.76-1.34,14.2C68.41,301.49,65.94,297.89,67.34,293.52Z" transform="translate(-6.42 -5.56)"/><path class="cls-6" d="M67.16,269.54a3,3,0,0,1,3.47-1.18c2.34,2.68,2.1,8.62-1.91,9C66.52,275.09,68.11,272.8,67.16,269.54Z" transform="translate(-6.42 -5.56)"/><path class="cls-6" d="M68.32,230.4c5,3.22,5.09,15.91,1.08,20-.56.17-.65-.28-1.1-.25A39.13,39.13,0,0,1,68.32,230.4Z" transform="translate(-6.42 -5.56)"/><path class="cls-6" d="M69.56,138.92c-3.08-4.25-3-14.37-1.76-19.52a16,16,0,0,1,3.61,3.36C70.52,128.53,75,135.9,69.56,138.92Z" transform="translate(-6.42 -5.56)"/><path class="cls-6" d="M67.29,81.88c1.14.91,2.31,1.79,3.53,2.61.91,6.86,4.27,15.22-2.44,15.81C68.51,93.71,65.75,88,67.29,81.88Z" transform="translate(-6.42 -5.56)"/><path class="cls-6" d="M68.71,66.57c.27-3.95-5.23-17.7,1.53-15.75C72,53.89,74.81,66,68.71,66.57Z" transform="translate(-6.42 -5.56)"/><path class="cls-6" d="M70,214.68c-2.45-.47-5.72-21.31,0-20.11C70.55,199.77,76.22,211.92,70,214.68Z" transform="translate(-6.42 -5.56)"/><path class="cls-6" d="M68.4,177.49c-2.08-5.23-1.11-12.91-.8-17.35C72.62,160.94,74.39,175.5,68.4,177.49Z" transform="translate(-6.42 -5.56)"/><path class="cls-6" d="M48.89,24.4c-.33-5.81-1-8.89.93-13.16a4.43,4.43,0,0,1,3.44,1.37c-.2,4.28,1.32,9.81-3.27,12A2,2,0,0,0,48.89,24.4Z" transform="translate(-6.42 -5.56)"/><path class="cls-6" d="M66.72,36.78c-.32-7.94-1-9,.93-14.84a4,4,0,0,1,3.45,1.87c-.2,5.84,1.31,10.27-3.27,13.22A1.57,1.57,0,0,0,66.72,36.78Z" transform="translate(-6.42 -5.56)"/><path class="cls-6" d="M50.54,357.1c-.82-8.87-2.23-14,1.36-18.08.62,1.12,2,1.12,2.55,2.33C55.44,347.71,57.26,356.65,50.54,357.1Z" transform="translate(-6.42 -5.56)"/><path class="cls-6" d="M51.86,120.19c.33-6.12-3.19-11-1.36-15.77,1.61-.58,2.2.22,3.28.35C54,108.29,59.16,121.48,51.86,120.19Z" transform="translate(-6.42 -5.56)"/><path class="cls-6" d="M51.8,88.4c-2-5.91-3.5-13-.47-17.18,1.06-.41.79,1,1.85.54,1.08,5.67,2,9.85.4,16.42Z" transform="translate(-6.42 -5.56)"/><path class="cls-6" d="M54.05,235.1c.65,5.86,5.22,13.37-2,15.85a58.48,58.48,0,0,1-1.42-13.43C51.72,237,51.23,234.41,54.05,235.1Z" transform="translate(-6.42 -5.56)"/><path class="cls-6" d="M51.55,149.24c-.33-4-2.87-13.35-.68-16.23C54.53,133.84,59.33,149.58,51.55,149.24Z" transform="translate(-6.42 -5.56)"/><path class="cls-6" d="M50.94,322.82c-.23-6.46-1.34-12,.46-16.43,1.11-1.06,1.55,1.75,3.05,1.53C55.13,315.43,57.2,321.87,50.94,322.82Z" transform="translate(-6.42 -5.56)"/><path class="cls-6" d="M51.29,284.35C50.55,279,49.13,272,52.87,269,55.86,271.83,56.91,282.57,51.29,284.35Z" transform="translate(-6.42 -5.56)"/><path class="cls-6" d="M53.18,218.57c-2.54-.5-1.44-3.65-1.72-5.86-.42-3.47-1.18-7.58-.49-10.82a3.3,3.3,0,0,1,3.5-.8C55.28,205.67,58.79,215.5,53.18,218.57Z" transform="translate(-6.42 -5.56)"/><path class="cls-6" d="M52.16,182.24c-1.9-3.65-1.79-11-2.16-17.77a2.76,2.76,0,0,1,4.31-.15C54.47,172.08,58.48,177.9,52.16,182.24Z" transform="translate(-6.42 -5.56)"/><path class="cls-6" d="M32.82,373.91c-2-5.75.45-10.73-.77-17,6.93-8.23,5.78,16,1.48,16.9Z" transform="translate(-6.42 -5.56)"/><path class="cls-6" d="M32.86,337.88c.14-5.22-3.45-15,2.2-16.2C37.45,325.91,39,337.46,32.86,337.88Z" transform="translate(-6.42 -5.56)"/><path class="cls-6" d="M32.47,304.08c.36-4.14-2.34-14.45,2.78-14.6C37.71,292.41,38.06,306.9,32.47,304.08Z" transform="translate(-6.42 -5.56)"/><path class="cls-6" d="M33.74,273.34c-.68-4-4.64-15.86,2-14.29C37.13,264,38.52,271.67,33.74,273.34Z" transform="translate(-6.42 -5.56)"/><path class="cls-6" d="M33.69,206.77c-1.47-1.28-2.88-13.83-.77-17,.58-.71,1.83.09,2.89,0C36.94,196,38.77,204.25,33.69,206.77Z" transform="translate(-6.42 -5.56)"/><path class="cls-6" d="M34.48,172.76c-3.41-4.37-.32-9.72-2.21-15.22.77-.84,1.07-2,2.64-2.22.05.36.46.24.75.29C37.35,160,39.24,169.32,34.48,172.76Z" transform="translate(-6.42 -5.56)"/><path class="cls-6" d="M34,132.59c-.69-4.71-5.05-12,.32-13.7C37.13,120.69,39.47,133.14,34,132.59Z" transform="translate(-6.42 -5.56)"/><path class="cls-6" d="M32.06,52.38c1.08-.74,1.9-.4,3.2-.38,1.74,4.28,2.28,12,1,15.81C30.51,67.05,32.84,56.29,32.06,52.38Z" transform="translate(-6.42 -5.56)"/><path class="cls-6" d="M32.74,221.93l2.49-.3c1.08,3.46,2,6.4,1.67,11.2a11.25,11.25,0,0,1-2.24,6c-.56.18-.65-.28-1.1-.24C32.33,231.9,31.3,228,32.74,221.93Z" transform="translate(-6.42 -5.56)"/><path class="cls-6" d="M35.77,102.06c-3.41-.18-3.17-4.06-3.24-6.94-.11-4.63-1.23-6.17-1.13-9.76,1-.39,1.43-1.31,3.12-1.14C37.39,90.73,39.17,96.38,35.77,102.06Z" transform="translate(-6.42 -5.56)"/><path class="cls-6" d="M32.4,35.32c-.29-1.46-.94-10.43-1-11.83a11.54,11.54,0,0,1,0-1.95c0-.16.17-1.64.32-1.64,5.88-.2,4.88,5.43,5.46,11.47.11,1.19.71,2.17.56,3.36a5.08,5.08,0,0,1-.37,1.5C37.08,36.76,32.66,36.63,32.4,35.32Z" transform="translate(-6.42 -5.56)"/><path class="cls-6" d="M16.32,380.06c-.14-4.81-1.23-12.67,1-17.2a6.94,6.94,0,0,1,3,1.16C20.45,370.58,22.2,378.51,16.32,380.06Z" transform="translate(-6.42 -5.56)"/><path class="cls-6" d="M16.55,316.52c-1.32-4.84-.73-15.13.46-19,5.36-.08,4.54,16.84.61,18.9Z" transform="translate(-6.42 -5.56)"/><path class="cls-6" d="M16.91,246.05c-1.26-2.55-2.14-15.13,2.11-14.87,1.58,1.46,2.06,12.18,1.44,14.44C19.34,245.81,18,246.81,16.91,246.05Z" transform="translate(-6.42 -5.56)"/><path class="cls-6" d="M49.7,52c-1.25-2.55-2.13-15.12,2.12-14.86,1.57,1.46,2,12.17,1.44,14.43C52.13,51.79,50.74,52.78,49.7,52Z" transform="translate(-6.42 -5.56)"/><path class="cls-6" d="M16.34,217c1.38-4.49-3.74-11.07,2.69-11.7C20.75,208.51,23.2,218.15,16.34,217Z" transform="translate(-6.42 -5.56)"/><path class="cls-6" d="M17.39,192.39c-.59-2.7-1.17-5.59-1.73-9.28C20.32,176.38,23.91,192.39,17.39,192.39Z" transform="translate(-6.42 -5.56)"/><path class="cls-6" d="M17.12,163.23c.45-5-4.12-14.94,1.19-16.76,2.77,3.56,3,11.26,2.11,16.06-.88,1.53-1.52.94-2.33,1.37A.68.68,0,0,1,17.12,163.23Z" transform="translate(-6.42 -5.56)"/><path class="cls-6" d="M15.86,118.79a5.34,5.34,0,0,1,2.76-1.09c3,3.56,3.61,14.74-1.69,14.24C17.07,126.27,15.11,122.28,15.86,118.79Z" transform="translate(-6.42 -5.56)"/><path class="cls-6" d="M17.31,104.24c-1.24-3.22-1.39-7.88-1.46-11.63,1.18-.82,1.91-1.47,3.48-1.18C20.45,95,22.67,104.18,17.31,104.24Z" transform="translate(-6.42 -5.56)"/><path class="cls-6" d="M19.81,262.71c.7,6.43,3.27,11.76-2,16.4-2.39-.86-1.26-3.36-1.25-6.22,0-5.23-1.68-8.21-.09-10.92C16.13,261.81,18.5,261.07,19.81,262.71Z" transform="translate(-6.42 -5.56)"/><path class="cls-6" d="M17.09,330.64c4.82,1.26,5.09,13.53-.59,14.49C15.55,341.07,15.61,332.84,17.09,330.64Z" transform="translate(-6.42 -5.56)"/><path class="cls-6" d="M18.09,78.2c-2.18-1.81-2.31-9.73-2.18-13.9.61-.28,1.45-.37,1.69-1C21.16,65.46,23.58,76.66,18.09,78.2Z" transform="translate(-6.42 -5.56)"/><path class="cls-6" d="M18,51.94c-1.86-1.32-4.87-13.52-1.14-14.85,4.2,1.2,5.44,11.59,3.41,14.77C20,51.89,18.21,51.91,18,51.94Z" transform="translate(-6.42 -5.56)"/></g><path class="cls-7" d="M93.69,366s-1.93-39.27-1-60.48S89.84,205.25,105.26,186s65.56-10.6,78.1,6.75S204.57,232.24,206.5,294,208.42,366,208.42,366Z" transform="translate(-6.42 -5.56)"/><g class="cls-5"><path class="cls-6" d="M148.08,311.72c-3.08-4.26-3-14.38-1.76-19.52a15.73,15.73,0,0,1,3.61,3.36C149,301.32,153.53,308.7,148.08,311.72Z" transform="translate(-6.42 -5.56)"/><path class="cls-6" d="M145.81,254.67c1.14.92,2.31,1.8,3.53,2.62.91,6.85,4.27,15.21-2.44,15.81C147,266.51,144.27,260.78,145.81,254.67Z" transform="translate(-6.42 -5.56)"/><path class="cls-6" d="M147.23,239.36c.27-3.94-5.23-17.69,1.53-15.74C150.5,226.69,153.33,238.78,147.23,239.36Z" transform="translate(-6.42 -5.56)"/><path class="cls-6" d="M148.5,377.48c-2.45-.48-5.72-21.32,0-20.11C149.07,362.57,154.74,374.71,148.5,377.48Z" transform="translate(-6.42 -5.56)"/><path class="cls-6" d="M146.92,350.29c-2.08-5.24-1.11-12.92-.8-17.36C151.14,333.73,152.91,348.29,146.92,350.29Z" transform="translate(-6.42 -5.56)"/><path class="cls-6" d="M145.24,209.57c-.32-7.93-1-9,.93-14.83a3.94,3.94,0,0,1,3.45,1.86c-.2,5.84,1.31,10.27-3.27,13.22A1.62,1.62,0,0,0,145.24,209.57Z" transform="translate(-6.42 -5.56)"/><path class="cls-6" d="M130.38,293c.33-6.12-3.19-11-1.36-15.77,1.61-.57,2.2.23,3.28.36C132.5,281.09,137.68,294.27,130.38,293Z" transform="translate(-6.42 -5.56)"/><path class="cls-6" d="M130.32,261.19c-2-5.91-3.5-13-.47-17.17,1.06-.41.79.94,1.85.53,1.08,5.68,2,9.86.4,16.43Z" transform="translate(-6.42 -5.56)"/><path class="cls-6" d="M130.07,322c-.33-4-2.87-13.36-.68-16.24C133.05,306.63,137.85,322.37,130.07,322Z" transform="translate(-6.42 -5.56)"/><path class="cls-6" d="M131.7,381.37c-2.54-.51-1.44-3.65-1.72-5.87-.42-3.46-1.18-7.58-.49-10.82a3.34,3.34,0,0,1,3.5-.8C133.8,368.46,137.31,378.3,131.7,381.37Z" transform="translate(-6.42 -5.56)"/><path class="cls-6" d="M130.68,355c-1.9-3.66-1.79-11.05-2.16-17.78a2.77,2.77,0,0,1,4.31-.14C133,344.87,137,350.69,130.68,355Z" transform="translate(-6.42 -5.56)"/><path class="cls-6" d="M113,345.56c-3.41-4.37-.32-9.72-2.21-15.23.77-.83,1.07-2.05,2.64-2.21,0,.36.47.23.75.29C115.87,332.76,117.76,342.11,113,345.56Z" transform="translate(-6.42 -5.56)"/><path class="cls-6" d="M112.55,305.39c-.68-4.72-5-12,.32-13.7C115.65,293.49,118,305.93,112.55,305.39Z" transform="translate(-6.42 -5.56)"/><path class="cls-6" d="M110.58,225.18c1.08-.75,1.9-.41,3.2-.39,1.74,4.29,2.28,12,1,15.82C109,239.84,111.36,229.09,110.58,225.18Z" transform="translate(-6.42 -5.56)"/><path class="cls-6" d="M114.29,274.86c-3.41-.18-3.17-4.06-3.24-6.94-.11-4.63-1.23-6.17-1.13-9.77,1-.39,1.43-1.3,3.12-1.13C115.91,263.52,117.69,269.17,114.29,274.86Z" transform="translate(-6.42 -5.56)"/><path class="cls-6" d="M110.92,208.12c-.29-1.47-.94-10.43-1-11.83a11.54,11.54,0,0,1,0-1.95c0-.16.17-1.64.32-1.65,5.88-.2,4.88,5.44,5.46,11.48.11,1.18.71,2.16.56,3.36a4.94,4.94,0,0,1-.37,1.49C115.6,209.56,111.18,209.43,110.92,208.12Z" transform="translate(-6.42 -5.56)"/><path class="cls-6" d="M128.22,224.81c-1.25-2.54-2.13-15.12,2.12-14.86,1.57,1.46,2,12.17,1.44,14.44C130.65,224.58,129.26,225.58,128.22,224.81Z" transform="translate(-6.42 -5.56)"/><path class="cls-6" d="M95.91,365.18c-.59-2.7-1.17-5.59-1.73-9.28C98.84,349.17,102.43,365.18,95.91,365.18Z" transform="translate(-6.42 -5.56)"/><path class="cls-6" d="M95.64,336c.45-5-4.12-14.93,1.2-16.76,2.76,3.56,3,11.26,2.1,16.07-.88,1.53-1.52.94-2.33,1.36A.68.68,0,0,1,95.64,336Z" transform="translate(-6.42 -5.56)"/><path class="cls-6" d="M94.38,291.59a5.34,5.34,0,0,1,2.76-1.09c3,3.56,3.61,14.73-1.69,14.24C95.59,299.06,93.63,295.07,94.38,291.59Z" transform="translate(-6.42 -5.56)"/><path class="cls-6" d="M95.83,277c-1.23-3.21-1.39-7.88-1.46-11.63,1.18-.81,1.91-1.47,3.48-1.17C99,267.8,101.19,277,95.83,277Z" transform="translate(-6.42 -5.56)"/><path class="cls-6" d="M96.61,251c-2.18-1.82-2.31-9.73-2.18-13.9.61-.29,1.45-.37,1.69-1C99.68,238.25,102.1,249.46,96.61,251Z" transform="translate(-6.42 -5.56)"/><path class="cls-6" d="M96.49,224.74c-1.86-1.33-4.87-13.53-1.14-14.85,4.2,1.2,5.44,11.58,3.41,14.76C98.52,224.68,96.73,224.71,96.49,224.74Z" transform="translate(-6.42 -5.56)"/><path class="cls-6" d="M200.76,307.44c.33-6.11-3.19-11-1.36-15.77,1.61-.57,2.2.23,3.28.36C202.88,295.55,208.06,308.73,200.76,307.44Z" transform="translate(-6.42 -5.56)"/><path class="cls-6" d="M200.71,275.65c-2.06-5.91-3.51-13-.48-17.17,1.06-.41.79.95,1.85.54,1.08,5.67,2,9.85.4,16.42Z" transform="translate(-6.42 -5.56)"/><path class="cls-6" d="M200.45,336.5c-.33-4-2.87-13.36-.68-16.23C203.43,321.09,208.23,336.84,200.45,336.5Z" transform="translate(-6.42 -5.56)"/><path class="cls-6" d="M201.06,369.5c-1.9-3.66-1.79-11-2.15-17.78a2.76,2.76,0,0,1,4.3-.14C203.37,359.33,207.38,365.16,201.06,369.5Z" transform="translate(-6.42 -5.56)"/><path class="cls-6" d="M163.44,205.05c.15-5.22-3.45-15,2.2-16.2C168,193.07,169.57,204.63,163.44,205.05Z" transform="translate(-6.42 -5.56)"/><path class="cls-6" d="M182.59,384c-1.46-1.28-2.88-13.83-.76-17,.57-.71,1.82.09,2.88,0C185.84,373.25,187.67,381.5,182.59,384Z" transform="translate(-6.42 -5.56)"/><path class="cls-6" d="M183.38,360c-3.41-4.37-.32-9.72-2.21-15.23.77-.83,1.07-2,2.64-2.21.05.36.47.24.75.29C186.25,347.23,188.15,356.58,183.38,360Z" transform="translate(-6.42 -5.56)"/><path class="cls-6" d="M182.93,319.85c-.68-4.72-5.05-12,.32-13.7C186,308,188.37,320.39,182.93,319.85Z" transform="translate(-6.42 -5.56)"/><path class="cls-6" d="M181,239.64c1.08-.74,1.9-.41,3.2-.38,1.74,4.28,2.28,12,1,15.81C179.41,254.3,181.74,243.55,181,239.64Z" transform="translate(-6.42 -5.56)"/><path class="cls-6" d="M184.67,289.32c-3.41-.18-3.16-4.06-3.24-6.94-.11-4.63-1.23-6.17-1.13-9.77,1-.39,1.43-1.3,3.12-1.13C186.29,278,188.07,283.63,184.67,289.32Z" transform="translate(-6.42 -5.56)"/><path class="cls-6" d="M181.3,222.58c-.28-1.46-.94-10.43-1.05-11.83a11.54,11.54,0,0,1,0-1.95c0-.16.17-1.64.32-1.64,5.88-.21,4.88,5.43,5.46,11.47.11,1.18.71,2.16.56,3.36a5.08,5.08,0,0,1-.37,1.5C186,224,181.56,223.89,181.3,222.58Z" transform="translate(-6.42 -5.56)"/><path class="cls-6" d="M198.61,239.28c-1.26-2.55-2.14-15.13,2.11-14.87,1.57,1.46,2.06,12.18,1.44,14.44C201,239,199.64,240,198.61,239.28Z" transform="translate(-6.42 -5.56)"/><path class="cls-6" d="M166.29,369.64c-.59-2.69-1.16-5.59-1.73-9.28C169.22,353.64,172.81,369.65,166.29,369.64Z" transform="translate(-6.42 -5.56)"/><path class="cls-6" d="M166,350.49c.44-5-4.12-14.94,1.19-16.77,2.76,3.56,3,11.27,2.1,16.07-.88,1.53-1.52.94-2.33,1.36A.67.67,0,0,1,166,350.49Z" transform="translate(-6.42 -5.56)"/><path class="cls-6" d="M164.76,306.05a5.34,5.34,0,0,1,2.76-1.09c3,3.56,3.61,14.73-1.69,14.24C166,313.53,164,309.53,164.76,306.05Z" transform="translate(-6.42 -5.56)"/><path class="cls-6" d="M166.21,291.49c-1.23-3.21-1.39-7.88-1.46-11.63,1.18-.81,1.91-1.47,3.48-1.17C169.35,282.26,171.57,291.44,166.21,291.49Z" transform="translate(-6.42 -5.56)"/><path class="cls-6" d="M130.31,180.45c4.83,1.27,5.1,13.54-.58,14.49C128.78,190.89,128.84,182.65,130.31,180.45Z" transform="translate(-6.42 -5.56)"/><path class="cls-6" d="M167,265.46c-2.18-1.82-2.31-9.73-2.18-13.9.61-.28,1.45-.37,1.69-1C170.06,252.71,172.48,263.92,167,265.46Z" transform="translate(-6.42 -5.56)"/><path class="cls-6" d="M166.87,239.2c-1.86-1.33-4.87-13.53-1.14-14.85,4.2,1.2,5.44,11.58,3.41,14.77C168.9,239.14,167.11,239.17,166.87,239.2Z" transform="translate(-6.42 -5.56)"/></g></g></g></g></g></svg>