<svg xmlns="http://www.w3.org/2000/svg" viewBox="0 0 300.59 476.6"><defs><style>.cls-1{isolation:isolate;}.cls-2{opacity:0.7;mix-blend-mode:multiply;}.cls-3{fill:#f9b295;}</style></defs><title>fix-right</title><g class="cls-1"><g id="Layer_2" data-name="Layer 2"><g id="Layer_2-2" data-name="Layer 2"><g class="cls-2"><path class="cls-3" d="M68,0H86.88c0,.3,0,.6,0,.9.11,4.92-.07,9.84.29,14.76.27,3.76.1,7.55.27,11.34.22,5,.29,10,.37,14.93.06,3.84-.13,7.68-.17,11.52-.1,8.82-.24,17.65.13,26.48.3,7.07.16,14.16.35,21.25.16,6.06.1,12.14.06,18.21-.09,15.5.26,31-.27,46.5-.18,5.28,0,10.56-.33,15.84-.35,6.53.2,13.06,0,19.6-.13,5.16,0,10.34,0,15.51a11.43,11.43,0,0,0,.48,4.07,4.78,4.78,0,0,1,.07,2.49,27,27,0,0,0-.23,4.49c-.07,3,0,6-.25,9-.3,3.29.24,6.58.36,9.88a27.71,27.71,0,0,1,0,4.82,11.66,11.66,0,0,0-.29,2.66,103.83,103.83,0,0,1,.08,14.22c-.22,4.07-.26,8.14-.42,12.21A144.22,144.22,0,0,0,87.48,299c.24,2.55-.61,5.1,0,7.67a17.27,17.27,0,0,1,.32,3.75c.09,5.05-.16,10.08-.3,15.12,0,2,0,4,0,5.95.06,2.39-.33,4.79.25,7.16a3.31,3.31,0,0,1-.08,1.07,38,38,0,0,0,0,7.54,22.41,22.41,0,0,1-.07,5.9c-.28,1.51.39,3.08-.26,4.55.63,1.45.47,3.06.67,4.59a12.38,12.38,0,0,1,0,5.18,14.84,14.84,0,0,0-.31,6c.31,3.39.8,6.76.81,10.19a82,82,0,0,0,.28,11,5.67,5.67,0,0,1,0,2.32,10.28,10.28,0,0,0-.07,4.45,12.43,12.43,0,0,1,.1,4.12,24.22,24.22,0,0,0-.24,4.65c0,3,.12,6,.22,9,.29,9,.1,18,.29,27,.21,10,.31,20.07-.19,30.09-2.15,0-4.3,0-6.45-.06-1.45,0-1.46,0-1.46-1.73,0-4.38,0-8.77,0-13.16a8.43,8.43,0,0,0-.34-2.65,10.63,10.63,0,0,1-.19-5,12.89,12.89,0,0,0,.21-2.31c-.08-3.18-.47-6.34-.35-9.53a15.55,15.55,0,0,0,0-2.16,31,31,0,0,1,0-8.6,2.36,2.36,0,0,0,0-1.06,10.19,10.19,0,0,1-.28-3.39c0-1.73,0-3.46-.21-5.2a12.39,12.39,0,0,1,.4-5.86,1.35,1.35,0,0,0,0-1.36,3.69,3.69,0,0,1-.36-2.93,23.35,23.35,0,0,0,.2-3.23c.06-9.79,0-19.57-.53-29.35-.21-4.12-.52-8.26-.43-12.41a5.77,5.77,0,0,0,0-.72c-.45-4.36-.38-8.74-.53-13.11a97.18,97.18,0,0,1,.2-12.42c.24-2.56.26-5.17.26-7.72,0-5.28.68-10.52.2-15.83-.33-3.74-.11-7.55-.35-11.33a41.47,41.47,0,0,1,.2-6.1,22.22,22.22,0,0,0-.21-6.09c-.37-1.92.39-3.78.32-5.71-.06-1.45-.29-2.86-.35-4.3C78.52,278,79,273,79,267.92c0-.12,0-.24,0-.36.38-3.27.43-6.57.55-9.86s-.09-6.48-.2-9.72c-.28-7.86,0-15.73-.33-23.6-.23-4.79-.06-9.61-.09-14.42,0-8.23.12-16.47-.31-24.69,0-.42,0-.84-.07-1.26a41.7,41.7,0,0,1-.12-9.34,60.31,60.31,0,0,0-.21-12,80.81,80.81,0,0,1-.85-10.54c.06-5.77.47-11.52.33-17.29a23.32,23.32,0,0,1,.23-4.49,9.56,9.56,0,0,0-.06-2.87c-.3-2.18-.55-4.38-.83-6.57a2.37,2.37,0,0,0,0-.53,39.77,39.77,0,0,1-.06-9.63,35.13,35.13,0,0,0,.39-5.53c0-.61,0-1.24-.51-1.71a29.19,29.19,0,0,0-.44,6.69c0,3,0,6,0,9,0,.57-.17,1.21.29,1.69a10.19,10.19,0,0,1-.42,3.89,2.78,2.78,0,0,0-.07,1.4,67.65,67.65,0,0,1,.79,9.65c.15,4.14-.07,8.27-.22,12.41s0,8.54-.06,12.8c0,.54.17,1.18-.14,1.58a3.85,3.85,0,0,0-.47,2.57c0,3.54.2,7.11,0,10.63-.22,3.16-.66,6.29-.63,9.47,0,.2,0,.23-.18.11-.24-.4.1-1-.32-1.41-.62,1.68-.64,2.68.11,4a3,3,0,0,1,.39,1.86c-.16,2.45-.32,4.9-.29,7.36a25.08,25.08,0,0,1-.15,2.87c-.3,3-.79,6-.79,9.11,0,5.64.23,11.27.57,16.9.23,3.76.47,7.53.62,11.29.17,4.14.51,8.26.42,12.41-.08,3.73,0,7.46,0,11.18,0,.48-.17,1.07.12,1.4a3.07,3.07,0,0,1,.48,2c.08,1.16,1,2.27.18,3.51,0,.08.24.38.27.6a9.94,9.94,0,0,1,.24,3.88c0,.19,0,.62-.27.49-1.09-.55-.65.48-.69.9a5.78,5.78,0,0,0,0,1.61c.5,2.91.3,5.86.49,8.79a42.31,42.31,0,0,1-.18,9.34,4.36,4.36,0,0,0,0,1.08,106.57,106.57,0,0,1,.89,12c0,.84.1,1.68.14,2.51a76.73,76.73,0,0,1,0,9.71c-.17,2.3-.82,4.58-.15,6.94a17.3,17.3,0,0,1,.15,6.42c-.3,3.09-.8,6.15-.8,9.29s.49,6.1.37,9.16a3.29,3.29,0,0,0,0,.54,25.3,25.3,0,0,1,0,6.62A28.34,28.34,0,0,0,76.8,363a16,16,0,0,1-.47,5.16,4.13,4.13,0,0,0,.07,3,4.28,4.28,0,0,1,.29,2.94,26.5,26.5,0,0,0-.48,4.81c.06,8-.17,16,.3,23.94.15,2.53-.32,5-.32,7.54,0,2.7-.21,5.4-.41,8.08-.27,3.65-.29,7.3-.46,10.95-.34,7.68.1,15.37.27,23.05.11,4.73.4,9.46.6,14.19,0,1.31.07,2.62.23,3.94.18,1.54.09,3.12.12,4.68,0,.68-.28,1-.86,1-.42,0-.84,0-1.26,0l-8.64.07c0-2.46.11-4.91.25-7.37.24-4,.1-8,.33-12.06.26-4.54,0-9.11.31-13.68.28-3.64.11-7.31.3-11,.32-5.93.13-11.88.29-17.82.19-7.08.23-14.17-.13-21.26-.29-5.68-.07-11.4-.31-17.1-.17-4.25-.39-8.51-.46-12.77a49.39,49.39,0,0,0-.34-5,115.63,115.63,0,0,1-.79-12.18c-.1-7.32-.21-14.65.19-22,.14-2.51-.09-5-.19-7.55-.15-3.77.11-7.56.15-11.33.14-10.87.33-21.74-.14-32.62-.25-5.81-.41-11.62-.64-17.43-.2-5.09-.46-10.18-.63-15.27q-.34-10.8.29-21.61a3.31,3.31,0,0,1,.06-.54,17.07,17.07,0,0,0,0-4.46c-.15-2.15-.51-4.27-.48-6.44.08-5.7.1-11.38.56-17.08.44-5.3.76-10.64.76-16a5.77,5.77,0,0,1,0-.72c.55-4,.29-8.14.49-12.21a104.93,104.93,0,0,0-.15-13.5c-.27-3.4-.21-6.83-.3-10.25-.22-8.22-.22-16.46.29-24.67a43,43,0,0,1,.82-7.66,11.87,11.87,0,0,0,.19-4.26c-.26-2.24-.22-4.54-.38-6.81a3.67,3.67,0,0,1,.44-2.55c1.31-1.35.83-2.8.26-4a4.12,4.12,0,0,1-.14-3.39,3.4,3.4,0,0,0,.12-1.87c-.14-1-.66-2-.24-3a10.85,10.85,0,0,0,.45-3.89c0-1.51-.3-3-.29-4.48.08-7.32-.22-14.65.22-22,.25-4.25,0-8.52.32-12.78.25-3.4.09-6.83.29-10.25.28-4.91.07-9.84.33-14.76C68.11,7.22,68,3.61,68,0Z"/><path class="cls-3" d="M280.67,0h12.59c0,9.61-.14,19.22.35,28.83,0,.24,0,.48,0,.72.29,4.41.62,8.83.86,13.25.18,3.17.44,6.33.59,9.5.21,4.85.58,9.7.64,14.54.11,8.11.24,16.21-.17,24.32-.27,5.21-.42,10.42-.65,15.63-.19,4.5-.67,8.95-.95,13.43-.31,4.9-.61,9.82-.62,14.73,0,13.94-.28,27.87.19,41.81.31,9.12-.1,18.26.32,27.39.26,5.63-.08,11.28.31,16.92.27,4.07,0,8.16.31,12.24.27,3.28.06,6.59.3,9.89.27,3.76.22,7.56.31,11.33.3,12.13,0,24.27.34,36.4.19,6.42.17,12.83.61,19.24.36,5.2.59,10.4,1,15.6.25,3.16.43,6.33.58,9.49.28,5.57.42,11.15.66,16.72s.11,11,.27,16.56c.28,9.9,0,19.82.36,29.73.16,4.68,0,9.38,0,14.07a15,15,0,0,0,.07,2.33c.61,3.73.58,7.52.83,11.28.28,4.24,0,8.51.31,12.77s.14,8.76.3,13.14c.28,8.1.15,16.23,0,24.34l-11.92.05c.06-3.3-.09-6.6.24-9.9a20,20,0,0,0,.34-5c-.52-3.46-.26-7-.48-10.42-.31-4.9-.13-9.83-.37-14.75-.21-4.08,0-8.16-.27-12.24-.27-4.49-.19-9-.34-13.5-.19-5.58,0-11.18-.06-16.77,0-3.49.16-7-.09-10.46-.31-4.19-.26-8.38-.46-12.57-.29-5.93.09-11.88.19-17.83.17-10.57.21-21.14-.28-31.71,0-.36,0-.72-.07-1.08a103.61,103.61,0,0,1-.82-11.27c-.1-7.93,0-15.87-.08-23.81a59.19,59.19,0,0,0-.39-7.17q-.6-4.81-.75-9.65c-.16-4.56-.3-9.1-.64-13.65q-.43-5.82-.64-11.66-.29-8.26-.64-16.53c-.19-4.2-.14-8.4-.27-12.6-.26-8.22-.12-16.46-.37-24.68s0-16.21-.25-24.33c-.23-7.54-.31-15.1-.13-22.66q.12-5.4.25-10.8c.19-7.51.08-15,.09-22.54a3.86,3.86,0,0,0-.22-1.94,2.77,2.77,0,0,1,0-2.4,6.61,6.61,0,0,0,.3-3.32c-.24-1.84-.9-3.76.07-5.62.14-.27,0-.58,0-.88a16.05,16.05,0,0,1,.1-5.53,6.63,6.63,0,0,0,0-2.51,46.4,46.4,0,0,1-.52-5.53c-.05-4.08-.45-8.15-.35-12.23,0-.36-.07-.72-.09-1.08-.16-2.37-.84-4.71-.25-7.12a6.42,6.42,0,0,0,0-1.08c.23-4.28-.45-8.49-.72-12.73a44.13,44.13,0,0,1,0-8.6,4.61,4.61,0,0,0-.24-2.47,6.16,6.16,0,0,1-.28-3.18,90.74,90.74,0,0,0,0-14.56,24.88,24.88,0,0,1,0-4.14c.3-3.15.42-6.32.8-9.47A10.17,10.17,0,0,0,280.67,0Z"/><path class="cls-3" d="M216.81,0h8.49c.44,2.66.34,5.38.66,8.05.11.94-.38,1.73-.31,2.64.14,2,1.18,4,.38,6,.63,1.88.35,3.91.68,5.83a12,12,0,0,1,.13,4.29,10.94,10.94,0,0,0,.09,4.42c.45,2.12,0,4.33.57,6.43a1.23,1.23,0,0,1-.06.86c-.91,1.08-.58,2.4-.49,3.6.29,3.7.54,7.41.55,11.13,0,9.44,0,18.87,0,28.31a7.93,7.93,0,0,1-.11,1.62,11.43,11.43,0,0,0-.11,3.4c.35,3.64.46,7.31.51,11,.09,6.6.17,13.21-.17,19.82-.21,4.13-.52,8.25-.78,12.37-.23,3.65-.6,7.28-.56,10.94,0,1.44.08,2.9,0,4.33-.32,3.52-.39,7.06-.52,10.59-.21,5.52-.09,11.06-.09,16.59a17.32,17.32,0,0,0,.23,2.68,20.19,20.19,0,0,1,0,5.21,6.31,6.31,0,0,0-.26,2.55,26.09,26.09,0,0,1,.58,6.05,90.55,90.55,0,0,1-.2,10.8,34.83,34.83,0,0,0,.19,5.2c.14,3.41.08,6.82.08,10.24,0,1.06.14,2.18-.68,3-.35.36-.05.8,0,1.18A28.4,28.4,0,0,1,226,230a7.12,7.12,0,0,0,.16,4.21,5.31,5.31,0,0,1,.16,2c.16,3.73-.37,7.42-.34,11.15.06,6.07,0,12.15,0,18.22,0,4.09.13,8.19-.09,12.26-.26,4.61-.17,9.23-.53,13.84-.12,1.62.32,3.2.3,4.84-.1,6.36.13,12.72-.24,19.09-.24,4.19-.11,8.42-.11,12.62,0,11.17,0,22.34.59,33.5.21,3.95.5,7.91.42,11.87a4.29,4.29,0,0,0,0,.72c.48,3,.32,6.1.5,9.15.42,6.9-.16,13.8-.3,20.71a130.11,130.11,0,0,0,1.07,18.1q.72,6.06.87,12.17c0,1.75-.24,3.47-.27,5.2-.06,3.31,0,6.62-.07,9.92a10.55,10.55,0,0,0,.47,3.54,4.74,4.74,0,0,1,0,3c-.72,2.22-.45,4.48-.31,6.76a38.46,38.46,0,0,1,.34,6.44,41.66,41.66,0,0,0-.47,7l-12.92,0c0-2.77,0-5.52.25-8.27.23-3.41.06-6.83.29-10.26.29-4.3,0-8.63.32-12.95.3-4.48,0-9,.31-13.5s0-9,.33-13.49c.27-3.76,0-7.56.31-11.34.26-3.21.22-6.47.29-9.7.12-5.88.46-11.76.37-17.65,0-2-.28-4.05-.28-6.1,0-3.05-.06-6.11-.22-9.17-.28-5.2-.4-10.42-.68-15.63-.17-3.29-.06-6.59-.28-9.89-.28-4.3-.05-8.63-.32-13-.29-4.61-.08-9.24-.3-13.86-.34-7.13,0-14.29-.34-21.43-.31-5.88.3-11.76.23-17.64,0-1.81,0-3.61,0-5.41-.1-20.25.36-40.5-.23-60.75-.17-5.87-.34-11.74-.62-17.61-.19-4.13-.54-8.26-.42-12.41,0-.48-.07-1-.08-1.44-.09-3.25-.66-6.53.28-9.75a3,3,0,0,0-.09-.87,126,126,0,0,1-.72-13.46c.11-5.58-.16-11.16.28-16.74.24-3,.06-6.11.29-9.17.27-3.52.1-7.07.33-10.61.26-4.07.18-8.16.27-12.23.14-6.55.43-13.09.41-19.63,0-3.07.31-6.11.4-9.17a22.61,22.61,0,0,1,0-3.68,23.08,23.08,0,0,0,.23-4.31q0-6.21,0-12.44a13,13,0,0,1,.65-4.4c.1-.27.28-.69.18-.83a3.35,3.35,0,0,1-.08-3.39.62.62,0,0,0-.05-.5,4.93,4.93,0,0,1-.53-2.77c0-2.27-.69-4.62.4-6.8a.76.76,0,0,0,0-.69,2.91,2.91,0,0,1,.06-2.26,8.08,8.08,0,0,0,.35-2.65,10.74,10.74,0,0,1,.26-3.57,1.2,1.2,0,0,0-.18-1.18c-.45-.54-.3-1.22-.38-1.86-.12-1,.53-1.89.21-2.82a4.61,4.61,0,0,1,.28-3.28,6.89,6.89,0,0,0,0-4.86,3.73,3.73,0,0,1-.39-1.7A75.79,75.79,0,0,0,216.81,0Z"/><path class="cls-3" d="M119,476.21c.28-5.1.13-10.21.36-15.3q.16-3.78.21-7.55c.07-6.37.28-12.73.43-19.09.09-4.08,0-8.18.28-12.24.24-3.42,0-6.85.32-10.25.24-3.12.07-6.25.3-9.35.45-6.13.24-12.25.19-18.38,0-5.15-.33-10.3-.59-15.45-.17-3.6-.16-7.2-.38-10.79-.18-2.94-.07-5.88-.26-8.81-.31-4.92-.09-9.86-.36-14.76-.26-4.63-.12-9.25-.27-13.87-.65-20.19-.28-40.38-.17-60.57.05-8.11.26-16.22.11-24.32-.12-6.61,0-13.22-.3-19.82-.13-3.17-.1-6.36-.28-9.53-.25-4.61-.38-9.22-.66-13.82-.27-4.39-.17-8.77-.27-13.15a8.54,8.54,0,0,0-.15-2.14,1.42,1.42,0,0,1,0-.88c.94-1.85.06-3.71,0-5.56,0-.3-.09-.6-.1-.89q-.61-10.08-.26-20.17c.12-3.24,0-6.49.3-9.71s.05-6.25.31-9.35c.33-4.09,0-8.18.32-12.24.32-4.5,0-9,.31-13.5.27-4.2.06-8.41.32-12.6.18-2.82.1-5.64.28-8.45.44-6.75.28-13.51.26-20.26a14.84,14.84,0,0,1,.5-4.26c.26-.86.55-1.67-.08-2.5a.83.83,0,0,1-.05-.69c.94-1.76-.15-3.46-.09-5.2a21.55,21.55,0,0,0-.19-5.38c-.07-.29-.09-.75.13-.83.91-.33.63-.89.31-1.49a1.59,1.59,0,0,1,0-1.38,9.37,9.37,0,0,0,.43-3.54,9.12,9.12,0,0,1,.23-2.85,1.86,1.86,0,0,0,0-1.41,5,5,0,0,1-.13-4,1,1,0,0,0,0-.69c-.61-1.4-.1-2.66.34-4a5.34,5.34,0,0,0,.06-3.35c-.88-2.59-.52-5.24-.41-7.85.08-1.73.18-3.47.2-5.2,0-2.95,0-5.89,0-8.84h7.55c0,3.36.59,6.67.83,10,.2,2.87.73,5.77.4,8.61-.25,2.17.35,4.11.48,6.16,0,.24.21.57.13.68-.78,1.11.07,2.13.09,3.19,0,.06.06.12,0,.17-.34,2.29.44,4.47.52,6.72a3.45,3.45,0,0,1-.15,1.6,5.1,5.1,0,0,0-.07,3.65,6.65,6.65,0,0,1,.24,2.13A18.21,18.21,0,0,0,131,47c.16.84.43,1.6-.42,2.2-.33.24-.21.77-.17,1.19.36,3.81.46,7.65.61,11.48.27,6.78.44,13.58.18,20.35-.25,6.37-.43,12.74-.14,19.09.38,8,.23,16.09.19,24.14a115.75,115.75,0,0,1-.85,12.89c-.14,1.25-.2,2.52-.23,3.76-.08,3.23-.55,6.44-.36,9.7.14,2.37-.13,4.78-.22,7.17,0,.42-.14.83-.15,1.24-.18,6.78-.49,13.56-.37,20.35a37.08,37.08,0,0,0,.48,5.18,7.92,7.92,0,0,1,0,3.56,12.49,12.49,0,0,0,0,5.64,16.62,16.62,0,0,1,.18,2.33q0,9.47,0,18.93c0,2.64.43,5.26.29,7.91a9.33,9.33,0,0,1-.69,3.65,2.49,2.49,0,0,0-.07,1.72,28.58,28.58,0,0,1,.2,11.21,6.67,6.67,0,0,0,.12,3.13,9.67,9.67,0,0,1,.26,5,8.94,8.94,0,0,0-.11,1.8c-.21,11.83-.4,23.66-.32,35.5,0,4.21-.27,8.4-.42,12.59-.08,2,.11,3.93.1,5.9,0,7.33.2,14.68-.09,22-.37,9.43-.23,18.86-.15,28.29,0,4,.12,8,.3,12.05.22,4.91.32,9.83.65,14.73.54,8.33.75,16.67.48,25-.14,4.44-.27,8.88-.23,13.32,0,2.88.45,5.72.74,8.57s.52,5.6.83,8.39A75.77,75.77,0,0,1,131.8,449c-.17,3.42-.21,6.83-.25,10.25a10.08,10.08,0,0,0,.56,3.87,4.14,4.14,0,0,1,0,3.13,10,10,0,0,0-.35,5.29c.23,1.53.08,3.12.36,4.65Z"/><path class="cls-3" d="M172.13,0h7.56c0,.24,0,.48,0,.72a87.4,87.4,0,0,0,.73,9.3c.15,1.73.12,3.48.34,5.2a10.4,10.4,0,0,1-.05,4.61,2.37,2.37,0,0,0,0,.88c.16,2,1.17,3.95.35,6,0,0,0,.12,0,.17.69,1.93.38,4,.72,6a7.4,7.4,0,0,1,.21,3.72,7,7,0,0,0-.13,4c.58,2.2.12,4.55.64,6.77a1.44,1.44,0,0,1-.14,1.22,3.39,3.39,0,0,0-.41,2.91,48.88,48.88,0,0,1,.45,7.34c.13,5.7.38,11.4.37,17.1,0,1.55-.23,3.11-.22,4.66.07,8.29-.17,16.57.17,24.86q.47,11.5-.14,23c-.21,3.95-.55,7.89-.78,11.83-.21,3.65-.59,7.28-.54,10.94,0,1.2,0,2.41,0,3.61-.17,3.71-.49,7.41-.56,11.12-.11,5.35-.05,10.7-.06,16a19.18,19.18,0,0,0,.22,2.5,15.64,15.64,0,0,1-.08,5.71,4.71,4.71,0,0,0-.12,2,38.44,38.44,0,0,1,.6,6.24c0,6.55,0,13.11,0,19.66a16.53,16.53,0,0,0,.15,2.32,16.71,16.71,0,0,1-.4,6.58,6,6,0,0,0-.17,2.91,33,33,0,0,1,.19,9.83c-.11,1-.63,2.06-.18,3.16a9.06,9.06,0,0,1,.42,3.36c.06,3.49-.27,7-.3,10.44-.07,10.15-.06,20.31-.08,30.47a15.4,15.4,0,0,1,0,1.8c-.48,4.05,0,8.15-.52,12.21-.16,1.36.28,2.72.27,4.12,0,7.5-.07,15-.22,22.51-.24,11.89-.3,23.79.18,35.68l.6,14.19c.21,5.15.49,10.29.68,15.44.26,6.91-.14,13.81-.33,20.71a120.72,120.72,0,0,0,1.05,17.74c.43,3.56.74,7.13.84,10.72.07,2.64,0,5.27-.2,7.91-.21,3.11-.06,6.25-.09,9.38a9.69,9.69,0,0,0,.45,3.35,4.54,4.54,0,0,1,0,3,10.14,10.14,0,0,0-.42,4.78,54.11,54.11,0,0,0,.57,5.71h-.32c-.46-.6-1.07-.34-1.62-.35-3.75,0-7.51,0-11.26,0,0-2.52.08-5,.23-7.55.23-4,0-8,.3-12.06.29-4.72,0-9.48.33-14.22.28-4.25,0-8.52.3-12.78.29-4.06,0-8.16.33-12.24.25-3.1.08-6.23.29-9.35.27-3.88.21-7.8.32-11.7a118.53,118.53,0,0,0-.16-12.78c-.29-3.64-.12-7.31-.31-11-.26-5.15-.4-10.31-.66-15.46-.17-3.47-.07-6.95-.29-10.43-.28-4.25-.06-8.52-.31-12.78-.29-5-.2-10.08-.31-15.13-.21-9.79-.07-19.6-.11-29.4-.11-25,.42-50-.24-75-.15-5.51-.36-11-.6-16.53-.18-4-.54-8-.42-12.06,0-.95-.11-1.91-.17-2.86-.14-2.16-.08-4.33-.08-6.49a1.54,1.54,0,0,1,.23-.83,1.88,1.88,0,0,0,.18-1.52,85.19,85.19,0,0,1-.71-9.84c-.06-6.36-.26-12.73.21-19.09.23-3,0-6.12.3-9.18.26-3.34.09-6.71.31-10.07.28-4.13.2-8.28.28-12.42.14-7,.44-14,.45-21.07,0-3.06.31-6.11.36-9.17a34.13,34.13,0,0,1,.05-3.51,32.58,32.58,0,0,0,.19-3.94q0-6.67,0-13.35a12.08,12.08,0,0,1,.4-3.19c.24-.91.68-1.71,0-2.67-.26-.36-.11-1.05.06-1.57a2.57,2.57,0,0,0,.18-1.4,35.2,35.2,0,0,1-.6-7.67c0-.62-.21-1.35.59-1.64.33-.12.22-.51,0-.74a2.12,2.12,0,0,1-.12-2,10.85,10.85,0,0,0,.39-3.37,9.38,9.38,0,0,1,.26-3.21,1.35,1.35,0,0,0-.08-1.22c-.78-1.13-.46-2.39-.33-3.62a2.24,2.24,0,0,0,.08-1,2.45,2.45,0,0,1-.21-1.22c.06-.34.71.27.53-.43a3,3,0,0,1-.24-1.22.77.77,0,0,1,.08-.34c1-1.63.64-3.33.14-5a7,7,0,0,1-.25-2.12c.05-2.76.12-5.51.27-8.27C172.24,7,172.12,3.49,172.13,0Z"/><path class="cls-3" d="M21.75,0H29c.31,2.19.35,4.41.58,6.61.41,3.86.65,7.74.95,11.61a1.87,1.87,0,0,1-.09,1.05c-.57.73-.28,1.46-.13,2.19s.14,1.34.31,1.94c.46,1.57-.27,3.19.26,4.76.46,1.35,0,2.79.29,4.22.45,2,.75,4.13-.18,6.15a.77.77,0,0,0,0,.52c.73,1.7.5,3.54.63,5.32s1,3.57-.09,5.32a.85.85,0,0,0,0,.36,38,38,0,0,0,.1,4.14,89,89,0,0,1,.46,10c.13,8.28.26,16.57-.14,24.86a123.27,123.27,0,0,0,.14,12.6c.24,4.36.45,8.74.42,13.13,0,3.48-.36,7-.3,10.43.06,3.25-.22,6.48-.45,9.7-.26,3.7-.83,7.38-.81,11.09,0,4.57-.09,9.13-.43,13.67-.26,3.59-.11,7.18-.45,10.77-.28,3-.08,6-.07,9a29.88,29.88,0,0,0,.24,4.12c.36,2.53.85,5.1-.19,7.6a1.74,1.74,0,0,0,.08,1.05,22.35,22.35,0,0,1,.51,5.17c0,3.3,0,6.61,0,9.92,0,2.64-.17,5.31.07,7.93.29,3.24.16,6.47.23,9.71a4.33,4.33,0,0,1-.44,2.43,2.71,2.71,0,0,0-.18,2.35,25.37,25.37,0,0,1,.39,8.91c-.31,2-.68,4.11.11,6.18a6.83,6.83,0,0,1,.12,2.14c.1,2.53-.31,5-.34,7.55-.09,8.58.22,17.17-.21,25.76-.27,5.21,0,10.44-.31,15.66a116.57,116.57,0,0,0,.15,13.86,74.08,74.08,0,0,1-.14,8.81c-.24,5-.19,10-.32,14.94-.22,8.23-.17,16.46.21,24.68.12,2.46.14,4.92.24,7.37.22,5.81.48,11.62.68,17.43.12,3.54.52,7.06.4,10.61a1.94,1.94,0,0,0,0,.54,27.93,27.93,0,0,1,.14,7.36c-.35,3.95-.13,7.91-.45,11.86a55.25,55.25,0,0,0,.16,8.81c.21,2.74.54,5.47.8,8.21.35,3.51.81,7,.85,10.54q0,3.53,0,7c0,2.1-.09,4.19-.22,6.29-.19,3.1-.34,6.25.68,9.26a3.59,3.59,0,0,1-.08,2.46,10.52,10.52,0,0,0-.43,3.36c-.07,2.29.29,4.54.34,6.82l-12.9,0c.07-4.26,0-8.52.25-12.78.3-4.55,0-9.12.33-13.68s0-9,.31-13.5c.29-4.24,0-8.52.32-12.78.26-3.52,0-7.07.31-10.61.26-3.1.25-6.24.29-9.35.12-8.82.31-17.65-.15-26.48-.27-5.27-.36-10.55-.66-15.82-.17-3-.06-6.11-.28-9.17-.27-4-.07-8-.32-12.05-.28-4.43,0-8.88-.3-13.32-.31-5.21-.25-10.45-.3-15.66q-.15-19.83.1-39.66c.21-16.33.36-32.68-.13-49-.21-7.19-.28-14.39-.63-21.58-.17-3.71-.54-7.42-.41-11.15a5.78,5.78,0,0,0,0-.72,72.82,72.82,0,0,1,.05-14.16,4.84,4.84,0,0,0,0-1.26c-.75-5.35-.62-10.75-.87-16.14-.07-1.62.15-3.23.22-4.84.17-4.07,0-8.16.32-12.24.24-2.86.1-5.75.29-8.63.26-3.94.08-7.91.33-11.87.27-4.25.16-8.52.27-12.78.15-6.24.41-12.48.42-18.73,0-3.21.32-6.41.42-9.63.11-3.48.1-7,.19-10.43a7.68,7.68,0,0,0-.06-1.44,19,19,0,0,1,0-5.54c.22-1.78,1-3.52.39-5.42A2.69,2.69,0,0,1,21,54.6c.06-.29.22-.58.11-.87-.91-2.3-.5-4.73-.56-7.12,0-.84-.33-1.81.5-2.47a.54.54,0,0,0,0-.67c-.61-.71-.31-1.45-.07-2.17a4.49,4.49,0,0,0,.23-1.58,19.48,19.48,0,0,1,.43-5c.08-.3.17-.62,0-.85-.71-.81-.4-1.81-.41-2.74s.06-1.87.06-2.81-.32-1.83.18-2.58a4.27,4.27,0,0,0,.47-3.39c-.31-1.62-1-3.17-.69-4.92a13.66,13.66,0,0,0,.27-2.49C21.32,10,21.67,5,21.75,0Z"/><path class="cls-3" d="M2.28,476.21c.44-4.78.21-9.58.51-14.37.24-3.83,0-7.7.15-11.54.2-4.14.1-8.29.35-12.41.16-2.64.14-5.27.22-7.91q.53-17.3.23-34.6c-.1-5.16,0-10.33-.31-15.47-.15-2.88-.06-5.77-.29-8.63-.34-4.3-.26-8.62-.82-12.9-.27-2-.25-4.06-.4-6.09-.45-6-.36-12-.23-18,.08-3.71.2-7.43.23-11.15,0-3.91-.5-7.79-.28-11.7.65-11.16.23-22.34.28-33.51,0-3.9-.27-7.79-.38-11.69C1.4,261.14,1.17,256.05.92,251c-.34-7.25-.77-14.5-.5-21.76.12-3.1.18-6.22.49-9.33A36.28,36.28,0,0,0,.3,210.4a42.44,42.44,0,0,1-.14-8.8c.09-2.14.37-4.28.51-6.43.32-4.66.61-9.32.91-14,0-.12,0-.24,0-.36-.1-3.85.26-7.68.42-11.51.21-5.23.26-10.44.21-15.67q-.06-7.2-.38-14.39c-.24-5.35-.2-10.69-.15-16,0-4.25.33-8.5.61-12.74a32.41,32.41,0,0,1,.7-4.59,8.93,8.93,0,0,0,.13-3,65.25,65.25,0,0,1-.27-8.27c0-.71-.22-1.47.69-1.91.49-.24.44-2.86-.09-3.57a3,3,0,0,1-.14-3.48A2,2,0,0,0,3.43,84a9.31,9.31,0,0,1-.06-4.07,30.49,30.49,0,0,0,0-6.82c-.06-.77-.15-1.54-.15-2.32,0-5-.15-10,0-15,.17-4.62.06-9.25.33-13.85.2-3.48,0-7,.29-10.43.33-4.32,0-8.66.32-13,.4-6.18.1-12.37.24-18.55h9.44a27.61,27.61,0,0,0-.29,2.84c0,.87.6,1.78-.32,2.51-.09.07,0,.46,0,.69a21.45,21.45,0,0,1,0,7.15,7.14,7.14,0,0,0,.23,3.55,1.93,1.93,0,0,1-.17,2,2.2,2.2,0,0,0-.18,2.18c.38,1.28,1,2.56.35,4a1.43,1.43,0,0,0,.15,1,3.36,3.36,0,0,1,.16,1.41c-.09,1.31-.6.07-.94.21,0,1.18,0,2.39,0,3.59,0,.42-.09,1,.09,1.23,1,1.42.59,3,.36,4.47-.34,2.28-1,4.53-.13,6.84.09.27,0,.62.08.89.36,1.11.31,1.95-.82,2.42-.49.21-.57.6,0,1,.15.1.09.66.1,1a24.69,24.69,0,0,0,.09,4,16.64,16.64,0,0,1-.1,5.18c-.08.7-.62,1.52.42,1.93.07,0,.12.33.09.48a33.11,33.11,0,0,0-.24,3.58,30.84,30.84,0,0,0,.31,10.37,63.36,63.36,0,0,1,1.07,12.3q0,6.49-.47,13c-.36,4.72-.51,9.44-.8,14.16-.22,3.42.17,6.84.28,10.25a4.1,4.1,0,0,1-.23,2.29,1.93,1.93,0,0,0-.2,1.48,68.45,68.45,0,0,1,.76,10c-.06,5.28,0,10.56-.28,15.84-.18,3.06,0,6.13,0,9.2,0,.59.17,1.26-.22,1.73a2.35,2.35,0,0,0-.28,2.2,13.07,13.07,0,0,1,.15,2c.15,2.23-.32,4.42-.29,6.64a19.84,19.84,0,0,1,.07,3.37,24.2,24.2,0,0,0-.42,5.71,8.86,8.86,0,0,1,0,1.26c0,.23-.1.6-.32.45-.78-.54-.75.27-.83.67a3.93,3.93,0,0,0,.43,2.59,2.07,2.07,0,0,1,.47,1.09c0,2.23.05,4.46-.11,6.67-.23,3-.57,6.08-.76,9.11a57,57,0,0,0-.18,10c.35,3.14.13,6.34.33,9.52.24,3.71.44,7.41.65,11.12.31,5.62.49,11.26.64,16.89a64.78,64.78,0,0,1-.23,8.81c0,.5-.23,1.17.27,1.49s.39.57.34,1a2.59,2.59,0,0,0,.58,2.31c.17.18.33.42.19.61-.84,1.15-.1,2.29,0,3.41a5.61,5.61,0,0,1-.23,3.3c-.35,0-.35-.68-.78-.43a2.34,2.34,0,0,0-.05,1.23c.33,3,.5,6,.55,8.95,0,3.49,0,7,0,10.46a26,26,0,0,0,.08,3.06c.5,4,.72,8.1.84,12.17.1,3,0,6,0,9a15.13,15.13,0,0,1-.43,4.09,5.71,5.71,0,0,0,0,2.47,22.16,22.16,0,0,1,.7,4.77c-.16,2.26-.57,4.5-.75,6.76a36.43,36.43,0,0,0-.37,7c.19,1.68.2,3.35.26,5,0,.36,0,.73.05,1.08a44.35,44.35,0,0,1,0,10,24.67,24.67,0,0,0-.37,4.47,16.29,16.29,0,0,1-.49,5.52,3,3,0,0,0,.1,2.27,5.4,5.4,0,0,1,.24,3.67,13,13,0,0,0-.19,2c-.13,5.52.21,11.05-.26,16.57-.31,3.75.78,7.47.33,11.26-.24,2-.14,4.06-.29,6.1-.35,4.84-.5,9.7-.69,14.55-.07,1.86,0,3.72,0,5.59,0,1.2-.45,2.37-.23,3.57a26.27,26.27,0,0,1,.21,5.39c-.11,6.67.31,13.32.39,20,0,.24,0,.48,0,.72.32,4.66.66,9.32.6,14ZM1.16,227.28c0-.51.78-1,0-1.66A2,2,0,0,0,1.16,227.28Z"/><path class="cls-3" d="M109.21,0c0,1.38-.87,2.78.08,4.15a.59.59,0,0,1-.19.44c-.76.46-.56,1.22-.44,1.9a19.68,19.68,0,0,1,0,6.08,8.43,8.43,0,0,0,.22,4.43,1.56,1.56,0,0,1-.18,1.66,2.29,2.29,0,0,0-.2,2.34c.23.66.33,1.38.52,2.07a1.36,1.36,0,0,1,0,1.05,2.26,2.26,0,0,0,0,2.34,1.35,1.35,0,0,1,0,1.21c-.38.63-.42-.07-.8-.34.1,1.79-.44,3.61.17,5.11a7.18,7.18,0,0,1,.39,3.45,30.87,30.87,0,0,1-.69,4,3.35,3.35,0,0,0,0,2.1c.47,1.17.31,2.48.62,3.7.17.67-.33.72-.68,1s-1.19.63-.23,1.31c0,0,0,.23,0,.35-.17,3.4.5,6.82-.17,10.21-.11.55-.21,1.06.4,1.34.4.18.24.55.21.91-.19,2.57-.47,5.12-.42,7.71A43.74,43.74,0,0,0,109,77.6,21.87,21.87,0,0,1,109.5,82c.06,3.55.18,7.11,0,10.64-.25,4.18-.5,8.36-.79,12.54a130.89,130.89,0,0,0-.34,15.47c.06,1.25.25,2.5.25,3.76a3.18,3.18,0,0,1-.07,1.25c-.81,1.57-.26,3.13,0,4.67.18,1.25.21,2.52.27,3.76a151,151,0,0,1,0,15.49c-.06,1.08-.13,2.15-.14,3.23,0,3,0,6,0,9,0,1.16.22,2.33-.5,3.45-.37.56-.14,1.52,0,2.29a11.25,11.25,0,0,1,0,3.57,30.33,30.33,0,0,0-.1,5.22,12.84,12.84,0,0,1-.48,5.09.93.93,0,0,0-.06.52c.49,1.87-.17,3.68-.16,5.62-.51-.45,0-1.17-.52-1.58a3.5,3.5,0,0,0,.09,3.54,2.22,2.22,0,0,1,.47,1.28c0,1.62.06,3.26-.1,4.86a33.18,33.18,0,0,0-.2,3.58c0,2-.36,3.93-.52,5.89a64.39,64.39,0,0,0-.25,12.57,19.33,19.33,0,0,1,.09,2.15c0,3.91.25,7.79.59,11.67.18,2.08.18,4.19.29,6.28.14,2.75.39,5.5.41,8.27s0,5.27.25,7.91c.28,2.87-.34,5.74-.23,8.62,0,.67-.28,1.48.55,1.86.24.11.1.42.08.64a2.79,2.79,0,0,0,.58,2.49c.17.17.3.41.16.62-.85,1.27,0,2.53.06,3.77a5.33,5.33,0,0,1-.32,2.89c-.29-.06-.31-.54-.65-.44,0,.08-.15.18-.15.26.17,2.69.35,5.37.53,8.06,0,.54,0,1.08,0,1.62,0,3.54,0,7.09,0,10.64a68.75,68.75,0,0,0,.57,7.87c0,.24.06.48.07.72.36,5.63.36,11.28.32,16.92a7,7,0,0,1-.22,1.59,11.52,11.52,0,0,0,0,5.32,21.19,21.19,0,0,1,.07,7.15,58,58,0,0,0-.68,11.1c.29,3.7.54,7.4.58,11.12a35.62,35.62,0,0,1-.47,5.18,15.17,15.17,0,0,0-.16,2.32,23,23,0,0,1-.55,6.42,2.75,2.75,0,0,0,.08,2.11,5.09,5.09,0,0,1,.37,3.47,43.29,43.29,0,0,0-.34,8.75,41.27,41.27,0,0,1-.07,7.37,28.85,28.85,0,0,0,.09,7.54,21,21,0,0,1,.13,2.87c.14,4.27-.19,8.53-.42,12.78-.26,4.79-.43,9.58-.65,14.36-.17,3.49-.31,7-.14,10.44.23,4.68.06,9.37.29,14,.24,4.91.35,9.83.63,14.73.14,2.34.28,4.67.26,7l-10.69,0c-.07-1.56.16-3.11.23-4.66.18-3.65.09-7.31.31-11,.28-4.85,0-9.72.32-14.58.27-3.58.1-7.19.3-10.8.3-5.5.18-11,.29-16.56.16-8.76.21-17.53-.12-26.3-.23-6.11-.23-12.25-.39-18.37-.08-3.12-.34-6.22-.42-9.34,0-1.6-.11-3.24-.3-4.84a113.45,113.45,0,0,1-.8-12.35c-.07-5.94-.16-11.88.15-17.83a86.28,86.28,0,0,0-.15-11.7c-.31-3.76.17-7.55.19-11.33.06-11.17.37-22.34-.22-33.51-.16-2.81-.13-5.63-.26-8.45-.25-5.39-.38-10.78-.69-16.17-.14-2.45-.17-4.91-.26-7.37a156.71,156.71,0,0,1,.31-20,37.42,37.42,0,0,0-.39-9.64,26.68,26.68,0,0,1-.34-4.47c0-4.86.49-9.68.87-14.51.32-4.06.43-8.14.67-12.2.29-5.09.47-10.19.6-15.28a159.87,159.87,0,0,0-.17-16.38c-.28-3.64-.17-7.31-.29-11-.24-7.68-.18-15.38.3-23a43,43,0,0,1,.8-7.66,11.36,11.36,0,0,0,.32-4.28,63.17,63.17,0,0,1-.27-8.81c0-.28-.08-.63.15-.84,1.48-1.26.86-2.78.26-4.13a3.44,3.44,0,0,1,0-3.34,1.47,1.47,0,0,0,.15-1.3,6.84,6.84,0,0,1-.05-4.7,4.1,4.1,0,0,0,.09-1.42c.07-2.28-.27-4.55-.26-6.82,0-6.49-.22-13,.19-19.46.27-4.36,0-8.76.33-13.13.25-3.41.11-6.84.28-10.26.25-5.33.16-10.68.35-16,.15-4.14,0-8.29.06-12.44Z"/><path class="cls-3" d="M155.15,0h9.12c0,1-.18,1.93-.16,2.85s.46,1.82-.35,2.59c-.07.07.1.44.13.68a20.44,20.44,0,0,1,.16,5.53,11.54,11.54,0,0,0-.12,4.27,4.2,4.2,0,0,1-.21,3.43,1.57,1.57,0,0,0,0,1.4c1,2.07.15,4.34.58,6.47.06.27.14.68-.11.87-.38-.06-.08-.62-.51-.62a22.76,22.76,0,0,1-.26,3.39,2,2,0,0,0,.46,2.11c.56.44.46,1.21.34,1.84-.28,1.52-.29,3.1-.71,4.6a5.66,5.66,0,0,0,0,3,9.84,9.84,0,0,1,.44,3c0,.35.1.84-.21,1-1.07.51-.77,1.46-.73,2.39.05,1.14.11,2.27.22,3.4a33.92,33.92,0,0,1,0,5c-.07,1-.58,2.07.3,3,.16.17.11.71.05,1a43,43,0,0,0-.3,7.18,24.54,24.54,0,0,0,.68,7.66c.76,2.57.64,5.22.85,7.82.34,4.32-.3,8.63-.29,13v.18c-.53,4-.62,8-.83,12-.23,4.5-.13,9,0,13.53a11.73,11.73,0,0,1-.33,4.38,2.77,2.77,0,0,0,0,1.25,97.1,97.1,0,0,1,.88,13.43c0,1.69-.24,3.34-.26,5-.05,4.81,0,9.62-.08,14.43,0,1.41.32,2.88-.55,4.17-.16.23-.05.7-.05,1.06,0,3.67,0,7.34,0,11a6.62,6.62,0,0,1-.08,1.26,27.32,27.32,0,0,0-.54,5.86c0,1.14,0,2.29,0,3.43a1.53,1.53,0,0,1-.34-1,2.21,2.21,0,0,0-.12-1.05,3.68,3.68,0,0,0,0,3.9,2.24,2.24,0,0,1,.4,1.83,12.93,12.93,0,0,0-.21,3.22,58.09,58.09,0,0,1-.66,10.39,27.25,27.25,0,0,0-.3,5c.06,4.14,0,8.28.21,12.42.19,3.11.34,6.23.47,9.34.09,2.16.16,4.32.32,6.47.29,3.94.5,7.89.55,11.85s0,8.17,0,12.26a4.06,4.06,0,0,0,.16,1.76c.52,1.18.12,2.69,1,3.73.06.06,0,.36-.11.49a2.1,2.1,0,0,0,0,2,11.2,11.2,0,0,1,.21,3.75c0,.17-.07.43-.24.37-1.24-.48-.7.69-.69,1.09.07,3.18.45,6.34.35,9.53a2.17,2.17,0,0,0,0,.36,33.58,33.58,0,0,1,0,7.89,14.41,14.41,0,0,0,0,3.41c.46,3.62.76,7.26.86,10.91,0,1.74,0,3.49,0,5.23,0,1.08.43,2.14.2,3.21a17.71,17.71,0,0,0-.21,3.41,19,19,0,0,1-.28,3.75,6.62,6.62,0,0,0,0,3.22c.88,3,.54,6.07.07,9.08a60.42,60.42,0,0,0-.44,12c.19,3.94.68,7.86.27,11.82a26.84,26.84,0,0,0-.32,3.21,35.14,35.14,0,0,1-.68,8.2,2.84,2.84,0,0,0,.26,2.22,3.36,3.36,0,0,1,.28,2.6,25.11,25.11,0,0,0-.51,5.34c-.06,5.41.3,10.82-.25,16.21a3.91,3.91,0,0,0,.14,1.06,34.5,34.5,0,0,1,.36,9c-.24,3.65-.36,7.3-.57,10.95-.27,4.42-.56,8.85-.6,13.29-.07,7.57,0,15.13.27,22.7.1,3.72.5,7.42.38,11.15a3.26,3.26,0,0,0,0,.54c.33,3.4.37,6.81.54,10.22l-10.69,0c0-2.7.1-5.4.25-8.1.26-4.48,0-9,.32-13.5.27-4.12.05-8.27.3-12.41.28-4.55.3-9.13.33-13.68.09-16.53.31-33.05-.2-49.58-.13-4.14-.39-8.27-.44-12.41a51.08,51.08,0,0,0-.32-5.38,85.08,85.08,0,0,1-.78-10.19c0-15.56-.26-31.12.15-46.69.23-8.82.26-17.65-.14-26.49q-.3-6.74-.4-13.49c-.05-3.48-.47-6.95-.35-10.44a2.17,2.17,0,0,0,0-.36c-.51-3.62-.14-7.3-.53-10.95-.23-2.13.09-4.33-.19-6.47a31.45,31.45,0,0,1-.1-5.4c.13-2.87.47-5.73.52-8.6a81.92,81.92,0,0,0-.49-12,61.52,61.52,0,0,1,.29-14c.42-4.05.55-8.12.81-12.17.28-4.25.57-8.51.59-12.75,0-5.75.54-11.49.18-17.26-.26-4.19-.16-8.4-.34-12.6-.18-4.44,0-8.9-.08-13.35,0-5,.1-10,.36-14.94a25.31,25.31,0,0,1,.39-4.1,28.62,28.62,0,0,0,.52-7.5,67.7,67.7,0,0,1-.28-6.83c0-.47-.12-1,.23-1.37,1.3-1.34.88-3,.36-4.37a3.94,3.94,0,0,1-.12-2.91,3.55,3.55,0,0,0,.05-2.73,4,4,0,0,1,0-2.81,6.14,6.14,0,0,0,.31-3.51,19.75,19.75,0,0,1-.18-2.87c.05-9.25-.28-18.5.24-27.75.21-3.65.15-7.32.26-11,.16-5.15.34-10.31.42-15.48C154.92,13.21,154.65,6.6,155.15,0Zm-3.23,225.64c-.54,1.18-.54,1.18-.1,1.8A2.77,2.77,0,0,0,151.92,225.64Z"/><path class="cls-3" d="M271.55,0a65.5,65.5,0,0,1,.36,7c.34,5.51.41,11,.67,16.53.28,5.71.15,11.41.27,17.11.64,31.5.13,63,.29,94.49,0,3.54-.4,7.06-.56,10.58s-.17,7.1,0,10.64c.15,4.2.13,8.41.35,12.6.38,7.21,0,14.42.31,21.61.28,6.31,0,12.62.33,18.91.24,4.87,0,9.74.29,14.59.27,4.5,0,9,.33,13.5.24,3.78,0,7.57.3,11.33s.05,7.45.33,11.16c.22,3.06.11,6.12.27,9.17.37,6.89.42,13.79.69,20.68.26,6.67,0,13.34.27,20,.18,4.8.09,9.61.33,14.4.49,9.91.33,19.83.16,29.73-.08,4.54-.37,9.09-.78,13.63-.19,2.19-.29,4.42-.36,6.63-.17,5.1-.54,10.18-.75,15.27-.1,2.33-.08,4.68-.27,7-.51,6.36-.27,12.73-.21,19.09,0,4.91.31,9.83.59,14.73.22,3.71.15,7.43.56,11.13a5.72,5.72,0,0,1,0,.72c.1,9.07.5,18.13.38,27.21,0,1.8.36,3.57.26,5.38-.08,1.41,0,1.46-1.23,1.45-2.73,0-5.45.12-8.18-.08,0-2.77-.08-5.54,0-8.3.41-11.29.54-22.59.2-33.88-.44-14.42-.22-28.83-.14-43.25,0-5.46.3-10.93.13-16.38-.19-5.95,0-11.9-.32-17.83-.17-3.54,0-7.09-.28-10.61-.31-4.18-.33-8.37-.8-12.54-.27-2.31-.24-4.67-.34-7-.58-13.27-.38-26.55-.37-39.83,0-3.3,0-6.61,0-9.92,0-2.34,0-4.67.21-7,.19-2.56-.26-5.13-.24-7.72.06-6.91-.14-13.83.07-20.74.14-4.56.33-9.12.17-13.68-.13-3.83-.1-7.68-.31-11.51-.5-9.31-.39-18.62-.15-27.92.15-5.89.16-11.77.23-17.65a15.84,15.84,0,0,0-.43-4.09,22.79,22.79,0,0,1-.56-5.7c0-4.15-.15-8.31.12-12.44.25-3.91.26-7.8.18-11.7-.06-3-.42-6-.71-8.94-.07-.71-.18-1.42-.18-2.14,0-4.45,0-8.9,0-13.35a16.85,16.85,0,0,0-.49-4.44,8.81,8.81,0,0,1,0-4.75,3.83,3.83,0,0,0-.1-2.46,9,9,0,0,1-.39-3.72c.32-5.76.45-11.53.28-17.29-.12-3.88-.12-7.79-1.06-11.59a3.64,3.64,0,0,1,0-2.12,9.92,9.92,0,0,0,.06-5.48c-.42-2.2-.74-4.35.11-6.51.63-1.6.05-3.2-.13-4.78a20,20,0,0,1-.18-2.32c0-2.94,0-5.89,0-8.83A42.82,42.82,0,0,0,260.6,31a5,5,0,0,1,.09-2.13,27.22,27.22,0,0,0,.6-8.7c-.27-5.88-.2-11.77,0-17.66,0-.82.15-1.66.2-2.5Z"/><path class="cls-3" d="M181.89,0h10.38c.07,3.9.18,7.8.23,11.7.16,11.84,0,23.68.12,35.52,0,5.89-.29,11.77-.37,17.65,0,.24,0,.48,0,.72-.29,3.76-.78,7.51-.82,11.27-.1,9.19-.16,18.37.16,27.57.22,6.47.38,13,.4,19.45,0,2-.26,3.94-.27,5.92,0,5.95-.06,11.9-.07,17.86,0,1.5-.48,3-.2,4.47a17.53,17.53,0,0,1,.2,3.23c0,3.24,0,6.49,0,9.73a15.33,15.33,0,0,0,.14,2.15,15.86,15.86,0,0,1,0,5.54,6.18,6.18,0,0,0,.14,3.19,6.6,6.6,0,0,1,.37,1.74c.08,2.34.4,4.66.34,7-.11,3.9-.21,7.8-.21,11.69,0,10.8-.61,21.62.48,32.41.35,3.5.53,7,.61,10.57.1,4.62.49,9.22.63,13.83.25,8,.1,16-.28,24,0,.12,0,.24,0,.36-.4,4.35-.35,8.71-.32,13.08,0,3.9.41,7.77.6,11.66s.53,7.9.37,11.87c-.07,1.86-.37,3.69-.28,5.57.14,3.18-.31,6.34-.41,9.52-.06,1.78-.13,3.59-.29,5.38-.36,3.94-.61,7.88-.59,11.84,0,1.91.29,3.84-.25,5.73a1.56,1.56,0,0,0,0,.71,39.55,39.55,0,0,1,.8,7.83c.32,5.68.31,11.39.66,17.07.17,2.57.13,5.16.26,7.73.19,3.65.28,7.32.38,11,.07,2.4.22,4.81.43,7.18.47,5.18.88,10.38,1.08,15.57.18,4.61.39,9.23.41,13.86,0,4.86-.33,9.71-.4,14.58,0,2-.14,4.07-.3,6.1-.27,3.39-.58,6.79-.87,10.18-.24,2.86-.36,5.74-.74,8.58-.17,1.23,0,2.54-.52,3.7L186,476.2c.82-6.75,2-13.44,2.6-20.24.43-4.65.59-9.32.74-14,.22-7.26.08-14.53-.2-21.8-.12-3.35-.5-6.7-.39-10.06,0-.12,0-.24,0-.36-.3-4.3-.65-8.59-.86-12.9-.11-2.27-.33-4.54-.42-6.81-.17-3.89-.62-7.75-.84-11.64-.19-3.52-.42-7.05-.61-10.58-.31-5.62-.58-11.26-.62-16.89,0-6-.1-12,.15-18a196.74,196.74,0,0,0-.24-20.17c0-.18,0-.36,0-.54-.29-2.79-.62-5.58-.84-8.38-.27-3.34-.5-6.68-.62-10-.14-3.9-.21-7.8-.3-11.7-.29-12.67.22-25.35-.33-38-.19-4.32,0-8.64-.28-13-.32-4.91-.1-9.84-.3-14.77a130.86,130.86,0,0,1,.13-13.86c.27-3.94.26-7.91.34-11.87.16-8.17,0-16.35.1-24.52.06-7.57-.21-15.14.2-22.71.24-4.48.23-9,.35-13.49.32-12.43-.12-24.87.28-37.31.33-10.32,0-20.66.31-31,.15-4.67,0-9.36-.13-14-.18-8.7-.27-17.4-.7-26.09-.12-2.34-.29-4.67-.42-7C182.79,9.64,182.29,4.83,181.89,0Z"/><path class="cls-3" d="M142.26,476.21c.41-2.77.85-5.54,1.23-8.32s.74-5.68,1.09-8.52c.18-1.48.41-3,.46-4.45.1-2.58.26-5.16.42-7.72.46-7.39.25-14.78.19-22.16,0-5.15-.33-10.31-.62-15.45-.2-3.47-.46-6.93-.63-10.4-.18-3.76-.58-7.51-.85-11.27-.12-1.79-.2-3.59-.28-5.38-.13-2.52-.29-5-.46-7.54-.35-5-.36-9.94-.84-14.88,0-.12,0-.24,0-.36,0-7-.65-14.06-.27-21.07.33-6.31.23-12.61.2-18.92a109.4,109.4,0,0,0-.84-12.53c-.16-1.36-.27-2.75-.32-4.11-.09-2.82-.29-5.64-.46-8.44-.24-3.84-.07-7.69-.29-11.52-.48-8.46-.11-16.93-.24-25.4-.06-4,.1-8.07-.07-12.08-.21-4.81-.11-9.61-.32-14.41-.52-11.59-.36-23.19-.15-34.78.09-5.1.05-10.21.28-15.3a82.92,82.92,0,0,0,.18-8.63c-.39-7.26-.27-14.53-.16-21.79.07-4.8,0-9.62.31-14.4.22-3.73.14-7.44.26-11.16.54-17.36,0-34.74.38-52.1.21-9.07.23-18.14.13-27.2-.06-4.68-.07-9.37-.29-14-.2-4.31-.33-8.63-.6-12.93s-.5-8.49-1-12.7c-.24-2.08,0-4.22-.55-6.25h10.38c.09,2.21.26,4.43.27,6.64q.08,16.23.07,32.46c0,8.89.09,17.78-.36,26.66a6.7,6.7,0,0,1-.05.9,90.67,90.67,0,0,0-.79,10.91c-.14,8.28-.27,16.57.16,24.86.25,4.66.22,9.35.32,14,.13,5.94,0,11.88-.16,17.83-.22,10.27-.07,20.55-.08,30.83a14,14,0,0,0,.19,2.14,13.07,13.07,0,0,1-.05,5.67,5.42,5.42,0,0,0,.1,3,20.51,20.51,0,0,1,.68,5.31c0,6.9,0,13.81-.25,20.71-.08,2-.05,4,0,5.95.1,5.16-.18,10.31.22,15.48.36,4.71.78,9.42.94,14.15s.5,9.58.62,14.36c.19,7.14.24,14.28-.14,21.43-.26,4.79-.57,9.59-.44,14.4.07,2.7-.11,5.42.12,8.11.51,6,.89,12.06.86,18.12,0,2.11-.3,4.19-.28,6.28.05,3.25-.31,6.47-.43,9.71-.07,1.72-.13,3.47-.29,5.2a121.71,121.71,0,0,0-.55,13.64,7.31,7.31,0,0,1,0,2.15,7.08,7.08,0,0,0,.1,3.52,39.43,39.43,0,0,1,.48,5.18c.3,5.68.32,11.38.67,17.06.15,2.46.16,4.92.25,7.37q.3,8.08.67,16.17c.18,3.71.48,7.41.78,11.1.41,5.08.48,10.17.79,15.25.17,2.81.05,5.65.05,8.47,0,5.28-.3,10.55-.56,15.81-.18,3.72-.47,7.41-.74,11.11-.31,4.42-.82,8.81-1.2,13.21-.08.88-.42,1.12-1.11,1.1C147,476.25,144.62,476.24,142.26,476.21Z"/><path class="cls-3" d="M41.89,0c0,9.32-.15,18.64.11,28q.26,9.29.12,18.55c-.06,5.16,0,10.34-.3,15.49-.18,3.69-.27,7.42-.82,11.09,0,.12,0,.24,0,.36Q40.35,84.69,40.73,96c.14,3.9.05,7.81.27,11.7.54,9.49.4,19,.16,28.47-.23,9.07-.06,18.14-.19,27.21a22,22,0,0,0,.35,4.46,11.1,11.1,0,0,1-.09,5,6,6,0,0,0,.12,3.35,16.93,16.93,0,0,1,.56,4.61c0,9.74,0,19.48-.06,29.22,0,1.55-.27,3.09-.26,4.66,0,3.9.32,7.78.55,11.66.27,4.79.71,9.56.77,14.37a64.26,64.26,0,0,0,.49,8.42c0,.17,0,.35,0,.53.08,5.29.56,10.56.3,15.85s-.38,10.54-.68,15.81c-.21,3.72-.28,7.44-.17,11.15.12,3.95.54,7.88.82,11.82.06.83.06,1.68.06,2.52,0,4.27.16,8.55-.06,12.8-.23,4.6-.31,9.22-.81,13.81-.2,1.89-.13,3.82-.33,5.74-.17,1.59,0,3.22-.3,4.84s.26,3.45.23,5.19a5.74,5.74,0,0,1-.33,2.47,1.42,1.42,0,0,0-.13.85c1.06,6.28,1,12.64,1.18,19,.19,5.45.43,10.9.63,16.35.16,4.49.34,9,.61,13.47.3,4.9.77,9.78,1.17,14.67,0,.12,0,.24,0,.36.46,9.24.47,18.49.27,27.74-.08,3.95-.35,7.9-.61,11.84-.29,4.24-.84,8.45-1.13,12.68-.18,2.57-.53,5.12-.74,7.68l-7.84,0a14.54,14.54,0,0,1,0-1.62c.84-5.55,1.63-11.09,2.24-16.68.45-4.05.76-8.11.81-12.17.14-11.65.29-23.3-.52-34.94-.26-3.7-.4-7.41-.64-11.12-.31-4.66-.7-9.31-.92-14-.2-4.31-.62-8.6-.78-12.92-.08-2.21-.08-4.44-.31-6.64-.37-3.7-.37-7.43-.49-11.13-.19-5.71,0-11.42-.09-17.14-.06-8.4.37-16.82-.27-25.22-.24-3.1-.36-6.22-.71-9.3-.54-4.83-.61-9.69-.81-14.53-.35-8.34,0-16.69-.31-25-.32-9.06.16-18.14-.34-27.21-.23-4.13-.2-8.28-.26-12.42-.14-9.06-.38-18.14.15-27.21.22-3.76.22-7.55.3-11.33.15-7.09,0-14.19.06-21.28.07-8.95-.23-17.91.27-26.85.22-3.89.23-7.8.29-11.7.28-15.86-.1-31.73.32-47.59.24-9.37.11-18.76.06-28.14,0-4.44,0-8.87-.2-13.32-.24-5.75-.36-11.51-.67-17.26-.13-2.39-.33-4.78-.46-7.17-.07-1.43-.15-2.87-.3-4.3a61.73,61.73,0,0,1-.55-8Z"/><path class="cls-3" d="M227.82,0h9.44c.09,1.85.28,3.71.27,5.56-.1,14.6.34,29.2-.22,43.79-.14,3.78-.25,7.54-.63,11.3-.51,5-.31,10.06-.62,15.09-.12,2,.11,4.07.18,6.1.18,5.22.26,10.44.32,15.66.14,13,.34,26-.19,38.92-.27,6.61.4,13.2.26,19.81a6.53,6.53,0,0,0,.11,1.25,14,14,0,0,1,0,5.17,7.06,7.06,0,0,0,.14,3.56,5.57,5.57,0,0,1,.36,1.74c0,2.4.41,4.77.34,7.18-.09,3.12-.17,6.24-.22,9.35-.15,9.19-.07,18.39-.07,27.59,0,.48,0,1,.05,1.44.28,3.64.6,7.27.85,10.91.15,2.21.14,4.43.25,6.64.22,4.19.55,8.38.65,12.56.13,5.82.19,11.64-.16,17.47-.33,5.5-.46,11-.64,16.53a77.82,77.82,0,0,0,.32,9.16c.15,1.61.14,3.23.33,4.84.43,3.63.34,7.3.41,10.94,0,2.31-.09,4.67-.19,7-.21,4.79-.37,9.58-.69,14.36-.22,3.28-.58,6.56-.59,9.86,0,2.16.14,4.34,0,6.48a17.27,17.27,0,0,0,.06,4.6,13.53,13.53,0,0,1,.27,1.77c.22,4.31.44,8.62.61,12.93.12,2.93.15,5.87.27,8.81.24,5.74.4,11.5.67,17.25.16,3.41.35,6.81.63,10.21q.58,7.16.94,14.33c.18,3.71.06,7.44.29,11.16a59.43,59.43,0,0,1-.15,7.18c-.21,3.89-.13,7.79-.35,11.69-.13,2.39-.33,4.78-.46,7.18-.07,1.42-.16,2.86-.29,4.29-.29,3-.57,6.07-.88,9.1-.25,2.43-.5,4.87-.83,7.29-.38,2.72-.86,5.42-1.07,8.16l-7.54,0a23.5,23.5,0,0,1,0-2.52c.61-5,1.17-10.09,1.93-15.09.72-4.72,1.35-9.46,1.73-14.22s.56-9.57.66-14.36c.13-6.49,0-13-.24-19.45-.12-3.18-.33-6.35-.44-9.53-.07-2-.14-4.07-.28-6.1-.26-3.88-.66-7.75-.83-11.63-.11-2.46-.36-4.9-.44-7.36-.06-1.73-.17-3.47-.31-5.2-.4-5-.71-10-.89-15.06a18,18,0,0,0,0-1.8,111.69,111.69,0,0,1-.48-11.85c-.17-7.19-.23-14.4.13-21.61a104.72,104.72,0,0,0-.13-11.88c-.24-3.58-.33-7.17-.68-10.75-.43-4.46-.8-8.95-.92-13.43-.1-3.84-.31-7.67-.37-11.51-.19-12.26.27-24.52-.28-36.77-.2-4.43-.14-8.88-.26-13.32-.16-6.48-.41-13-.4-19.45,0-3.66-.17-7.35.07-11,.29-4.31.35-8.63.47-12.94.21-7.93,0-15.87.09-23.8s-.25-16.1.24-24.14c.22-3.71.2-7.44.29-11.16.36-14,.11-28.11.28-42.17.23-18.74.47-37.5-.14-56.24-.13-4-.44-7.91-.41-11.88a5.83,5.83,0,0,0-.06-.71A87.92,87.92,0,0,1,227.82,0Z"/><path class="cls-3" d="M247.65,476.23c-.11-5.82.36-11.63.41-17.46,0-2.56.13-5.15.2-7.73.55-20.84.39-41.7.24-62.55,0-4.79-.07-9.6-.32-14.39-.16-2.94-.06-5.89-.28-8.81-.35-4.59-.39-9.21-.8-13.8-.33-3.69-.56-7.4-.79-11.1s-.12-7.33-.3-11c-.26-5-.43-9.94-.64-14.91q-.28-7-.64-14c-.31-6.29-.41-12.59-.63-18.88-.46-13.4-.35-26.8-.13-40.19.22-13.82-.08-27.64.3-41.44.2-7.63,0-15.26.3-22.88.18-4.2.3-8.41.16-12.6-.43-13.33-.25-26.67-.17-40,0-4.38.08-8.77.33-13.14.16-2.7.12-5.39.26-8.09.3-5.86.45-11.74.69-17.61.11-2.51.07-5,.27-7.54.29-3.72.09-7.45.35-11.15.22-3,.1-6,.26-9,.31-6,.1-12.13.38-18.18.23-5,0-10.09.28-15.12.46-8.23.21-16.45.26-24.68h6.92c0,7.76.13,15.52-.09,23.27-.12,4.32,0,8.65-.29,13-.2,3.34-.37,6.69-.77,10a42.28,42.28,0,0,0,0,8.64,77.47,77.47,0,0,1,.16,10.44c-.16,3.71,0,7.44-.5,11.13a2.17,2.17,0,0,0,0,.36c.11,3.85-.26,7.68-.43,11.51s-.22,7.92-.25,11.88c0,1.36.43,2.79,0,4.06-1,2.74-.61,5.57-.49,8.33.42,10.15,0,20.31.29,30.46.48,16.71,0,33.42.33,50.12.1,5.22.07,10.46.33,15.67.17,3.42.08,6.84.27,10.25.29,5.39.32,10.8.67,16.18.41,6.43.35,12.86.15,19.27-.25,7.44-.54,14.87-.64,22.31,0,2.27-.28,4.56-.18,6.83.45,10,0,20,.35,29.92.31,9,0,18,.3,27,.35,10.34,0,20.68.34,31,.28,8.6,0,17.19.3,25.77.31,8.42,0,16.83.3,25.23.55,17.73.12,35.46.22,53.19a2.36,2.36,0,0,1,0,.37Z"/><path class="cls-3" d="M203,476.23c0-6.55.19-13.1.4-19.63.27-8.41.13-16.82.23-25.23,0-2.94.41-5.86.26-8.81-.45-9.06-.06-18.14-.37-27.2-.14-4.14-.05-8.29-.28-12.42-.29-5.09-.26-10.19-.63-15.27-.25-3.58-.36-7.17-.82-10.73-.27-2.13-.22-4.31-.4-6.46-.33-4-.17-8-.36-12.05-.22-4.85-.41-9.7-.62-14.55q-.3-7-.66-14c-.13-2.64,0-5.29-.29-7.91-.38-4.38-.1-8.76-.31-13.14-.51-11-.37-22-.16-33,.27-13.83-.06-27.65.3-41.46.22-8.11,0-16.23.31-24.32q.45-10.37.14-20.72c-.31-10.63-.18-21.26-.17-31.89,0-4.92.17-9.85.36-14.76.11-2.94.09-5.88.26-8.81.32-5.63.42-11.27.67-16.9.13-2.76,0-5.53.29-8.27.3-3.35.06-6.73.33-10.07.3-3.72.06-7.45.29-11.15.34-5.28.06-10.58.35-15.84.26-4.63,0-9.26.28-13.87.3-5.4.15-10.8.35-16.2a58.24,58.24,0,0,0,.16-6.46C202.5,10.08,202.74,5,202.65,0h6.92c-.09,12.49.28,25-.26,37.49-.12,2.82,0,5.65-.08,8.47-.06,2.15-.19,4.31-.39,6.46s-.46,4.15-.52,6.25c-.07,2.82.18,5.63.26,8.45.19,6.84-.18,13.67-.5,20.5-.17,3.65-.52,7.3-.42,11a7.79,7.79,0,0,1,0,1.08,76.86,76.86,0,0,0-.23,11.15c0,1.3.27,2.73-.16,3.83a12.48,12.48,0,0,0-.47,4.39c-.06,1.8.18,3.59.22,5.38.21,10.39-.16,20.79.32,31.18.13,2.93,0,5.89,0,8.83.14,14-.2,28,.27,42,.2,6.11.19,12.24.35,18.36.11,4.2.5,8.39.38,12.6a2.17,2.17,0,0,0,0,.36c.39,3.75.51,7.53.55,11.3.07,6.24.26,12.49-.22,18.73-.21,2.8-.18,5.63-.29,8.45-.24,5.63,0,11.28-.37,16.92-.08,1.4.25,2.74.27,4.12.12,9.37-.06,18.74.25,28.11.33,10.08,0,20.18.33,30.27.31,9.12,0,18.25.3,27.38.34,9.3-.05,18.62.33,27.93.31,7.61.14,15.25.27,22.87.25,14.13.08,28.26.08,42.38Z"/><path class="cls-3" d="M59.19,0c0,6.61.1,13.23-.06,19.84-.18,7.27-.07,14.54-.34,21.8-.15,4,.05,8.06-.6,12-.32,2-.12,4-.5,5.9-.24,1.24.21,2.5.21,3.75,0,6.14.14,12.27,0,18.4-.13,4.67-.38,9.35-.65,14-.16,2.82-.2,5.63-.24,8.45a35.6,35.6,0,0,0-.26,4.12c.45,4.36-.54,8.66-.39,13s0,8.66.09,13c.53,18.21,0,36.43.36,54.63.14,7.45,0,14.91.29,22.34.19,4.21,0,8.42.31,12.6.21,3.12.11,6.24.29,9.36.27,4.9.35,9.83.67,14.72.27,4.21.28,8.42.15,12.61-.18,6.11-.35,12.23-.63,18.34-.44,9.91-.34,19.83-.13,29.73.19,8.84,0,17.67.28,26.49.36,10,0,20.08.33,30.1.3,8.89,0,17.79.29,26.67.32,9.13,0,18.27.34,27.39.28,7.57,0,15.15.29,22.7.43,10.22.09,20.43.21,30.64,0,.36,0,.73,0,1.09-.08,2.52-.15,2.59-2.33,2.59H53.21c-.56,0-.89-.14-.76-1a17.45,17.45,0,0,0,.1-2.51c0-8.41.24-16.82.44-25.23.36-14.72.23-29.44.11-44.17,0-5,0-10-.28-14.94-.2-3.42-.07-6.85-.3-10.25-.3-4.49-.17-9-.61-13.47-.33-3.33-.5-6.68-.81-10a59.81,59.81,0,0,1-.4-6.28c.07-4.75-.3-9.48-.4-14.22s-.41-9.46-.61-14.19-.4-9.34-.65-14c-.17-3.12-.16-6.24-.27-9.35-.66-19.17-.29-38.35-.19-57.52.07-12.56,0-25.12.3-37.67.57-23.87-.08-47.73.3-71.59.07-4,.1-8.05.34-12.05.15-2.46.13-4.92.26-7.38.3-5.86.45-11.74.69-17.61.11-2.58.07-5.17.26-7.73.31-4,.11-8,.37-12.06.18-2.82.12-5.63.23-8.45.26-6.78.16-13.58.4-20.35.17-4.69,0-9.38.28-14,.47-7.93.15-15.85.23-23.78,0-2.16-.4-4.3-.28-6.47Z"/><path class="cls-3" d="M77.09,120.89l-.3,0c-.46-.48-.28-1.12-.29-1.69,0-3,0-6,0-9a29.19,29.19,0,0,1,.44-6.69c.53.47.47,1.1.51,1.71a35.13,35.13,0,0,1-.39,5.53,39.77,39.77,0,0,0,.06,9.63A2.37,2.37,0,0,1,77.09,120.89Z"/><path class="cls-3" d="M1.16,227.28a2,2,0,0,1,0-1.66C1.94,226.24,1.19,226.77,1.16,227.28Z"/><path class="cls-3" d="M151.92,225.64a2.77,2.77,0,0,1-.1,1.8C151.38,226.82,151.38,226.82,151.92,225.64Z"/></g></g></g></g></svg>