<svg xmlns="http://www.w3.org/2000/svg" width="24" height="24" viewBox="0 0 24 24">
    <path fill="#F3EDD7" fill-rule="evenodd" d="M24 17.538A6.469 6.469 0 0 1 17.538 24H6.462A6.469 6.469 0 0 1 0 17.538V6.462A6.469 6.469 0 0 1 6.462 0h11.076A6.469 6.469 0 0 1 24 6.462v11.076zM12 4.451a7.55 7.55 0 1 0 0 15.098 7.55 7.55 0 0 0 0-15.098zm0 12.267A4.725 4.725 0 0 1 7.282 12 4.723 4.723 0 0 1 12 7.282c2.6 0 4.718 2.116 4.718 4.718 0 2.6-2.117 4.718-4.718 4.718zm7.877-11.61a.985.985 0 1 0 0-1.97.985.985 0 0 0 0 1.97z"/>
</svg>
