<svg xmlns="http://www.w3.org/2000/svg" width="243" height="280" viewBox="0 0 243 280">
    <g fill="none" fill-rule="evenodd">
        <path fill="#8A0D0F" d="M22.775 163.285c.487 0 1.283-.012 1.77-.027 0 0 2.911-.088 4.362-.321 1.228-.196 2.241-.476 3.041-.839 1.744-.79 2.88-2.004 3.403-3.644.523-1.639.784-4.099.784-7.379 0-3.278-.248-5.737-.741-7.377-.495-1.64-1.6-2.856-3.315-3.646-.929-.428-2.16-.74-3.692-.937-1.3-.166-3.667-.227-3.667-.227a88.13 88.13 0 0 0-1.771-.022H8.405a.89.89 0 0 0-.884.891v22.637c0 .49.398.891.884.891h14.37zM.017 132.73a.89.89 0 0 1 .886-.89H25.48c.487 0 1.283.014 1.77.033 0 0 3.193.124 4.884.439 2.098.39 3.839 1.023 5.224 1.898 2.5 1.582 4.157 3.72 4.973 6.413.813 2.694 1.22 6.178 1.22 10.452 0 4.1-.407 7.51-1.22 10.234-.816 2.723-2.487 4.904-5.017 6.544-1.265.82-2.824 1.435-4.678 1.844-1.854.41-5.56.576-5.56.576-.488.021-1.283.039-1.77.039h-16.9a.89.89 0 0 0-.884.89v20.179c0 .49-.399.89-.886.89H.903a.891.891 0 0 1-.886-.89v-58.65zM51.498 209.654a.993.993 0 0 1-.881-.97v-4.366c0-.49.397-.875.884-.855 0 0 9.99.403 12.55.403 4.478 0 7.735-.455 9.772-1.361 2.034-.91 3.343-2.343 3.926-4.305.58-1.962.836-8.376.836-8.376.02-.49.035-1.292.035-1.782V186.648c0-.192-.117-.35-.26-.35-.144 0-.36.21-.48.466l-.122.223c-.91 1.667-2.355 3.004-4.328 4.01-2.24 1.143-5.483 1.714-9.727 1.714-4.247 0-7.46-.6-9.64-1.801-2.181-1.2-3.65-3.016-4.406-5.446-.378-1.215-.662-2.66-.851-4.337-.189-1.676-.262-4.83-.262-4.83-.012-.49-.021-1.291-.021-1.782v-26.15a.89.89 0 0 1 .885-.89h5.296c.487 0 .884.4.884.89v23.252c0 .49.014 1.292.032 1.782 0 0 .216 6.312.71 8.068.493 1.757 1.47 2.929 2.923 3.513 1.453.586 3.897.88 7.328.88 3.665 0 6.354-.586 8.07-1.757 1.715-1.172 2.805-2.781 3.272-4.832.464-2.048.667-7.893.667-7.893.017-.49.03-1.292.03-1.781v-21.231a.89.89 0 0 1 .886-.892h5.296c.486 0 .885.401.885.892v37.568c0 .49-.007 1.293-.017 1.783 0 0-.088 4.666-.298 6.94-.232 2.514-.592 4.618-1.08 6.31-.932 3.22-2.823 5.591-5.672 7.116-2.85 1.522-7.183 2.283-12.998 2.283-6.224 0-14.124-.712-14.124-.712M98.087 195.12a.89.89 0 0 1-.884-.89v-36.516a.891.891 0 0 0-.886-.89h-7.215a.89.89 0 0 1-.885-.892v-4.718c0-.49.398-.891.885-.891h7.215a.89.89 0 0 0 .886-.892v-11.217c0-.49.398-.89.884-.89h5.297c.487 0 .886.4.886.89v11.217c0 .49.398.892.884.892h7.458c.487 0 .886.401.886.891v4.718a.89.89 0 0 1-.886.891h-7.458a.89.89 0 0 0-.884.891v36.515a.89.89 0 0 1-.886.891h-5.297zM146.3 170.802c0-.49-.007-1.292-.015-1.782 0 0-.04-2.65-.149-4.052-.13-1.676-.337-3-.622-3.972-.524-1.786-1.513-2.972-2.966-3.558-1.454-.584-3.897-.879-7.328-.879-3.664 0-6.355.586-8.07 1.758-1.716 1.171-2.791 2.781-3.228 4.83-.436 2.052-.626 7.98-.626 7.98-.015.491-.028 1.293-.028 1.784v21.318a.89.89 0 0 1-.885.891h-5.296a.89.89 0 0 1-.886-.89v-56.36c0-.489.399-.89.886-.89h5.296a.89.89 0 0 1 .885.89V155.866c0 .19.098.343.218.343s.285-.146.366-.324l.08-.158c.952-1.873 2.461-3.322 4.527-4.35 2.238-1.11 5.452-1.668 9.64-1.668 4.303 0 7.546.602 9.727 1.801 2.18 1.2 3.649 3.016 4.405 5.446.423 1.36.728 3.019.914 4.974.147 1.54.203 4.28.203 4.28.01.49.017 1.293.017 1.782v26.238a.89.89 0 0 1-.884.891h-5.297a.89.89 0 0 1-.885-.89v-23.428zM189.065 188.181c1.628-.76 2.631-2.151 3.01-4.172.378-2.02.567-5.782.567-11.287 0-5.504-.19-9.267-.567-11.287-.379-2.02-1.382-3.411-3.01-4.173-1.628-.76-5.273-1.141-9.519-1.141-4.245 0-7.904.38-9.561 1.141-1.658.762-2.676 2.152-3.054 4.173-.38 2.02-.567 5.783-.567 11.287 0 5.505.188 9.267.567 11.287.378 2.02 1.396 3.413 3.054 4.172 1.657.762 5.316 1.142 9.561 1.142 4.246 0 7.891-.38 9.52-1.142m-23.574 5.754c-2.677-1.26-4.378-3.396-5.104-6.413-.727-3.015-1.09-7.95-1.09-14.8 0-6.851.363-11.784 1.09-14.801.726-3.016 2.427-5.153 5.104-6.412 2.674-1.258 7.831-1.889 14.054-1.889 6.165 0 11.293.63 13.969 1.89 2.674 1.258 4.375 3.395 5.104 6.411.726 3.017 1.09 7.95 1.09 14.801 0 6.85-.364 11.785-1.09 14.8-.729 3.017-2.43 5.154-5.104 6.413-2.676 1.259-7.804 1.887-13.969 1.887-6.223 0-11.38-.628-14.054-1.887M235.826 170.802c0-.49-.006-1.292-.013-1.782 0 0-.038-2.544-.14-3.915-.129-1.741-.34-3.11-.632-4.11-.524-1.785-1.513-2.971-2.966-3.557-1.455-.584-3.898-.879-7.328-.879-3.664 0-6.355.586-8.07 1.758-1.716 1.171-2.791 2.781-3.228 4.83-.436 2.052-.626 7.98-.626 7.98-.015.491-.029 1.293-.029 1.784v21.318a.89.89 0 0 1-.884.891h-5.297a.89.89 0 0 1-.885-.89v-43.016c0-.49.399-.89.885-.89h4.511c.486 0 .907.4.935.889l.221 4.018.064 1.153a.282.282 0 0 0 .276.264c.144 0 .334-.16.421-.356l.085-.172c1.003-2.026 2.551-3.592 4.641-4.699 2.268-1.2 5.553-1.8 9.859-1.8 4.302 0 7.545.614 9.727 1.844 2.18 1.23 3.649 3.06 4.405 5.49.412 1.324.711 2.93.9 4.817.156 1.579.216 4.437.216 4.437.01.49.018 1.293.018 1.782v26.238a.89.89 0 0 1-.884.891h-5.297a.89.89 0 0 1-.885-.89v-23.428z"/>
        <path fill="#DD4D26" d="M26.03 251.814c-.347 0-.777-.245-.957-.543L11.27 228.32c-.18-.297-.4-.663-.488-.812-.09-.148-.233-.269-.318-.269-.085 0-.155.197-.155.438v23.502a.634.634 0 0 1-.63.634H.63a.635.635 0 0 1-.63-.634v-41.75c0-.35.284-.635.63-.635h9.857c.346 0 .778.242.96.539l12.83 20.866.448.729c.063.103.185.188.27.188.087 0 .156-.11.156-.245V209.43c0-.349.283-.634.63-.634h9.111c.347 0 .63.285.63.634v41.75a.635.635 0 0 1-.63.635H26.03zM57.943 243.967c.64-.355 1.034-1.053 1.18-2.095.145-1.042.217-3.043.217-6.003 0-3.001-.072-5.022-.217-6.065-.146-1.041-.54-1.73-1.18-2.063-.642-.333-1.832-.5-3.57-.5-1.74 0-2.93.167-3.572.5-.642.334-1.035 1.022-1.18 2.063-.145 1.043-.217 3.064-.217 6.065 0 2.96.072 4.961.218 6.003.144 1.042.537 1.74 1.18 2.095.641.354 1.831.53 3.57.53 1.739 0 2.929-.176 3.571-.53m-13.755 6.94c-2.071-.938-3.385-2.48-3.944-4.627-.56-2.146-.838-5.617-.838-10.411 0-4.835.279-8.316.838-10.442.559-2.126 1.873-3.658 3.944-4.595 2.07-.939 5.465-1.408 10.184-1.408 4.72 0 8.114.47 10.185 1.408 2.07.937 3.384 2.47 3.943 4.595.56 2.126.839 5.607.839 10.442 0 4.794-.28 8.265-.839 10.41-.56 2.148-1.873 3.69-3.943 4.628-2.071.938-5.465 1.407-10.185 1.407-4.72 0-8.115-.469-10.184-1.407M73.871 220.559c0-.35.284-.634.63-.634h8.242a.67.67 0 0 1 .659.634l.163 3.565.043.937c.007.167.139.303.293.303.153 0 .34-.165.415-.367l.071-.176c.78-1.92 1.892-3.282 3.333-4.084.871-.484 1.909-.835 3.11-1.052.968-.174 2.595-.236 2.595-.236a.605.605 0 0 1 .63.61v8.234c0 .35-.284.655-.629.678 0 0-4.122.281-5.551.926-1.428.647-2.452 1.762-3.073 3.345-.31.79-.543 1.746-.697 2.868-.157 1.128-.217 3.252-.217 3.252-.01.348-.018.92-.018 1.269v10.548a.634.634 0 0 1-.63.634h-8.738a.634.634 0 0 1-.63-.634v-30.62zM113.554 243.34c.622-.312 1.077-.864 1.367-1.655.248-.667.404-1.439.466-2.315.061-.874.093-2.041.093-3.501 0-2.751-.166-4.627-.497-5.627-.291-.875-.745-1.47-1.367-1.783-.62-.312-1.593-.469-2.918-.469-1.574 0-2.67.157-3.292.47-.621.313-1.035.98-1.242 2-.207 1.022-.31 2.825-.31 5.409 0 2.627.103 4.45.31 5.471.207 1.022.62 1.688 1.242 2 .621.313 1.718.47 3.292.47 1.282 0 2.235-.157 2.856-.47m-13.382 7.536c-1.47-.959-2.557-2.616-3.261-4.971-.704-2.355-1.056-5.659-1.056-9.91 0-4.293.342-7.629 1.025-10.005.683-2.377 1.76-4.054 3.23-5.034 1.468-.979 3.487-1.47 6.054-1.47 2.112 0 3.882.261 5.31.783 1.264.461 2.325 1.305 3.184 2.533l.112.16c.117.186.324.339.461.339s.249-.134.249-.297V205.99c0-.35.283-.634.63-.634h8.738c.346 0 .63.285.63.634v45.19a.634.634 0 0 1-.63.633h-8.242a.686.686 0 0 1-.672-.633l-.164-2.485c-.023-.348-.154-.633-.29-.633-.138 0-.39.247-.563.55 0 0-.02.034-.203.3-.808 1.171-1.837 2.003-3.085 2.495-1.532.603-3.334.906-5.403.906-2.567 0-4.585-.479-6.054-1.437M141.561 227.178c-.663.292-1.097.866-1.305 1.719-.206.855-.29 3.65-.29 3.65a.61.61 0 0 0 .61.634h8.304c.347 0 .62-.286.607-.634 0 0-.101-2.806-.35-3.681-.247-.875-.682-1.448-1.303-1.72-.622-.27-1.637-.406-3.044-.406-1.49 0-2.567.147-3.229.438zm17.326 10.557c0 .35-.283.634-.63.634h-17.68a.601.601 0 0 0-.602.635s.127 2.764.437 3.556c.31.792.993 1.312 2.05 1.563 1.056.25 2.95.375 5.682.375 2.94 0 8.873-.453 8.873-.453a.579.579 0 0 1 .628.587v5.922a.801.801 0 0 1-.619.755s-2.476.483-4.69.692c-2.215.208-4.4.313-6.552.313-4.844 0-8.375-.532-10.588-1.595-2.216-1.062-3.634-2.678-4.254-4.846-.621-2.167-.932-5.48-.932-9.941 0-4.377.31-7.67.932-9.88.62-2.208 1.976-3.865 4.067-4.97 2.09-1.105 5.372-1.658 9.843-1.658 4.472 0 7.69.532 9.658 1.595 1.965 1.062 3.187 2.648 3.663 4.752.262 1.158.451 2.706.57 4.64.096 1.581.137 4.887.137 4.887.004.349.007.919.007 1.269v1.168zM169.289 252.063c-2.381-.167-5.615-.55-5.615-.55a.731.731 0 0 1-.626-.709v-5.984a.58.58 0 0 1 .628-.589s6.203.455 9.184.455c1.987 0 3.394-.063 4.223-.189.828-.124 1.355-.343 1.584-.656.226-.312.341-.844.341-1.594 0-.626-.073-1.073-.218-1.344-.145-.272-.425-.47-.838-.594-.414-.126-1.55-.287-1.55-.287-.342-.048-.905-.125-1.249-.168l-6.139-.779a18.88 18.88 0 0 1-1.242-.21s-1.664-.356-2.496-.83c-.834-.475-1.463-1.104-1.887-1.884-.849-1.564-1.273-3.908-1.273-7.035 0-2.792.538-4.887 1.615-6.284 1.076-1.396 2.535-2.313 4.378-2.75 1.842-.439 4.233-.658 7.173-.658 2.027 0 4.099.085 6.21.25 2.112.168 4.471.58 4.471.58.342.06.621.394.621.743v5.922a.577.577 0 0 1-.628.585s-5.81-.452-8.501-.452c-1.822 0-3.126.043-3.912.125-.787.085-1.336.282-1.646.594-.31.314-.465.824-.465 1.532 0 .626.051 1.063.155 1.314.102.25.351.437.745.563.393.125 1.334.275 1.334.275.342.055.904.133 1.248.174l6.077.727c.343.04.903.13 1.244.197 0 0 2.258.451 3.17.972.91.521 1.624 1.438 2.142 2.75.517 1.314.776 3.22.776 5.722 0 2.96-.508 5.19-1.521 6.69-1.015 1.5-2.392 2.48-4.13 2.939-1.74.458-4.016.688-6.831.688-1.988 0-4.172-.084-6.552-.25M195.97 251.814a.635.635 0 0 1-.63-.634v-22.805a.634.634 0 0 0-.63-.635h-4.453a.634.634 0 0 1-.63-.634v-6.547c0-.349.283-.635.63-.635h4.453c.347 0 .63-.285.63-.634v-7.985c0-.349.284-.634.63-.634h8.862c.347 0 .63.285.63.634v7.985c0 .349.284.634.63.634h5.572c.346 0 .63.286.63.635v6.547a.634.634 0 0 1-.63.634h-5.571a.634.634 0 0 0-.63.635v22.805a.635.635 0 0 1-.63.634h-8.863zM225.584 227.178c-.663.292-1.097.866-1.304 1.719-.208.855-.291 3.65-.291 3.65a.61.61 0 0 0 .61.634h8.304c.347 0 .62-.286.607-.634 0 0-.1-2.806-.35-3.681-.248-.875-.683-1.448-1.304-1.72-.621-.27-1.635-.406-3.043-.406-1.49 0-2.567.147-3.23.438zm17.327 10.557c0 .35-.284.634-.63.634h-17.682a.6.6 0 0 0-.6.635s.125 2.764.436 3.556c.31.792.994 1.312 2.05 1.563 1.055.25 2.949.375 5.682.375 2.939 0 8.872-.453 8.872-.453a.58.58 0 0 1 .63.587v5.922a.802.802 0 0 1-.62.755s-2.477.483-4.69.692c-2.216.208-4.4.313-6.553.313-4.843 0-8.373-.532-10.588-1.595-2.215-1.062-3.632-2.678-4.253-4.846-.622-2.167-.932-5.48-.932-9.941 0-4.377.31-7.67.932-9.88.62-2.208 1.976-3.865 4.067-4.97 2.09-1.105 5.371-1.658 9.843-1.658 4.472 0 7.69.532 9.657 1.595 1.966 1.062 3.187 2.648 3.664 4.752.278 1.228.474 2.893.59 4.993.082 1.5.117 4.534.117 4.534.004.349.008.919.008 1.269v1.168z"/>
        <path fill="#95A300" d="M132.638 44.103c-.63-18.232-.935-22.878-4.034-26.415-6.144-7.01-14.503-4.703-18.244-1.642-5.407 4.422-6.3 10.548-6.722 20.125-.03.67-.18 4.243-.384 11.344-7.581-1.48-12.9-2.588-13.095-6.355-.384-7.4-.876-17.588-1.261-29.755C88.712 5.553 87.176.528 81 .03c-5.845-.471-9.652 4.695-9.954 10.29-.482 8.951-1.578 23.013-1.052 37.666.264 7.342 2.816 15.225 13.502 18.54 6.354 1.97 14.693 3.73 19.084 4.786-.382 13.705-1 25.066-1.023 29.177-.013 2.038-.112 4.817 4.302 6.334 2.873.988 11.947 2.052 29.399 2.651-.82-28.102-2.49-61.64-2.62-65.371"/>
        <path fill="#DD4D26" d="M137.662 115.807c-1.813-2.76-3.66-2.55-10.237-2.945-8.344-.502-20.549-1.924-23.4-2.945-1.79-.64-6.065-2.732-6.007-8.029.099-8.892 1.193-22.67 1.193-22.67-1.567.261-3.368 1.093-7.255 3.588-5.076 3.258-8.492 7.376-10.328 14.083-1.846 6.743-2.793 17.335 3.677 23.924 5.413 5.513 11.115 8.246 23.985 9.13 10.8.742 18.135-.589 23.107-2.061 7.556-2.238 6.98-9.464 5.265-12.075M169.225 21.221c.679-2.33 1.03-2.715-4.96-17.479-1.168-2.877-3.855-3.73-7.947-3.73-4.209 0-6.677.919-7.846 3.797-5.99 14.763-5.635 15.072-4.957 17.4.797 2.738 4.581 11.039 4.935 14.213.584 5.235-.34 13.896-.531 21.029-.42 7.131-.455 9.15-2.175 10.882-1.908 1.92-4.612 3.755-9 5.228.485 8.924.78 13.39 1.313 23.634 6.509-3.267 17.936-10.055 23.248-16.983 3.602-4.696 3.8-13.48 3.544-22.342h.007c-.161-7.128-1.113-16.11-.518-21.448.354-3.174 4.09-11.465 4.887-14.2M113.676 279.794l-2.625-6.625h-5.718v6.625h-2.11v-16.88h7.754c1.341 0 2.356.212 3.043.637.687.426 1.137.998 1.35 1.718.212.72.319 1.644.319 2.772 0 1.162-.172 2.172-.516 3.03-.343.86-1.047 1.444-2.11 1.755l2.871 6.968h-2.258zm-3.582-8.587c1.047 0 1.82-.11 2.319-.332.499-.22.818-.544.957-.969.139-.425.208-1.047.208-1.865 0-.834-.065-1.464-.196-1.889-.131-.425-.43-.744-.896-.957-.466-.212-1.206-.319-2.22-.319h-4.933v6.33h4.76zm19.538 3.042h-8.564c0 1.194.082 2.045.245 2.552.164.507.52.863 1.068 1.067.548.204 1.468.307 2.76.307 1.26 0 2.594-.09 4-.27v1.742c-.523.098-1.202.18-2.036.245-.835.066-1.628.098-2.38.098-1.686 0-2.925-.196-3.718-.589-.794-.392-1.313-1.022-1.559-1.889-.245-.867-.368-2.183-.368-3.95 0-1.734.11-3.034.332-3.901.22-.867.72-1.513 1.496-1.939.778-.425 2.009-.637 3.694-.637 1.57 0 2.707.208 3.41.625.704.417 1.15 1.047 1.338 1.89.188.842.282 2.154.282 3.937v.712zm-5.08-5.349c-1.063 0-1.828.094-2.294.282-.466.188-.777.54-.932 1.055-.156.516-.242 1.346-.258 2.49h6.65v-.196c0-1.08-.094-1.872-.282-2.38-.188-.507-.495-.842-.92-1.005-.426-.164-1.08-.246-1.963-.246zm16.894 10.771c-.442.082-.977.156-1.607.221a17.48 17.48 0 0 1-1.804.098c-1.538 0-2.667-.22-3.386-.662-.72-.442-1.182-1.096-1.387-1.963-.204-.867-.307-2.143-.307-3.828 0-1.652.123-2.928.368-3.827.246-.9.728-1.562 1.448-1.988.72-.425 1.783-.637 3.19-.637.557 0 1.15.032 1.78.098.63.065 1.165.139 1.607.22v1.767c-.982-.18-1.947-.27-2.896-.27-1.047 0-1.812.123-2.294.368-.483.246-.806.679-.97 1.3-.163.622-.245 1.612-.245 2.97 0 1.373.086 2.375.258 3.005.171.63.499 1.06.981 1.288.483.23 1.264.344 2.344.344.801 0 1.775-.082 2.92-.246v1.742zm3.306-15.825v-2.282h2.11v2.282h-2.11zm.073 15.948v-12.513h1.988v12.513h-1.988zm7.65-10.698h-2.552v-1.815h2.552v-1.865c0-1.178.163-2.036.49-2.576.328-.54.835-.883 1.522-1.03.687-.148 1.759-.222 3.215-.222v1.644c-.95 0-1.644.045-2.086.135-.442.09-.745.258-.908.503-.164.246-.246.638-.246 1.178v2.233h3.24v1.815h-3.24v10.698h-1.987v-10.698zm18.36 5.153h-8.564c0 1.194.082 2.045.246 2.552.163.507.52.863 1.067 1.067.548.204 1.468.307 2.76.307 1.26 0 2.594-.09 4-.27v1.742c-.523.098-1.202.18-2.036.245-.834.066-1.628.098-2.38.098-1.685 0-2.925-.196-3.718-.589-.793-.392-1.313-1.022-1.558-1.889-.246-.867-.368-2.183-.368-3.95 0-1.734.11-3.034.33-3.901.222-.867.72-1.513 1.498-1.939.777-.425 2.008-.637 3.693-.637 1.57 0 2.708.208 3.411.625.703.417 1.15 1.047 1.337 1.89.189.842.283 2.154.283 3.937v.712zm-5.08-5.349c-1.062 0-1.827.094-2.294.282-.466.188-.777.54-.932 1.055-.155.516-.241 1.346-.258 2.49h6.65v-.196c0-1.08-.094-1.872-.282-2.38-.188-.507-.495-.842-.92-1.005-.425-.164-1.08-.246-1.963-.246zM176.203 273.71v-2.528h2.331v2.527zM188.016 262.913h7.411c1.358 0 2.389.221 3.092.663.704.442 1.17 1.039 1.399 1.791.229.752.343 1.726.343 2.92 0 1.145-.114 2.098-.343 2.858-.23.76-.7 1.37-1.411 1.828-.712.458-1.755.687-3.129.687h-5.251v6.134h-2.11v-16.88zm6.65 8.784c1.064 0 1.84-.11 2.332-.331.49-.22.81-.56.957-1.018.147-.458.22-1.145.22-2.061 0-.916-.069-1.603-.208-2.061-.139-.458-.45-.798-.932-1.018-.483-.221-1.256-.332-2.32-.332h-4.588v6.821h4.54zm9.323 8.097v-16.88h10.994v1.962h-8.884v5.423h7.706v1.963h-7.706v5.57h8.884v1.962h-10.994z"/>
        <path fill="#8A0D0F" d="M43.199 277.807h9.472v1.987H41.162v-2.012c0-1.407.053-2.433.16-3.08.106-.645.355-1.177.748-1.594.393-.417 1.047-.822 1.963-1.214 1.767-.737 3.256-1.35 4.466-1.84.606-.246 1.051-.48 1.338-.7.286-.22.482-.487.589-.797.106-.311.16-.736.16-1.276 0-.769-.12-1.333-.357-1.693-.237-.36-.638-.601-1.202-.724s-1.436-.184-2.613-.184c-1.293 0-2.929.106-4.908.319v-1.84c.687-.131 1.554-.237 2.6-.32a37.935 37.935 0 0 1 2.946-.122c1.227 0 2.233.094 3.018.282a3.236 3.236 0 0 1 1.89 1.227c.474.63.711 1.574.711 2.834 0 .965-.098 1.742-.294 2.33-.197.59-.512 1.06-.945 1.412-.434.351-1.035.69-1.804 1.018l-5.08 2.085c-.572.213-.94.5-1.104.86a2.76 2.76 0 0 0-.196.784c-.033.295-.05.687-.05 1.178v1.08zm19.719 2.183c-2.078 0-3.546-.216-4.405-.65-.859-.433-1.399-1.198-1.62-2.294-.22-1.096-.33-2.993-.33-5.692 0-2.7.11-4.597.33-5.693.221-1.096.761-1.86 1.62-2.294.859-.433 2.327-.65 4.405-.65 2.078 0 3.546.217 4.405.65.859.434 1.399 1.203 1.62 2.307.22 1.104.33 2.997.33 5.68 0 2.699-.11 4.596-.33 5.692-.221 1.096-.761 1.86-1.62 2.294-.86.434-2.327.65-4.405.65zm0-1.963c1.505 0 2.515-.11 3.03-.33.516-.222.847-.74.994-1.559.148-.818.221-2.412.221-4.784s-.073-3.967-.22-4.785c-.148-.818-.48-1.337-.994-1.558-.516-.22-1.526-.331-3.031-.331-1.505 0-2.52.11-3.043.331-.524.221-.859.74-1.006 1.558-.147.818-.221 2.413-.221 4.785 0 2.372.074 3.966.22 4.784.148.818.483 1.337 1.007 1.558.524.221 1.538.331 3.043.331zm13.314 1.767v-14.28l-3.484 1.669v-2.037l4.098-2.233h1.497v16.881h-2.11zm12.247.196c-.638 0-1.427-.04-2.368-.122-.94-.082-1.82-.188-2.638-.32v-1.84c1.881.213 3.403.32 4.564.32 1.587 0 2.728-.152 3.424-.454.695-.303 1.153-.867 1.374-1.693.22-.826.331-2.18.331-4.061h-.147c-.311.36-.818.654-1.522.883-.703.23-1.775.344-3.214.344-1.49 0-2.63-.119-3.424-.356-.793-.237-1.378-.691-1.754-1.362-.376-.67-.565-1.685-.565-3.042 0-1.521.156-2.666.467-3.435.31-.769.895-1.317 1.754-1.644.86-.327 2.156-.49 3.89-.49 1.309 0 2.347.06 3.116.183.77.123 1.399.372 1.89.748.49.377.859.941 1.104 1.693.213.606.356 1.362.43 2.27.073.908.11 2.098.11 3.57 0 1.554-.053 2.822-.16 3.803-.106.981-.298 1.8-.576 2.454-.41.981-1.08 1.652-2.012 2.012-.933.36-2.29.54-4.074.54zm.368-8.906c1.276 0 2.213-.082 2.81-.246.597-.163.986-.425 1.165-.785.18-.36.27-.891.27-1.594 0-1.162-.122-2.004-.368-2.528a1.81 1.81 0 0 0-1.214-1.018c-.565-.155-1.452-.233-2.663-.233-1.243 0-2.147.065-2.712.196-.564.131-.96.413-1.19.847-.229.433-.343 1.133-.343 2.098 0 1.03.106 1.766.319 2.208.212.441.597.728 1.153.859.556.13 1.48.196 2.773.196z"/>
    </g>
</svg>
