<svg width="291" height="84" viewBox="0 0 291 84" fill="none" xmlns="http://www.w3.org/2000/svg">
<path fill-rule="evenodd" clip-rule="evenodd" d="M0.211302 74.8508C4.39167 73.3763 9.02057 74.4936 13.4157 74.3661C32.712 73.7983 86.7346 72.599 95.1887 72.179C100.779 71.9017 106.712 71.5678 112.332 70.9646C115.646 70.6093 132.206 70.331 137.118 69.993C139.461 69.8321 141.774 69.2441 144.068 69.2643C148.387 69.3028 152.32 68.9759 156.577 68.7786C162.04 68.5255 167.626 69.5548 173.256 69.993C179.648 70.4919 186.131 69.991 192.482 70.2359C195.846 70.3654 199.088 71.0354 202.444 70.9646C205.579 70.8988 208.762 70.4565 211.942 70.4798C215.205 70.5021 218.385 69.6924 221.67 69.5072C228.786 69.1065 237.886 69.5922 246.921 69.0214C251.939 68.7057 257.002 68.1663 261.978 68.0499C264.476 67.9922 284.231 65.2495 286.916 65.7161C289.799 66.2171 289.708 76.3244 289.545 77.5237C287.962 79.4121 285.983 78.5995 283.985 78.4952C273.068 77.9214 260.552 79.8848 249.237 78.98C239.199 78.1774 151.308 78.2756 145.227 78.4952C139.942 78.6845 134.61 77.9052 129.242 78.0084C119.571 78.1957 108.925 79.5073 97.5056 78.98C94.684 78.8505 84.0263 79.2381 81.2899 79.4668C77.3233 79.7967 73.2242 79.3909 69.2445 79.7087C65.009 80.0477 60.8246 80.3341 56.7345 80.4384C52.4087 80.5477 48.3096 80.0902 44.2256 80.1945C40.56 80.2886 37.0278 81.3866 33.3391 81.8947C29.4698 82.427 25.5775 82.0759 21.7563 82.3805C15.6022 82.8723 8.65933 83.0413 1.36928 83.1092C0.149088 81.2055 0.176181 77.5986 0.211302 74.8508Z" fill="#F47C20"/>
<path fill-rule="evenodd" clip-rule="evenodd" d="M289.611 8.11102C281.052 7.84384 272.972 9.49449 264.039 9.22326C262.293 9.16962 260.846 9.13318 258.834 9.22326C249.503 9.6382 239.842 8.90345 230.32 9.22326C224.389 9.42162 218.539 9.91651 212.669 10.0167C201.857 10.2019 191.119 10.2485 180.534 9.69892C163.717 9.71916 147.334 9.97622 131.202 10.3345C127.107 10.4256 122.866 10.0967 118.754 10.1756C113.576 10.2748 109.304 10.461 104.271 10.3345C97.7838 10.1705 91.0938 10.5996 84.5844 10.6523C82.3969 10.6695 80.2495 10.4822 78.0209 10.4934C62.6531 10.5743 47.9736 11.0672 32.5346 11.4457C29.9928 11.5075 6.26932 12.6035 0.626926 12.0813C0.708205 10.4296 -0.421678 7.99969 0.17437 6.04745C2.66894 6.39559 5.17656 5.51916 7.64103 5.41188C9.35191 5.33699 10.9735 5.64567 12.6201 5.57077C15.3415 5.44528 17.9394 5.0101 20.7671 4.77632C28.3161 4.15391 36.2704 4.84817 44.0762 4.45955C48.1813 4.2541 51.7055 3.88268 56.0694 3.66509C60.0883 3.4647 64.2094 3.7248 68.2894 3.5062C73.0418 3.25116 78.1975 3.49608 82.3207 2.87063C102.572 2.38282 145.215 0.946726 149.305 0.964943C157.571 1.00543 163.646 1.00441 171.482 0.964943C176.961 0.93863 181.62 0.630967 187.549 0.648172C198.019 0.677522 208.17 0.202871 220.137 0.331401C225.225 0.38504 229.937 0.416413 235.073 0.489281C239.721 0.554052 244.119 -0.0977074 248.424 0.0126058C261.77 0.356702 274.935 -0.0582375 288.252 0.331401C288.862 3.15906 291.277 5.72359 289.611 8.11102Z" fill="#F47C20"/>
<path fill-rule="evenodd" clip-rule="evenodd" d="M288.253 61.2999C268.51 61.6835 245.903 61.4892 223.984 61.7847C212.685 61.9385 201.417 63.6124 190.039 63.4859C187.473 63.4576 184.939 63.2076 182.345 63.243C167.63 63.4445 154.872 62.8949 141.158 63.9717C129.957 64.8512 118.597 64.1165 107.214 64.7004C101.283 65.004 95.2657 64.4605 89.3353 64.7004C78.8683 65.1234 68.4636 66.2245 57.4276 66.4006C55.205 66.4361 52.9222 66.6678 50.6383 66.8864C42.6017 67.6556 30.8965 68.2405 20.9934 68.1009C16.5662 68.0381 2.57915 70.2404 1.94297 65.6629C1.73425 64.1671 -0.000713825 35.5008 1.53256 22.6802C3.79633 21.1206 5.97884 22.5385 8.31988 22.6802C14.7811 23.0698 21.0918 21.3675 27.7828 21.7086C32.3003 21.9383 36.57 20.988 41.1336 20.737C48.9475 20.3069 56.3078 20.2482 65.1221 20.0084C67.6829 19.9385 73.8912 19.6491 74.6257 19.5226C77.1735 19.0844 80.226 19.4942 82.9995 19.2787C100.054 17.9579 118.439 17.7444 137.764 16.6079C142.042 16.3569 146.445 16.615 150.663 16.6079C152.084 16.6058 153.531 17.1635 154.963 17.0937C162.593 16.7222 170.006 16.3397 177.593 16.6079C181.35 16.7404 185.109 16.6828 188.907 16.8508C195.785 17.1554 202.993 17.4813 210.406 17.8223C216.374 18.0966 222.463 17.2697 228.51 17.3365C234.688 17.4054 240.947 16.616 246.84 17.0937C250.48 17.3882 265.152 16.034 268.564 15.8792C273.823 15.6393 279.171 16.4267 284.179 16.1221C285.909 16.0168 287.835 15.2305 289.612 15.8792C289.561 19.9324 288.977 57.5219 288.253 61.2999Z" fill="#DD4D26"/>
</svg>
