<svg width="287" height="70" viewBox="0 0 287 70" fill="none" xmlns="http://www.w3.org/2000/svg">
<path fill-rule="evenodd" clip-rule="evenodd" d="M0.917729 62.3757C5.02022 61.1469 9.5629 62.078 13.8761 61.9717C32.813 61.4986 85.8293 60.4992 94.1259 60.1492C99.612 59.9181 105.435 59.6398 110.949 59.1371C114.202 58.8411 130.454 58.6092 135.274 58.3275C137.573 58.1934 139.843 57.7034 142.094 57.7203C146.334 57.7523 150.193 57.4799 154.37 57.3155C159.732 57.1046 165.213 57.9623 170.739 58.3275C177.012 58.7433 183.374 58.3258 189.607 58.5299C192.908 58.6379 196.089 59.1962 199.383 59.1371C202.46 59.0823 205.584 58.7138 208.704 58.7332C211.907 58.7517 215.027 58.077 218.251 57.9227C225.234 57.5887 234.165 57.9935 243.032 57.5179C247.957 57.2547 252.925 56.8052 257.808 56.7082C260.26 56.6602 279.647 54.3746 282.281 54.7634C285.111 55.1809 285.022 63.6037 284.861 64.6031C283.308 66.1768 281.366 65.4996 279.406 65.4127C268.692 64.9345 256.409 66.5706 245.305 65.8167C235.453 65.1479 149.199 65.2297 143.232 65.4127C138.046 65.5704 132.813 64.921 127.545 65.007C118.054 65.1631 107.606 66.2561 96.3997 65.8167C93.6305 65.7087 83.1714 66.0317 80.486 66.2223C76.5933 66.4973 72.5705 66.1591 68.665 66.4239C64.5083 66.7064 60.4019 66.9451 56.3881 67.032C52.1428 67.1231 48.12 66.7418 44.1121 66.8287C40.5148 66.9071 37.0484 67.8222 33.4285 68.2456C29.6312 68.6892 25.8114 68.3965 22.0614 68.6504C16.0219 69.0603 9.20839 69.2011 2.05414 69.2576C0.856674 67.6712 0.883262 64.6655 0.917729 62.3757" fill="#5F6F1F"/>
<path fill-rule="evenodd" clip-rule="evenodd" d="M284.927 6.75918C276.527 6.53653 268.597 7.91207 259.831 7.68605C258.118 7.64135 256.697 7.61099 254.723 7.68605C245.566 8.03183 236.085 7.41954 226.74 7.68605C220.919 7.85135 215.178 8.26376 209.417 8.34725C198.808 8.50159 188.269 8.54038 177.882 8.08243C161.378 8.0993 145.3 8.31352 129.468 8.61207C125.449 8.68797 121.288 8.41388 117.252 8.47966C112.171 8.56231 107.979 8.71749 103.039 8.61207C96.6726 8.47544 90.1073 8.83303 83.7192 8.87689C81.5724 8.89123 79.465 8.7352 77.2779 8.74448C62.1963 8.81195 47.7903 9.22267 32.6389 9.5381C30.1445 9.58954 6.86289 10.5029 1.3256 10.0677C1.40537 8.69135 0.296535 6.66641 0.88148 5.03954C3.32958 5.32966 5.79049 4.5993 8.20905 4.5099C9.88806 4.44749 11.4794 4.70472 13.0954 4.64231C15.7661 4.53773 18.3156 4.17508 21.0906 3.98026C28.499 3.46159 36.3051 4.04014 43.9655 3.71629C47.9942 3.54508 51.4526 3.23556 55.7353 3.05424C59.6793 2.88725 63.7237 3.104 67.7277 2.92183C72.3915 2.7093 77.4512 2.9134 81.4976 2.39219C101.372 1.98569 143.22 0.788939 147.234 0.804119C155.346 0.837854 161.308 0.837011 168.998 0.804119C174.375 0.782192 178.947 0.525806 184.766 0.540143C195.041 0.564601 205.003 0.169059 216.747 0.276168C221.74 0.320866 226.364 0.347011 231.404 0.407734C235.965 0.46171 240.282 -0.0814228 244.507 0.0105049C257.604 0.297252 270.523 -0.0485313 283.593 0.276168C284.192 2.63255 286.561 4.76966 284.927 6.75918" fill="#5F6F1F"/>
</svg>
