<svg width="290" height="83" viewBox="0 0 290 83" fill="none" xmlns="http://www.w3.org/2000/svg">
<path fill-rule="evenodd" clip-rule="evenodd" d="M0.210592 73.9597C4.37659 72.5027 8.98959 73.6067 13.3696 73.4807C32.5996 72.9197 86.4366 71.7347 94.8616 71.3197C100.433 71.0457 106.346 70.7157 111.946 70.1197C115.249 69.7687 131.752 69.4937 136.647 69.1597C138.982 69.0007 141.287 68.4197 143.573 68.4397C147.878 68.4777 151.797 68.1547 156.039 67.9597C161.484 67.7097 167.05 68.7267 172.661 69.1597C179.031 69.6527 185.492 69.1577 191.821 69.3997C195.173 69.5277 198.404 70.1897 201.749 70.1197C204.873 70.0547 208.045 69.6177 211.214 69.6407C214.466 69.6627 217.635 68.8627 220.909 68.6797C228 68.2837 237.069 68.7637 246.073 68.1997C251.074 67.8877 256.119 67.3547 261.078 67.2397C263.568 67.1827 283.255 64.4727 285.93 64.9337C288.804 65.4287 288.713 75.4157 288.55 76.6007C286.973 78.4667 285.001 77.6637 283.01 77.5607C272.13 76.9937 259.657 78.9337 248.381 78.0397C238.377 77.2467 150.788 77.3437 144.728 77.5607C139.462 77.7477 134.148 76.9777 128.798 77.0797C119.161 77.2647 108.551 78.5607 97.1706 78.0397C94.3586 77.9117 83.7376 78.2947 81.0106 78.5207C77.0576 78.8467 72.9726 78.4457 69.0066 78.7597C64.7856 79.0947 60.6156 79.3777 56.5396 79.4807C52.2286 79.5887 48.1436 79.1367 44.0736 79.2397C40.4206 79.3327 36.9006 80.4177 33.2246 80.9197C29.3686 81.4457 25.4896 81.0987 21.6816 81.3997C15.5486 81.8857 8.62959 82.0527 1.36459 82.1197C0.148592 80.2387 0.175592 76.6747 0.210592 73.9597Z" fill="#D5D879"/>
<path fill-rule="evenodd" clip-rule="evenodd" d="M288.616 8.01446C280.086 7.75046 272.034 9.38146 263.132 9.11346C261.392 9.06046 259.95 9.02446 257.945 9.11346C248.646 9.52346 239.018 8.79746 229.529 9.11346C223.618 9.30946 217.788 9.79846 211.938 9.89746C201.164 10.0805 190.462 10.1265 179.914 9.58346C163.155 9.60346 146.828 9.85746 130.751 10.2115C126.67 10.3015 122.444 9.97646 118.346 10.0545C113.186 10.1525 108.929 10.3365 103.913 10.2115C97.4478 10.0495 90.7808 10.4735 84.2938 10.5255C82.1138 10.5425 79.9738 10.3575 77.7528 10.3685C62.4378 10.4485 47.8088 10.9355 32.4228 11.3095C29.8898 11.3705 6.24777 12.4535 0.624771 11.9375C0.705771 10.3055 -0.420229 7.90446 0.173771 5.97546C2.65977 6.31946 5.15877 5.45346 7.61477 5.34746C9.31977 5.27346 10.9358 5.57846 12.5768 5.50446C15.2888 5.38046 17.8778 4.95046 20.6958 4.71946C28.2188 4.10446 36.1458 4.79046 43.9248 4.40646C48.0158 4.20346 51.5278 3.83646 55.8768 3.62146C59.8818 3.42346 63.9888 3.68046 68.0548 3.46446C72.7908 3.21246 77.9288 3.45446 82.0378 2.83646C102.22 2.35446 144.716 0.935456 148.792 0.953456C157.03 0.993456 163.084 0.992456 170.893 0.953456C176.353 0.927456 180.996 0.623456 186.905 0.640456C197.339 0.669456 207.455 0.200456 219.381 0.327456C224.451 0.380456 229.147 0.411456 234.265 0.483456C238.897 0.547456 243.28 -0.0965442 247.571 0.0124558C260.871 0.352456 273.99 -0.0575442 287.262 0.327456C287.87 3.12146 290.276 5.65546 288.616 8.01446Z" fill="#D5D879"/>
<path fill-rule="evenodd" clip-rule="evenodd" d="M287.262 60.5701C267.587 60.9491 245.058 60.7571 223.214 61.0491C211.954 61.2011 200.725 62.8551 189.386 62.7301C186.828 62.7021 184.303 62.4551 181.718 62.4901C167.054 62.6891 154.339 62.1461 140.673 63.2101C129.51 64.0791 118.189 63.3531 106.845 63.9301C100.935 64.2301 94.9382 63.6931 89.0282 63.9301C78.5972 64.3481 68.2282 65.4361 57.2302 65.6101C55.0152 65.6451 52.7402 65.8741 50.4642 66.0901C42.4552 66.8501 30.7902 67.4281 20.9212 67.2901C16.5092 67.2281 2.57017 69.4041 1.93617 64.8811C1.72817 63.4031 -0.000834227 35.0781 1.52717 22.4101C3.78317 20.8691 5.95817 22.2701 8.29117 22.4101C14.7302 22.7951 21.0192 21.1131 27.6872 21.4501C32.1892 21.6771 36.4442 20.7381 40.9922 20.4901C48.7792 20.0651 56.1142 20.0071 64.8982 19.7701C67.4502 19.7011 73.6372 19.4151 74.3692 19.2901C76.9082 18.8571 79.9502 19.2621 82.7142 19.0491C99.7102 17.7441 118.032 17.5331 137.29 16.4101C141.554 16.1621 145.941 16.4171 150.145 16.4101C151.561 16.4081 153.003 16.9591 154.43 16.8901C162.034 16.5231 169.421 16.1451 176.982 16.4101C180.727 16.5411 184.473 16.4841 188.258 16.6501C195.112 16.9511 202.295 17.2731 209.683 17.6101C215.63 17.8811 221.698 17.0641 227.724 17.1301C233.881 17.1981 240.119 16.4181 245.991 16.8901C249.619 17.1811 264.241 15.8431 267.641 15.6901C272.882 15.4531 278.211 16.2311 283.202 15.9301C284.926 15.8261 286.846 15.0491 288.616 15.6901C288.566 19.6951 287.984 56.8371 287.262 60.5701Z" fill="#95A300"/>
</svg>
