<svg xmlns="http://www.w3.org/2000/svg" width="24" height="20" viewBox="0 0 24 20">
    <path fill="#F3EDD7" fill-rule="evenodd" d="M.001 17.495a13.88 13.88 0 0 0 7.514 2.197c7.762 0 14.054-6.356 14.054-14.195 0-.196-.004-.39-.012-.584.281-.223 2.017-1.629 2.443-2.532 0 0-1.41.592-2.79.731H21.2s.003 0 .007-.004c.128-.086 1.905-1.308 2.146-2.765 0 0-.997.538-2.394 1.008a15.9 15.9 0 0 1-.722.225A4.895 4.895 0 0 0 16.638 0c-2.724 0-4.932 2.229-4.932 4.978 0 .388.044.766.128 1.129-.38-.016-6.178-.344-10.122-5.168 0 0-2.357 3.25 1.405 6.592 0 0-1.144-.046-2.13-.642 0 0-.363 3.938 3.897 4.945 0 0-.838.32-2.175.092 0 0 .748 3.181 4.532 3.478 0 0-2.992 2.731-7.241 2.09h.001z"/>
</svg>
