<?xml version="1.0" encoding="UTF-8" standalone="no"?>
<!-- Generator: Adobe Illustrator 23.0.4, SVG Export Plug-In . SVG Version: 6.00 Build 0)  -->

<svg
   xmlns:dc="http://purl.org/dc/elements/1.1/"
   xmlns:cc="http://creativecommons.org/ns#"
   xmlns:rdf="http://www.w3.org/1999/02/22-rdf-syntax-ns#"
   xmlns:svg="http://www.w3.org/2000/svg"
   xmlns="http://www.w3.org/2000/svg"
   xmlns:sodipodi="http://sodipodi.sourceforge.net/DTD/sodipodi-0.dtd"
   xmlns:inkscape="http://www.inkscape.org/namespaces/inkscape"
   version="1.1"
   id="Layer_1"
   x="0px"
   y="0px"
   viewBox="0 0 583.89 239.28"
   xml:space="preserve"
   sodipodi:docname="acqio.svg"
   width="583.89001"
   height="239.28003"
   inkscape:version="0.92.4 (unknown)"><metadata
   id="metadata4626"><rdf:RDF><cc:Work
       rdf:about=""><dc:format>image/svg+xml</dc:format><dc:type
         rdf:resource="http://purl.org/dc/dcmitype/StillImage" /><dc:title></dc:title></cc:Work></rdf:RDF></metadata><defs
   id="defs4624" /><sodipodi:namedview
   pagecolor="#ffffff"
   bordercolor="#666666"
   borderopacity="1"
   objecttolerance="10"
   gridtolerance="10"
   guidetolerance="10"
   inkscape:pageopacity="0"
   inkscape:pageshadow="2"
   inkscape:window-width="1853"
   inkscape:window-height="1025"
   id="namedview4622"
   showgrid="false"
   inkscape:zoom="0.39645207"
   inkscape:cx="420.94501"
   inkscape:cy="297.64001"
   inkscape:window-x="67"
   inkscape:window-y="27"
   inkscape:window-maximized="1"
   inkscape:current-layer="Layer_1" />
<style
   type="text/css"
   id="style4601">
	.st0{fill:#008AAB;}
	.st1{fill:#00898D;}
	.st2{fill:#FFBF3C;}
</style>
<g
   id="g4619"
   transform="translate(-128.64102,-184.47812)">
	<path
   class="st0"
   d="m 566.73,229.27 h -26.1 c -1.68,0 -3.04,1.36 -3.04,3.04 v 116.22 c 0,1.68 1.36,3.04 3.04,3.04 h 26.1 c 1.68,0 3.04,-1.36 3.04,-3.04 V 232.31 c 0,-1.68 -1.36,-3.04 -3.04,-3.04 z"
   id="path4603"
   inkscape:connector-curvature="0"
   style="fill:#008aab" />
	<path
   class="st0"
   d="m 647.01,261.45 c 15.97,0 28.97,12.99 28.97,28.97 0,15.98 -12.99,28.97 -28.97,28.97 -15.98,0 -28.97,-12.99 -28.97,-28.97 0,-15.98 13,-28.97 28.97,-28.97 m 0,-32.18 c -33.77,0 -61.15,27.38 -61.15,61.15 0,33.77 27.38,61.15 61.15,61.15 33.77,0 61.15,-27.38 61.15,-61.15 0,-33.77 -27.37,-61.15 -61.15,-61.15 z"
   id="path4605"
   inkscape:connector-curvature="0"
   style="fill:#008aab" />
	<path
   class="st0"
   d="m 353.15,300.97 c -0.05,0.12 -0.1,0.25 -0.15,0.37 -4.32,10.57 -14.7,18.04 -26.8,18.04 -15.97,0 -28.97,-12.99 -28.97,-28.97 0,-15.98 12.99,-28.97 28.97,-28.97 12.2,0 22.65,7.59 26.9,18.29 0.03,0.06 0.04,0.13 0.07,0.19 1.17,2.39 3.47,1.76 3.47,1.76 l 0.22,-0.06 24.71,-6.38 0.47,-0.12 c 0,0 3.07,-0.67 2.17,-4.04 -0.06,-0.22 -0.14,-0.43 -0.22,-0.64 -8.27,-23.97 -31.02,-41.2 -57.81,-41.2 -33.77,0 -61.15,27.38 -61.15,61.15 0,33.77 27.38,61.15 61.15,61.15 26.91,0 49.75,-17.39 57.92,-41.53 0.05,-0.15 0.11,-0.3 0.15,-0.46 0.83,-3.13 -2.2,-3.88 -2.2,-3.88 l -0.28,-0.07 -25,-6.46 c 0.02,0.03 -2.5,-0.68 -3.62,1.83 z"
   id="path4607"
   inkscape:connector-curvature="0"
   style="fill:#008aab" />
	<path
   class="st0"
   d="m 189.93,229.27 c -33.77,0 -61.15,27.38 -61.15,61.15 0,33.77 27.38,61.15 61.15,61.15 10.48,0 20.34,-2.64 28.97,-7.29 v 4.25 c 0,1.68 1.36,3.04 3.04,3.04 h 26.1 c 1.68,0 3.04,-1.36 3.04,-3.04 v -58.11 c 0,-33.78 -27.38,-61.15 -61.15,-61.15 z m 0,90.12 c -15.97,0 -28.97,-12.99 -28.97,-28.97 0,-15.98 12.99,-28.97 28.97,-28.97 15.98,0 28.97,12.99 28.97,28.97 0,15.98 -13,28.97 -28.97,28.97 z"
   id="path4609"
   inkscape:connector-curvature="0"
   style="fill:#008aab" />
	<path
   class="st0"
   d="m 460.34,229.27 c -33.77,0 -61.15,27.38 -61.15,61.15 0,33.77 27.38,61.15 61.15,61.15 10.48,0 20.34,-2.64 28.97,-7.29 v 36.43 c 0,1.68 1.36,3.04 3.04,3.04 h 26.1 c 1.68,0 3.04,-1.36 3.04,-3.04 v -90.3 c 0,-33.77 -27.38,-61.14 -61.15,-61.14 z m 0,90.12 c -15.97,0 -28.97,-12.99 -28.97,-28.97 0,-15.98 12.99,-28.97 28.97,-28.97 15.98,0 28.97,12.99 28.97,28.97 0,15.98 -13,28.97 -28.97,28.97 z"
   id="path4611"
   inkscape:connector-curvature="0"
   style="fill:#008aab" />
	<path
   class="st1"
   d="M 353.14,301"
   id="path4613"
   inkscape:connector-curvature="0"
   style="fill:#00898d" />
	<path
   class="st2"
   d="m 492.19,389.9 h 26.4 c 2.58,0 3.87,3.11 2.04,4.94 l -26.4,26.4 c -1.82,1.82 -4.94,0.53 -4.94,-2.04 v -26.4 c 0.01,-1.6 1.31,-2.9 2.9,-2.9 z"
   id="path4615"
   inkscape:connector-curvature="0"
   style="fill:#ffbf3c" />
	<path
   class="st2"
   d="m 566.88,223.12 h -26.4 c -2.58,0 -3.87,-3.11 -2.04,-4.94 l 26.4,-26.4 c 1.82,-1.82 4.94,-0.53 4.94,2.04 v 26.4 c -0.01,1.61 -1.31,2.9 -2.9,2.9 z"
   id="path4617"
   inkscape:connector-curvature="0"
   style="fill:#ffbf3c" />
</g>
</svg>