<svg xmlns="http://www.w3.org/2000/svg" viewBox="0 0 283.46 254.27"><defs><style>.cls-1{fill:#f47c20;fill-rule:evenodd;}</style></defs><title>cesarschool</title><g id="Layer_2" data-name="Layer 2"><g id="Layer_1-2" data-name="Layer 1"><path class="cls-1" d="M141.73,113.37C63.68,113.37,0,87.63,0,56.06,0,28.58,48.26,5.52,112.23,0V3.34c-33.12,4-56.87,18.24-56.87,30.45,0,15.61,38.8,28.34,86.37,28.34S228.1,49.4,228.1,33.79c0-12.21-23.75-27.18-56.87-31.15V0c64,5.52,112.22,28.58,112.22,56.06,0,31.57-63.66,57.31-141.72,57.31M129.51,9.43V6.79C103,8.82,83,17.32,83,27.45c0,11.63,26.39,21.12,58.73,21.12s58.73-9.49,58.73-21.12c0-10.13-20-18.63-46.5-20.66V9.43c13.72,1.46,23.57,5.31,23.57,9.81,0,5.75-16.08,10.45-35.8,10.45S105.94,25,105.94,19.24c0-4.5,9.84-8.35,23.57-9.81M75.24,142.18A8.91,8.91,0,0,1,82,145a9.58,9.58,0,0,1,2.54,6.55v3.9a2.25,2.25,0,0,1-2.49,2.52H71.5a1.12,1.12,0,0,0-1.25,1.28v1.39a5.52,5.52,0,0,0,1.3,3.6,4.58,4.58,0,0,0,3.68,1.66,5.76,5.76,0,0,0,3.62-1.2,11.53,11.53,0,0,0,2.05-2.19,1.18,1.18,0,0,1,.86-.51,1,1,0,0,1,.82.28l1.25.93a1.28,1.28,0,0,1,.58.87,1.48,1.48,0,0,1-.28.9,18.45,18.45,0,0,1-1.24,1.68A11,11,0,0,1,81,168.26a9.92,9.92,0,0,1-5.78,1.65,9.23,9.23,0,0,1-9.32-9.3v-9.1a9.1,9.1,0,0,1,2.6-6.55,9,9,0,0,1,6.72-2.78m5,9.33a5.5,5.5,0,0,0-1.31-3.66,5,5,0,0,0-7.37,0,5.5,5.5,0,0,0-1.31,3.66v1.39a1.11,1.11,0,0,0,1.25,1.27H79a1.11,1.11,0,0,0,1.25-1.27Zm-63.08,11-1.29-.93c-.62-.43-1.17-.28-1.69.45a6.36,6.36,0,0,1-.52.81,6.23,6.23,0,0,1-.92,1.1,4.51,4.51,0,0,1-3.41,1.32,4.71,4.71,0,0,1-3.7-1.66A5.47,5.47,0,0,1,4.33,160V150.9a5.52,5.52,0,0,1,1.3-3.65,4.8,4.8,0,0,1,3.7-1.6,5.72,5.72,0,0,1,2.07.34,5.89,5.89,0,0,1,1.4,1,4.24,4.24,0,0,1,.92,1.09,3.08,3.08,0,0,1,.46.93,1.1,1.1,0,0,0,1.69.28l1.35-1a1.17,1.17,0,0,0,.36-1.72,9.33,9.33,0,0,0-2.16-2.92A7.6,7.6,0,0,0,13,142.19a10.38,10.38,0,0,0-3.67-.59,8.91,8.91,0,0,0-6.73,2.79A9.1,9.1,0,0,0,0,150.93V160a9.09,9.09,0,0,0,2.59,6.5,8.9,8.9,0,0,0,6.72,2.81,10.39,10.39,0,0,0,3.63-.68,8.25,8.25,0,0,0,2.48-1.42A8,8,0,0,0,17,165.51a9,9,0,0,0,.69-1.27c.38-.65.2-1.22-.53-1.7m130.55-7.78a11.73,11.73,0,0,0-6.57-2,11.44,11.44,0,0,1-2.25-.59,3.36,3.36,0,0,1-1.52-1.1,2.38,2.38,0,0,1-.75-1.89,3.8,3.8,0,0,1,1-2.32c.65-.81,1.84-1.23,3.57-1.27a5.37,5.37,0,0,1,3.79,1.61,1.35,1.35,0,0,0,1.77.17l1.35-1a1,1,0,0,0,.17-1.69,10,10,0,0,0-2.82-2.22,10.62,10.62,0,0,0-4.26-.86c-2.87,0-5,.84-6.49,2.41a7.39,7.39,0,0,0-2.21,5.21c.08,4.55,3,7.09,8.71,7.59a15.56,15.56,0,0,1,2.49.45,4.43,4.43,0,0,1,1.78,1.15,3.61,3.61,0,0,1,.72,2.32A4.73,4.73,0,0,1,145,163.8a4.79,4.79,0,0,1-3.86,1.49,5.31,5.31,0,0,1-3.39-1.15,13.05,13.05,0,0,1-2.39-2.36,1.08,1.08,0,0,0-1.62-.34l-1.31.93a1.22,1.22,0,0,0-.36,1.77,11.8,11.8,0,0,0,3.23,3.38,9.82,9.82,0,0,0,5.83,1.82,9.46,9.46,0,0,0,6.9-2.53,8.23,8.23,0,0,0,2.43-6.09,7,7,0,0,0-2.77-6m133.13,1.42a6.2,6.2,0,0,1,1.86,2.23,9.68,9.68,0,0,1,.76,4.2v4.92a1.09,1.09,0,0,1-1.23,1.24h-1.86a1.09,1.09,0,0,1-1.24-1.24v-4.92a5.54,5.54,0,0,0-1.3-3.64,4.7,4.7,0,0,0-3.69-1.61h-3.75a1.11,1.11,0,0,0-1.24,1.28v8.89a1.09,1.09,0,0,1-1.24,1.24h-1.86a1.09,1.09,0,0,1-1.24-1.24V151a9.13,9.13,0,0,1,2.6-6.56,9,9,0,0,1,6.73-2.79,10.46,10.46,0,0,1,6.74,2.14,7.61,7.61,0,0,1,2.58,6,5.83,5.83,0,0,1-1,3.58,6.74,6.74,0,0,1-1.62,1.62c-.47.39-.47.79,0,1.21m-3.62-3.33a3.1,3.1,0,0,0,1.91-3.08,3.7,3.7,0,0,0-1.47-3.13,6,6,0,0,0-3.52-1,4.71,4.71,0,0,0-3.69,1.62,5.52,5.52,0,0,0-1.3,3.66v1.4a1.11,1.11,0,0,0,1.24,1.26h3.75a6.83,6.83,0,0,0,3.08-.74M207.65,141.6a8.87,8.87,0,0,1,6.78,2.79,9.55,9.55,0,0,1,2.54,6.55v16.59a1.09,1.09,0,0,1-1.23,1.24h-1.86a1.09,1.09,0,0,1-1.24-1.24v-8.89a1.12,1.12,0,0,0-1.25-1.28H203.9a1.12,1.12,0,0,0-1.25,1.28v8.89a1.09,1.09,0,0,1-1.23,1.24h-1.86a1.09,1.09,0,0,1-1.24-1.24V150.94a9.12,9.12,0,0,1,2.6-6.55,9,9,0,0,1,6.73-2.79m5,9.33a5.58,5.58,0,0,0-1.3-3.66,5,5,0,0,0-7.38,0,5.53,5.53,0,0,0-1.31,3.66v1.4a1.11,1.11,0,0,0,1.25,1.26h7.49a1.11,1.11,0,0,0,1.25-1.26ZM42.93,166.82H41.74a.74.74,0,0,0-.78.86v.8a.73.73,0,0,0,.78.84h1.19a.73.73,0,0,0,.78-.84v-.8a.74.74,0,0,0-.78-.86m66.34,0h-1.18a.74.74,0,0,0-.78.85v.81a.73.73,0,0,0,.78.84h1.18a.74.74,0,0,0,.79-.84v-.81a.75.75,0,0,0-.79-.85m65.86.07H174a.75.75,0,0,0-.79.85v.81a.74.74,0,0,0,.79.84h1.18a.73.73,0,0,0,.78-.84v-.81a.74.74,0,0,0-.78-.85m65.92-.05h-1.18c-.52,0-.78.3-.78.85v.81a.73.73,0,0,0,.78.83h1.18a.73.73,0,0,0,.78-.83v-.81c0-.55-.26-.84-.78-.85M16,220.75A17.26,17.26,0,0,1,27,225a1.48,1.48,0,0,0,1.13.43,1.59,1.59,0,0,0,1.1-.52L32,221.71a1.55,1.55,0,0,0-.12-2.18,25.31,25.31,0,0,0-15.95-6c-7.49,0-15.56,3.76-15.56,12,0,7.69,7.9,9.95,14.93,11.95,3.74,1,9.4,2.61,9.4,4.89,0,3.71-5.39,4.69-8.25,4.69A17.32,17.32,0,0,1,5.56,242.9a1.55,1.55,0,0,0-2.11,0l-3,2.9a1.56,1.56,0,0,0,0,2.22c4.46,4.29,11.24,6.21,16,6.21,7.74,0,15.57-4.09,15.57-11.93s-8-10.11-15-12.09l-.17-.05c-4.33-1.2-9.23-2.57-9.23-4.7,0-3.75,5.22-4.75,8.31-4.75m66.52,21a1.47,1.47,0,0,0-1.14-.42,1.54,1.54,0,0,0-1.09.53,13.79,13.79,0,0,1-10,5,11.42,11.42,0,0,1-11.59-11.21V232a11.39,11.39,0,0,1,11.59-11.14c3.48,0,7.2,1.89,10,5a1.54,1.54,0,0,0,2.23.1l3.12-3a1.54,1.54,0,0,0,.09-2.14c-4.14-4.69-9.9-7.49-15.4-7.49a18.81,18.81,0,0,0-19,18.6v3.64a18.81,18.81,0,0,0,19,18.6c5.47,0,11.23-2.76,15.39-7.41a1.55,1.55,0,0,0-.08-2.15ZM121,214a16.73,16.73,0,0,0-8.84,2.65v-17a1.55,1.55,0,0,0-1.55-1.55h-4.3a1.55,1.55,0,0,0-1.54,1.55v53a1.54,1.54,0,0,0,1.54,1.54h4.3a1.54,1.54,0,0,0,1.55-1.54l.07-22.92a8.81,8.81,0,0,1,17.61,0v22.92a1.54,1.54,0,0,0,1.54,1.54h4.23a1.54,1.54,0,0,0,1.55-1.54V229.81c0-8.56-7.4-15.79-16.16-15.79m161.35,36.8-1.34-3.93a1.51,1.51,0,0,0-.8-.9,1.56,1.56,0,0,0-1.2-.05,12.71,12.71,0,0,1-4.36.94c-3.28,0-4.68-1.47-4.68-4.91V199.69a1.55,1.55,0,0,0-1.55-1.55h-4.3a1.55,1.55,0,0,0-1.55,1.55V242c0,7.82,4.41,12.3,12.08,12.3a24.41,24.41,0,0,0,6.48-1.41l.2-.06a1.53,1.53,0,0,0,.93-.78,1.56,1.56,0,0,0,.09-1.2m-106-37.35a20.34,20.34,0,1,0,14.39,34.72l9.19-9.19,9.19,9.19a20.34,20.34,0,0,0,34.72-14.38,1.64,1.64,0,0,0-1.63-1.64h-4.08a1.64,1.64,0,0,0-1.64,1.64A13,13,0,0,1,214.31,243l-9.19-9.19,9.19-9.19a12.89,12.89,0,0,1,9.19-3.81,1.63,1.63,0,0,0,1.63-1.63V215.1a1.63,1.63,0,0,0-1.63-1.63,20.15,20.15,0,0,0-14.38,6l-9.19,9.18-9.19-9.19a20.23,20.23,0,0,0-14.39-5.95m0,33.33a13,13,0,1,1,9.19-22.18l9.19,9.19L185.54,243a12.9,12.9,0,0,1-9.19,3.8"/></g></g></svg>