<svg xmlns="http://www.w3.org/2000/svg" viewBox="0 0 687.49 235.65"><defs><style>.cls-1{fill:#fff;}.cls-2{fill:#fed10a;}.cls-3{fill:#24bbb1;}.cls-4{fill:#ef5098;}.cls-5{fill:#17a8e0;}.cls-6{fill:#93c83e;}.cls-7{fill:#0779a1;}.cls-8{fill:#231f20;}</style></defs><title>elastic</title><g id="Layer_2" data-name="Layer 2"><g id="Layer_1-2" data-name="Layer 1"><path class="cls-1" d="M236.57,123.46a46.54,46.54,0,0,0-30.79-43.9A66.26,66.26,0,0,0,207,66.84,66.81,66.81,0,0,0,86,27.73,35.48,35.48,0,0,0,31,68.14,47.18,47.18,0,0,0,0,112.22a46.6,46.6,0,0,0,30.94,44A67.67,67.67,0,0,0,29.72,169a66.63,66.63,0,0,0,120.8,38.85,35.43,35.43,0,0,0,55-40.27,47.16,47.16,0,0,0,31-44.08"/><path class="cls-2" d="M93,101.49l51.76,23.6L197,79.33a57.6,57.6,0,0,0,1.13-11.48,58.38,58.38,0,0,0-106.54-33L82.9,79.91Z"/><path class="cls-3" d="M39.43,156.31a58.64,58.64,0,0,0,57.41,70.2,58.34,58.34,0,0,0,48.37-25.64L153.84,156l-11.51-22-52-23.69Z"/><path class="cls-4" d="M39.1,66.72,74.57,75.1l7.78-40.33A28,28,0,0,0,39.1,66.72"/><path class="cls-5" d="M36,75.17A39.51,39.51,0,0,0,9.15,112.33a39.11,39.11,0,0,0,25.17,36.55l49.77-45L75,84.37Z"/><path class="cls-6" d="M154.31,200.87A28,28,0,0,0,197.47,169L162,160.67Z"/><path class="cls-7" d="M161.52,151.38l39,9.13a39.49,39.49,0,0,0,26.87-37.16A39.06,39.06,0,0,0,202.2,86.86l-51,44.71Z"/><path class="cls-8" d="M330.77,165.55l4.73-.49.33,9.62A233.92,233.92,0,0,1,304,177.29q-17.61,0-24.94-10.19t-7.33-31.7q0-42.87,34.06-42.87,16.47,0,24.62,9.21t8.15,28.93l-.66,9.29H284.15q0,13.53,4.9,20t17,6.52Q318.22,166.53,330.77,165.55Zm-4.4-35.37q0-15-4.81-21.19t-15.64-6.19q-10.85,0-16.3,6.52T284,130.18Z"/><path class="cls-8" d="M355.64,176.66V69.37h12.23V176.66Z"/><path class="cls-8" d="M444.86,118.77v41.11c0,4.07,10.14,3.91,10.14,3.91l-.62,10.8c-8.59,0-15.7.72-20-3.41a71.18,71.18,0,0,1-29.33,6.11q-11.24,0-17.11-6.36t-5.87-18.26q0-11.89,6-17.52T407,128.22l25.59-2.44v-7q0-8.31-3.58-11.9t-9.78-3.59l-32.12,0V92.53h31.3q13.86,0,20.13,6.35T444.86,118.77ZM394.65,152q0,15,12.39,15a65.91,65.91,0,0,0,21.84-3.75l3.75-1.31V135.07l-24.12,2.28q-7.33.66-10.6,4.24T394.65,152Z"/><path class="cls-8" d="M492.57,103.45q-17.77,0-17.77,12.39,0,5.7,4.08,8.06t18.58,4.89Q512,131.32,518,135.88T524,153q0,12.56-8.07,18.42t-23.55,5.87c-6.74,0-29.23-2.5-29.23-2.5l.65-10.59c12.93,1.24,22.27,2.17,28.58,2.17s11.11-1,14.42-3,5-5.38,5-10.11-1.41-7.93-4.23-9.61-9-3.29-18.59-4.81-16.35-3.75-20.37-6.69-6-8.36-6-16.29S465.37,102,471,98.23s12.58-5.7,20.95-5.7c6.62,0,29.62,1.68,29.62,1.68v10.66C509.45,104.32,499.52,103.45,492.57,103.45Z"/><path class="cls-8" d="M583,104.75H557.07v39q0,14,2,18.42t9.7,4.4l14.51-1,.81,10.11a112.08,112.08,0,0,1-16.63,1.79q-12.71,0-17.6-6.19T545,147.62V104.75H533.44V94.16H545V69.22h12.06V94.16H583Z"/><path class="cls-8" d="M600,83.74V69.56h12.22V83.74Zm0,92.92V94.16h12.22v82.5Z"/><path class="cls-8" d="M665.16,92.53q5.39,0,18.26,2l3.91.49-.49,9.94q-13-1.45-19.23-1.46-13.86,0-18.83,6.6t-5,24.45q0,17.85,4.65,24.86t19.31,7L687,164.9l.49,10.1q-15.15,2.28-22.65,2.29-19.08,0-26.33-9.78t-7.25-33q0-23.23,7.82-32.6T665.16,92.53Z"/></g></g></svg>