<?xml version="1.0" encoding="UTF-8" standalone="no"?>
<!-- Generator: Adobe Illustrator 23.0.4, SVG Export Plug-In . SVG Version: 6.00 Build 0)  -->

<svg
   xmlns:dc="http://purl.org/dc/elements/1.1/"
   xmlns:cc="http://creativecommons.org/ns#"
   xmlns:rdf="http://www.w3.org/1999/02/22-rdf-syntax-ns#"
   xmlns:svg="http://www.w3.org/2000/svg"
   xmlns="http://www.w3.org/2000/svg"
   xmlns:xlink="http://www.w3.org/1999/xlink"
   xmlns:sodipodi="http://sodipodi.sourceforge.net/DTD/sodipodi-0.dtd"
   xmlns:inkscape="http://www.inkscape.org/namespaces/inkscape"
   version="1.1"
   id="Layer_1"
   x="0px"
   y="0px"
   viewBox="0 0 245.89 142.28"
   xml:space="preserve"
   sodipodi:docname="logo_globo-em 2 linhas.svg"
   width="245.89001"
   height="142.28003"
   inkscape:version="0.92.4 (unknown)"><metadata
   id="metadata4516"><rdf:RDF><cc:Work
       rdf:about=""><dc:format>image/svg+xml</dc:format><dc:type
         rdf:resource="http://purl.org/dc/dcmitype/StillImage" /><dc:title></dc:title></cc:Work></rdf:RDF></metadata><defs
   id="defs4514" /><sodipodi:namedview
   pagecolor="#ffffff"
   bordercolor="#666666"
   borderopacity="1"
   objecttolerance="10"
   gridtolerance="10"
   guidetolerance="10"
   inkscape:pageopacity="0"
   inkscape:pageshadow="2"
   inkscape:window-width="1853"
   inkscape:window-height="1025"
   id="namedview4512"
   showgrid="false"
   inkscape:zoom="0.79290414"
   inkscape:cx="104.88949"
   inkscape:cy="330.65903"
   inkscape:window-x="67"
   inkscape:window-y="27"
   inkscape:window-maximized="1"
   inkscape:current-layer="Layer_1" />
<style
   type="text/css"
   id="style4499">
	.st0{clip-path:url(#SVGID_2_);fill:#0669DE;}
</style>
<g
   id="g4509"
   transform="translate(-297.64001,-227.24678)">
	<defs
   id="defs4502">
		<path
   id="SVGID_1_"
   d="m 492.65,316.4 c -4.36,0 -9.96,2.42 -13.51,6.52 -3.38,-4.29 -7.92,-6.52 -13.25,-6.52 -4.71,0 -8.8,1.97 -11.91,5.36 -0.44,-3.04 -2.58,-4.82 -5.86,-4.82 -3.73,0 -6.47,2.86 -6.47,7.16 v 34.14 c 0,4.29 2.5,7.15 6.24,7.15 3.73,0 6.47,-2.86 6.47,-7.15 v -22.61 c 0,-5.18 2.47,-8.58 7.71,-8.58 4.63,0 7.09,3.4 7.09,8.58 v 22.61 c 0,4.29 2.51,7.15 6.24,7.15 3.73,0 6.47,-2.86 6.47,-7.15 v -22.61 c 0,-5.18 3.32,-8.58 8.03,-8.58 4.62,0 6.8,3.4 6.8,8.58 v 22.61 c 0,4.29 2.83,7.15 6.56,7.15 3.74,0 6.08,-2.86 6.08,-7.15 v -24.85 c 0.01,-11.27 -6.28,-16.99 -16.69,-16.99 z m -75.37,37.81 c -6.72,0 -9.83,-7.56 -9.83,-13.63 0,-6.07 3.02,-12.93 9.83,-12.93 6.81,0 9.83,6.85 9.83,12.93 0,6.07 -3.1,13.63 -9.83,13.63 z m 0,-37.81 c -13.11,0 -22.25,11.34 -22.25,24.18 0,13.18 8.88,24.71 22.25,24.71 13.37,0 22.25,-11.52 22.25,-24.71 0,-12.84 -9.14,-24.18 -22.25,-24.18 z m -38.82,11.44 c 4.09,0 6.93,2.5 10.13,2.5 3.02,0 4.89,-3.48 4.89,-6.17 0,-6.25 -10.58,-7.78 -15.64,-7.78 -13.51,0 -22.93,11.54 -22.93,24.59 0,13.41 9.15,24.4 22.93,24.4 4.62,0 15.64,-2.23 15.64,-8.84 0,-3.04 -2.49,-5.63 -5.51,-5.63 -1.51,0 -5.78,2.68 -8.98,2.68 -6.93,0 -11.28,-6.26 -11.28,-12.6 -0.01,-6.62 3.46,-13.15 10.75,-13.15 z m -31.11,22.55 c -4.12,0 -7.3,3.37 -7.3,7.52 0,4.14 3.17,7.52 7.3,7.52 4.12,0 7.47,-3.37 7.47,-7.52 0,-4.14 -3.35,-7.52 -7.47,-7.52 z m 167.14,-54.35 c -8.06,0 -11.59,-7.76 -11.59,-14.82 0,-7.05 3.44,-15.02 11.59,-15.02 8.16,0 11.77,7.98 11.77,15.02 0,7.06 -3.72,14.82 -11.77,14.82 z m 0,-43.08 c -15.69,0 -26.29,13.6 -26.29,28.52 0,15.34 10.28,28.31 26.29,28.31 16.01,0 26.64,-12.98 26.64,-28.31 0,-14.92 -10.94,-28.52 -26.64,-28.52 z m -54.93,13.23 c 7.63,0 11.39,8.07 11.39,15.02 0,6.85 -3.76,14.82 -11.39,14.82 -8.03,0 -11.48,-8.18 -11.48,-15.34 0,-7.14 3.66,-14.5 11.48,-14.5 z m -11.74,36.87 c 2.74,4.49 8.44,6.74 13.42,6.74 14.74,0 24.87,-13.8 24.87,-27.7 0,-14.31 -8.61,-29.14 -24.36,-29.14 -5.08,0 -9.8,1.74 -13.66,5.11 v -20.03 c 0,-4.91 -3.31,-8.19 -7.58,-8.19 -4.27,0 -7.32,3.28 -7.32,8.19 V 301 c 0,4.92 3.05,8.18 7.32,8.18 4.06,0 6.4,-2.25 7.31,-6.12 z m -43.18,-36.6 c 8.14,0 11.57,7.97 11.57,15.02 0,7.05 -3.53,14.82 -11.57,14.82 -8.04,0 -11.74,-7.77 -11.74,-14.82 -0.01,-7.05 3.6,-15.02 11.74,-15.02 z m 0,43.33 c 15.96,0 26.58,-12.98 26.58,-28.31 0,-14.92 -10.92,-28.52 -26.58,-28.52 -15.66,0 -26.58,13.6 -26.58,28.52 0,15.34 10.62,28.31 26.58,28.31 z M 368.6,310 c 4.31,0 7.39,-3.3 7.39,-8.26 v -63.62 c 0,-4.96 -3.08,-8.27 -7.39,-8.27 -4.31,0 -7.39,3.31 -7.39,8.27 v 63.62 c 0,4.96 3.08,8.26 7.39,8.26 z m -41.04,-15.29 c -7.62,0 -11.38,-5.57 -11.38,-13.44 0,-6.85 3.76,-14.82 11.38,-14.82 8.03,0 11.31,8.17 11.31,15.34 0,7.15 -3.49,12.92 -11.31,12.92 z m 26.12,7.98 v -40.94 c 0,-4.9 -3.05,-8.18 -7.31,-8.18 -4.07,0 -6.41,2.25 -7.33,6.13 -2.74,-4.5 -8.43,-6.75 -13.41,-6.75 -14.74,0 -24.87,13.8 -24.87,28.62 0,14.62 8,26.62 23.35,26.62 6.71,0 11.51,-2.45 14.56,-6.95 h 0.2 v 3.47 c 0,7.47 -5.11,11.66 -12.22,11.66 -8.43,0 -13.62,-4.6 -18.29,-4.6 -2.84,0 -5.89,3.68 -5.89,6.43 0,8.08 17.07,11.05 23.07,11.05 16.66,0.02 28.14,-8.88 28.14,-26.56 z"
   inkscape:connector-curvature="0" />
	</defs>
	<clipPath
   id="SVGID_2_">
		<use
   xlink:href="#SVGID_1_"
   style="overflow:visible"
   id="use4504"
   x="0"
   y="0"
   width="100%"
   height="100%" />
	</clipPath>
	<rect
   x="273.64001"
   y="202.73"
   class="st0"
   width="294.60999"
   height="189.81"
   clip-path="url(#SVGID_2_)"
   id="rect4507"
   style="fill:#0669de" />
</g>
</svg>