<svg xmlns="http://www.w3.org/2000/svg" viewBox="0 0 403.97 154.44"><defs><style>.cls-1{fill:#201e20;}.cls-2{fill:none;}.cls-3{fill:#fff;}.cls-4{fill:#f15b55;}.cls-5{fill:#00a8ad;}</style></defs><title>horizontal-color-2</title><g id="Layer_2" data-name="Layer 2"><g id="Camada_3" data-name="Camada 3"><path class="cls-1" d="M171.85,23.45h12.76V58.29h22.28V69.46h-35Z"/><path class="cls-1" d="M228.26,23.12h12.29l19.59,46.34H246.46l-3.35-8.21H225.36l-3.28,8.21H208.67Zm11.17,28.2L234.3,38.24l-5.19,13.08Z"/><path class="cls-1" d="M264.61,23.45h23.6c5.78,0,9.86,1.45,12.55,4.14a10.09,10.09,0,0,1,3,7.43v.13c0,5.33-3,8.48-7.1,10.26,5.59,1.84,9.14,5,9.14,11.24v.13c0,7.89-6.44,12.68-17.42,12.68H264.61Zm20.44,18.34c3.88,0,6.05-1.31,6.05-4v-.13c0-2.5-2-3.95-5.78-3.95H277v8.09Zm1.84,17.42c3.88,0,6.12-1.51,6.12-4.21v-.13c0-2.5-2-4.14-6.25-4.14H277v8.48Z"/><path class="cls-1" d="M170.28,103.56v-.13c0-13.41,10.32-23.93,24.25-23.93,9.4,0,15.45,4,19.53,9.6l-9.6,7.43c-2.63-3.29-5.66-5.39-10.06-5.39-6.44,0-11,5.45-11,12.16v.13c0,6.9,4.54,12.29,11,12.29,4.8,0,7.63-2.23,10.39-5.59l9.59,6.84c-4.33,6-10.19,10.39-20.37,10.39A23.37,23.37,0,0,1,170.28,103.56Z"/><path class="cls-1" d="M217,103.56v-.13C217,90.22,227.6,79.5,241.8,79.5s24.71,10.59,24.71,23.8v.13c0,13.21-10.65,23.93-24.84,23.93S217,116.77,217,103.56Zm36.55,0v-.13c0-6.64-4.8-12.42-11.83-12.42S230,96.66,230,103.3v.13c0,6.64,4.8,12.42,11.77,12.42S253.5,110.2,253.5,103.56Z"/><path class="cls-1" d="M273.16,80.42H290.9c16.44,0,26,9.47,26,22.75v.13c0,13.28-9.66,23.14-26.23,23.14H273.16Zm17.94,34.71c7.63,0,12.69-4.21,12.69-11.63v-.14c0-7.36-5.06-11.63-12.69-11.63h-5.19v23.4Z"/><path class="cls-1" d="M323.45,80.42h37V91.27H336.07v7h22.08v10.05H336.07v7.3h24.71v10.85H323.45Z"/><path class="cls-1" d="M363.81,119.6l7.1-8.48a23.65,23.65,0,0,0,14.92,5.52c3.42,0,5.26-1.18,5.26-3.15v-.13c0-1.91-1.51-3-7.76-4.41-9.79-2.23-17.35-5-17.35-14.46v-.13c0-8.55,6.77-14.73,17.81-14.73,7.82,0,13.94,2.11,18.93,6.12l-6.37,9a23.07,23.07,0,0,0-12.89-4.53c-3.09,0-4.6,1.31-4.6,3v.13c0,2.1,1.58,3,7.95,4.47,10.59,2.3,17.16,5.72,17.16,14.33v.13c0,9.4-7.43,15-18.6,15C377.22,127.23,369.46,124.66,363.81,119.6Z"/><path class="cls-2" d="M112.05,34.12l-4.49-1.66,4.49,1.66a2.17,2.17,0,0,0,1.26.08A2.17,2.17,0,0,1,112.05,34.12Z"/><polygon class="cls-2" points="104.31 38.81 104.7 37.76 104.31 38.81 104.31 38.81"/><path class="cls-2" d="M114.72,33.2a2.46,2.46,0,0,0,.19-.4l2.43-6.65-2.43,6.65A2.46,2.46,0,0,1,114.72,33.2Z"/><path class="cls-3" d="M93.48,22.5l18,6.68,3-8.21L71.68,5.08l-3,8.21L73.19,15a2.23,2.23,0,0,1,1.31,2.86L33.11,129.35a15.23,15.23,0,0,0,9,19.58A15.91,15.91,0,0,0,47.71,150,15.3,15.3,0,0,0,62,140.07L102.61,30.62l-10.67-4a2.22,2.22,0,1,1,1.54-4.16ZM83,26.77a2.84,2.84,0,1,1-2.84,2.84A2.84,2.84,0,0,1,83,26.77Zm-8.77,22.4a5.93,5.93,0,1,1-5.92,5.92A5.93,5.93,0,0,1,74.23,49.17Zm17.28-5.05a4,4,0,1,1-4-4A4,4,0,0,1,91.51,44.12Z"/><path class="cls-4" d="M117.76,25h0l-.42,1.16-2.43,6.65a2.46,2.46,0,0,1-.19.4,2.13,2.13,0,0,1-1.41,1,2.17,2.17,0,0,1-1.26-.08l-4.49-1.66-.78-.29-2.08,5.59-.39,1.05h0l21,36.29L95.85,126H117.3L146.82,75.1Z"/><polygon class="cls-4" points="29.51 24.21 0 75.1 29.51 125.98 29.62 125.98 37.95 103.53 21.46 75.1 50.97 24.21 29.51 24.21"/><path class="cls-1" d="M118.12,17.58,71.14.14A2.25,2.25,0,0,0,69.43.2a2.23,2.23,0,0,0-1.15,1.26L63.76,13.84a2.22,2.22,0,0,0,1.31,2.85l4.49,1.67L38,103.54,29.62,126l-.68,1.83a19.85,19.85,0,0,0,37.21,13.81L106.78,32.17l5.27,1.95a2.17,2.17,0,0,0,1.26.08,2.25,2.25,0,0,0,.44-.14,2.14,2.14,0,0,0,1-.86c.41-.74,4.71-12.78,4.71-12.78A2.22,2.22,0,0,0,118.12,17.58ZM80.93,89,62,140.07A15.3,15.3,0,0,1,47.71,150a15.91,15.91,0,0,1-5.63-1.07,15.23,15.23,0,0,1-9-19.58L34.35,126,74.5,17.82A2.23,2.23,0,0,0,73.19,15l-4.51-1.67,3-8.21L114.5,21l-3,8.21-18-6.68a2.22,2.22,0,1,0-1.54,4.16l10.67,4L82.48,84.88"/><path class="cls-5" d="M82.59,71c-3.46.72-7.3-1.6-11.28-3.2-3.44-1.39-7-2.25-10.53-.19A6.63,6.63,0,0,0,58,71.06L36,129.7a12.34,12.34,0,0,0,.35,9.56,12.79,12.79,0,0,0,7.44,6.67,12.22,12.22,0,0,0,4.35.79,12.56,12.56,0,0,0,11.72-8.15L84.4,73.08A1.55,1.55,0,0,0,82.59,71Z"/><path class="cls-5" d="M74.23,61a5.93,5.93,0,1,0-5.92-5.93A5.93,5.93,0,0,0,74.23,61Z"/><path class="cls-5" d="M87.53,40.15a4,4,0,1,0,4,4A4,4,0,0,0,87.53,40.15Z"/><path class="cls-5" d="M83,32.45a2.84,2.84,0,1,0-2.84-2.84A2.84,2.84,0,0,0,83,32.45Z"/></g></g></svg>