<svg xmlns="http://www.w3.org/2000/svg" xmlns:xlink="http://www.w3.org/1999/xlink" viewBox="0 0 274.04 68.73"><defs><style>.cls-1{fill:#002f5d;}.cls-1,.cls-2{fill-rule:evenodd;}.cls-2{fill:url(#GradientFill_2);}</style><linearGradient id="GradientFill_2" x1="31.63" y1="60.5" x2="63.79" y2="-31.94" gradientUnits="userSpaceOnUse"><stop offset="0" stop-color="#00afbe"/><stop offset="1" stop-color="#6fc6db"/></linearGradient></defs><title>soluevo-h</title><g id="Layer_2" data-name="Layer 2"><g id="Camada_1" data-name="Camada 1"><path class="cls-1" d="M82.9,37.21V33H99.79a3.76,3.76,0,0,0,1.93-.38,1.66,1.66,0,0,0,.58-1.51V29.9a1.73,1.73,0,0,0-.58-1.48,3.19,3.19,0,0,0-1.9-.44H89.22a11.61,11.61,0,0,1-3.08-.35,4.35,4.35,0,0,1-1.94-1,3.65,3.65,0,0,1-1-1.76,9.73,9.73,0,0,1-.28-2.5v-1.1a10.33,10.33,0,0,1,.36-2.91,4.45,4.45,0,0,1,1.11-1.94,4.39,4.39,0,0,1,1.95-1.07A10.58,10.58,0,0,1,89.22,15h6.92v4.21H89.68a2.66,2.66,0,0,0-1.68.44,2.25,2.25,0,0,0-.54,1.78v.72A1.94,1.94,0,0,0,88,23.59a2.57,2.57,0,0,0,1.7.44h10.4a13.51,13.51,0,0,1,3.15.31,5.13,5.13,0,0,1,2.1,1,3.83,3.83,0,0,1,1.18,1.77,8.09,8.09,0,0,1,.36,2.57v1.76a8.55,8.55,0,0,1-.36,2.66,3.81,3.81,0,0,1-1.18,1.78,5.15,5.15,0,0,1-2.1,1,12.9,12.9,0,0,1-3.15.33Zm35.35,0a17.28,17.28,0,0,1-4.08-.41,6,6,0,0,1-2.61-1.31,4.87,4.87,0,0,1-1.38-2.34,13.51,13.51,0,0,1-.41-3.58v-7a13.51,13.51,0,0,1,.41-3.56,4.84,4.84,0,0,1,1.38-2.36,6,6,0,0,1,2.61-1.31,17.28,17.28,0,0,1,4.08-.41h8.45a17.44,17.44,0,0,1,4.11.41,6,6,0,0,1,2.61,1.31A4.84,4.84,0,0,1,134.8,19a13.51,13.51,0,0,1,.41,3.56v7a13.51,13.51,0,0,1-.41,3.58,4.87,4.87,0,0,1-1.38,2.34,6,6,0,0,1-2.61,1.31,17.44,17.44,0,0,1-4.11.41Zm12-14.39a6.87,6.87,0,0,0-.18-1.72,2.38,2.38,0,0,0-.6-1.11,2.25,2.25,0,0,0-1.16-.59,8.43,8.43,0,0,0-1.81-.16h-8a9.07,9.07,0,0,0-1.91.16,2.29,2.29,0,0,0-1.16.59,2.18,2.18,0,0,0-.57,1.11,8.27,8.27,0,0,0-.14,1.72v6.56a8.84,8.84,0,0,0,.14,1.78,2.18,2.18,0,0,0,.57,1.11,2.33,2.33,0,0,0,1.16.55,9.9,9.9,0,0,0,1.91.15h8a9.21,9.21,0,0,0,1.81-.15,2.29,2.29,0,0,0,1.16-.55,2.38,2.38,0,0,0,.6-1.11,7.34,7.34,0,0,0,.18-1.78V22.82Zm17,14.39a17.28,17.28,0,0,1-4.08-.41,5.84,5.84,0,0,1-2.61-1.31,5,5,0,0,1-1.39-2.34,13.55,13.55,0,0,1-.4-3.58V15h4.92V29.38A6.49,6.49,0,0,0,143.9,31a2.3,2.3,0,0,0,.64,1.1,2.59,2.59,0,0,0,1.22.64,8,8,0,0,0,1.94.2h13.21v4.24Zm24.59,0a17.28,17.28,0,0,1-4.08-.41,5.84,5.84,0,0,1-2.61-1.31,5,5,0,0,1-1.39-2.34,13.55,13.55,0,0,1-.4-3.58V15h5V29.41a5.77,5.77,0,0,0,.21,1.71,2.46,2.46,0,0,0,.67,1.1,2.53,2.53,0,0,0,1.22.58,9.07,9.07,0,0,0,1.88.17h7.46a9.07,9.07,0,0,0,1.88-.17,2.53,2.53,0,0,0,1.22-.58,2.5,2.5,0,0,0,.67-1.11,6.05,6.05,0,0,0,.21-1.73V15h4.93V29.57a13.51,13.51,0,0,1-.41,3.58,4.8,4.8,0,0,1-1.39,2.34,5.84,5.84,0,0,1-2.61,1.31,17.29,17.29,0,0,1-4.1.41Zm28.89,0a17.28,17.28,0,0,1-4.08-.41,5.86,5.86,0,0,1-2.6-1.31,4.8,4.8,0,0,1-1.39-2.34,13.51,13.51,0,0,1-.41-3.58v-7a13.51,13.51,0,0,1,.41-3.56,4.78,4.78,0,0,1,1.39-2.36,5.86,5.86,0,0,1,2.6-1.31,17.28,17.28,0,0,1,4.08-.41h5.48v4.21h-5.48a7.1,7.1,0,0,0-1.76.18,2.41,2.41,0,0,0-1.09.57,2.06,2.06,0,0,0-.56,1,8.28,8.28,0,0,0-.14,1.64v1.5h18.94V28H197.21v1.57a8.35,8.35,0,0,0,.14,1.66A1.92,1.92,0,0,0,199,32.85a8.75,8.75,0,0,0,1.78.15h15.53v4.21ZM235,35.58,247.85,15H242l-10.5,17.19L220.92,15h-6L227.7,35.58a5.23,5.23,0,0,0,1.4,1.56,4.8,4.8,0,0,0,4.5,0A5.39,5.39,0,0,0,235,35.58Zm22.07,1.63A17.13,17.13,0,0,1,253,36.8a5.84,5.84,0,0,1-2.61-1.31A4.88,4.88,0,0,1,249,33.15a13.51,13.51,0,0,1-.41-3.58v-7A13.51,13.51,0,0,1,249,19a4.85,4.85,0,0,1,1.39-2.36A5.84,5.84,0,0,1,253,15.37a17.13,17.13,0,0,1,4.07-.41h8.45a17.44,17.44,0,0,1,4.11.41,5.84,5.84,0,0,1,2.61,1.31A4.93,4.93,0,0,1,273.64,19a13.54,13.54,0,0,1,.4,3.56v7a13.55,13.55,0,0,1-.4,3.58,5,5,0,0,1-1.39,2.34,5.84,5.84,0,0,1-2.61,1.31,17.44,17.44,0,0,1-4.11.41Zm12-14.39a6.87,6.87,0,0,0-.18-1.72A2.31,2.31,0,0,0,268.3,20a2.26,2.26,0,0,0-1.15-.59,8.5,8.5,0,0,0-1.81-.16h-8a9.07,9.07,0,0,0-1.91.16,2.26,2.26,0,0,0-1.15.59,2,2,0,0,0-.57,1.11,8.19,8.19,0,0,0-.15,1.72v6.56a8.75,8.75,0,0,0,.15,1.78,2,2,0,0,0,.57,1.11,2.3,2.3,0,0,0,1.15.55,9.9,9.9,0,0,0,1.91.15h8a9.28,9.28,0,0,0,1.81-.15,2.08,2.08,0,0,0,1.76-1.66,7.34,7.34,0,0,0,.18-1.78Z"/><path class="cls-1" d="M83,50.94A4,4,0,0,0,85.58,52a2.1,2.1,0,0,0,2.34-1.86c0-2.38-3.62-1.38-3.62-2.53,0-.41.41-.57.91-.57a2.76,2.76,0,0,1,1.53.46l.72-.89a4,4,0,0,0-2.25-.73C84,45.88,83,46.49,83,47.7c0,2.22,3.62,1.35,3.62,2.45,0,.41-.48.69-1.1.69a2.61,2.61,0,0,1-1.8-.77l-.78.87Zm11.3-2a1.8,1.8,0,1,1,1.8,1.91A1.81,1.81,0,0,1,94.27,49ZM93,49a3.12,3.12,0,1,0,3.12-3.07A3,3,0,0,0,93,49Zm11.51-3.08V52h4.3V50.83h-3v-5Zm13.3,0v3.27c0,.89-.46,1.69-1.37,1.69S115,50,115,49.14V45.87h-1.28V49.2a2.66,2.66,0,1,0,5.31,0V45.87Zm9.79,6.34V52a3,3,0,0,0,2.74-2.14l-1.21-.38a1.79,1.79,0,0,1-1.76,1.38,1.81,1.81,0,0,1-1.79-1.92A1.79,1.79,0,0,1,127.32,47a1.82,1.82,0,0,1,1.76,1.37l1.21-.37a3,3,0,0,0-3-2.16A3.07,3.07,0,0,0,127,52v.6c1.13,0,1.13.73-.48.37l-.18.65c2.49.69,3.07-1.26,1.19-1.42ZM136.62,49a1.79,1.79,0,1,1,1.79,1.91A1.8,1.8,0,0,1,136.62,49Zm-1.33,0a3.12,3.12,0,1,0,3.12-3.07A3,3,0,0,0,135.29,49Zm2.1-3.59-.6-.58c1.48-1.32,1.72.32,2.66-.53l.62.58c-1.49,1.32-1.73-.32-2.68.53Zm9.42.52V52h4.3V50.83h-3V49.25h2.25V48.07h-2.25v-1h3V45.88ZM156,50.94A4,4,0,0,0,158.61,52a2.09,2.09,0,0,0,2.33-1.86c0-2.38-3.61-1.38-3.61-2.53,0-.41.41-.57.91-.57a2.76,2.76,0,0,1,1.53.46l.72-.89a4,4,0,0,0-2.25-.73c-1.18,0-2.18.61-2.18,1.82,0,2.22,3.62,1.35,3.62,2.45,0,.41-.48.69-1.1.69a2.61,2.61,0,0,1-1.8-.77l-.78.87Zm13.46-5.06V52h4.3V50.83h-3V49.25H173V48.07h-2.25v-1h3V45.88Zm15.41,0L182.19,49l-2.67-3.07h-.64V52h1.27V48.19l2,2.33,2-2.33V52h1.28V45.88ZM194,50.94A4,4,0,0,0,196.6,52a2.1,2.1,0,0,0,2.33-1.86c0-2.38-3.62-1.38-3.62-2.53,0-.41.41-.57.92-.57a2.75,2.75,0,0,1,1.52.46l.72-.89a4,4,0,0,0-2.25-.73c-1.18,0-2.18.61-2.18,1.82,0,2.22,3.62,1.35,3.62,2.45,0,.41-.47.69-1.1.69a2.62,2.62,0,0,1-1.8-.77l-.78.87Zm11.31-2a1.79,1.79,0,1,1,1.79,1.91A1.8,1.8,0,0,1,205.29,49ZM204,49a3.12,3.12,0,1,0,3.12-3.07A3,3,0,0,0,204,49Zm11.51-3.07V52h1.28V49.25H219V48.07h-2.25v-1h3V45.88Zm9.05,0v1.17h2v5h1.28v-5h2V45.88Zm17.06,0-1.06,4-1.06-4h-1.25l-1.06,4-1.06-4h-1.36L236.37,52h1.29l1.18-4.35L240,52h1.29l1.64-6.14Zm8.7,0L247.85,52h1.26l.37-.93h2.85l.38.93H254l-2.43-6.13Zm.63,1.49,1,2.55h-1.94l1-2.55Zm9.45-.31H262a.66.66,0,1,1,0,1.31h-1.68V47.06Zm4,4.95-1.52-2.61a1.69,1.69,0,0,0,1.19-1.69,1.78,1.78,0,0,0-1.86-1.83h-3.11V52h1.27V49.52h1.14L263,52Zm5.28-6.13V52H274V50.83h-3V49.25h2.25V48.07H271v-1h3V45.88Z"/><path class="cls-2" d="M32.57,4a31.38,31.38,0,0,1,15.3-.26A23.79,23.79,0,0,1,77.05,6.59l4.07,3.9H81a2.26,2.26,0,0,1,.45,0l-2.88,2.89v-.22L74.5,9.25a20.1,20.1,0,0,0-21.73-4h0A19.16,19.16,0,0,0,50,6.74l-.26.16-.05,0V7h0a19.3,19.3,0,0,0-3.47,2.89L27.61,29.17,25,26.61,43.5,7.28c.12-.13.24-.25.37-.37a27.63,27.63,0,0,0-22.65,47,8.91,8.91,0,0,1-6.6-2.46l-.83-.79A31.51,31.51,0,0,1,32.57,4ZM2.89,55.37,0,58.25H.33l4.06,3.9A23.77,23.77,0,0,0,33.57,65,31.5,31.5,0,0,0,67.65,18l-.83-.79a8.91,8.91,0,0,0-6.6-2.46,27.64,27.64,0,0,1-22.64,47l.36-.37L56.49,42.12l-2.66-2.56L35.28,58.9A20.37,20.37,0,0,1,31.42,62l-.09,0-.07.05-.15.08a20.84,20.84,0,0,1-2.45,1.24h0a20.1,20.1,0,0,1-21.73-4l-4.06-3.9v-.21ZM8,50.25,5.33,52.92h.11L9.5,56.81a16.38,16.38,0,0,0,23.11-.47L51.17,37,48.5,34.45,30,53.78a12.69,12.69,0,0,1-17.89.37L8,50.25ZM76,15.82l-4.06-3.9a16.38,16.38,0,0,0-23.11.47L30.27,31.72l2.67,2.56L51.49,15a12.69,12.69,0,0,1,17.89-.37l4.06,3.9,2.67-2.67Z"/></g></g></svg>