<svg xmlns="http://www.w3.org/2000/svg" xmlns:xlink="http://www.w3.org/1999/xlink" width="455" height="455" viewBox="0 0 455 455">
    <defs>
        <path id="a" d="M0 .809h10.008v17.61H0z"/>
        <path id="c" d="M.519.111h5.024v14.364H.519z"/>
        <path id="e" d="M1 .352h.618v3.287H1z"/>
        <path id="g" d="M.418.112h9.42V4H.418z"/>
        <path id="i" d="M.352.993h17.61V11H.352z"/>
        <path id="k" d="M.896.383h3.286V1H.896z"/>
        <path id="m" d="M.656.16h3.887v9.422H.656z"/>
    </defs>
    <g fill="none" fill-rule="evenodd">
        <path fill="#F3EDD7" d="M167.83 414.772h-1.068c-1.004 0-1.885.85-1.867 1.865.006.334.046.65.125.947a1.766 1.766 0 0 0-.125.654c.002.37.037.745.118 1.104.13.576.501.962.957 1.3.562.416 1.424.313 1.997-.012.324-.185.57-.467.775-.774.144-.082.283-.175.406-.298.51-.51.658-1.281.435-1.94.064-.325.107-.656.112-.98.015-1.016-.86-1.866-1.866-1.866M174.176 349.01c.645-4.13-3.843-8.145-8.516-7.693a5.572 5.572 0 0 0-1.838.489c-.672-.13-1.392.096-1.832.878-.075.134-.145.276-.216.418-.294.184-.58.394-.853.637-2.417 2.16-2.976 6.555-1.722 9.417 1.225 2.79 4.029 3.212 6.827 2.565 3.32.447 6.2-1.703 8.457-3.896.977-.95.555-2.207-.307-2.815M141.048 291.879c1.443 1.618 3.552 2.779 5.463 3.553 1.546.627 3.568.625 4.748-.715.029-.033.049-.07.077-.104.114-.11.212-.242.292-.392.252-.404.415-.836.519-1.286a1.61 1.61 0 0 0 .099-.135c.247-.292.411-.678.423-1.171.069-2.688.732-5.312.801-8 .025-1.017-.869-1.866-1.867-1.866h-.8c-.244 0-.516.059-.77.168l-.017-.043c-.356-.786-1.026-1.033-1.682-.933-.435-.71-1.379-.93-2.152-.68a1.957 1.957 0 0 0-1.12.14c-3.156 1.368-6.529 4.802-5.605 8.568.007.03.019.058.027.087a33.21 33.21 0 0 0-.081.463c-.178 1.113.436 2.268 1.645 2.346M211.03 363.038c-.664 0-1.21.337-1.538.838-.52.334-.876.913-.863 1.562.01.566.11 1.042.345 1.55.263.566.767.871 1.316 1.1.155.063.314.093.475.107l.3.11c1.16.403 2.363-.647 2.363-1.8v-1.067c0-.637-.332-1.205-.829-1.546-.345-.509-.948-.854-1.57-.854M178.535 439.621c.094.997.777 1.887 1.866 1.866 1.421-.024 3.101-.144 4.085-1.322.314-.373.485-.823.645-1.257.124.037.248.072.374.112 1.153.375 2.378-.625 2.363-1.799-.036-2.829-1.158-8.096-5.226-6.708-.813.276-1.482.751-2.034 1.35-.872.23-1.649.634-2.119 1.416-.606 1.01-.337 2.371.081 3.654a13.082 13.082 0 0 0-.035 2.688M157.125 182.632a66.166 66.166 0 0 1-.965-.201 7.984 7.984 0 0 1-.258-.06c-.915-.891-2.333-.875-3.419-.337-1.248.62-2.014 1.579-2.17 2.95-.164 1.398.808 2.759 2.003 3.503.422.768 1.375 1.185 2.21.934.304.093.64.108.998.01.588-.16 1.107-.676 1.307-1.276.147-.203.26-.418.337-.644a9.07 9.07 0 0 0 .78-.693c.516-.505.618-1.188.448-1.792.01-.033.022-.067.033-.098.291-.92-.332-2.102-1.304-2.296M114.417 270.783c.011-1.108-.316-2.256-1.086-3.369-1.929-2.79-5.04-3.107-7.512-.809a6.369 6.369 0 0 0-1.778 2.882 3.76 3.76 0 0 0-.779.848c-.845 1.27-.876 2.877-.662 4.337.277 1.898 2.025 2.97 3.793 3.112 1.876.791 4.157.046 5.844-.868.767-.415 1.003-1.103.9-1.754 1.523-1.24 2.011-2.92 1.28-4.379M152.077 124.626l-.009-.001a6.621 6.621 0 0 0-1.097-1.615c-.153-.997-1.009-1.905-2.267-1.587-1.77-.718-3.836-.551-5.567.986-2.909 2.586-2.898 6.463-.61 8.938.057 1.245 1.224 1.841 2.35 1.679a.718.718 0 0 1 .046-.005c3.6 1.527 8.608.308 8.095-4.487a8.545 8.545 0 0 0-.07-.517c.148-.368.29-.736.432-1.094.351-.877-.376-2.142-1.303-2.297M304.418 4.15c.682 1.112 2.065 1.811 3.325 1.988 1.04.15 2.18.037 3.033-.54.47-.04.954-.174 1.457-.435 1.651-.859 2.671-3.107 2.63-4.9-.003-.089-.015-.176-.025-.263h-9.42l-.147.21c-.867 1.227-1.828 2.345-.853 3.94M110.29 162.711c-.045-.011-.088-.026-.132-.039-.223-1.556-2.313-2.065-3.38-.864-.096.108-.175.232-.259.35-.5-.035-.998.121-1.369.564-.627.753-.619 1.499-.419 2.4.233 1.041.646 2.57 1.798 2.915.338.645.872 1.105 1.676 1.105h.032c.594.248 1.157.088 1.63-.273.202-.128.368-.293.496-.484a4.21 4.21 0 0 0 .717-1.269c.098-.287.157-.594.216-.899.54-.345.91-.98.91-1.609 0-1.078-.854-1.787-1.868-1.867.224.035.21.026-.048-.03M154.232 228.614c.006.005.006.005.01.011.734.704 1.91.73 2.64 0 .093-.094.172-.196.243-.304.208-.14.386-.32.525-.53a1.81 1.81 0 0 0 .59-.61c.076-.129.127-.267.168-.41.18-.648.018-1.403-.468-1.873a1.887 1.887 0 0 0-.902-1.339c-.523-.305-1.37-.388-1.885 0-.183.141-.391.293-.601.461-.458.184-.78.518-.995.931-.407.486-.682 1.043-.598 1.67.006.05.015.1.023.15.09.564.27 1.084.74 1.462.168.135.336.26.51.381M148.035 156.718a1.777 1.777 0 0 0-.488-.486l-.023-.015c-.03-.02-.053-.045-.087-.064-.05-.03-.107-.048-.162-.073a1.283 1.283 0 0 0-.248-.091 1.756 1.756 0 0 0-.532-.09h-1.066a1.883 1.883 0 0 0-1.867 1.866v2.134c0 1.068 1.036 2.05 2.114 1.864.802.139 1.706-.236 2.074-.993.12-.25.216-.515.298-.786.036-.092.073-.184.098-.286.026-.1.032-.194.044-.29a8.87 8.87 0 0 0 .172-1.643 1.76 1.76 0 0 0-.18-.787c-.026-.06-.062-.113-.094-.168-.019-.03-.032-.063-.053-.092M353.958 390.668c-.333-.52-.939-.826-1.6-.912-3.378-.43-7.295.125-9.402 3.105-1.035 1.464-1.539 3.523-1.388 5.474-.025.741.013 1.469.107 2.141.264 1.903 1.56 3.882 3.571 4.217 1.606.267 3.112-.271 4.468-1.125 1.371-.493 2.6-1.373 3.39-2.522 1.15-.663 2.104-1.607 2.606-2.937.99-2.616-.144-5.325-1.739-7.428a.08.08 0 0 0-.013-.013M342.172 299.305c0-1.018-.85-1.866-1.866-1.866h-1.6a1.83 1.83 0 0 0-.83.207 1.882 1.882 0 0 0-.491.339 1.872 1.872 0 0 0-.392.586c-.001.005-.004.009-.006.014-.019.046-.029.09-.044.137-.062.185-.104.38-.104.583 0 .663-.112 1.449.066 2.097.318 1.152 2.079 1.965 3.176 2.049 1.25.096 2.462-1.267 2.025-2.51-.005-.016-.014-.032-.021-.051.053-.168.087-.34.087-.52v-1.065zM117.362 242.734c.322-.946-.36-2.062-1.305-2.296-1.022-.255-2.104-.565-3.162-.6-1.017-.035-1.867.875-1.867 1.867v.303c-.569.588-.665 1.484-.278 2.24.724 1.411 1.903 2.661 3.628 2.34 1.728-.326 2.492-2.417 2.984-3.854M437.373 106.83c.223.033.206.023-.05-.033-.045-.01-.088-.026-.132-.037-.222-1.557-2.312-2.067-3.38-.865-.095.11-.174.233-.259.35-.5-.036-.995.12-1.366.564-.629.751-.622 1.5-.42 2.4.232 1.041.644 2.571 1.795 2.914.338.646.874 1.105 1.678 1.105h.031c.594.25 1.157.09 1.63-.273a1.6 1.6 0 0 0 .495-.483c.324-.389.574-.85.717-1.268.1-.289.158-.595.216-.9.541-.345.911-.98.911-1.609 0-1.078-.853-1.787-1.866-1.866M356.839 241.972c.221 0 .424-.044.612-.111.178.145.37.278.578.389 1.218.643 2.835-.143 2.81-1.612-.017-.872-.2-1.806-.633-2.574a2.169 2.169 0 0 0-.742-.763c-.355-.23-.943-.352-1.371-.228-.392-.264-.847-.435-1.264-.435h-.523c-1.018 0-1.867.85-1.867 1.867v1.067c0 .68.348 1.183.83 1.553.349.505.961.847 1.57.847M313.602 102.095c-.322-.063-.644-.132-.964-.2-.088-.018-.174-.04-.26-.06-.914-.891-2.332-.875-3.418-.337-1.25.619-2.013 1.579-2.172 2.95-.162 1.398.81 2.759 2.005 3.502.42.769 1.375 1.186 2.208.934.305.094.643.109 1 .012.588-.162 1.108-.677 1.308-1.277.146-.203.258-.42.337-.644.28-.22.546-.463.779-.693.517-.506.618-1.188.448-1.792l.033-.1c.29-.918-.333-2.1-1.304-2.295M316.839 263.838h.533c1.017 0 1.867-.85 1.867-1.866 0-1.018-.85-1.867-1.867-1.867h-.533a1.883 1.883 0 0 0-1.866 1.867c0 1.016.848 1.866 1.866 1.866M379.585 348.343c-2.339-2.925-7.112-2.547-10.066-.842a6.233 6.233 0 0 0-.618.416c-.683.097-1.266.574-1.543 1.327-.082.218-.152.437-.219.659-1.179 1.377-1.768 3.203-2.18 4.94-.413 1.74 1.466 2.732 2.688 2.17 1.666 2.514 4.93 4.425 7.876 4.198 2.466-.188 3.415-2.177 3.295-4.303.237-.158.47-.345.701-.575 2.073-2.05 1.777-5.853.066-7.99M408.09 416.422c0 .233-.003.47-.007.707-1.302 1.022-2.256 2.696-2.493 4.093-.357 2.103.467 3.557 1.82 4.492.355.962 1.397 1.486 2.277 1.309.246.04.505.045.765 0 .118-.022.238-.043.356-.068.516.078 1.036.125 1.549.134.704.01 1.204-.33 1.504-.818 1.087.025 2.163-.924 1.963-2.075.049-.075.099-.15.145-.232.014-.03.026-.06.042-.088l.487-.243c1.3-.65 1.1-2.436.056-3.18-.118-1.292-.484-2.594-.797-3.726-.416-1.49-2.092-1.68-3.049-.827a16.544 16.544 0 0 0-1.809-1.09c-1.239-.642-2.809.143-2.809 1.612M433.248 7.145c.06.084.116.17.187.252.665.772 1.96.68 2.64 0 .021-.02.032-.043.052-.063.34-.026.692-.15.99-.355 1.178-.493 1.602-2.01.631-3.111-.277-.315-.694-.545-1.128-.731-.48-.541-1.279-.694-2.105-.682-.5-.084-1.003-.065-1.454.149-.138.023-.274.049-.403.074-.506.098-.919.477-1.154.939l-.092.049c-1.7.859-.846 3.479.944 3.479h.892zM430.662 244.924c.036.16.1.322.194.458.317.453.615.647 1.117.858.185.078.38.1.58.086.704.225 1.516.422 2.178.158.83-.334 1.304-.88 1.463-1.705.36-.65.308-1.477-.058-2.126-.262-.458-.67-.816-1.092-1.14-.249-.286-.557-.46-.94-.611-.672-.27-1.45.099-1.935.55-.355.329-.632.788-.89 1.2a5.985 5.985 0 0 0-.604 1.222c-.118.34-.085.706-.013 1.05M387.773 102.028c.04 0 .079.001.119.003.519.525 1.085.983 1.605 1.342.89.617 1.755.301 2.262-.354.839.155 1.705-.27 2.08-1.296.613-1.68 1.368-4.082.246-5.73a2.895 2.895 0 0 0-.966-.906c-.542-1.003-1.917-1.579-2.934-.512-.034.038-.063.076-.097.114a2.587 2.587 0 0 0-.425.087 3.448 3.448 0 0 0-1.25.7c-.973.285-1.778.918-2.15 2.115a3.196 3.196 0 0 0-.075 1.534c-.075.185-.145.367-.215.54-.46 1.154.688 2.357 1.8 2.363M418.8 225.263c-.125-.22-.248-.44-.38-.656a6.271 6.271 0 0 0-1.692-1.847c-1.801-1.335-4.337-.101-5.5 1.47a4.007 4.007 0 0 0-.217.32 1.953 1.953 0 0 0-.851.746 1.695 1.695 0 0 0-.145 1.476c.13.367.372.705.697.976.073.168.162.33.266.49-.041.856.493 1.804 1.363 1.933.7.104 1.437.182 2.124.103a8.73 8.73 0 0 0 3.138-.103c.932-.206 1.51-1.265 1.33-2.178a2.1 2.1 0 0 0 .523-1.221c.052-.574-.14-1.151-.656-1.51M417.386 307.559c.429.43.993.583 1.537.512.18.025.364.025.546 0 .1.014.2.029.305.034 1.016.047 1.866-.884 1.866-1.866v-2.134c0-1.018-.85-1.866-1.866-1.866-.645 0-1.262.062-1.795.457-.583.433-.918.858-1.201 1.535-.211.504-.108 1.05.126 1.529-.152.628.019 1.337.482 1.799M291.856 121.017c-2.296-.053-4.654.945-5.616 2.928-.492.484-.688 1.109-.714 1.805a6.716 6.716 0 0 0-.887 2.182c-.171.795.09 1.706.858 2.108.349.184.72.359 1.108.516.322 1.125 1.087 2.093 2.3 2.385a3.613 3.613 0 0 0 1.67-.013c1.47.102 2.47-.63 3.064-1.713.586-.49 1.12-1.01 1.586-1.467.723-.71.67-1.585.243-2.24.068-.345.088-.711.053-1.094.802-2.581-.1-5.317-3.665-5.397M245.335 176.096c1.3-.232 2.517-.82 2.913-2.054.241-.217.427-.5.525-.85a1.972 1.972 0 0 0-.122-1.306c.764-1.582-1.156-3.352-2.726-2.314a.328.328 0 0 0-.092.042c-.033.016-.079.039-.127.06-.252.102-.506.199-.76.297-.655.25-1.365.468-1.958.849-.666.426-.997.988-1.084 1.777-.089.796.455 1.364 1.082 1.72-.002.163.01.323.052.474.288 1.048 1.295 1.483 2.297 1.305M306.385 153.764c.303-.874.236-2.187-.526-2.805a1.888 1.888 0 0 0-1.82-1.464h-.73a1.869 1.869 0 0 0-1.092.127 4.84 4.84 0 0 0-.845-.127c-1.017-.054-1.866.89-1.866 1.868v2.036c-.105.993.566 1.917 1.662 2.23.449.274.994.369 1.504.264.12.128.253.245.413.326.763.394 1.633.316 2.263-.291.219-.211.353-.457.44-.724.222-.47.429-.95.597-1.44M7.695 208.78c.421-.122.734-.382.935-.715a6.32 6.32 0 0 0 .34-.364c2.034-2.398 2.553-6.303 1.788-9.618-.09-.79-.319-1.536-.733-2.183a8.8 8.8 0 0 0-.748-1.328c-1.486-2.147-3.762-2.918-6.285-2.518a7.61 7.61 0 0 0-1.992.6v14.363c.022.005.044.016.067.022 1.933 1.883 4.488 2.97 6.628 1.741"/>
        <g transform="translate(1 29.543)">
            <mask id="b" fill="#fff">
                <use xlink:href="#a"/>
            </mask>
            <path fill="#F3EDD7" d="M8.34 14.852c.702-.652.932-1.63.93-2.631.375-.99.562-2.01.497-2.8-.015-.183-.048-.354-.077-.526.716-1.063.224-2.962-1.48-3.03-.047-.001-.093-.006-.14-.01-.616-1.422-1.623-2.705-2.985-3.722C3.235.755 1.487.546 0 1.08v17.339c2.283-.182 4.378-1.05 5.973-2.625.92.338 1.998.014 2.368-.942" mask="url(#b)"/>
        </g>
        <path fill="#F3EDD7" d="M235.809 102.495c2.478.565 5.95-.134 7.089-2.687.628-1.407.582-3.352-.376-4.626-.831-1.105-2.001-1.59-3.366-1.625-2.066-.05-4.66 1.084-5.668 2.958-.65 1.201-.462 2.558.417 3.584.172.2.369.373.578.533-.088.804.298 1.628 1.326 1.863M239.234 230.733l.012.004c.12.063.238.132.356.198.55.311 1.046.451 1.663.53 1.789.227 2.769-1.775 3.24-3.13.19-.548.049-1.12-.278-1.564-.352-.48-.92-.813-1.522-.8-1.01.025-1.922.256-2.846.65a7.393 7.393 0 0 0-.322.15c-.218.104-.438.22-.638.364-.726.254-1.26.994-1.26 1.77 0 .958.703 1.67 1.595 1.828M231.505 266.505c-.53 0-.987.216-1.316.559-.902.127-1.618.908-1.618 1.84 0 1.018.851 1.869 1.868 1.868.608-.001 1.174-.078 1.728-.341.789-.377 1.166-1.23 1.204-2.06.049-1.017-.884-1.866-1.866-1.866"/>
        <g transform="translate(449 192.543)">
            <mask id="d" fill="#fff">
                <use xlink:href="#c"/>
            </mask>
            <path fill="#F3EDD7" d="M2.208 3.835C1.36 4.577.73 5.539.566 6.623c-.137.903.032 1.78.396 2.609.162 1.24.696 2.444 1.694 3.526a6.004 6.004 0 0 0 2.887 1.717V.111C3.89.874 2.745 2.196 2.208 3.835" mask="url(#d)"/>
        </g>
        <path fill="#F3EDD7" d="M450.052 37.38c-.436 1.44-.615 2.953-.252 4.346.002 1.59.258 3.22.754 4.845.174.568.67 1.21 1.304 1.304a11.85 11.85 0 0 0 2.685.086V30.62c-2.44.877-4.177 3.756-4.491 6.759M452.84 399.838h-1.601c-.865 0-1.536.576-1.799 1.37-.179.533-.357 1.067-.534 1.6a1.281 1.281 0 0 0-.06.277c-.559.594-.726 1.479-.285 2.229.5.853 1.693 1.215 2.553.67.055-.037.111-.066.167-.096a.894.894 0 0 1 .131-.051c.075-.02.15-.034.225-.05.63-.06 1.178-.125 1.759-.386.591-.264.945-.702 1.147-1.22v-3.287c-.28-.634-1.049-1.056-1.703-1.056"/>
        <g transform="translate(0 400.543)">
            <mask id="f" fill="#fff">
                <use xlink:href="#e"/>
            </mask>
            <path fill="#F3EDD7" d="M1.096.665A1.305 1.305 0 0 0 1 .352v3.287c.355-.907.24-2.06.096-2.974" mask="url(#f)"/>
        </g>
        <g transform="translate(305 449.543)">
            <mask id="h" fill="#fff">
                <use xlink:href="#g"/>
            </mask>
            <path fill="#F3EDD7" d="M5.122.116C2.87.227 1.582 2.322.418 4h9.42C9.602 1.895 7.165.016 5.122.116" mask="url(#h)"/>
        </g>
        <path fill="#F3EDD7" d="M64.33 270.188c-2.278 4.872-2.116 14.02 4.065 15.968 2.327.733 5.045-.248 6.756-1.968 4.868-1.712 7.61-7.132 4.898-11.95-3.305-5.868-12.184-9.622-15.72-2.05M42.505 67.475c-.023-.003-.036-.006-.056-.01-.23-.203-.44-.431-.663-.644-.454-.433-1.046-.86-1.681-.946-.019-.004-.038-.002-.057-.004a1.93 1.93 0 0 0-1.759.484l-.029.028c-.133.09-.271.173-.405.259a4.193 4.193 0 0 0-.906.774c-.332.249-.625.545-.814.918a3.64 3.64 0 0 0-.312.888 5.77 5.77 0 0 1-.109.416c-.019.06-.04.117-.062.175l-.055.119c-.28.583-.326 1.227-.056 1.777-.31.69-.244 1.493.348 2.085.678.677 1.977.774 2.639 0a3.12 3.12 0 0 0 .277-.38c.905.458 2.096-.13 2.514-1.057.452.139.94.127 1.483-.146 1.106-.556 1.073-1.884 1.074-2.936 0-.745-.563-1.691-1.371-1.8M260.306 294.238c-1.02-.017-1.868.861-1.867 1.866 0 1.125.247 2.104.6 3.163.208.628.65 1.124 1.303 1.304.74.203 1.672-.1 2.067-.792.2-.132.375-.305.513-.516.109-.069.212-.147.303-.239.577-.577.663-1.375.367-2.06a3.17 3.17 0 0 0-.308-1.317c-.504-1.125-1.883-1.392-2.978-1.409M14.575 315.376c-.069.062-.13.128-.196.19-.98.363-1.865.896-2.547 1.605-1.163 1.21-1.403 2.608-1.094 3.967-.025 1.026.336 2.088 1.246 3.112.463.521.996.911 1.572 1.196.327.284.664.538 1 .762.108 1.651 1.887 2 2.951 1.189 1.754.272 3.37-.251 4.63-1.343.96-.57 1.777-1.363 2.305-2.361.818-1.547.727-3.246.056-4.716a5.077 5.077 0 0 0-1.053-2.897c-2.108-2.741-6.3-2.916-8.87-.704M10.235 226.156c-.13.202-.213.407-.271.615-.213.78.04 1.582.5 2.336-.364.708-.29 1.583.311 2.184.483.484 1.229.646 1.871.46.076.02.153.036.234.048l.03.026c.71.661 1.942.778 2.639 0 .378-.425.67-.883.843-1.385.492-.199.989-.452 1.343-.787.677-.64.68-1.595.306-2.38a2.011 2.011 0 0 0-.36-.502c-.74-.79-2.11-1.22-3.01-1.492-1.512-.457-3.458-.653-4.436.877M83.874 37.275l.011-.177c1.818-3.235.868-8.598-1.067-11.165-.672-.892-1.529-1.11-2.554-.67-.429.185-.81.391-1.168.608a6.62 6.62 0 0 0-.91-.158c-3.6-.355-6.92 3.274-7.25 6.623-.473 4.808 5.362 8.185 9.602 7.253a5.16 5.16 0 0 0 1.334-.489c1.08.025 1.914-.653 2.002-1.825M85.807 230.784c.086.033.17.055.257.08.187.144.407.256.638.328.397.36.84.67 1.25.924 1.03.636 2.432.028 2.744-1.115.248-.91.53-2.08.52-3.193.088-.337.097-.695.013-1l-.015-.037a1.819 1.819 0 0 0-.278-.557 2.794 2.794 0 0 0-.753-1.089c-1.223-1.074-2.941-.884-4.214.004-.222.154-.43.326-.624.51a2.92 2.92 0 0 0-.367.145c-.411.212-.704.567-.893.987-.384.86-.322 1.992.105 2.725.364.625.96 1.027 1.617 1.288M43.21 370.543c-.407-3.739-4.467-6.071-7.984-5.468-4.265.731-7.484 5.957-5.373 9.935.748 1.411 2.145 2.408 3.726 2.912.24.225.48.433.71.621.993.815 2.216.428 2.848-.339.118.112.235.227.352.339 1.325 1.286 3.642.011 3.12-1.815l-.104-.364a4.76 4.76 0 0 0 .924-1.926c1.222-.826 1.98-2.062 1.781-3.895M259.195 253.297c-3.023.708-4.759 4.19-4.489 7.074.085.918.527 1.458 1.37 1.8a9.127 9.127 0 0 0 2.194.605c.91.725 2.098.979 3.522.365 2.026-.876 3.458-3.433 3.33-5.604-.17-2.965-3.148-4.89-5.927-4.24M271.493 32.837c.458.909 1.717 1.158 2.554.67.703-.41 1.192-.977 1.471-1.74.045-.125.078-.25.103-.378.416-.728.695-1.56.885-2.198.406-1.38-.742-2.312-1.963-2.316-.496-.646-1.105-1.157-1.99-1.242-1.349-.131-2.51 1.523-3.435 2.275-.96.78-.568 2.359.378 2.932.204.124.41.225.618.309.315.385.65.736 1.021 1.037.128.22.25.439.358.65M227.809 311.238c.935.296 1.878.452 2.833.53.025.02.053.037.076.057.938.743 2.324.602 2.908-.313.405-.286.663-.732.744-1.226 1.43-1.782.356-4.447-1.79-5.46-1.262-.597-2.728-.692-3.95.075-.338.212-.614.47-.858.753-.88 1.022-1.203 2.438-1.333 3.784-.08.824.61 1.538 1.333 1.783.013.005.025.013.037.017M275.625 408.376c2.251.849 5.764.884 6.302-2.143.024-.143.044-.286.057-.427.03-.039.06-.081.088-.122 1.011-1.491 1.09-3.535.033-4.991a2.716 2.716 0 0 0-.072-.433c-.625-2.476-4.032-2.738-6.05-2.322-1.177.241-2.275.933-2.907 1.963-.037.059-.059.122-.092.184-1.074.887-1.822 2.133-1.925 3.573-.188 2.61 2.54 3.954 4.566 4.718M303.646 75.496c-.046-.018-.094-.03-.142-.045a1.786 1.786 0 0 0-.531-.089h-1.067a1.883 1.883 0 0 0-1.866 1.866v2.134c0 1.068 1.036 2.051 2.112 1.863.803.14 1.707-.235 2.075-.992.12-.25.217-.514.299-.787.034-.092.072-.183.097-.284.025-.1.032-.195.044-.29.113-.549.165-1.11.172-1.644a1.79 1.79 0 0 0-.18-.787c-.028-.058-.061-.112-.095-.168-.018-.03-.033-.062-.051-.09a1.803 1.803 0 0 0-.512-.503c-.03-.02-.054-.044-.086-.064-.05-.029-.11-.049-.164-.072-.034-.018-.07-.033-.105-.048M415.772 286.715v1.066c0 1.004.85 1.885 1.867 1.867a3.95 3.95 0 0 0 .946-.125c.205.079.424.127.654.125.37-.002.745-.037 1.104-.12.575-.127.962-.5 1.299-.955.417-.562.315-1.424-.011-1.996-.184-.325-.467-.57-.775-.776a1.808 1.808 0 0 0-.297-.406c-.51-.51-1.282-.658-1.94-.435a5.565 5.565 0 0 0-.98-.112c-1.017-.015-1.867.86-1.867 1.867M350.01 280.367c-4.13-.645-8.145 3.843-7.693 8.516.065.686.238 1.296.489 1.838-.13.672.096 1.392.878 1.832.135.075.276.145.418.216.184.294.394.58.637.854 2.162 2.416 6.556 2.975 9.417 1.721 2.79-1.225 3.212-4.029 2.565-6.827.447-3.32-1.703-6.2-3.896-8.457-.95-.977-2.207-.555-2.815.307M292.879 313.496c1.618-1.444 2.779-3.553 3.553-5.464.627-1.546.625-3.567-.715-4.748-.033-.029-.069-.049-.104-.077a1.548 1.548 0 0 0-.392-.292 4.179 4.179 0 0 0-1.286-.519 1.622 1.622 0 0 0-.135-.1c-.291-.246-.678-.41-1.171-.423-2.688-.068-5.312-.73-8-.8-1.017-.025-1.866.87-1.866 1.867v.8c0 .243.059.516.168.77-.014.007-.03.011-.043.017-.786.356-1.033 1.026-.932 1.682-.71.435-.931 1.38-.68 2.152-.059.35-.029.731.141 1.12 1.366 3.157 4.8 6.53 8.566 5.605.031-.007.059-.019.088-.026l.462.08c1.113.178 2.268-.436 2.346-1.644M364.038 243.515c0 .662.337 1.209.838 1.536.334.52.913.876 1.562.863a3.656 3.656 0 0 0 1.551-.345c.566-.263.87-.767 1.1-1.316a1.66 1.66 0 0 0 .107-.475l.11-.3c.402-1.16-.648-2.363-1.8-2.363h-1.068c-.636 0-1.205.332-1.545.829-.509.345-.855.948-.855 1.57M440.621 276.008c.997-.094 1.888-.776 1.866-1.866-.024-1.421-.144-3.101-1.322-4.085-.373-.314-.823-.485-1.257-.645.038-.124.072-.248.112-.374.375-1.153-.625-2.378-1.799-2.363-2.828.036-8.096 1.158-6.708 5.226.276.814.751 1.482 1.35 2.035.23.87.634 1.648 1.416 2.118 1.01.606 2.371.336 3.654-.081.942.108 1.867.113 2.688.035M183.632 297.419c-.064.321-.132.642-.201.964a7.364 7.364 0 0 1-.06.257c-.891.916-.875 2.334-.336 3.421.619 1.248 1.579 2.014 2.95 2.17 1.397.163 2.758-.81 3.502-2.004.769-.422 1.185-1.375.934-2.209a1.77 1.77 0 0 0 .01-.999c-.16-.588-.675-1.107-1.276-1.307a2.42 2.42 0 0 0-.644-.337 8.898 8.898 0 0 0-.692-.78c-.506-.516-1.188-.618-1.793-.447-.033-.01-.066-.023-.098-.034-.92-.291-2.102.332-2.296 1.305M271.783 340.126c-1.108-.011-2.256.316-3.369 1.086-2.79 1.929-3.106 5.041-.809 7.512a6.369 6.369 0 0 0 2.882 1.778c.24.295.517.559.848.779 1.27.845 2.878.876 4.337.662 1.9-.276 2.97-2.024 3.113-3.793.79-1.876.046-4.157-.868-5.844-.416-.767-1.104-1.003-1.755-.9-1.24-1.523-2.92-2.011-4.379-1.28M125.626 302.467v.008a6.612 6.612 0 0 0-1.616 1.098c-.997.152-1.905 1.008-1.586 2.267-.719 1.769-.552 3.835.985 5.566 2.587 2.909 6.463 2.898 8.938.61 1.245-.057 1.842-1.224 1.68-2.35l-.006-.045c1.528-3.601.308-8.608-4.487-8.096-.17.017-.344.043-.517.07-.367-.148-.735-.29-1.093-.432-.878-.352-2.142.376-2.298 1.304M5.15 150.125c1.112-.683 1.811-2.065 1.988-3.325.15-1.04.038-2.18-.54-3.033a3.834 3.834 0 0 0-.433-1.457c-.86-1.651-3.108-2.671-4.902-2.629-.088.002-.175.014-.262.023v9.421c.07.05.14.099.21.146 1.227.868 2.344 1.829 3.938.854M163.711 344.253c-.011.045-.026.089-.039.132-1.556.223-2.065 2.313-.863 3.38.108.096.231.175.349.259-.034.5.121.998.565 1.369.752.627 1.498.62 2.399.418 1.041-.232 2.571-.644 2.915-1.798.645-.337 1.105-.871 1.105-1.675v-.032c.249-.594.088-1.157-.273-1.63a1.676 1.676 0 0 0-.484-.496 4.21 4.21 0 0 0-1.269-.717 6.603 6.603 0 0 0-.898-.215c-.346-.54-.981-.91-1.61-.91-1.078 0-1.787.853-1.867 1.867.035-.223.026-.21-.03.048M229.614 300.31l.011-.01c.704-.732.73-1.908 0-2.638a1.907 1.907 0 0 0-.304-.243 1.923 1.923 0 0 0-.53-.525 1.801 1.801 0 0 0-.61-.591 1.758 1.758 0 0 0-.41-.167c-.647-.181-1.403-.018-1.873.468a1.887 1.887 0 0 0-1.339.902c-.305.524-.388 1.37 0 1.884.141.184.293.392.461.602.184.459.518.78.931.995.487.407 1.043.682 1.67.598.051-.007.1-.015.15-.024.564-.09 1.084-.27 1.463-.74.134-.166.26-.335.38-.51M157.718 306.508a1.805 1.805 0 0 0-.486.488l-.015.023c-.02.03-.045.053-.064.088-.03.049-.048.106-.073.16-.016.036-.033.07-.047.108a1.338 1.338 0 0 0-.044.14c-.054.17-.09.348-.09.533v1.066c0 1.018.848 1.868 1.867 1.868h2.133c1.068 0 2.05-1.037 1.864-2.115.139-.802-.236-1.706-.993-2.073a5.179 5.179 0 0 0-.786-.298c-.092-.037-.184-.075-.286-.1-.1-.025-.194-.031-.29-.043a8.868 8.868 0 0 0-1.642-.172 1.764 1.764 0 0 0-.788.18c-.06.027-.113.062-.168.094-.03.019-.063.032-.092.053M391.668 100.584c-.52.334-.826.94-.912 1.601-.43 3.378.125 7.294 3.105 9.402 1.465 1.035 3.523 1.539 5.474 1.388.741.025 1.47-.013 2.141-.107 1.903-.264 3.882-1.56 4.217-3.571.267-1.606-.27-3.112-1.125-4.468-.492-1.371-1.372-2.6-2.522-3.391-.662-1.149-1.607-2.104-2.937-2.605-2.616-.99-5.324.144-7.428 1.739l-.013.012M300.305 112.37a1.885 1.885 0 0 0-1.866 1.867v1.6c0 .298.079.577.207.83.088.176.196.347.339.491.174.172.374.301.587.392l.013.006c.046.02.092.028.138.043a1.8 1.8 0 0 0 .582.105c.663 0 1.449.112 2.097-.066 1.153-.318 1.965-2.08 2.049-3.176.096-1.25-1.267-2.462-2.51-2.025-.016.005-.032.014-.05.021a1.724 1.724 0 0 0-.52-.088h-1.066zM243.734 337.18c-.946-.321-2.061.362-2.296 1.306-.254 1.022-.563 2.104-.6 3.162-.034 1.017.876 1.867 1.868 1.867h.303c.589.569 1.484.665 2.239.279 1.413-.725 2.663-1.904 2.34-3.63-.326-1.728-2.416-2.491-3.853-2.983M107.83 17.17c.034-.223.024-.206-.033.05-.01.045-.025.088-.037.132-1.556.222-2.067 2.312-.865 3.379.11.096.233.175.351.259-.036.5.12.996.563 1.367.752.629 1.5.622 2.4.419 1.042-.231 2.571-.644 2.915-1.795.645-.337 1.105-.873 1.105-1.678v-.03c.248-.595.088-1.158-.274-1.629a1.59 1.59 0 0 0-.483-.496 4.144 4.144 0 0 0-1.268-.717c-.289-.1-.595-.158-.9-.217-.344-.54-.98-.911-1.609-.911-1.078 0-1.787.854-1.866 1.867M242.972 97.704c0-.22-.044-.424-.111-.612.145-.178.278-.37.389-.578.643-1.218-.143-2.835-1.611-2.81-.873.017-1.807.2-2.575.633a2.158 2.158 0 0 0-.762.742c-.23.355-.353.942-.23 1.371-.263.392-.433.847-.433 1.264v.523c0 1.018.849 1.866 1.866 1.866h1.067c.68 0 1.184-.348 1.553-.829.506-.349.847-.96.847-1.57M103.096 140.941c-.064.322-.133.643-.201.964-.018.088-.04.174-.06.26-.891.914-.875 2.332-.336 3.418.618 1.25 1.579 2.013 2.949 2.171 1.398.162 2.759-.809 3.502-2.004.77-.42 1.186-1.375.934-2.209.094-.304.109-.642.012-1-.161-.587-.676-1.107-1.277-1.307a2.563 2.563 0 0 0-.644-.338 9.34 9.34 0 0 0-.692-.778c-.507-.517-1.188-.618-1.793-.448-.033-.01-.066-.024-.098-.033-.92-.29-2.102.333-2.296 1.304M264.838 137.704v-.533a1.885 1.885 0 0 0-1.866-1.867c-1.018 0-1.867.85-1.867 1.867v.533c0 1.018.849 1.866 1.867 1.866a1.883 1.883 0 0 0 1.866-1.866M349.343 74.958c-2.925 2.339-2.547 7.112-.841 10.066.127.219.267.421.415.618.097.682.575 1.266 1.327 1.543.219.082.437.152.66.219 1.377 1.179 3.202 1.768 4.939 2.18 1.74.413 2.732-1.466 2.17-2.688 2.514-1.666 4.425-4.929 4.198-7.876-.188-2.466-2.176-3.415-4.303-3.295a4.613 4.613 0 0 0-.575-.701c-2.048-2.073-5.853-1.777-7.99-.066M417.422 46.453c.233 0 .47.003.707.007 1.022 1.302 2.696 2.256 4.094 2.493 2.102.357 3.556-.467 4.491-1.82.963-.355 1.486-1.397 1.309-2.278.04-.245.045-.504 0-.764-.022-.118-.043-.238-.067-.356a11.95 11.95 0 0 0 .133-1.549 1.658 1.658 0 0 0-.818-1.504c.025-1.087-.923-2.163-2.075-1.963-.075-.049-.15-.099-.232-.145-.029-.015-.059-.026-.087-.042l-.243-.487c-.65-1.3-2.437-1.1-3.181-.056-1.292.118-2.594.484-3.726.797-1.49.416-1.68 2.092-.826 3.05a16.56 16.56 0 0 0-1.091 1.808c-.642 1.24.143 2.81 1.612 2.81M8.145 21.295c.085-.06.17-.117.253-.187.77-.665.679-1.96 0-2.639-.021-.022-.043-.034-.064-.053a2.057 2.057 0 0 0-.354-.989c-.493-1.179-2.01-1.603-3.112-.632-.315.277-.545.694-.731 1.128-.54.48-.694 1.279-.682 2.105-.084.5-.065 1.003.149 1.453.024.139.049.275.074.404.098.506.477.918.939 1.154l.049.092c.859 1.7 3.479.846 3.479-.944v-.892zM245.924 23.88c.16-.035.322-.1.458-.193.453-.317.647-.615.858-1.118.079-.184.1-.38.086-.58.225-.703.423-1.515.158-2.177-.333-.83-.88-1.305-1.705-1.463-.648-.36-1.477-.308-2.126.058-.458.26-.816.67-1.14 1.092-.286.248-.46.557-.611.94-.268.672.099 1.45.55 1.935.33.355.788.632 1.2.89.385.242.79.456 1.222.604.34.118.706.085 1.05.013M103.028 66.77c0-.04.002-.078.003-.118a11.34 11.34 0 0 0 1.342-1.606c.617-.89.301-1.755-.353-2.262.154-.838-.27-1.704-1.296-2.08-1.682-.614-4.082-1.367-5.732-.245-.405.275-.7.604-.905.965-1.003.543-1.579 1.918-.512 2.935.038.034.076.063.114.097.02.14.045.282.087.423.143.474.39.887.7 1.25.285.974.92 1.78 2.115 2.15a3.2 3.2 0 0 0 1.535.077c.184.075.366.145.54.215 1.153.46 2.356-.689 2.362-1.8M226.263 35.743c-.218.125-.44.247-.655.38a6.262 6.262 0 0 0-1.848 1.692c-1.335 1.8-.101 4.336 1.47 5.5.105.08.213.151.32.217.168.357.43.665.747.85a1.693 1.693 0 0 0 1.475.146c.367-.13.705-.372.976-.697a3.43 3.43 0 0 0 .49-.266c.857.04 1.804-.493 1.934-1.363.104-.7.18-1.437.102-2.124a8.73 8.73 0 0 0-.102-3.138c-.207-.933-1.266-1.512-2.18-1.33a2.094 2.094 0 0 0-1.22-.523c-.574-.052-1.151.14-1.51.656M308.559 37.157c.43-.429.583-.993.513-1.537a2.08 2.08 0 0 0 0-.546c.013-.1.028-.2.033-.305.047-1.016-.884-1.866-1.866-1.866h-2.134c-1.017 0-1.866.85-1.866 1.866 0 .645.062 1.262.458 1.795.432.583.858.918 1.534 1.201.504.211 1.05.107 1.529-.126.628.152 1.337-.019 1.799-.482M122.017 162.688c-.053 2.296.946 4.654 2.928 5.616.484.492 1.109.688 1.805.714a6.725 6.725 0 0 0 2.182.887c.795.17 1.706-.091 2.108-.858.184-.35.359-.721.516-1.108 1.125-.322 2.093-1.088 2.385-2.3a3.613 3.613 0 0 0-.013-1.672c.103-1.47-.63-2.47-1.713-3.063a27.204 27.204 0 0 0-1.466-1.587c-.711-.722-1.586-.67-2.24-.242a3.881 3.881 0 0 0-1.095-.053c-2.581-.802-5.317.1-5.397 3.666M177.096 209.208c-.232-1.3-.82-2.517-2.054-2.913a1.767 1.767 0 0 0-.85-.525 1.973 1.973 0 0 0-1.306.122c-1.582-.764-3.351 1.156-2.314 2.726 0 .011.01.033.042.092.016.033.039.079.06.127.102.252.2.506.297.76.25.655.468 1.365.849 1.958.426.666.989.996 1.777 1.084.796.089 1.364-.455 1.722-1.082a1.77 1.77 0 0 0 .473-.052c1.047-.288 1.482-1.295 1.304-2.297M154.764 148.158c-.873-.303-2.186-.236-2.804.526a1.888 1.888 0 0 0-1.464 1.82v.73c-.067.371-.026.75.126 1.092a4.746 4.746 0 0 0-.126.845c-.055 1.017.889 1.866 1.867 1.866h2.036c.993.105 1.917-.566 2.23-1.662.274-.449.37-.995.264-1.505.128-.12.245-.252.327-.412.393-.763.315-1.634-.292-2.263a1.719 1.719 0 0 0-.724-.44 14.12 14.12 0 0 0-1.44-.597M209.78 446.848a1.588 1.588 0 0 0-.715-.935 6.32 6.32 0 0 0-.364-.34c-2.398-2.034-6.303-2.553-9.618-1.788-.79.09-1.536.32-2.183.733a8.8 8.8 0 0 0-1.328.748c-2.147 1.486-2.917 3.762-2.518 6.285a7.61 7.61 0 0 0 .601 1.992h14.361c.006-.023.017-.044.023-.067 1.883-1.932 2.97-4.488 1.741-6.628"/>
        <g transform="translate(31 442.543)">
            <mask id="j" fill="#fff">
                <use xlink:href="#i"/>
            </mask>
            <path fill="#F3EDD7" d="M14.395 2.66c-.652-.702-1.63-.932-2.631-.93-.99-.375-2.01-.562-2.8-.496-.182.015-.353.048-.526.077-1.063-.716-2.961-.225-3.028 1.48-.002.046-.008.092-.011.14-1.423.616-2.706 1.622-3.722 2.984C.297 7.765.089 9.513.623 11h17.339c-.182-2.282-1.05-4.378-2.625-5.973.338-.92.014-1.997-.942-2.368" mask="url(#j)"/>
        </g>
        <path fill="#F3EDD7" d="M103.495 218.733c.566-2.477-.133-5.949-2.687-7.088-1.407-.628-3.352-.583-4.626.376-1.104.831-1.59 2.001-1.625 3.366-.05 2.065 1.084 4.658 2.96 5.668 1.2.65 2.556.462 3.582-.417.201-.172.373-.369.533-.578.805.088 1.628-.298 1.863-1.327M231.734 215.309l.004-.013c.063-.12.131-.238.198-.355.31-.55.45-1.045.528-1.663.23-1.79-1.774-2.768-3.129-3.24-.548-.19-1.12-.048-1.564.278-.48.352-.813.92-.8 1.522.025 1.01.256 1.922.65 2.846.043.1.097.213.15.32v.003c.106.217.22.436.365.638.255.726.995 1.26 1.77 1.26.958 0 1.67-.704 1.828-1.596M267.505 223.038c0 .53.216.986.559 1.315.128.902.909 1.62 1.841 1.62a1.886 1.886 0 0 0 1.867-1.869c-.001-.608-.078-1.174-.341-1.729-.377-.788-1.23-1.165-2.06-1.204-1.016-.048-1.866.885-1.866 1.867M197.378 3.335c.743.848 1.704 1.479 2.789 1.642.902.137 1.779-.033 2.608-.396 1.241-.163 2.445-.696 3.526-1.694A5.995 5.995 0 0 0 208.017 0h-14.362c.763 1.654 2.084 2.798 3.723 3.335M38.38 4.49c1.441.437 2.953.615 4.347.253 1.59-.003 3.219-.258 4.844-.754.568-.174 1.211-.67 1.304-1.305A11.84 11.84 0 0 0 48.961 0H31.623c.876 2.44 3.754 4.177 6.757 4.49M400.838 1.703v1.6c0 .865.576 1.536 1.37 1.8.534.18 1.068.357 1.601.534.089.031.181.048.276.06.595.56 1.48.726 2.23.285.852-.5 1.214-1.693.669-2.554-.037-.054-.066-.11-.096-.166a.925.925 0 0 1-.05-.13c-.021-.076-.035-.152-.05-.226-.061-.63-.125-1.178-.387-1.759-.264-.59-.702-.945-1.219-1.147h-3.288c-.634.28-1.056 1.048-1.056 1.703"/>
        <g transform="translate(401 452.543)">
            <mask id="l" fill="#fff">
                <use xlink:href="#k"/>
            </mask>
            <path fill="#F3EDD7" d="M1.208.905A1.239 1.239 0 0 0 .896 1h3.286C3.275.645 2.122.76 1.208.905" mask="url(#l)"/>
        </g>
        <g transform="translate(450 139.543)">
            <mask id="n" fill="#fff">
                <use xlink:href="#m"/>
            </mask>
            <path fill="#F3EDD7" d="M.66 4.878c.11 2.252 2.205 3.54 3.883 4.704V.16C2.44.398.56 2.835.66 4.878" mask="url(#n)"/>
        </g>
        <path fill="#F3EDD7" d="M271.188 390.215c4.872 2.276 14.02 2.114 15.968-4.067.733-2.327-.247-5.045-1.967-6.756-1.712-4.868-7.133-7.61-11.951-4.898-5.867 3.305-9.62 12.184-2.05 15.72M68.475 412.038c-.003.022-.005.037-.01.056-.203.231-.431.44-.644.663-.433.454-.86 1.046-.946 1.681-.004.02-.002.038-.004.058a1.932 1.932 0 0 0 .484 1.758l.028.03c.09.133.173.27.26.404.228.356.476.646.773.906.249.332.545.625.919.814.294.151.574.242.888.312.14.031.278.068.415.11.06.018.117.04.175.061l.119.055c.584.28 1.227.326 1.777.056.69.31 1.493.244 2.085-.348.678-.678.774-1.977 0-2.639a3.12 3.12 0 0 0-.38-.277c.458-.905-.13-2.096-1.057-2.514.139-.452.128-.94-.146-1.483-.556-1.105-1.884-1.072-2.936-1.074-.746 0-1.691.564-1.8 1.371M295.238 194.237c-.016 1.018.861 1.868 1.866 1.866 1.125 0 2.104-.246 3.164-.599.627-.208 1.123-.65 1.303-1.303.204-.74-.099-1.672-.792-2.067a1.805 1.805 0 0 0-.516-.514 1.774 1.774 0 0 0-.238-.303c-.578-.576-1.375-.662-2.06-.366a3.17 3.17 0 0 0-1.318.308c-1.125.504-1.392 1.883-1.409 2.978M316.376 439.967c.062.07.128.13.19.197.364.98.897 1.864 1.606 2.547 1.21 1.162 2.607 1.403 3.966 1.094 1.026.025 2.088-.336 3.112-1.246a5.121 5.121 0 0 0 1.196-1.572c.284-.327.538-.664.762-1 1.651-.108 2-1.887 1.19-2.951.272-1.754-.252-3.37-1.343-4.63-.57-.96-1.364-1.777-2.362-2.305-1.547-.818-3.246-.728-4.716-.057a5.082 5.082 0 0 0-2.896 1.054c-2.742 2.108-2.917 6.3-.705 8.869M227.157 444.309c.202.13.406.213.614.27.78.213 1.582-.04 2.336-.5.708.364 1.583.29 2.185-.311.483-.483.645-1.228.46-1.871a2.42 2.42 0 0 0 .047-.234l.026-.03c.661-.71.78-1.942 0-2.638-.425-.378-.882-.671-1.385-.844-.199-.491-.452-.988-.787-1.342-.64-.677-1.595-.681-2.38-.307a1.986 1.986 0 0 0-.502.36c-.789.74-1.22 2.11-1.492 3.01-.457 1.514-.653 3.459.878 4.437M38.276 370.669l-.178-.011c-3.233-1.818-8.596-.868-11.165 1.067-.892.672-1.11 1.529-.67 2.554.185.429.391.811.608 1.169a6.579 6.579 0 0 0-.157.91c-.356 3.6 3.274 6.919 6.623 7.249 4.807.473 8.184-5.361 7.252-9.602a5.172 5.172 0 0 0-.487-1.334c.024-1.079-.654-1.914-1.826-2.002M231.784 368.736c.034-.086.055-.17.08-.257.145-.187.257-.406.33-.638a8.77 8.77 0 0 0 .922-1.25c.636-1.03.028-2.432-1.115-2.744-.91-.248-2.08-.53-3.193-.522a2.007 2.007 0 0 0-1-.01c-.012.003-.024.01-.037.014-.203.06-.39.156-.557.277a2.818 2.818 0 0 0-1.089.754c-1.074 1.223-.884 2.941.004 4.215.154.221.326.43.51.623.042.125.086.25.146.367.211.411.566.704.986.893.86.383 1.992.321 2.725-.104.625-.365 1.027-.962 1.288-1.618M371.543 411.333c-3.738.407-6.07 4.467-5.468 7.984.731 4.265 5.957 7.484 9.935 5.373 1.411-.748 2.408-2.146 2.912-3.725.225-.24.433-.48.621-.711.815-.993.428-2.216-.339-2.848.112-.118.227-.235.34-.352 1.285-1.325.011-3.642-1.816-3.12l-.364.104a4.747 4.747 0 0 0-1.926-.924c-.826-1.222-2.062-1.98-3.895-1.781M254.297 195.348c.709 3.022 4.191 4.759 7.074 4.489.918-.085 1.458-.527 1.801-1.37a9.173 9.173 0 0 0 .605-2.194c.724-.91.979-2.098.364-3.522-.876-2.026-3.433-3.458-5.604-3.33-2.965.17-4.89 3.147-4.24 5.927M33.837 183.05c.909-.458 1.158-1.717.67-2.555-.409-.702-.976-1.191-1.739-1.47a2.446 2.446 0 0 0-.379-.103c-.728-.417-1.559-.695-2.198-.885-1.379-.407-2.312.742-2.315 1.963-.647.495-1.157 1.104-1.243 1.99-.13 1.349 1.524 2.51 2.276 3.435.78.96 2.359.568 2.931-.378.124-.204.226-.41.309-.618.385-.316.736-.65 1.037-1.021.221-.128.439-.25.651-.358M312.238 226.733c.297-.935.452-1.877.53-2.832.02-.025.037-.053.057-.076.743-.938.602-2.325-.313-2.909a1.856 1.856 0 0 0-1.226-.743c-1.782-1.43-4.447-.356-5.46 1.79-.597 1.262-.692 2.728.075 3.95.212.337.47.614.753.858 1.022.881 2.438 1.202 3.784 1.333.824.08 1.538-.61 1.784-1.333.004-.013.012-.025.016-.038M409.377 178.918c.848-2.252.883-5.764-2.144-6.302a6.334 6.334 0 0 0-.427-.058 4.297 4.297 0 0 0-.122-.087c-1.49-1.012-3.534-1.091-4.99-.033a2.735 2.735 0 0 0-.434.072c-2.475.625-2.738 4.031-2.322 6.05.242 1.177.933 2.275 1.963 2.907.06.037.122.059.184.091.888 1.075 2.133 1.822 3.573 1.926 2.611.188 3.954-2.539 4.72-4.566M76.496 150.897c-.018.046-.03.095-.044.143a1.75 1.75 0 0 0-.09.53v1.067c0 1.018.85 1.867 1.866 1.867h2.134c1.068 0 2.052-1.036 1.863-2.112.14-.803-.235-1.707-.993-2.076a5.167 5.167 0 0 0-.786-.298c-.092-.035-.183-.072-.284-.097-.1-.025-.195-.032-.29-.046a8.859 8.859 0 0 0-1.644-.17 1.79 1.79 0 0 0-.787.18c-.058.028-.112.06-.168.094-.03.018-.062.032-.09.051a1.803 1.803 0 0 0-.503.512c-.02.03-.044.054-.064.087-.029.05-.048.109-.072.163-.018.035-.033.07-.048.105"/>
    </g>
</svg>
