<svg xmlns="http://www.w3.org/2000/svg" xmlns:xlink="http://www.w3.org/1999/xlink" width="101" height="942" viewBox="0 0 101 942">
    <defs>
        <path id="a" d="M.937.35h11.461v29.998H.937z"/>
        <path id="c" d="M.195.703H11.3v28.834H.195z"/>
    </defs>
    <g fill="none" fill-rule="evenodd">
        <path fill="#5A7000" d="M92.127 920.854c1.694-10.354-5.217-19.46-1.73-27.428 2.649-1.302 3.417-.162 5.693.635.308 8.354 10.672 27.665-3.963 26.793M88.705 835.237c.921-1.194 2.614-1.745 3.417-3.049 2.017.304 3.186 1.72 4.67 2.735-1.55 8.155 6.061 21.134 1.794 27.9-2.023 3.198-6.318 2.411-7.54-.413-.833-1.932-2.388-7.54-2.416-9.87-.106-7.845-.567-10.243.075-17.303M92.965 790.576c-.888-6.123-1.923-17.32-3.503-26.557 10.218-9.395 10.662 14.058 10.349 26.39-2.257 1.585-4.911 2.31-6.846.167M89.667 638.912c9.146 1.236 8.858 14.813 7.302 25.663-9.682 15.745-10.165-21.19-7.302-25.663M90.196 608.944c.62-7.873-2.486-18.986-.95-27.853 1.816-1.875 5.173-.824 6.848-.168-1.292 8.936 9.54 32.596-5.898 28.021M93.425 546.352c-1.048-6.028-6.921-20.91-1.58-26.13 2.623-.74 3.579.704 5.142 1.352-1.378 6.273 8.983 26.032-3.562 24.779M90.67 475.184c2.573-.13 2.309-1.141 4.319-.521 4.395 5.097 8.12 30.8-2.33 24.626-.13-10.275-4.406-16.518-1.988-24.105M90.363 433.603c1.31-1.59 3.471-3.129 6.02-2.046 4.053 4.655 3.644 14.954-3.312 15.534-3.826-3.865-1.058-7.839-2.708-13.488M92.364 365.736c8.623 5.575 8.835 27.59 1.89 34.646-.976.3-1.132-.484-1.919-.428-3.004-12.066-2.792-24.61.03-34.218M94.53 207.102c-5.34-7.374-5.288-24.928-3.052-33.849 2.391 1.533 4.393 3.586 6.252 5.829-1.547 10 6.24 22.786-3.2 28.02M90.588 108.19a92.239 92.239 0 0 0 6.113 4.527c1.58 11.893 7.416 26.386-4.225 27.415.222-11.427-4.56-21.347-1.888-31.942M93.041 81.64c.47-6.843-9.057-30.682 2.66-27.307 3.025 5.327 7.921 26.287-2.66 27.308"/>
        <g transform="translate(88 698)">
            <mask id="b" fill="#fff">
                <use xlink:href="#a"/>
            </mask>
            <path fill="#5A7000" d="M4.893 29.984C5.019 18.088-1.958 8.148 2.335.684c2.689-.593 4.784-.393 6.303.553 1.474 2.314-.08 3.82.089 6.576.494 7.836 10.068 25.265-3.834 22.171" mask="url(#b)"/>
        </g>
        <path fill="#5A7000" d="M95.255 338.477c-4.246-.822-9.928-36.961-.033-34.87 1.01 9.017 10.856 30.076.033 34.87M92.516 273.993c-3.604-9.084-1.931-22.402-1.398-30.1 8.709 1.388 11.785 26.64 1.398 30.1M62.73 904.61c1.272.071 2.623-2.44 5.397-.315.041 12.824 4.978 24.354-2.286 31.062-.535-.286-1.075-.556-1.913-.425-3.723-12.67-4.51-20.732-3.298-28.602.158-1.025 1.065-1.78 2.1-1.72M62.116 803.256c-1.07-13.362-2.2-14.527 1.317-27.045.313-.14 4.357-2.786 4.877-1.621 1.933 4.34 3.024 20.715-.858 26.054-1.212 1.66-4.326 2.345-5.336 2.612M62.02 728.979c-.564-13.756-1.73-21.033 1.616-31.12 2.832-.037 4.599 1.325 5.972 3.23-.348 10.128 2.282 23.205-5.674 28.32-.53-.288-1.07-.56-1.913-.43M89.604 29.98c-.565-13.756-1.732-15.636 1.615-25.723 2.832-.036 4.599 1.327 5.972 3.23-.348 10.13 2.282 17.808-5.674 22.923-.53-.29-1.07-.56-1.913-.43M61.542 585.438c-1.418-15.376-3.867-24.284 2.354-31.346 1.072 1.935 3.459 1.935 4.419 4.034 1.723 11.037 4.883 26.53-6.773 27.312M63.822 174.62c.58-10.612-5.532-19.12-2.352-27.352 2.796-.989 3.816.392 5.69.623.348 6.096 9.323 28.965-3.338 26.728M63.733 119.49c-3.563-10.248-6.085-22.587-.824-29.782 1.837-.713 1.373 1.644 3.215.93 1.863 9.837 3.51 17.092.688 28.477-1.029.122-2.05.245-3.079.375M67.624 373.876c1.136 10.166 9.056 23.185-3.402 27.494-2.04-9.89-2.276-13.93-2.457-23.286 1.828-.886.977-5.396 5.859-4.208M63.287 224.999c-.575-6.984-4.967-23.158-1.18-28.147 6.355 1.436 14.674 28.732 1.18 28.147M63.09 870.393c-1.665-10.414-2.812-20.123-1.292-31.646 1.948-1.5 4.786-1.42 6.25 1.33.045 13.026 6.825 27.19-4.957 30.316M61.616 652.078c-1.16-9.863-.979-24.354 1.333-33.718 9.41 2.088 10.354 31.627-1.333 33.718M62.237 526.004c-.409-11.201-2.332-20.862.793-28.5 1.93-1.83 2.685 3.03 5.285 2.66 1.182 13.016 4.771 24.188-6.078 25.84M62.849 459.294c-1.288-9.323-3.746-21.44 2.73-26.653 5.185 4.928 7.007 23.557-2.73 26.653M66.114 345.22c-4.402-.87-2.499-6.327-2.979-10.166-.73-6.012-2.052-13.146-.856-18.761 1.31-1.48 3.933-2.208 6.084-1.388 1.397 7.94 7.49 24.998-2.249 30.315M64.348 282.227c-3.301-6.34-3.104-19.15-3.736-30.824 2.307-2.557 5.053-2.472 7.47-.248.269 13.44 7.225 23.539-3.734 31.072M31.337 923.052c-1.711-9.67-3.702-23.057 1-31.043 8.106.23 6.699 28.409 1.469 30.745-.825.099-1.65.196-2.47.298M32.519 859.877c-3.342-4.698-1.943-9.587-2.52-17.455-.661-9.118-2.958-16.096 4.544-15.684 3.35 2.035 3.489 10.901 3.75 17.312.273 6.772-.514 12.422-3.921 15.608-.62.077-1.235.152-1.853.219M30.83 793.889c-.942-10.834-1.01-18.225-1.532-28.7 2.513-.255 2.69-2.474 6.022-2.048 2.213 6.09 6.944 30.88-4.49 30.748M31.84 729.447c-3.33-3.827-4.155-26.792 2.549-27.553 4.972 3.415 5.9 27.266-2.55 27.553M30.808 614.585c-3.393-9.959.78-18.604-1.326-29.451 12.017-14.277 10.023 27.687 2.559 29.303-.41.052-.822.1-1.233.148M30.878 552.112c.255-9.055-5.985-25.985 3.818-28.095 4.146 7.33 6.81 27.368-3.818 28.095M30.21 493.494c.612-7.169-4.058-25.054 4.813-25.304 4.27 5.074 4.87 30.198-4.812 25.304M32.41 440.19c-1.187-6.866-8.055-27.488 3.554-24.776 2.321 8.57 4.734 21.892-3.554 24.776M32.314 324.762c-2.535-2.216-4.983-23.982-1.32-29.446.991-1.235 3.165.159 5 .052 1.964 10.709 5.135 25.012-3.68 29.394M33.697 265.79c-5.914-7.579-.56-16.855-3.843-26.404 1.332-1.447 1.865-3.553 4.578-3.84.09.622.811.41 1.306.5 2.932 7.556 6.215 23.768-2.04 29.743M32.915 196.13c-1.191-8.18-8.764-20.78.543-23.757 4.82 3.123 8.887 24.698-.543 23.757M29.495 57.041c1.867-1.29 3.301-.707 5.542-.668 3.017 7.43 3.966 20.762 1.731 27.428-9.966-1.332-5.92-19.985-7.273-26.76M33.382 666.769c-5.457-5.373-4.135-19.588-2.958-27.277 1.23-.15 2.468-.293 3.695-.443 4.417 5.4 6.456 23.71-.737 27.72M30.68 351.045c1.442-.176 2.88-.346 4.32-.524 1.865 6.009 3.534 11.106 2.89 19.435-.325 4.117-1.931 7.879-3.88 10.33-.974.305-1.126-.48-1.913-.425-2.13-11.523-3.914-18.288-1.416-28.816M35.92 143.192c-5.913-.319-5.481-7.044-5.604-12.034-.195-8.03-2.133-10.705-1.964-16.94 1.773-.673 2.47-2.259 5.4-1.968 4.988 11.285 8.072 21.078 2.169 30.942"/>
        <g transform="translate(28)">
            <mask id="d" fill="#fff">
                <use xlink:href="#c"/>
            </mask>
            <path fill="#5A7000" d="M2.087 27.459C1.59 24.918.452 9.37.267 6.942.182 5.816.161 4.687.262 3.563.288 3.281.556.72.811.712c10.202-.351 8.467 9.419 9.47 19.893.2 2.054 1.234 3.756.977 5.826-.12.973-.255 1.72-.65 2.596-.413.923-8.077.703-8.52-1.568" mask="url(#d)"/>
        </g>
        <path fill="#5A7000" d="M2.72 942c.924-12.01-6.015-25.732 3.945-32.718 4.328 8.531 5.909 32.205-3.945 32.718M2.639 778.067c8.239-.43 10.828 26.281 1.11 27.5-1.115-6.78-4.275-20.94-1.11-27.5M1.902 750.217c.25-11.368-1.679-25.23 1.744-35.74 2.001.804 4.825.525 5.9 2.576-1.094 12.64 3.815 30.584-7.644 33.164M2.202 625.251c-.245-8.334-2.143-21.961 1.765-29.816 2.208.04 3.546 1.231 5.212 1.998.184 11.38 3.225 25.142-6.977 27.818M2.606 515.077c-2.29-8.397-1.28-26.24.79-32.997 9.3-.144 7.88 29.193 1.058 32.771-.614.078-1.235.15-1.848.226M3.228 392.866C1.044 388.45-.48 366.643 6.89 367.091c2.734 2.534 3.569 21.11 2.499 25.033-1.95.34-4.367 2.07-6.161.742M60.092 56.411c-2.184-4.416-3.708-26.223 3.662-25.775 2.734 2.534 3.569 21.11 2.499 25.032-1.948.341-4.366 2.07-6.161.743M2.23 342.55c2.395-7.783-6.484-19.203 4.661-20.296 3 5.517 7.232 22.24-4.66 20.296M4.055 299.815a246.77 246.77 0 0 1-2.996-16.091c8.08-11.664 14.297 16.096 2.996 16.09M3.595 249.254c.769-8.721-7.145-25.903 2.065-29.066 4.796 6.173 5.175 19.532 3.65 27.86-1.528 2.65-2.633 1.627-4.044 2.364-.8.418-1.75-.26-1.671-1.158M1.404 172.204c1.444-.767 2.507-1.84 4.788-1.897 5.245 6.176 6.26 25.554-2.94 24.698.243-9.842-3.145-16.763-1.848-22.8M3.911 146.959c-2.136-5.57-2.4-13.666-2.524-20.167 2.042-1.412 3.317-2.551 6.025-2.04 1.948 6.2 5.8 22.114-3.5 22.207M8.255 421.762c1.209 11.146 5.67 20.39-3.441 28.447-4.148-1.494-2.18-5.841-2.17-10.796.01-9.07-2.905-14.238-.15-18.93-.628-.277 3.488-1.556 5.76 1.279M3.151 873.56c-2.625-3.46-.336-9.792-1.072-15.66-.599-4.74-3.254-16.813 3.853-16.255 4.312.335 5.317 24.78 3.1 28.576-.954 1.644-3.52 1.914-3.96 3.769-.977.3-1.13-.485-1.92-.43M2.278 685.095c-.116-10.112-2.436-26.828 1.403-33.065 2.246.308 1.525-.1 3.77.204 2.137 7.28 5.784 31.67-5.173 32.86M3.527 539.557c8.37 2.189 8.837 23.469-1.02 25.126-1.64-7.035-1.529-21.317 1.02-25.126M5.273 101.814c-3.79-3.15-4.015-16.868-3.79-24.103 1.06-.493 2.526-.644 2.94-1.671 6.163 3.672 10.36 23.098.85 25.774M3.09 30.521c7.28 2.086 9.43 20.094 5.905 25.61-.412.048-3.522.096-3.933.144C1.836 53.977-3.39 32.822 3.09 30.521z"/>
    </g>
</svg>
