<?xml version="1.0" encoding="UTF-8" standalone="no"?>
<!-- Generator: Adobe Illustrator 23.0.4, SVG Export Plug-In . SVG Version: 6.00 Build 0)  -->

<svg
   xmlns:dc="http://purl.org/dc/elements/1.1/"
   xmlns:cc="http://creativecommons.org/ns#"
   xmlns:rdf="http://www.w3.org/1999/02/22-rdf-syntax-ns#"
   xmlns:svg="http://www.w3.org/2000/svg"
   xmlns="http://www.w3.org/2000/svg"
   xmlns:sodipodi="http://sodipodi.sourceforge.net/DTD/sodipodi-0.dtd"
   xmlns:inkscape="http://www.inkscape.org/namespaces/inkscape"
   version="1.1"
   id="Layer_1"
   x="0px"
   y="0px"
   viewBox="0 0 1064 235"
   xml:space="preserve"
   sodipodi:docname="capyba_logotipo_pb-01.svg"
   width="1064"
   height="235"
   inkscape:version="0.92.4 (unknown)"><metadata
   id="metadata135"><rdf:RDF><cc:Work
       rdf:about=""><dc:format>image/svg+xml</dc:format><dc:type
         rdf:resource="http://purl.org/dc/dcmitype/StillImage" /><dc:title></dc:title></cc:Work></rdf:RDF></metadata><defs
   id="defs133" /><sodipodi:namedview
   pagecolor="#ffffff"
   bordercolor="#666666"
   borderopacity="1"
   objecttolerance="10"
   gridtolerance="10"
   guidetolerance="10"
   inkscape:pageopacity="0"
   inkscape:pageshadow="2"
   inkscape:window-width="1853"
   inkscape:window-height="1025"
   id="namedview131"
   showgrid="false"
   inkscape:zoom="0.40324074"
   inkscape:cx="1023.8024"
   inkscape:cy="381.25295"
   inkscape:window-x="67"
   inkscape:window-y="27"
   inkscape:window-maximized="1"
   inkscape:current-layer="Layer_1" />
<style
   type="text/css"
   id="style106">
	.st0{fill:#0B121D;}
	.st1{fill:#4AE86D;}
	.st2{fill:#FFFFFF;}
</style>
<g
   id="g120"
   transform="translate(-185.99311,-423.41561)">
	<path
   d="m 547.47,593.48 c -7.91,0 -15.38,-1.46 -22.39,-4.39 -7.01,-2.93 -13.03,-6.9 -18.05,-11.92 -5.02,-5.02 -8.98,-11.03 -11.87,-18.05 -2.89,-7.01 -4.34,-14.44 -4.34,-22.29 0,-7.85 1.45,-15.25 4.34,-22.2 2.89,-6.95 6.85,-12.9 11.87,-17.85 5.02,-4.95 11.05,-8.86 18.1,-11.73 7.05,-2.86 14.56,-4.3 22.54,-4.3 13.77,0 25.59,4.01 35.47,12.02 9.87,8.01 16.13,18.61 18.77,31.79 0,0 0,0.01 -0.01,0.01 h -28.66 c -2.32,-5.27 -5.76,-9.38 -10.33,-12.3 -4.57,-2.93 -9.72,-4.39 -15.44,-4.39 -7.79,0 -14.3,2.78 -19.54,8.35 -5.24,5.56 -7.86,12.47 -7.86,20.7 0,8.24 2.64,15.2 7.91,20.89 5.27,5.69 11.78,8.54 19.5,8.54 5.85,0 11,-1.54 15.44,-4.63 4.44,-3.09 7.88,-7.49 10.33,-13.22 h 29.04 c 0,0 0.01,0 0.01,0.01 -2.51,13.44 -8.8,24.3 -18.87,32.56 -10.08,8.27 -22.06,12.4 -35.96,12.4 z"
   id="path108"
   inkscape:connector-curvature="0" />
	<path
   d="m 704.35,483.75 h 21.66 c 0,0 0.01,0 0.01,0.01 v 106.72 c 0,0 0,0.01 -0.01,0.01 h -22.62 c 0,0 -0.01,0 -0.01,-0.01 l -2.55,-9.74 c -9.71,8.49 -21.23,12.74 -34.55,12.74 -10.55,0 -20.11,-2.45 -28.66,-7.34 -8.56,-4.89 -15.25,-11.66 -20.07,-20.32 -4.82,-8.65 -7.24,-18.29 -7.24,-28.9 0,-10.55 2.41,-20.12 7.24,-28.71 4.83,-8.59 11.52,-15.31 20.07,-20.17 8.56,-4.86 18.11,-7.29 28.66,-7.29 13.57,0 25.25,4.34 35.03,13.03 l 3.04,-10.03 c -0.01,0 -0.01,0 0,0 z m -56.55,74.07 c 5.5,5.56 12.43,8.35 20.8,8.35 8.37,0 15.3,-2.77 20.8,-8.3 5.5,-5.53 8.25,-12.51 8.25,-20.94 0,-8.43 -2.75,-15.41 -8.25,-20.94 -5.5,-5.53 -12.43,-8.3 -20.8,-8.3 -8.37,0 -15.3,2.78 -20.8,8.35 -5.5,5.57 -8.25,12.53 -8.25,20.9 0,8.35 2.75,15.32 8.25,20.88 z"
   id="path110"
   inkscape:connector-curvature="0" />
	<path
   d="m 1211.79,483.75 h 21.66 c 0,0 0.01,0 0.01,0.01 v 106.72 c 0,0 0,0.01 -0.01,0.01 h -22.62 c 0,0 -0.01,0 -0.01,-0.01 l -2.55,-9.74 c -9.71,8.49 -21.23,12.74 -34.55,12.74 -10.55,0 -20.11,-2.45 -28.66,-7.34 -8.56,-4.89 -15.25,-11.66 -20.07,-20.32 -4.82,-8.65 -7.24,-18.29 -7.24,-28.9 0,-10.55 2.41,-20.12 7.24,-28.71 4.83,-8.59 11.52,-15.31 20.07,-20.17 8.56,-4.86 18.11,-7.29 28.66,-7.29 13.57,0 25.25,4.34 35.03,13.03 l 3.04,-10.03 c 0,0 0,0 0,0 z m -56.55,74.07 c 5.5,5.56 12.43,8.35 20.8,8.35 8.37,0 15.3,-2.77 20.8,-8.3 5.5,-5.53 8.25,-12.51 8.25,-20.94 0,-8.43 -2.75,-15.41 -8.25,-20.94 -5.5,-5.53 -12.43,-8.3 -20.8,-8.3 -8.37,0 -15.3,2.78 -20.8,8.35 -5.5,5.57 -8.25,12.53 -8.25,20.9 0,8.37 2.75,15.31 8.25,20.88 z"
   id="path112"
   inkscape:connector-curvature="0" />
	<path
   d="m 801.85,480.76 c 10.55,0 20.09,2.43 28.61,7.29 8.52,4.86 15.2,11.6 20.03,20.22 4.83,8.62 7.24,18.24 7.24,28.86 0,10.62 -2.41,20.25 -7.24,28.9 -4.82,8.65 -11.5,15.43 -20.03,20.32 -8.52,4.89 -18.06,7.33 -28.61,7.33 -10.81,0 -20.59,-2.99 -29.34,-8.97 V 629 c 0,0 0,0.01 -0.01,0.01 h -28.84 c 0,0 -0.01,0 -0.01,-0.01 V 483.76 c 0,0 0,-0.01 0.01,-0.01 h 19 c 0,0 0.01,0 0.01,0 l 4.92,9.74 c 9.58,-8.48 21,-12.73 34.26,-12.73 z m -23.21,77.26 c 5.5,5.56 12.43,8.35 20.8,8.35 8.36,0 15.3,-2.77 20.8,-8.3 5.5,-5.53 8.25,-12.51 8.25,-20.94 0,-8.43 -2.75,-15.41 -8.25,-20.94 -5.5,-5.53 -12.43,-8.3 -20.8,-8.3 -8.36,0 -15.3,2.78 -20.8,8.35 -5.5,5.57 -8.25,12.53 -8.25,20.89 -0.01,8.36 2.75,15.32 8.25,20.89 z"
   id="path114"
   inkscape:connector-curvature="0" />
	<path
   d="m 1052.06,480.75 c 10.68,0 20.3,2.43 28.86,7.29 8.56,4.86 15.23,11.58 20.03,20.17 4.79,8.59 7.19,18.23 7.19,28.9 0,10.68 -2.4,20.32 -7.19,28.9 -4.79,8.59 -11.47,15.31 -20.03,20.17 -8.56,4.86 -18.18,7.29 -28.86,7.29 -12.8,0 -23.93,-3.96 -33.39,-11.87 l -3.47,8.87 c 0,0 0,0 -0.01,0 h -21.22 c 0,0 -0.01,0 -0.01,-0.01 V 445.25 c 0,0 0,-0.01 0.01,-0.01 h 28.84 c 0,0 0.01,0 0.01,0.01 v 44.28 c 0,0 0,0.01 0.01,0 8.55,-5.85 18.29,-8.78 29.23,-8.78 z m -23.16,77.12 c 5.53,5.53 12.48,8.3 20.85,8.3 8.37,0 15.3,-2.77 20.8,-8.3 5.5,-5.53 8.25,-12.45 8.25,-20.75 0,-8.43 -2.75,-15.41 -8.25,-20.94 -5.5,-5.53 -12.43,-8.3 -20.8,-8.3 -8.37,0 -15.31,2.78 -20.85,8.35 -5.53,5.57 -8.3,12.53 -8.3,20.89 0,8.3 2.76,15.21 8.3,20.75 z"
   id="path116"
   inkscape:connector-curvature="0" />
	<path
   d="m 949.08,483.75 c 0,0 -0.01,0 0,0 l -0.01,50.56 c 0,7.98 -2.55,14.59 -7.69,19.84 -4.97,5.11 -11.22,7.72 -18.75,7.86 -7.59,-0.14 -13.86,-2.75 -18.8,-7.86 -5.09,-5.25 -7.63,-11.86 -7.63,-19.84 v -50.56 c 0,0 0,-0.01 -0.01,-0.01 h -28.84 c 0,0 -0.01,0 -0.01,0.01 v 50.56 c 0,9.85 2.32,18.87 7.01,27.08 4.66,8.2 11.06,14.65 19.2,19.36 8.14,4.69 17.1,7.04 26.88,7.04 0.96,0 1.91,-0.03 2.85,-0.07 9.63,-0.69 18.42,-3.89 26.37,-9.49 v 6.83 c 0,7.6 -2.57,13.67 -7.71,18.2 -5.07,4.46 -11.29,6.72 -18.66,6.79 -5.31,-0.13 -10.24,-1.38 -14.77,-3.79 -4.79,-2.55 -7.96,-6.1 -9.51,-10.68 h -28.64 c 0,0 -0.01,0 -0.01,0.01 2.44,12.23 8.49,21.82 18.13,28.76 9.05,6.51 20.23,10.01 33.53,10.41 0.46,0.01 0.93,0.01 1.4,0.01 16.92,0 30.23,-4.8 39.95,-14.43 9.71,-9.61 14.57,-22.76 14.57,-39.42 v -5.85 -91.3 c 0,0 0,-0.01 -0.01,-0.01 h -28.84 z"
   id="path118"
   inkscape:connector-curvature="0" />
</g>
<g
   id="g128"
   transform="translate(-185.99311,-423.41561)">
	<path
   class="st1"
   d="m 396.06,592.64 v 42.12 c -52.34,0 -94.76,-42.42 -94.76,-94.76 h 42.12 c 0,29.07 23.56,52.64 52.64,52.64 z"
   id="path122"
   inkscape:connector-curvature="0"
   style="fill:#4ae86d" />
	<path
   class="st1"
   d="m 396.06,540 h -42.12 c 0,-29.07 -23.57,-52.64 -52.64,-52.64 -29.07,0 -52.64,23.57 -52.64,52.64 h -42.12 c 0,-52.34 42.43,-94.76 94.76,-94.76 52.33,0 94.76,42.43 94.76,94.76 z"
   id="path124"
   inkscape:connector-curvature="0"
   style="fill:#4ae86d" />
	<path
   class="st1"
   d="m 301.3,540 c 0,52.34 -42.43,94.76 -94.76,94.76 v -42.12 c 29.07,0 52.64,-23.57 52.64,-52.64 z"
   id="path126"
   inkscape:connector-curvature="0"
   style="fill:#4ae86d" />
</g>
</svg>