<svg xmlns="http://www.w3.org/2000/svg" width="91" height="9" viewBox="0 0 91 9">
    <path fill="#DD4D26" fill-rule="evenodd" d="M-362.246 7.794c6.294-.012 12.592.106 18.882-.068 6.915-.193 13.837-.077 20.742-.371 3.813-.164 7.668.054 11.439-.652 1.868-.348 3.76-.137 5.617-.548 1.182-.261 2.379.229 3.57.234 5.837.025 11.678.15 17.509-.037 4.443-.142 8.89-.412 13.329-.708 2.685-.18 5.363-.226 8.045-.261 1.318-.018 2.599-.45 3.92-.291 4.15.497 8.239-.59 12.386-.422 4.114.166 8.243-.04 12.358.098 17.327.58 34.662.026 51.986.393 7.088.15 14.182-.04 21.259.32 4 .206 8.006.038 11.988.338 2.97.224 5.94.122 8.902.312 4.67.3 9.355.386 14.017.732 4.006.298 8.003.307 11.99.168 5.82-.202 11.643-.386 17.456-.687 9.435-.488 18.874-.371 28.297-.142 8.406.205 16.814-.05 25.208.3 9.548.398 19.103-.02 28.64.358 8.464.334 16.929-.007 25.38.324 8.69.34 17.388.008 26.066.37 7.205.299 14.412-.024 21.604.319 9.72.464 19.439.096 29.158.23.344.004.688.01 1.03-.002C90.932 8.007 91 7.936 91 5.55l-.001-4.29c0-.603-.13-.962-.9-.83-.782.135-1.594.115-2.393.119-8.004.035-16.008.259-24.004.478-14.013.385-28.023.253-42.032.122-4.735-.043-9.491.01-14.22-.31C4.195.62.935.769-2.307.515c-4.27-.334-8.564-.188-12.818-.67-3.17-.36-6.355-.547-9.527-.884-1.975-.21-3.97-.465-5.972-.431-4.517.078-9.02-.328-13.533-.44-4.501-.11-9.002-.444-13.504-.668-4.444-.22-8.891-.437-13.331-.707-2.971-.181-5.937-.174-8.902-.292-18.242-.725-36.491-.322-54.734-.21-11.95.074-23.905 0-35.85.327-22.708.622-45.418-.091-68.122.328-3.824.07-7.66.109-11.472.372-2.341.16-4.68.14-7.015.28-5.585.334-11.178.489-16.764.756-2.453.119-4.914.075-7.355.288-3.822.332-7.662.112-11.472.395-2.687.2-5.366.138-8.046.255-6.454.282-12.918.179-19.368.438-4.458.18-8.921.009-13.363.307-7.546.505-15.091.163-22.635.248-2.057.023-4.092-.437-6.155-.31v7.897z"/>
</svg>
