<svg xmlns="http://www.w3.org/2000/svg" xmlns:xlink="http://www.w3.org/1999/xlink" viewBox="0 0 671.72 124.25"><defs><style>.cls-1{fill:#95a300;}.cls-2{fill:#dd4d26;}.cls-3{fill:#8a0d0f;}</style><symbol id="PyNE_logo" data-name="PyNE logo" viewBox="0 0 1011.71 1311.34"><path class="cls-1" d="M636.9,444.34c-6.4-183.69-9.49-230.5-40.93-266.13-62.33-70.62-147.13-47.37-185.07-16.54C356.06,206.22,347,268,342.71,364.44c-.29,6.74-1.82,42.75-3.9,114.29C261.9,463.82,208,452.65,206,414.7c-3.9-74.55-8.9-177.2-12.8-299.79C191.3,55.94,175.71,5.31,113.07.3,53.77-4.44,15.15,47.6,12.09,104c-4.9,90.18-16,231.86-10.67,379.49,2.67,74,28.57,153.39,137,186.79,64.44,19.86,149,37.58,193.59,48.23-3.87,138.08-10.14,252.54-10.39,294-.12,20.52-1.12,48.52,43.64,63.81,29.16,10,121.21,20.68,298.24,26.71C655.14,819.85,638.21,481.93,636.9,444.34Z"/><path class="cls-2" d="M687.86,1166.79C669.47,1139,650.74,1141.1,584,1137.11c-84.64-5-208.45-19.39-237.37-29.67-18.17-6.46-61.53-27.52-60.94-80.89,1-89.59,12.1-228.42,12.1-228.42-15.89,2.65-34.17,11-73.6,36.16-51.49,32.82-86.14,74.31-104.77,141.89-18.72,67.94-28.33,174.66,37.31,241.05,54.91,55.54,112.75,83.08,243.3,92,109.57,7.47,184-5.94,234.41-20.77C711.1,1265.9,705.26,1193.09,687.86,1166.79Z"/><path class="cls-2" d="M1008.05,213.81c6.88-23.47,10.45-27.36-50.33-176.1C945.88,8.71,918.61.13,877.11.13c-42.69,0-67.73,9.25-79.58,38.24-60.78,148.74-57.18,151.86-50.29,175.33,8.09,27.56,46.47,111.2,50.06,143.19,5.92,52.74-3.44,140-5.39,211.87C787.64,640.6,787.3,661,769.84,678.4c-19.34,19.34-46.78,37.83-91.28,52.67,4.91,89.91,7.91,134.91,13.3,238.11,66-32.91,181.95-101.3,235.85-171.1,36.53-47.31,38.55-135.81,35.94-225.1h.07c-1.63-71.82-11.29-162.32-5.25-216.09C962.06,324.9,1000,241.37,1008.05,213.81Z"/></symbol></defs><title>logo-site</title><g id="Layer_2" data-name="Layer 2"><g id="Layer_2-2" data-name="Layer 2"><path class="cls-3" d="M112.14,33.86A.85.85,0,0,1,113,33h23.19l1.67,0a45.22,45.22,0,0,1,4.61.41,14.13,14.13,0,0,1,4.93,1.78,10.62,10.62,0,0,1,4.69,6,34.47,34.47,0,0,1,1.15,9.8,33.76,33.76,0,0,1-1.15,9.59,10.86,10.86,0,0,1-4.73,6.14,13.61,13.61,0,0,1-4.42,1.73,43.63,43.63,0,0,1-5.24.54c-.46,0-1.22,0-1.67,0H120.06a.85.85,0,0,0-.84.84V88.83a.84.84,0,0,1-.83.84H113a.85.85,0,0,1-.84-.84ZM133.62,62.5l1.67,0s2.75-.08,4.11-.3a11.19,11.19,0,0,0,2.87-.79A5.55,5.55,0,0,0,145.49,58a24.3,24.3,0,0,0,.74-6.92,25.68,25.68,0,0,0-.7-6.91,5.42,5.42,0,0,0-3.13-3.42,12.52,12.52,0,0,0-3.49-.88c-1.22-.15-3.46-.21-3.46-.21l-1.67,0H120.06a.84.84,0,0,0-.84.83V61.66a.85.85,0,0,0,.84.84Z"/><path class="cls-3" d="M160.72,106a.94.94,0,0,1-.83-.91V101a.81.81,0,0,1,.84-.81s9.43.38,11.84.38q6.35,0,9.22-1.27a6.31,6.31,0,0,0,3.71-4c.55-1.84.79-7.85.79-7.85,0-.46,0-1.21,0-1.67V84.39a.29.29,0,0,0-.25-.32c-.13,0-.33.19-.45.43l-.11.21a9.28,9.28,0,0,1-4.09,3.76q-3.16,1.61-9.18,1.61c-4,0-7-.57-9.1-1.69A8.51,8.51,0,0,1,159,83.28a21.69,21.69,0,0,1-.81-4.06c-.17-1.57-.24-4.53-.24-4.53,0-.46,0-1.21,0-1.67V48.51a.83.83,0,0,1,.83-.83h5a.84.84,0,0,1,.84.83v21.8c0,.45,0,1.21,0,1.67a58.36,58.36,0,0,0,.68,7.56A4.62,4.62,0,0,0,168,82.83a20.49,20.49,0,0,0,6.92.82c3.46,0,6-.54,7.61-1.64a7.24,7.24,0,0,0,3.09-4.53,64.19,64.19,0,0,0,.63-7.4c0-.46,0-1.21,0-1.67V48.51a.84.84,0,0,1,.84-.83h5a.84.84,0,0,1,.84.83V83.73c0,.45,0,1.21,0,1.67,0,0-.08,4.37-.28,6.5a32.56,32.56,0,0,1-1,5.92,10.56,10.56,0,0,1-5.35,6.66q-4,2.14-12.27,2.15C168.18,106.63,160.72,106,160.72,106Z"/><path class="cls-3" d="M204.69,89.67a.84.84,0,0,1-.83-.84V54.6a.84.84,0,0,0-.84-.83h-6.81a.84.84,0,0,1-.83-.84V48.51a.83.83,0,0,1,.83-.83H203a.85.85,0,0,0,.84-.84V36.33a.84.84,0,0,1,.83-.84h5a.85.85,0,0,1,.84.84V46.84a.84.84,0,0,0,.83.84h8.38a.83.83,0,0,1,.83.83v4.42a.84.84,0,0,1-.83.84h-8.38a.83.83,0,0,0-.83.83V88.83a.85.85,0,0,1-.84.84Z"/><path class="cls-3" d="M251.53,66.87c0-.46,0-1.21,0-1.67,0,0,0-2.48-.14-3.8a19.42,19.42,0,0,0-.58-3.72,4.78,4.78,0,0,0-2.8-3.33,20.47,20.47,0,0,0-6.92-.83q-5.19,0-7.62,1.65a7.1,7.1,0,0,0-3,4.53,70.1,70.1,0,0,0-.59,7.48c0,.46,0,1.21,0,1.67v20a.84.84,0,0,1-.83.84h-5a.85.85,0,0,1-.84-.84V29.33a.85.85,0,0,1,.84-.84h5a.84.84,0,0,1,.83.84V52.87c0,.18.09.32.21.32a.47.47,0,0,0,.34-.3l.08-.15a9.25,9.25,0,0,1,4.27-4.08c2.11-1,5.15-1.56,9.1-1.56s7.12.56,9.18,1.69a8.46,8.46,0,0,1,4.15,5.1,23.53,23.53,0,0,1,.87,4.66c.14,1.45.19,4,.19,4,0,.46,0,1.21,0,1.67V88.83a.85.85,0,0,1-.84.84h-5a.84.84,0,0,1-.83-.84Z"/><path class="cls-3" d="M269.64,88.55a8.48,8.48,0,0,1-4.82-6q-1-4.23-1-13.87t1-13.87a8.48,8.48,0,0,1,4.82-6Q273.42,47,282.24,47t12.51,1.77a8.5,8.5,0,0,1,4.82,6q1,4.25,1,13.87t-1,13.87a8.5,8.5,0,0,1-4.82,6q-3.79,1.77-12.51,1.77T269.64,88.55Zm20.91-5.39a5,5,0,0,0,2.84-3.91,67.44,67.44,0,0,0,.54-10.58,67.44,67.44,0,0,0-.54-10.58,5,5,0,0,0-2.84-3.91q-2.31-1.07-8.31-1.07t-8.36,1.07A5,5,0,0,0,271,58.09a67.44,67.44,0,0,0-.54,10.58A67.44,67.44,0,0,0,271,79.25a5,5,0,0,0,2.88,3.91q2.34,1.07,8.36,1.07T290.55,83.16Z"/><path class="cls-3" d="M334.68,66.87c0-.46,0-1.21,0-1.67,0,0,0-2.38-.13-3.67a19.62,19.62,0,0,0-.6-3.85,4.76,4.76,0,0,0-2.8-3.33,20.43,20.43,0,0,0-6.92-.83q-5.18,0-7.61,1.65a7.08,7.08,0,0,0-3.05,4.53,70.1,70.1,0,0,0-.59,7.48c0,.46,0,1.21,0,1.67v20a.84.84,0,0,1-.83.84h-5a.84.84,0,0,1-.83-.84V48.51a.83.83,0,0,1,.83-.83h4.26a.89.89,0,0,1,.88.83l.21,3.77.06,1.08a.26.26,0,0,0,.26.24.55.55,0,0,0,.4-.33l.08-.16a9.81,9.81,0,0,1,4.38-4.4q3.21-1.7,9.3-1.69c4.06,0,7.12.57,9.18,1.73a8.67,8.67,0,0,1,4.16,5.14,23.08,23.08,0,0,1,.85,4.52c.15,1.48.2,4.16.2,4.16,0,.46,0,1.21,0,1.67V88.83a.85.85,0,0,1-.84.84h-5a.85.85,0,0,1-.84-.84Z"/><path class="cls-2" d="M384.19,89.67a1.67,1.67,0,0,1-1.27-.72l-18.3-30.22L364,57.66c-.12-.19-.31-.35-.42-.35s-.21.26-.21.58V88.83a.84.84,0,0,1-.83.84h-12a.84.84,0,0,1-.83-.84v-55a.84.84,0,0,1,.83-.84h13.07a1.66,1.66,0,0,1,1.27.71l17,27.48.6.95a.49.49,0,0,0,.36.25c.11,0,.2-.14.2-.32V33.86a.85.85,0,0,1,.84-.84h12.08a.84.84,0,0,1,.83.84v55a.84.84,0,0,1-.83.84Z"/><path class="cls-2" d="M408.26,88.47A8.85,8.85,0,0,1,403,82.38q-1.11-4.25-1.11-13.71T403,54.92a8.87,8.87,0,0,1,5.23-6.05Q412.37,47,421.76,47t13.5,1.85a8.87,8.87,0,0,1,5.23,6.05q1.11,4.2,1.11,13.75t-1.11,13.71a8.85,8.85,0,0,1-5.23,6.09q-4.11,1.86-13.5,1.85T408.26,88.47Zm18.24-9.14a3.42,3.42,0,0,0,1.56-2.76,69.53,69.53,0,0,0,.29-7.9,71,71,0,0,0-.29-8A3.3,3.3,0,0,0,426.5,58,17.32,17.32,0,0,0,417,58a3.31,3.31,0,0,0-1.57,2.71,71,71,0,0,0-.29,8,69.53,69.53,0,0,0,.29,7.9A3.42,3.42,0,0,0,417,79.33a16.36,16.36,0,0,0,9.47,0Z"/><path class="cls-2" d="M447.61,48.51a.84.84,0,0,1,.84-.83h10.92a.89.89,0,0,1,.88.83l.21,4.7.06,1.23a.41.41,0,0,0,.39.4.72.72,0,0,0,.55-.48l.09-.24A10.27,10.27,0,0,1,466,48.75a13.46,13.46,0,0,1,4.13-1.39,32.09,32.09,0,0,1,3.44-.31.8.8,0,0,1,.83.8V58.7a.9.9,0,0,1-.83.89s-5.47.37-7.36,1.22a7.74,7.74,0,0,0-4.08,4.4,16.35,16.35,0,0,0-.92,3.78c-.21,1.48-.29,4.28-.29,4.28,0,.46,0,1.21,0,1.67V88.83a.85.85,0,0,1-.84.84H448.45a.85.85,0,0,1-.84-.84Z"/><path class="cls-2" d="M482.48,88.43q-2.93-1.89-4.32-6.55t-1.4-13a49.52,49.52,0,0,1,1.36-13.18Q479.47,51,482.4,49a14.49,14.49,0,0,1,8-1.93,20.7,20.7,0,0,1,7,1,8.79,8.79,0,0,1,4.23,3.34l.14.21a.93.93,0,0,0,.62.44.36.36,0,0,0,.32-.39V29.33a.85.85,0,0,1,.84-.84h11.58a.85.85,0,0,1,.84.84v59.5a.85.85,0,0,1-.84.84H504.27a.91.91,0,0,1-.89-.84l-.22-3.27c0-.46-.2-.83-.39-.83s-.51.32-.74.72l-.27.39a8.82,8.82,0,0,1-4.09,3.29,19.71,19.71,0,0,1-7.16,1.19A14.68,14.68,0,0,1,482.48,88.43Zm17.74-9.92A3.71,3.71,0,0,0,502,76.33a10.83,10.83,0,0,0,.62-3c.08-1.15.12-2.69.12-4.61a27.92,27.92,0,0,0-.65-7.41,3.83,3.83,0,0,0-1.82-2.35,9.11,9.11,0,0,0-3.86-.61,10.81,10.81,0,0,0-4.37.61,3.5,3.5,0,0,0-1.64,2.64,40.44,40.44,0,0,0-.42,7.12,41.06,41.06,0,0,0,.42,7.2,3.48,3.48,0,0,0,1.64,2.64,10.77,10.77,0,0,0,4.37.62A8.83,8.83,0,0,0,500.22,78.51Z"/><path class="cls-2" d="M560.32,71.13a.83.83,0,0,1-.83.83H536.05a.8.8,0,0,0-.8.84,25.84,25.84,0,0,0,.58,4.68,3.53,3.53,0,0,0,2.72,2.06,38.28,38.28,0,0,0,7.53.49c3.9,0,11.76-.59,11.76-.59a.76.76,0,0,1,.84.77V88a1.05,1.05,0,0,1-.82,1s-3.29.64-6.22.91-5.84.41-8.69.41q-9.63,0-14-2.1a10,10,0,0,1-5.64-6.38Q522,77.57,522,68.75q0-8.64,1.23-13a10.33,10.33,0,0,1,5.4-6.54Q532.83,47,541.72,47t12.8,2.1a9.2,9.2,0,0,1,4.86,6.25,41.33,41.33,0,0,1,.75,6.11c.13,2.09.18,6.44.18,6.44,0,.46,0,1.21,0,1.67Zm-23-13.9a3.08,3.08,0,0,0-1.73,2.26,41.74,41.74,0,0,0-.38,4.81.8.8,0,0,0,.81.83h11a.8.8,0,0,0,.8-.83,34.84,34.84,0,0,0-.46-4.85,3.23,3.23,0,0,0-1.73-2.26,10.93,10.93,0,0,0-4-.54A11.4,11.4,0,0,0,537.35,57.23Z"/><path class="cls-2" d="M574.11,90c-3.15-.22-7.44-.72-7.44-.72a1,1,0,0,1-.83-.93V80.46a.77.77,0,0,1,.83-.78s8.22.6,12.18.6a42.22,42.22,0,0,0,5.6-.25,3.17,3.17,0,0,0,2.09-.86,3.58,3.58,0,0,0,.46-2.1,4,4,0,0,0-.29-1.77,1.71,1.71,0,0,0-1.11-.78,20.8,20.8,0,0,0-2.06-.38c-.45-.07-1.2-.16-1.65-.22l-8.14-1c-.46-.06-1.2-.18-1.65-.28a15,15,0,0,1-3.31-1.09,6.28,6.28,0,0,1-2.5-2.48c-1.12-2.06-1.69-5.14-1.69-9.26,0-3.68.72-6.44,2.14-8.28a10.09,10.09,0,0,1,5.81-3.62,43.08,43.08,0,0,1,9.51-.86q4,0,8.23.33c2.8.22,5.93.76,5.93.76a1,1,0,0,1,.82,1v7.8a.77.77,0,0,1-.83.77s-7.7-.6-11.27-.6c-2.42,0-4.15.06-5.19.17a3.62,3.62,0,0,0-2.18.78,2.77,2.77,0,0,0-.62,2,4.84,4.84,0,0,0,.21,1.72,1.46,1.46,0,0,0,1,.75c.52.16,1.77.36,1.77.36l1.65.23,8.06,1c.45.06,1.19.18,1.64.26a20.52,20.52,0,0,1,4.21,1.28,6.94,6.94,0,0,1,2.84,3.63,21.44,21.44,0,0,1,1,7.53c0,3.9-.68,6.83-2,8.81a9.32,9.32,0,0,1-5.48,3.87,37,37,0,0,1-9.05.9C580.16,90.32,577.27,90.21,574.11,90Z"/><path class="cls-2" d="M609.49,89.67a.85.85,0,0,1-.84-.84v-30a.84.84,0,0,0-.84-.83h-5.9a.84.84,0,0,1-.83-.84V48.51a.83.83,0,0,1,.83-.83h5.9a.85.85,0,0,0,.84-.84V36.33a.85.85,0,0,1,.84-.84h11.74a.85.85,0,0,1,.84.84V46.84a.85.85,0,0,0,.84.84h7.38a.84.84,0,0,1,.84.83v8.62a.85.85,0,0,1-.84.84h-7.38a.84.84,0,0,0-.84.83v30a.85.85,0,0,1-.84.84Z"/><path class="cls-2" d="M671.72,71.13a.84.84,0,0,1-.84.83H647.44a.8.8,0,0,0-.8.84,25.84,25.84,0,0,0,.58,4.68,3.53,3.53,0,0,0,2.72,2.06,38.28,38.28,0,0,0,7.53.49c3.9,0,11.77-.59,11.77-.59a.76.76,0,0,1,.83.77V88a1.05,1.05,0,0,1-.82,1s-3.28.64-6.22.91-5.83.41-8.69.41q-9.63,0-14-2.1a9.93,9.93,0,0,1-5.64-6.38q-1.24-4.28-1.24-13.09,0-8.64,1.24-13a10.32,10.32,0,0,1,5.39-6.54Q644.22,47,653.11,47t12.8,2.1a9.14,9.14,0,0,1,4.86,6.25,40.77,40.77,0,0,1,.78,6.58c.11,2,.16,6,.16,6,0,.46,0,1.21,0,1.67Zm-23-13.9A3.06,3.06,0,0,0,647,59.49a40.06,40.06,0,0,0-.39,4.81.81.81,0,0,0,.81.83h11a.8.8,0,0,0,.8-.83,34.84,34.84,0,0,0-.46-4.85,3.23,3.23,0,0,0-1.73-2.26,10.87,10.87,0,0,0-4-.54A11.33,11.33,0,0,0,648.75,57.23Z"/><use width="1011.71" height="1311.34" transform="translate(0 0.5) scale(0.09)" xlink:href="#PyNE_logo"/></g></g></svg>