<svg width="120" height="25" viewBox="0 0 120 25" fill="none" xmlns="http://www.w3.org/2000/svg">
<g clip-path="url(#clip0)">
<path fill-rule="evenodd" clip-rule="evenodd" d="M-270.858 -20.5184L-270.857 -20.5184L-270.857 -20.5184L-270.857 -20.5184L-270.857 -20.5184L-270.857 -20.5184L-270.856 -20.5185C-269.842 -20.5818 -268.658 -20.6557 -267.213 -20.7161C-267.279 -21.1462 -267.143 -21.4217 -266.997 -21.6921C-268.983 -24.835 -271.739 -24.74 -275.239 -24.6194L-275.239 -24.6194L-275.239 -24.6194L-275.239 -24.6194L-275.239 -24.6194L-275.239 -24.6194L-275.24 -24.6194L-275.24 -24.6194L-275.24 -24.6194L-275.24 -24.6194L-275.24 -24.6194C-276.26 -24.5843 -277.343 -24.5469 -278.489 -24.587C-279.444 -23.8865 -280.127 -22.985 -280.108 -21.5401C-276.111 -20.1903 -274.685 -20.2794 -270.858 -20.5184ZM-245.97 -21.7675L-245.97 -21.7675C-244.058 -22.1723 -242.32 -22.5402 -241.315 -22.4699C-241.827 -27.8684 -252.334 -25.3704 -255.005 -23.827C-256.201 -19.6012 -250.58 -20.7914 -245.97 -21.7675ZM-228.005 -21.2183C-227.21 -22.228 -226.446 -23.2632 -225.735 -24.3372C-224.533 -24.4997 -223.279 -24.7504 -222.037 -24.9986L-222.037 -24.9986L-222.037 -24.9986C-217.118 -25.9814 -212.404 -26.9235 -211.992 -22.1816C-214.34 -22.228 -216.562 -21.8453 -218.732 -21.4716C-221.855 -20.9337 -224.871 -20.4143 -228.005 -21.2183ZM-195.387 -21.6726C-190.915 -20.5318 -182.115 -20.5047 -178.418 -23.2297C-180.106 -26.3265 -183.359 -25.7893 -186.799 -25.221C-188.709 -24.9056 -190.676 -24.5806 -192.466 -24.8624C-193.59 -23.9139 -194.619 -22.8925 -195.387 -21.6726ZM-98.8921 -22.1246C-96.0972 -26.5241 -85.0612 -26.6323 -81.5234 -23.0884C-81.4386 -22.8079 -81.5266 -22.6603 -81.6144 -22.5128C-81.6824 -22.3988 -81.7502 -22.2849 -81.738 -22.1098C-87.7869 -20.5772 -94.0759 -20.6853 -98.8921 -22.1246ZM-65.8947 -24.1751C-66.4376 -22.8746 -65.6666 -21.772 -64.869 -21.1037C-63.7256 -21.4436 -62.7191 -21.416 -61.7978 -21.3908C-60.4372 -21.3535 -59.2625 -21.3214 -58.1072 -22.4853C-58.3979 -26.0343 -63.561 -26.2429 -65.8947 -24.1751ZM-44.024 -21.2607C-44.0528 -21.84 -44.1677 -22.1373 -44.2603 -22.377C-44.3774 -22.6801 -44.4588 -22.891 -44.2852 -23.4637C-41.73 -25.7061 -28.8446 -27.6066 -31.9397 -22.2755C-34.0936 -22.2475 -35.8941 -21.8498 -37.5381 -21.4866C-39.8259 -20.9813 -41.8109 -20.5428 -44.024 -21.2607ZM-10.9204 -22.0332C-9.91057 -22.3058 -9.01824 -22.5467 -8.34572 -22.6657C-7.92082 -26.9952 -12.3157 -25.9774 -16.1775 -25.083C-18.0247 -24.6552 -19.75 -24.2556 -20.7674 -24.4831C-20.8541 -24.2705 -20.9692 -24.0799 -21.0842 -23.8894L-21.0844 -23.8892L-21.0846 -23.8888C-21.4011 -23.3648 -21.7176 -22.8408 -21.4452 -21.8596C-19.4107 -19.741 -14.4484 -21.0807 -10.9204 -22.0332ZM23.0328 -21.0185C21.3186 -21.1559 19.2981 -20.9347 17.1966 -20.7047C14.4592 -20.405 11.5842 -20.0903 9.06953 -20.5333C8.12956 -21.4603 8.65645 -23.1731 8.9853 -24.0277C10.3691 -23.8241 12.4571 -24.2106 14.6146 -24.61C19.4421 -25.5036 24.6178 -26.4617 23.0328 -21.0185ZM38.0562 -20.7485C38.6759 -25.4148 45.4823 -25.2679 50.9216 -24.474C58.8148 -19.5342 40.2981 -19.2878 38.0562 -20.7485ZM109.846 -21.8908L109.846 -21.8908L109.846 -21.8908C107.023 -21.5521 103.702 -21.1535 100.775 -20.6438C96.0649 -25.8571 107.822 -26.0836 114.005 -25.9239C114.799 -24.7724 115.162 -23.4183 114.088 -22.4311C112.96 -22.2646 111.489 -22.0879 109.848 -21.8911L109.848 -21.891L109.846 -21.8908ZM135.785 -21.0783C135.993 -20.7763 136.201 -20.4749 136.478 -20.2577C138.955 -20.0284 140.287 -20.0748 142.212 -20.1419C143.037 -20.1706 143.972 -20.2032 145.152 -20.2194C146.32 -20.2337 149.132 -21.027 150.1 -21.452C151.516 -22.0755 151.91 -24.2668 150.307 -25.299C148.391 -26.5286 145.482 -25.825 142.576 -25.1222C140.337 -24.5806 138.1 -24.0395 136.32 -24.3837C136.185 -24.1818 136.035 -23.9914 135.885 -23.8012L135.884 -23.8008C135.472 -23.2775 135.061 -22.7556 134.949 -22.001C135.301 -21.7808 135.543 -21.4293 135.785 -21.0783ZM172.519 -21.3267C174.679 -21.8513 176.971 -22.4079 179.399 -22.0035C179.72 -27.4779 174.602 -26.0964 170.197 -24.9074C168.593 -24.4746 167.085 -24.0674 165.967 -24.0255C165.872 -23.7487 165.767 -23.5157 165.671 -23.303L165.671 -23.3027L165.671 -23.3024C165.365 -22.6227 165.152 -22.1501 165.649 -21.1214C167.775 -20.1743 170.062 -20.7299 172.519 -21.3267ZM82.7099 -22.3942C80.2239 -22.421 77.9082 -21.818 75.7819 -21.2644C72.8074 -20.4899 70.2032 -19.8118 68.0212 -21.0891C67.7239 -22.461 67.8242 -23.5299 68.2984 -24.3049C69.0135 -24.7684 69.5746 -24.645 70.2235 -24.5023C70.6273 -24.4135 71.0651 -24.3172 71.5951 -24.3503C72.6365 -24.4171 74.0157 -24.8094 75.4517 -25.2179C79.4328 -26.3504 83.8498 -27.6068 82.7099 -22.3942ZM-112.558 -23.5994C-112.97 -21.4331 -131.087 -18.5341 -130.039 -23.5826C-128.884 -23.7142 -127.336 -24.1399 -125.63 -24.6089C-120.657 -25.9761 -114.347 -27.711 -112.558 -23.5994ZM-158.439 -21.3685C-154.511 -21.0479 -148.881 -20.5884 -144.885 -22.2019C-146.62 -27.5013 -159.279 -25.932 -159.975 -21.4886C-159.502 -21.4553 -158.987 -21.4132 -158.439 -21.3685ZM171.255 -7.00531C171.267 -7.2113 171.148 -7.42136 171.014 -7.6574C170.726 -8.16501 170.37 -8.79281 171.098 -9.75888C173.048 -9.76523 174.939 -10.0014 176.72 -10.224C180.811 -10.7352 184.327 -11.1745 186.67 -8.59255C186.527 -8.31959 186.391 -8.04408 186.457 -7.61653C180.105 -5.71704 176.064 -5.31551 172.118 -5.93388C171.604 -6.01449 171.225 -6.47724 171.255 -7.00531ZM117.393 -6.41201L117.393 -6.41203C118.262 -6.49739 119.257 -6.59515 120.445 -6.69194L120.431 -6.74724L120.411 -6.82624C120.256 -7.44177 119.905 -8.84273 119.135 -9.41439C116.459 -11.395 108.25 -10.8384 106.074 -9.85214C105.578 -9.6266 106.462 -8.10164 106.781 -7.55149C106.838 -7.4545 106.876 -7.38781 106.887 -7.36387C112.05 -5.88723 113.36 -6.01596 117.393 -6.41201ZM83.2082 -6.64314C82.049 -6.59468 80.9816 -6.53755 79.9838 -6.48415C75.0462 -6.21991 71.8144 -6.04696 67.6076 -7.46712C67.5891 -8.91201 68.2719 -9.81355 69.2264 -10.5141C70.3353 -10.4753 71.5147 -10.509 72.7076 -10.543C76.9772 -10.665 81.4201 -10.7919 83.4243 -7.61916C83.2794 -7.34875 83.143 -7.07324 83.2082 -6.64314ZM11.2483 -6.39903C9.92494 -6.27482 8.69713 -6.1351 7.55318 -6.00493C2.03407 -5.3769 -1.5331 -4.97099 -4.46602 -7.60004C-4.00072 -7.86239 -3.75862 -8.27908 -3.51653 -8.69575C-3.25389 -9.14778 -2.99126 -9.59977 -2.44371 -9.85464C-2.13951 -9.90297 -1.82854 -9.95352 -1.51241 -10.0049C3.92113 -10.8882 10.8779 -12.019 11.2483 -6.39903ZM-201.169 -6.66985C-199.165 -7.16547 -197.035 -7.69212 -194.703 -7.56237C-193.839 -12.5385 -200.444 -10.964 -204.92 -9.89698C-206.255 -9.57885 -207.4 -9.30581 -208.102 -9.26491C-208.14 -8.95319 -208.239 -8.68777 -208.338 -8.4221C-208.543 -7.87336 -208.748 -7.32355 -208.414 -6.36237C-206.097 -5.4513 -203.736 -6.03513 -201.169 -6.66985ZM-222.34 -7.51706C-227.478 -5.6992 -233.663 -4.41246 -237.27 -7.09665C-237.449 -7.56499 -237.243 -7.74019 -237.037 -7.91553C-236.831 -8.09108 -236.625 -8.26678 -236.804 -8.73696C-236.558 -8.78448 -236.314 -8.83172 -236.074 -8.87841C-231.504 -9.76579 -227.95 -10.4558 -222.528 -9.08798C-222.467 -8.56298 -222.405 -8.04206 -222.34 -7.51706ZM-90.8094 -10.3698C-92.1724 -10.0086 -93.5367 -9.64705 -94.8115 -9.50207C-95.2039 -7.86107 -94.3564 -7.48965 -93.6054 -7.16053C-93.2165 -6.99008 -92.8535 -6.83099 -92.702 -6.51279C-88.0116 -6.60513 -85.9863 -6.72554 -81.0282 -7.76636C-82.6481 -12.5326 -86.7232 -11.4527 -90.8094 -10.3698ZM-169.446 -7.28936C-170.374 -7.21162 -171.625 -6.99714 -173.01 -6.75978C-176.851 -6.1014 -181.719 -5.26703 -183.557 -6.68681C-182.837 -9.92967 -169.153 -14.1741 -169.446 -7.28936ZM138.237 -6.52951C144.014 -5.754 148.881 -6.3392 154.102 -7.1892C152.972 -11.5225 148.967 -10.9345 144.373 -10.26C142.594 -9.99882 140.727 -9.72469 138.904 -9.71828C137.525 -8.97134 137.485 -7.52338 138.237 -6.52951ZM44.6565 -6.43686C39.712 -5.84451 32.4474 -5.93737 27.7531 -7.11696C28.7998 -11.918 43.6083 -12.3996 44.6565 -6.43686ZM-22.5959 -6.50575C-21.2966 -6.60185 -19.9457 -6.70177 -18.5469 -6.75375C-19.2377 -11.3706 -23.2487 -10.8627 -28.3468 -10.2171C-29.3608 -10.0887 -30.4179 -9.95483 -31.5005 -9.85477C-31.4116 -9.21786 -31.927 -8.79783 -32.3853 -8.42431C-32.8816 -8.01989 -33.3109 -7.66999 -32.834 -7.15834C-29.9591 -5.96114 -26.5122 -6.21609 -22.5959 -6.50575ZM-53.2505 -6.88214L-53.2508 -6.88208L-53.2511 -6.88205C-57.7044 -6.22327 -62.9673 -5.44473 -65.3515 -8.45847C-62.881 -11.1039 -53.5419 -12.0335 -51.9899 -7.06562C-52.3997 -7.00798 -52.8204 -6.94576 -53.2485 -6.88243L-53.2505 -6.88214ZM-112.569 -7.23032C-111.02 -7.16607 -109.493 -7.10277 -109.177 -8.73175C-111.403 -12.8794 -117.73 -11.3984 -122.075 -10.3813C-122.935 -10.18 -123.717 -9.99694 -124.375 -9.8792C-124.786 -8.78175 -124.421 -7.44298 -123.679 -6.77512C-121.314 -6.26247 -118.412 -6.65622 -115.757 -7.01638C-115.252 -7.08491 -114.756 -7.15223 -114.274 -7.21185C-113.745 -7.27912 -113.155 -7.25466 -112.569 -7.23032ZM-140.757 -7.83039C-143.335 -6.46419 -148.048 -6.27239 -152.859 -6.07654C-153.979 -6.03095 -155.105 -5.98515 -156.21 -5.92427C-157.492 -7.10131 -157.449 -8.50233 -156.334 -9.73601C-154.349 -9.77629 -152.51 -10.1127 -150.806 -10.4243C-146.725 -11.1705 -143.421 -11.7746 -140.757 -7.83039ZM164.938 8.50155C168.942 10.9005 175.654 9.88471 180.501 9.01175C180.464 8.70766 180.428 8.40248 180.392 8.09681L180.392 8.09487L180.391 8.09301L180.391 8.09117L180.391 8.08939L180.391 8.08766L180.391 8.08593L180.391 8.08425L180.39 8.08264L180.39 8.08104L180.39 8.07946L180.39 8.07789L180.39 8.0764L180.389 8.07494L180.389 8.07351L180.352 7.75206C179.18 5.0837 165.054 4.36584 164.938 8.50155ZM148.83 8.40887C147.168 9.612 145.459 9.61082 143.211 9.60927C142.273 9.60863 141.241 9.60792 140.08 9.69458C139.295 9.75249 138.542 9.835 137.833 9.91259C134.417 10.2869 132.046 10.5466 132.217 7.37622C133.177 5.7675 137.171 5.61011 140.317 5.48613L140.318 5.48612L140.318 5.4861C140.514 5.47837 140.707 5.47077 140.896 5.46295C144.291 5.32367 147.123 5.7252 148.72 7.46346C148.759 7.77928 148.796 8.09356 148.83 8.40887ZM105.894 9.85104C109.074 9.7214 112.001 9.6021 115.749 9.2704C115.816 3.43673 103.388 5.85051 100.334 6.97959C100.212 7.95573 100.526 8.40114 100.841 8.84621C101.074 9.17625 101.307 9.5061 101.361 10.052C102.988 9.96953 104.466 9.90925 105.894 9.85106L105.894 9.85105L105.894 9.85104ZM83.4433 8.75515C81.5247 10.4541 70.0119 10.8751 69.6304 7.45465C71.3424 4.91791 83.2994 4.44393 83.4433 8.75515ZM18.0266 9.81788C20.6319 10.0234 23.1491 10.222 25.8605 9.2818L25.8561 9.24302C25.8335 9.04614 25.8108 8.84853 25.7864 8.65271C24.9762 4.84455 3.93886 3.8272 11.0962 9.95833C13.5807 9.46716 15.8348 9.64498 18.0266 9.81788ZM-5.45824 9.24593C-6.72325 9.20967 -8.29485 9.43076 -9.9268 9.66033C-14.1511 10.2546 -18.7798 10.9057 -19.5428 7.29797C-15.8681 5.18267 -5.82271 3.82297 -5.45824 9.24593ZM-38.6062 9.73035C-37.1495 9.61207 -35.8052 9.50291 -34.8447 9.58623C-32.3912 4.64592 -44.9863 4.95256 -47.53 7.13113C-47.4382 10.4475 -42.5998 10.0546 -38.6062 9.73035ZM-61.5673 8.46419C-62.1195 8.56135 -62.8492 8.73312 -63.6796 8.92859C-68.0254 9.95151 -75.1293 11.6236 -73.9874 6.65093C-69.6911 5.46675 -63.0131 4.23563 -61.5673 8.46419ZM-134.195 9.18651C-131.456 11.0554 -120.544 9.80641 -119.433 8.51304C-121.519 4.24246 -128.09 5.48579 -133.344 6.48001C-133.623 6.53283 -133.898 6.58494 -134.169 6.63549C-134.149 6.98816 -134.236 7.36537 -134.318 7.72562C-134.455 8.32171 -134.581 8.87136 -134.195 9.18651ZM-148.998 7.80754C-151.139 9.50865 -153.552 9.38248 -156.107 9.24884C-158.083 9.14544 -160.146 9.03758 -162.234 9.76825C-162.428 9.58654 -162.645 9.43397 -162.863 9.2815C-163.459 8.86372 -164.054 8.44661 -164.159 7.43254C-163.93 7.39925 -163.927 7.19237 -163.923 6.9848C-163.922 6.90925 -163.92 6.83361 -163.908 6.76621C-160.12 5.27029 -151.993 3.5953 -148.998 7.80754ZM-187.517 9.15534C-186.249 8.75767 -185.006 8.36772 -183.919 8.20662C-183.447 3.3954 -194.263 5.47039 -195.829 7.92958C-194.732 11.4191 -191.03 10.2576 -187.517 9.15534ZM-253.647 9.95145C-254.137 9.22997 -254.088 8.63523 -254.027 7.89232C-254.007 7.65439 -253.987 7.40126 -253.982 7.12391C-250.257 5.58462 -243.574 5.10044 -240.232 6.24074C-240.716 9.9246 -245.757 9.85596 -249.79 9.80105C-251.324 9.78017 -252.711 9.76127 -253.647 9.95145ZM38.3467 9.47764C42.2013 10.0781 49.3276 10.7526 52.0212 7.96845C50.0114 4.29856 40.8322 5.33886 38.1246 7.59243C38.1629 7.91169 38.2004 8.23228 38.2378 8.55311L38.2381 8.55566L38.2384 8.55782L38.2386 8.56008L38.2389 8.56247L38.2417 8.58671C38.2764 8.8838 38.3112 9.18106 38.3467 9.47764ZM-106.365 8.44345L-106.367 8.42173C-106.418 7.99537 -106.468 7.5692 -106.52 7.14303L-106.289 7.06997C-103.375 6.14856 -100.845 5.34841 -96.7767 5.66854C-94.7128 5.83436 -92.8268 6.65375 -91.5976 7.64813C-91.5116 7.92862 -91.5995 8.07549 -91.6874 8.22243C-91.7553 8.33583 -91.8232 8.44926 -91.8111 8.62415C-92.3901 8.73306 -92.9451 8.8402 -93.4804 8.94354L-93.4806 8.9436C-98.2867 9.87141 -101.508 10.4933 -106.257 9.3466C-106.293 9.0454 -106.329 8.74438 -106.365 8.44345ZM-215.854 9.52095C-213.453 9.48426 -210.604 9.44073 -210.458 6.67301C-215.403 3.66128 -220.312 5.23475 -225.969 7.77914C-226.068 8.78644 -225.739 9.27658 -225.411 9.7657C-225.252 10.0027 -225.093 10.2395 -224.983 10.5347C-223.418 10.5779 -222.301 10.3517 -221.07 10.1024C-219.842 9.85383 -218.501 9.58239 -216.491 9.53271C-216.284 9.52752 -216.071 9.52427 -215.855 9.52096L-215.854 9.52096L-215.854 9.52095ZM-268.477 9.64955C-269.631 9.87921 -276.133 10.3771 -278.254 10.5395C-278.475 10.5564 -278.648 10.5697 -278.763 10.5786C-279.327 10.621 -279.893 10.6317 -280.457 10.5802C-280.598 10.5674 -281.882 10.4307 -281.886 10.3006C-282.03 6.02458 -278.751 5.85871 -274.664 5.65203L-274.664 5.65203L-274.664 5.65203L-274.664 5.65203L-274.664 5.65203L-274.664 5.65203L-274.664 5.65203L-274.664 5.65203L-274.664 5.65203C-273.776 5.60712 -272.85 5.56028 -271.913 5.46894C-271.5 5.42804 -271.116 5.31878 -270.737 5.21098L-270.737 5.21098C-270.17 5.04982 -269.614 4.8919 -268.992 4.97047C-268.505 5.0322 -268.13 5.10057 -267.691 5.3021C-267.228 5.51281 -267.339 9.42302 -268.477 9.64955ZM190 23.6123C188.056 23.4602 186.023 23.726 184.043 23.985C179.89 24.5282 175.969 25.0408 173.598 21.5996C177.875 19.3914 189.743 18.5848 190 23.6123ZM121.603 23.0869C120.993 18.1293 107.601 19.4502 107.817 23.6537C110.686 25.0622 116.452 24.0157 120.135 23.3474C120.674 23.2495 121.169 23.1597 121.603 23.0869ZM93.8554 24.0294C92.2265 23.9931 90.4956 24.0475 88.731 24.103C84.3215 24.2416 79.7017 24.3869 75.9387 23.1396C76.0665 22.8156 76.1396 22.4494 76.2128 22.0828L76.2129 22.0823C76.3702 21.2938 76.5279 20.5039 77.2296 20.1299C78.9326 20.2798 80.8274 20.2085 82.7132 20.1376C87.845 19.9445 92.9096 19.754 93.8554 24.0294ZM28.4841 24.0187C29.4662 23.9579 30.388 23.901 31.2077 23.8764C30.1042 19.5952 25.2409 19.885 20.3747 20.1749C19.3247 20.2375 18.2745 20.3001 17.2619 20.3167C17.158 20.5465 17.0386 20.764 16.9192 20.9814L16.919 20.9817L16.9188 20.9821C16.5966 21.5687 16.2749 22.1542 16.2603 22.9759C19.4256 24.5786 24.4605 24.2674 28.4841 24.0187ZM-24.0247 23.6702C-28.2343 24.8385 -37.1798 24.3232 -40.5667 23.2671C-40.6389 18.5227 -25.9317 19.2467 -24.138 22.7273C-24.1172 22.8937 -24.0974 23.0612 -24.0777 23.2284C-24.0602 23.3761 -24.0428 23.5236 -24.0247 23.6702ZM-98.2129 21.485C-98.4375 25.2452 -87.5052 24.4676 -85.2914 23.3533C-84.8264 22.7136 -85.1098 21.9183 -85.3809 21.1579C-85.4976 20.8304 -85.612 20.5093 -85.6633 20.21C-87.6305 19.664 -96.9425 20.0901 -98.2129 21.485ZM-253.963 -5.65908C-256.177 -4.5448 -267.109 -3.76724 -266.884 -7.52745C-265.614 -8.92234 -256.302 -9.34836 -254.335 -8.80245C-254.284 -8.50349 -254.169 -8.18284 -254.053 -7.85568C-253.781 -7.09516 -253.498 -6.29942 -253.963 -5.65908ZM-115.237 24.0584C-113.65 23.7447 -111.958 23.4103 -110.516 23.862C-109.541 17.7942 -117.925 19.9539 -120.691 21.484C-120.345 25.0681 -117.943 24.5933 -115.237 24.0584ZM-131.94 22.9312C-134.285 23.4527 -136.798 23.9613 -140.007 24.4598C-145.854 20.3374 -131.937 17.1654 -131.94 22.9312ZM-162.578 23.7482C-160.622 23.3872 -158.725 23.0369 -157.287 23.1659C-156.837 23.2062 -156.497 22.721 -156.706 22.3134C-156.826 22.0814 -156.853 21.8656 -156.88 21.6536C-156.936 21.2076 -156.991 20.7783 -157.892 20.2496C-162.067 19.4721 -168.764 19.6654 -171.858 22.1124C-170.794 25.2655 -166.566 24.4847 -162.578 23.7482ZM-195.914 24.2835C-196.004 24.1107 -196.102 23.9487 -196.201 23.7868C-196.523 23.2582 -196.843 22.7315 -196.865 21.8407C-193.768 19.1646 -184.054 18.6468 -184.483 23.3407C-186.841 23.2814 -188.865 23.6454 -190.666 23.9693C-192.633 24.3231 -194.333 24.6289 -195.914 24.2835ZM-218.679 24.2923C-215.42 24.229 -211.362 24.0943 -208.569 23.0046C-208.616 18.2591 -216.594 20.2245 -219.702 21.2183C-219.935 22.4741 -219.485 23.1258 -218.869 24.0164C-218.807 24.1057 -218.744 24.1974 -218.679 24.2923ZM-70.8055 20.7883C-69.6227 20.6578 -68.4827 20.4529 -67.382 20.255C-63.2824 19.5182 -59.7282 18.8794 -56.5444 22.5439C-57.0999 24.1136 -58.4422 23.9667 -60.1121 23.784C-60.6937 23.7204 -61.315 23.6524 -61.9567 23.6511C-63.7053 23.6491 -65.1646 23.8678 -66.4322 24.0579C-68.461 24.362 -69.999 24.5925 -71.4467 23.7271C-71.5855 24.048 -72.2267 21.948 -70.8055 20.7883ZM151.276 23.9629C153.031 24.0927 154.63 24.2109 155.69 23.3922C155.678 23.2164 155.746 23.1023 155.814 22.9882C155.902 22.8407 155.99 22.6931 155.905 22.4121C155.394 22.2889 155.123 21.8372 154.845 21.3747L154.845 21.3745L154.845 21.3745C154.618 20.9962 154.386 20.6106 154.016 20.3917C152.113 19.2605 139.858 19.7733 139.69 21.9733C139.441 25.2035 144.217 24.4811 146.942 24.0689L146.942 24.0688C147.276 24.0183 147.579 23.9725 147.839 23.9391C148.982 23.7932 150.161 23.8804 151.276 23.9629ZM61.2085 23.8376C59.9536 23.8522 58.4958 23.9358 56.9651 24.0235C52.3121 24.2902 46.985 24.5956 44.6323 23.1217C44.7097 22.5472 44.697 22.3532 44.6843 22.1582C44.6716 21.9644 44.6589 21.7696 44.7346 21.1988C48.3842 20.108 60.6114 18.2473 61.2085 23.8376ZM-11.7526 23.2003C-10.6553 18.9299 0.0128629 18.6916 0.843552 23.7207C-2.68324 24.5575 -9.84309 24.5008 -11.7526 23.2003ZM-231.201 22.3095C-232.78 24.2431 -239.658 24.3579 -243.285 24.2431C-243.354 24.0916 -243.41 23.9239 -243.466 23.7562C-243.609 23.3254 -243.752 22.8952 -244.123 22.7431C-242.281 19.5987 -232.543 17.4579 -231.201 22.3095ZM-266.942 23.4232C-265.788 26.7298 -255.183 24.0635 -254.031 22.4176C-254.043 22.3127 -254.055 21.8635 -254.067 21.4142C-254.079 20.9651 -254.091 20.516 -254.103 20.411C-256.868 18.612 -265.896 19.7089 -266.942 23.4232Z" fill="#D6D785"/>
</g>
<defs>
<clipPath id="clip0">
<rect width="25" height="120" fill="white" transform="translate(0 25) rotate(-90)"/>
</clipPath>
</defs>
</svg>
