<svg xmlns="http://www.w3.org/2000/svg" viewBox="0 0 539.53 476.6"><defs><style>.cls-1{isolation:isolate;}.cls-2{opacity:0.4;mix-blend-mode:multiply;}.cls-3{fill:#f3edd7;}</style></defs><title>pattern</title><g class="cls-1"><g id="Layer_2" data-name="Layer 2"><g id="Layer_2-2" data-name="Layer 2"><g class="cls-2"><path class="cls-3" d="M306.94,0h18.88c0,.3,0,.6,0,.9.11,4.92-.06,9.84.29,14.76.27,3.76.1,7.55.27,11.34.23,5,.29,10,.37,14.93.06,3.84-.12,7.68-.16,11.52-.1,8.82-.25,17.65.12,26.48.3,7.07.16,14.16.35,21.25.16,6.06.1,12.14.07,18.21-.1,15.5.25,31-.27,46.5-.18,5.28-.05,10.56-.34,15.84-.35,6.53.2,13.06,0,19.6-.14,5.16,0,10.34-.06,15.51a11.66,11.66,0,0,0,.48,4.07,4.78,4.78,0,0,1,.07,2.49,29.38,29.38,0,0,0-.23,4.49c-.07,3,0,6-.25,9-.3,3.29.24,6.58.36,9.88a26.76,26.76,0,0,1,0,4.82,11.66,11.66,0,0,0-.29,2.66,105.45,105.45,0,0,1,.09,14.22c-.23,4.07-.27,8.14-.42,12.21a142.4,142.4,0,0,0,.19,18.36c.23,2.55-.61,5.1,0,7.67a17.27,17.27,0,0,1,.32,3.75c.09,5.05-.15,10.08-.29,15.12-.06,2-.06,4,0,5.95.06,2.39-.33,4.79.25,7.16a3.31,3.31,0,0,1-.08,1.07,38,38,0,0,0-.05,7.54,22,22,0,0,1-.06,5.9c-.29,1.51.38,3.08-.27,4.55.63,1.45.47,3.06.67,4.59a12.21,12.21,0,0,1,0,5.18,15,15,0,0,0-.31,6c.31,3.39.8,6.76.82,10.19a82,82,0,0,0,.27,11,5.5,5.5,0,0,1,0,2.32,10.13,10.13,0,0,0-.07,4.45,12.43,12.43,0,0,1,.09,4.12,25.05,25.05,0,0,0-.24,4.65c0,3,.13,6,.22,9,.29,9,.1,18,.29,27,.22,10,.31,20.07-.19,30.09-2.15,0-4.3,0-6.45-.06-1.44,0-1.46,0-1.46-1.73q0-6.57,0-13.16a8.15,8.15,0,0,0-.34-2.65,10.49,10.49,0,0,1-.18-5,12,12,0,0,0,.2-2.31c-.07-3.18-.46-6.34-.35-9.53a14.14,14.14,0,0,0,0-2.16,31,31,0,0,1,0-8.6,2.23,2.23,0,0,0,0-1.06,10.74,10.74,0,0,1-.28-3.39c0-1.73,0-3.46-.2-5.2a12.27,12.27,0,0,1,.39-5.86,1.35,1.35,0,0,0,0-1.36,3.73,3.73,0,0,1-.37-2.93,21.89,21.89,0,0,0,.2-3.23c.06-9.79,0-19.57-.53-29.35-.21-4.12-.51-8.26-.42-12.41a5.77,5.77,0,0,0,0-.72c-.45-4.36-.38-8.74-.53-13.11a97.18,97.18,0,0,1,.2-12.42c.24-2.56.26-5.17.26-7.72,0-5.28.69-10.52.21-15.83-.34-3.74-.12-7.55-.36-11.33a41.47,41.47,0,0,1,.2-6.1,22.22,22.22,0,0,0-.21-6.09c-.37-1.92.4-3.78.32-5.71-.06-1.45-.29-2.86-.34-4.3-.19-5.05.29-10.08.33-15.12a2.17,2.17,0,0,1,0-.36c.37-3.27.43-6.57.54-9.86s-.08-6.48-.2-9.72c-.27-7.86.05-15.73-.32-23.6-.23-4.79-.07-9.61-.09-14.42-.05-8.23.11-16.47-.32-24.69,0-.42,0-.84-.07-1.26a41.69,41.69,0,0,1-.11-9.34,61.07,61.07,0,0,0-.22-12,80.81,80.81,0,0,1-.85-10.54c.06-5.77.47-11.52.33-17.29a24.15,24.15,0,0,1,.23-4.49,9.89,9.89,0,0,0-.05-2.87c-.31-2.18-.56-4.38-.83-6.57a3.15,3.15,0,0,0,0-.53,40.29,40.29,0,0,1-.06-9.63,35.13,35.13,0,0,0,.39-5.53c0-.61,0-1.24-.5-1.71a29.2,29.2,0,0,0-.45,6.69c0,3,0,6,0,9,0,.57-.18,1.21.29,1.69a10.59,10.59,0,0,1-.42,3.89,2.78,2.78,0,0,0-.08,1.4,66.22,66.22,0,0,1,.79,9.65c.16,4.14-.07,8.27-.21,12.41s-.05,8.54-.06,12.8c0,.54.16,1.18-.15,1.58a3.85,3.85,0,0,0-.46,2.57c0,3.54.19,7.11,0,10.63-.21,3.16-.65,6.29-.62,9.47,0,.2-.05.23-.18.11-.25-.4.09-1-.33-1.41-.61,1.68-.64,2.68.11,4a3.08,3.08,0,0,1,.4,1.86c-.16,2.45-.33,4.9-.29,7.36A27.59,27.59,0,0,1,314,200a89.31,89.31,0,0,0-.79,9.11c0,5.64.22,11.27.56,16.9.23,3.76.47,7.53.63,11.29.17,4.14.5,8.26.41,12.41-.07,3.73,0,7.46,0,11.18,0,.48-.16,1.07.12,1.4a3,3,0,0,1,.49,2c.07,1.16,1,2.27.17,3.51-.05.08.24.38.28.6a9.94,9.94,0,0,1,.23,3.88c0,.19,0,.62-.26.49-1.1-.55-.66.48-.7.9a5.43,5.43,0,0,0,0,1.61c.5,2.91.29,5.86.48,8.79a42.92,42.92,0,0,1-.17,9.34,3.93,3.93,0,0,0,0,1.08,109,109,0,0,1,.88,12c0,.84.1,1.68.15,2.51a76.74,76.74,0,0,1,0,9.71c-.16,2.3-.81,4.58-.14,6.94a17.52,17.52,0,0,1,.14,6.42c-.3,3.09-.8,6.15-.8,9.29s.49,6.1.38,9.16a3.27,3.27,0,0,0,0,.54,24.87,24.87,0,0,1,0,6.62,29.18,29.18,0,0,0-.41,5.37,16.05,16.05,0,0,1-.48,5.16,4.13,4.13,0,0,0,.08,3,4.28,4.28,0,0,1,.28,2.94,28.41,28.41,0,0,0-.48,4.81c.07,8-.17,16,.3,23.94.15,2.53-.32,5-.31,7.54,0,2.7-.21,5.4-.42,8.08-.27,3.65-.29,7.3-.45,10.95-.35,7.68.1,15.37.27,23.05.1,4.73.39,9.46.59,14.19.06,1.31.07,2.62.23,3.94.18,1.54.09,3.12.12,4.68,0,.68-.28,1-.86,1-.42,0-.83,0-1.25,0l-8.65.07c0-2.46.11-4.91.26-7.37.23-4,.1-8,.33-12.06.25-4.54,0-9.11.3-13.68.28-3.64.11-7.31.31-11,.31-5.93.13-11.88.28-17.82.19-7.08.24-14.17-.13-21.26-.29-5.68-.07-11.4-.3-17.1-.18-4.25-.4-8.51-.47-12.77a49.38,49.38,0,0,0-.33-5,118.4,118.4,0,0,1-.8-12.18c-.1-7.32-.21-14.65.2-22,.13-2.51-.1-5-.2-7.55-.14-3.77.11-7.56.16-11.33.13-10.87.33-21.74-.15-32.62-.25-5.81-.41-11.62-.64-17.43-.2-5.09-.46-10.18-.62-15.27q-.35-10.8.29-21.61a4.93,4.93,0,0,1,.05-.54,17.51,17.51,0,0,0,0-4.46c-.15-2.15-.52-4.27-.49-6.44.09-5.7.1-11.38.57-17.08.43-5.3.75-10.64.75-16a5.77,5.77,0,0,1,0-.72c.55-4,.29-8.14.49-12.21a103.15,103.15,0,0,0-.15-13.5c-.27-3.4-.2-6.83-.29-10.25-.22-8.22-.22-16.46.29-24.67a43,43,0,0,1,.81-7.66,11.87,11.87,0,0,0,.19-4.26c-.26-2.24-.22-4.54-.38-6.81a3.78,3.78,0,0,1,.44-2.55c1.31-1.35.84-2.8.26-4a4.08,4.08,0,0,1-.13-3.39,3.5,3.5,0,0,0,.11-1.87c-.14-1-.66-2-.24-3a10.63,10.63,0,0,0,.45-3.89c.05-1.51-.3-3-.28-4.48.07-7.32-.23-14.65.21-22,.25-4.25,0-8.52.32-12.78.26-3.4.09-6.83.29-10.25.28-4.91.07-9.84.33-14.76C307.06,7.22,306.93,3.61,306.94,0Z"/><path class="cls-3" d="M519.62,0H532.2c0,9.61-.14,19.22.35,28.83,0,.24,0,.48,0,.72.29,4.41.62,8.83.87,13.25.17,3.17.44,6.33.58,9.5.22,4.85.58,9.7.65,14.54.1,8.11.24,16.21-.18,24.32-.27,5.21-.41,10.42-.64,15.63-.2,4.5-.67,8.95-1,13.43-.31,4.9-.61,9.82-.62,14.73,0,13.94-.28,27.87.19,41.81.31,9.12-.1,18.26.32,27.39.26,5.63-.08,11.28.31,16.92.28,4.07,0,8.16.32,12.24.26,3.28.06,6.59.3,9.89.27,3.76.22,7.56.31,11.33.29,12.13,0,24.27.33,36.4.19,6.42.17,12.83.62,19.24.35,5.2.58,10.4,1,15.6.25,3.16.43,6.33.59,9.49.27,5.57.42,11.15.66,16.72s.11,11,.26,16.56c.29,9.9,0,19.82.36,29.73.16,4.68,0,9.38,0,14.07a13.86,13.86,0,0,0,.08,2.33c.6,3.73.58,7.52.82,11.28.29,4.24,0,8.51.31,12.77s.14,8.76.3,13.14c.29,8.1.15,16.23,0,24.34l-11.91.05c0-3.3-.09-6.6.23-9.9a20,20,0,0,0,.35-5c-.53-3.46-.26-7-.48-10.42-.32-4.9-.13-9.83-.38-14.75-.21-4.08,0-8.16-.27-12.24-.27-4.49-.18-9-.33-13.5-.19-5.58-.05-11.18-.06-16.77,0-3.49.15-7-.1-10.46-.31-4.19-.25-8.38-.46-12.57-.29-5.93.1-11.88.19-17.83.18-10.57.21-21.14-.28-31.71,0-.36,0-.72-.06-1.08a98.82,98.82,0,0,1-.82-11.27c-.11-7.93,0-15.87-.08-23.81a63.54,63.54,0,0,0-.39-7.17q-.6-4.81-.76-9.65c-.16-4.56-.3-9.1-.64-13.65-.28-3.88-.5-7.77-.63-11.66q-.28-8.26-.65-16.53c-.19-4.2-.14-8.4-.27-12.6-.25-8.22-.12-16.46-.36-24.68s0-16.21-.26-24.33c-.22-7.54-.3-15.1-.13-22.66.09-3.6.16-7.2.26-10.8.18-7.51.08-15,.08-22.54a4,4,0,0,0-.21-1.94,2.73,2.73,0,0,1,0-2.4,6.84,6.84,0,0,0,.3-3.32c-.24-1.84-.91-3.76.07-5.62.13-.27,0-.58,0-.88a15.81,15.81,0,0,1,.11-5.53,7.06,7.06,0,0,0,0-2.51,42.58,42.58,0,0,1-.52-5.53c0-4.08-.46-8.15-.36-12.23,0-.36-.07-.72-.09-1.08-.16-2.37-.83-4.71-.24-7.12a6.44,6.44,0,0,0,0-1.08c.23-4.28-.44-8.49-.71-12.73a43.36,43.36,0,0,1,0-8.6,4.51,4.51,0,0,0-.24-2.47,6.38,6.38,0,0,1-.28-3.18,90.74,90.74,0,0,0,0-14.56,26,26,0,0,1,0-4.14c.29-3.15.42-6.32.79-9.47A10.17,10.17,0,0,0,519.62,0Z"/><path class="cls-3" d="M455.75,0h8.5c.43,2.66.33,5.38.65,8.05.11.94-.38,1.73-.31,2.64.14,2,1.19,4,.38,6,.64,1.88.35,3.91.68,5.83a12.19,12.19,0,0,1,.14,4.29,10.77,10.77,0,0,0,.08,4.42c.45,2.12,0,4.33.58,6.43a1.18,1.18,0,0,1-.07.86c-.91,1.08-.58,2.4-.48,3.6.29,3.7.53,7.41.54,11.13,0,9.44,0,18.87,0,28.31a7.93,7.93,0,0,1-.11,1.62,11.42,11.42,0,0,0-.1,3.4c.35,3.64.45,7.31.5,11,.09,6.6.17,13.21-.16,19.82-.21,4.13-.53,8.25-.79,12.37-.23,3.65-.6,7.28-.56,10.94,0,1.44.09,2.9,0,4.33-.32,3.52-.39,7.06-.52,10.59-.21,5.52-.08,11.06-.09,16.59a17.32,17.32,0,0,0,.23,2.68,19.34,19.34,0,0,1,0,5.21,6.31,6.31,0,0,0-.26,2.55,26.09,26.09,0,0,1,.58,6.05,90.54,90.54,0,0,1-.19,10.8,34.82,34.82,0,0,0,.18,5.2c.15,3.41.09,6.82.09,10.24,0,1.06.13,2.18-.69,3-.35.36,0,.8.05,1.18a28.81,28.81,0,0,1,.33,10.87,7.11,7.11,0,0,0,.15,4.21,5.31,5.31,0,0,1,.16,2c.16,3.73-.37,7.42-.33,11.15.06,6.07,0,12.15,0,18.22,0,4.09.13,8.19-.09,12.26-.25,4.61-.17,9.23-.52,13.84-.13,1.62.32,3.2.29,4.84-.1,6.36.13,12.72-.23,19.09-.25,4.19-.11,8.42-.11,12.62,0,11.17,0,22.34.58,33.5.21,3.95.5,7.91.42,11.87a4.29,4.29,0,0,0,0,.72c.47,3,.31,6.1.49,9.15.42,6.9-.16,13.8-.29,20.71a130.11,130.11,0,0,0,1.06,18.1c.48,4,.78,8.09.87,12.17,0,1.75-.24,3.47-.27,5.2-.06,3.31,0,6.62-.06,9.92a10.55,10.55,0,0,0,.46,3.54,4.74,4.74,0,0,1,0,3c-.72,2.22-.45,4.48-.3,6.76a39.55,39.55,0,0,1,.33,6.44,41.66,41.66,0,0,0-.47,7l-12.92,0c0-2.77.06-5.52.25-8.27.24-3.41.06-6.83.29-10.26.3-4.3,0-8.63.33-12.95.29-4.48,0-9,.31-13.5s0-9,.32-13.49c.28-3.76,0-7.56.31-11.34.27-3.21.22-6.47.29-9.7.12-5.88.46-11.76.37-17.65,0-2-.27-4.05-.28-6.1,0-3.05-.06-6.11-.22-9.17-.28-5.2-.4-10.42-.67-15.63-.18-3.29-.07-6.59-.28-9.89-.29-4.3-.05-8.63-.33-13-.29-4.61-.08-9.24-.3-13.86-.34-7.13,0-14.29-.33-21.43-.31-5.88.3-11.76.22-17.64,0-1.81,0-3.61,0-5.41-.11-20.25.35-40.5-.24-60.75-.17-5.87-.34-11.74-.61-17.61-.2-4.13-.55-8.26-.42-12.41,0-.48-.08-1-.09-1.44-.08-3.25-.65-6.53.29-9.75a2.71,2.71,0,0,0-.1-.87,126,126,0,0,1-.72-13.46c.12-5.58-.16-11.16.28-16.74.24-3,.06-6.11.29-9.17.27-3.52.1-7.07.33-10.61.27-4.07.18-8.16.27-12.23.15-6.55.44-13.09.42-19.63,0-3.07.3-6.11.39-9.17a23.79,23.79,0,0,1,0-3.68,22.26,22.26,0,0,0,.23-4.31q0-6.21,0-12.44a12.81,12.81,0,0,1,.66-4.4c.09-.27.27-.69.18-.83a3.37,3.37,0,0,1-.09-3.39.62.62,0,0,0,0-.5,4.84,4.84,0,0,1-.53-2.77c0-2.27-.69-4.62.39-6.8a.76.76,0,0,0,0-.69,2.91,2.91,0,0,1,.06-2.26,8.36,8.36,0,0,0,.36-2.65,10.74,10.74,0,0,1,.25-3.57,1.18,1.18,0,0,0-.18-1.18c-.45-.54-.3-1.22-.37-1.86-.12-1,.52-1.89.2-2.82a4.67,4.67,0,0,1,.28-3.28,6.84,6.84,0,0,0,0-4.86,3.86,3.86,0,0,1-.39-1.7A75.79,75.79,0,0,0,455.75,0Z"/><path class="cls-3" d="M358,476.21c.29-5.1.14-10.21.36-15.3q.18-3.78.22-7.55c.06-6.37.28-12.73.42-19.09.1-4.08,0-8.18.29-12.24.23-3.42,0-6.85.31-10.25.24-3.12.07-6.25.3-9.35.45-6.13.25-12.25.2-18.38-.05-5.15-.34-10.3-.59-15.45-.18-3.6-.17-7.2-.39-10.79-.18-2.94-.07-5.88-.26-8.81-.31-4.92-.09-9.86-.36-14.76-.26-4.63-.11-9.25-.26-13.87-.66-20.19-.29-40.38-.17-60.57,0-8.11.25-16.22.1-24.32-.12-6.61,0-13.22-.3-19.82-.13-3.17-.1-6.36-.27-9.53-.26-4.61-.39-9.22-.67-13.82-.27-4.39-.17-8.77-.27-13.15a8.54,8.54,0,0,0-.15-2.14,1.42,1.42,0,0,1,0-.88c.94-1.85.06-3.71.06-5.56,0-.3-.09-.6-.11-.89q-.6-10.08-.25-20.17c.11-3.24,0-6.49.29-9.71s.06-6.25.31-9.35c.34-4.09,0-8.18.32-12.24.32-4.5,0-9,.32-13.5.27-4.2,0-8.41.32-12.6.18-2.82.09-5.64.28-8.45.44-6.75.28-13.51.26-20.26a14.49,14.49,0,0,1,.49-4.26c.26-.86.55-1.67-.08-2.5a.87.87,0,0,1-.05-.69c.94-1.76-.15-3.46-.09-5.2a21.08,21.08,0,0,0-.19-5.38c-.07-.29-.08-.75.14-.83.9-.33.62-.89.3-1.49a1.56,1.56,0,0,1,0-1.38,9.17,9.17,0,0,0,.42-3.54,9.13,9.13,0,0,1,.24-2.85,1.86,1.86,0,0,0,0-1.41,5.06,5.06,0,0,1-.13-4,1,1,0,0,0,0-.69c-.6-1.4-.09-2.66.34-4a5.34,5.34,0,0,0,.06-3.35c-.88-2.59-.51-5.24-.4-7.85.07-1.73.18-3.47.19-5.2,0-2.95,0-5.89,0-8.84H367c0,3.36.6,6.67.83,10,.21,2.87.74,5.77.4,8.61-.25,2.17.36,4.11.48,6.16,0,.24.21.57.13.68-.78,1.11.08,2.13.09,3.19,0,.06.06.12.06.17-.35,2.29.43,4.47.51,6.72a3.59,3.59,0,0,1-.14,1.6,5.05,5.05,0,0,0-.08,3.65,6.38,6.38,0,0,1,.24,2.13,18.81,18.81,0,0,0,.34,4.11c.16.84.43,1.6-.42,2.2-.33.24-.21.77-.17,1.19.36,3.81.46,7.65.61,11.48.27,6.78.44,13.58.18,20.35-.24,6.37-.43,12.74-.13,19.09.37,8,.22,16.09.19,24.14a118.2,118.2,0,0,1-.85,12.89c-.15,1.25-.21,2.52-.24,3.76-.07,3.23-.55,6.44-.36,9.7a71.73,71.73,0,0,1-.22,7.17c0,.42-.14.83-.15,1.24-.18,6.78-.48,13.56-.37,20.35a37.08,37.08,0,0,0,.48,5.18,7.65,7.65,0,0,1,0,3.56,12.49,12.49,0,0,0,0,5.64,16.62,16.62,0,0,1,.18,2.33c0,6.31,0,12.62,0,18.93,0,2.64.42,5.26.29,7.91a9.34,9.34,0,0,1-.7,3.65,2.43,2.43,0,0,0-.06,1.72,28.58,28.58,0,0,1,.19,11.21,6.8,6.8,0,0,0,.12,3.13,9.67,9.67,0,0,1,.27,5,8.93,8.93,0,0,0-.12,1.8c-.21,11.83-.4,23.66-.31,35.5,0,4.21-.28,8.4-.43,12.59-.07,2,.11,3.93.1,5.9,0,7.33.2,14.68-.09,22-.36,9.43-.23,18.86-.15,28.29,0,4,.12,8,.3,12.05.23,4.91.33,9.83.65,14.73.55,8.33.75,16.67.48,25-.14,4.44-.27,8.88-.23,13.32,0,2.88.45,5.72.75,8.57s.52,5.6.83,8.39a74.6,74.6,0,0,1,.22,12.05c-.17,3.42-.2,6.83-.24,10.25a9.71,9.71,0,0,0,.56,3.87,4.18,4.18,0,0,1,0,3.13,10.2,10.2,0,0,0-.35,5.29c.24,1.53.08,3.12.36,4.65Z"/><path class="cls-3" d="M411.08,0h7.55c0,.24,0,.48,0,.72a82.46,82.46,0,0,0,.73,9.3c.15,1.73.12,3.48.34,5.2a10.55,10.55,0,0,1-.06,4.61,2.18,2.18,0,0,0,0,.88c.16,2,1.17,3.95.34,6a.36.36,0,0,0,0,.17c.7,1.93.38,4,.72,6a7.52,7.52,0,0,1,.22,3.72,7.07,7.07,0,0,0-.14,4c.58,2.2.12,4.55.64,6.77a1.44,1.44,0,0,1-.14,1.22,3.39,3.39,0,0,0-.4,2.91,50.22,50.22,0,0,1,.44,7.34c.13,5.7.39,11.4.37,17.1,0,1.55-.23,3.11-.22,4.66.07,8.29-.17,16.57.17,24.86q.48,11.5-.14,23c-.2,3.95-.54,7.89-.78,11.83-.21,3.65-.59,7.28-.54,10.94,0,1.2,0,2.41,0,3.61-.18,3.71-.49,7.41-.57,11.12-.1,5.35-.05,10.7-.06,16a21.09,21.09,0,0,0,.22,2.5,15.87,15.87,0,0,1-.07,5.71,4.71,4.71,0,0,0-.12,2,39.58,39.58,0,0,1,.59,6.24c0,6.55,0,13.11,0,19.66a16.53,16.53,0,0,0,.15,2.32,16.52,16.52,0,0,1-.39,6.58,6,6,0,0,0-.18,2.91,32.71,32.71,0,0,1,.19,9.83c-.1,1-.62,2.06-.18,3.16a9.28,9.28,0,0,1,.43,3.36c.05,3.49-.28,7-.3,10.44-.08,10.15-.06,20.31-.08,30.47a18,18,0,0,1,0,1.8c-.48,4.05-.06,8.15-.53,12.21-.16,1.36.28,2.72.28,4.12-.06,7.5-.08,15-.23,22.51-.23,11.89-.3,23.79.19,35.68.19,4.73.4,9.46.59,14.19.22,5.15.49,10.29.69,15.44.26,6.91-.15,13.81-.33,20.71a120.71,120.71,0,0,0,1,17.74c.44,3.56.74,7.13.84,10.72.08,2.64,0,5.27-.2,7.91-.21,3.11-.06,6.25-.09,9.38a9.94,9.94,0,0,0,.45,3.35,4.54,4.54,0,0,1,0,3,10.26,10.26,0,0,0-.41,4.78,54.1,54.1,0,0,0,.56,5.71h-.32c-.45-.6-1.07-.34-1.61-.35l-11.27,0c0-2.52.09-5,.23-7.55.24-4,.05-8,.3-12.06.3-4.72,0-9.48.33-14.22.28-4.25,0-8.52.3-12.78.29-4.06,0-8.16.34-12.24.25-3.1.07-6.23.29-9.35.26-3.88.21-7.8.31-11.7a118.53,118.53,0,0,0-.16-12.78c-.28-3.64-.12-7.31-.3-11-.26-5.15-.41-10.31-.67-15.46-.17-3.47-.06-6.95-.29-10.43-.28-4.25-.06-8.52-.3-12.78-.3-5-.2-10.08-.31-15.13-.22-9.79-.08-19.6-.12-29.4-.11-25,.42-50-.24-75-.14-5.51-.35-11-.6-16.53-.18-4-.54-8-.42-12.06,0-.95-.11-1.91-.17-2.86-.13-2.16-.08-4.33-.08-6.49a1.55,1.55,0,0,1,.24-.83,1.91,1.91,0,0,0,.17-1.52,83,83,0,0,1-.7-9.84c-.06-6.36-.27-12.73.21-19.09.22-3,.05-6.12.29-9.18.26-3.34.09-6.71.32-10.07.27-4.13.19-8.28.27-12.42.14-7,.45-14,.45-21.07,0-3.06.31-6.11.36-9.17,0-1.17-.08-2.37.05-3.51a30.66,30.66,0,0,0,.19-3.94q0-6.67,0-13.35a12.51,12.51,0,0,1,.41-3.19c.23-.91.67-1.71,0-2.67a2.05,2.05,0,0,1,.06-1.57,2.58,2.58,0,0,0,.19-1.4,35.2,35.2,0,0,1-.6-7.67c0-.62-.22-1.35.59-1.64.32-.12.21-.51,0-.74a2.15,2.15,0,0,1-.12-2,10.86,10.86,0,0,0,.4-3.37,8.91,8.91,0,0,1,.26-3.21,1.41,1.41,0,0,0-.08-1.22c-.79-1.13-.47-2.39-.33-3.62a2.11,2.11,0,0,0,.07-1,2.44,2.44,0,0,1-.2-1.22c0-.34.7.27.52-.43a3.16,3.16,0,0,1-.24-1.22.94.94,0,0,1,.08-.34c1-1.63.64-3.33.15-5a7,7,0,0,1-.26-2.12c0-2.76.12-5.51.27-8.27C411.19,7,411.07,3.49,411.08,0Z"/><path class="cls-3" d="M260.7,0h7.23c.31,2.19.35,4.41.59,6.61.41,3.86.65,7.74,1,11.61a1.87,1.87,0,0,1-.1,1.05c-.57.73-.28,1.46-.12,2.19s.13,1.34.3,1.94c.46,1.57-.26,3.19.27,4.76.45,1.35,0,2.79.28,4.22.45,2,.75,4.13-.17,6.15a.72.72,0,0,0,0,.52c.73,1.7.49,3.54.62,5.32s1,3.57-.09,5.32a.85.85,0,0,0,0,.36,40.73,40.73,0,0,0,.1,4.14,89,89,0,0,1,.46,10c.13,8.28.27,16.57-.13,24.86a123.26,123.26,0,0,0,.13,12.6c.24,4.36.46,8.74.43,13.13,0,3.48-.37,7-.3,10.43.06,3.25-.22,6.48-.45,9.7-.26,3.7-.83,7.38-.81,11.09,0,4.57-.1,9.13-.43,13.67-.27,3.59-.11,7.18-.45,10.77-.28,3-.08,6-.08,9a29.88,29.88,0,0,0,.25,4.12c.36,2.53.84,5.1-.2,7.6a1.75,1.75,0,0,0,.09,1.05,22.34,22.34,0,0,1,.5,5.17c0,3.3,0,6.61,0,9.92,0,2.64-.17,5.31.06,7.93.3,3.24.17,6.47.24,9.71a4.34,4.34,0,0,1-.45,2.43,2.74,2.74,0,0,0-.18,2.35,25.13,25.13,0,0,1,.39,8.91c-.31,2-.68,4.11.11,6.18a7.14,7.14,0,0,1,.13,2.14c.09,2.53-.32,5-.35,7.55-.08,8.58.23,17.17-.21,25.76-.26,5.21,0,10.44-.3,15.66a112.49,112.49,0,0,0,.15,13.86,78.57,78.57,0,0,1-.14,8.81c-.25,5-.2,10-.33,14.94-.21,8.23-.16,16.46.22,24.68.11,2.46.14,4.92.23,7.37.22,5.81.49,11.62.68,17.43.12,3.54.52,7.06.4,10.61a3.19,3.19,0,0,0,0,.54,27.94,27.94,0,0,1,.15,7.36c-.35,3.95-.14,7.91-.46,11.86a57.7,57.7,0,0,0,.16,8.81c.22,2.74.54,5.47.81,8.21.34,3.51.8,7,.84,10.54,0,2.35,0,4.69,0,7,0,2.1-.09,4.19-.22,6.29-.19,3.1-.35,6.25.67,9.26a3.65,3.65,0,0,1-.07,2.46,10.81,10.81,0,0,0-.44,3.36c-.06,2.29.29,4.54.34,6.82l-12.9,0c.07-4.26,0-8.52.26-12.78.29-4.55,0-9.12.32-13.68s0-9,.31-13.5c.29-4.24,0-8.52.32-12.78.27-3.52,0-7.07.31-10.61.26-3.1.25-6.24.29-9.35.12-8.82.31-17.65-.14-26.48-.27-5.27-.36-10.55-.66-15.82-.18-3-.07-6.11-.28-9.17-.28-4-.07-8-.33-12.05-.28-4.43,0-8.88-.3-13.32-.3-5.21-.25-10.45-.29-15.66q-.17-19.83.1-39.66c.21-16.33.35-32.68-.13-49-.21-7.19-.29-14.39-.63-21.58-.18-3.71-.54-7.42-.42-11.15,0-.24,0-.48,0-.72a71.28,71.28,0,0,1,.05-14.16,4.84,4.84,0,0,0,0-1.26c-.75-5.35-.63-10.75-.87-16.14-.08-1.62.14-3.23.21-4.84.17-4.07,0-8.16.32-12.24.24-2.86.1-5.75.29-8.63.26-3.94.09-7.91.33-11.87.27-4.25.17-8.52.27-12.78.16-6.24.42-12.48.43-18.73,0-3.21.31-6.41.42-9.63.11-3.48.09-7,.18-10.43a6.92,6.92,0,0,0-.06-1.44,19.4,19.4,0,0,1,0-5.54c.21-1.78,1-3.52.39-5.42a2.55,2.55,0,0,1,.15-1.22c.06-.29.23-.58.11-.87-.9-2.3-.49-4.73-.56-7.12,0-.84-.33-1.81.51-2.47a.56.56,0,0,0,0-.67c-.61-.71-.31-1.45-.07-2.17a4.73,4.73,0,0,0,.23-1.58,18.63,18.63,0,0,1,.43-5c.07-.3.17-.62,0-.85-.7-.81-.39-1.81-.41-2.74s.07-1.87.06-2.81-.32-1.83.18-2.58a4.23,4.23,0,0,0,.47-3.39c-.31-1.62-1-3.17-.69-4.92a13.66,13.66,0,0,0,.27-2.49C260.26,10,260.62,5,260.7,0Z"/><path class="cls-3" d="M241.23,476.21c.43-4.78.21-9.58.51-14.37.24-3.83,0-7.7.15-11.54.19-4.14.09-8.29.34-12.41.16-2.64.15-5.27.23-7.91q.51-17.3.22-34.6c-.09-5.16,0-10.33-.31-15.47-.15-2.88-.05-5.77-.28-8.63-.34-4.3-.27-8.62-.83-12.9-.26-2-.24-4.06-.39-6.09-.45-6-.36-12-.23-18,.08-3.71.19-7.43.23-11.15,0-3.91-.51-7.79-.28-11.7.64-11.16.23-22.34.27-33.51,0-3.9-.26-7.79-.37-11.69-.15-5.09-.38-10.18-.62-15.27-.35-7.25-.78-14.5-.5-21.76.11-3.1.18-6.22.48-9.33a35.86,35.86,0,0,0-.61-9.47,42.43,42.43,0,0,1-.13-8.8c.08-2.14.36-4.28.51-6.43.31-4.66.6-9.32.9-14a2.17,2.17,0,0,0,0-.36c-.1-3.85.27-7.68.42-11.51.22-5.23.27-10.44.22-15.67q-.07-7.2-.39-14.39c-.24-5.35-.2-10.69-.15-16,0-4.25.34-8.5.61-12.74a33.94,33.94,0,0,1,.71-4.59,8.93,8.93,0,0,0,.13-3,61.73,61.73,0,0,1-.27-8.27c0-.71-.22-1.47.68-1.91.5-.24.44-2.86-.09-3.57a3.07,3.07,0,0,1-.14-3.48,2,2,0,0,0,.12-1.67,9.16,9.16,0,0,1-.07-4.07,29.35,29.35,0,0,0,0-6.82c0-.77-.15-1.54-.15-2.32,0-5-.14-10,0-15,.18-4.62.06-9.25.33-13.85.2-3.48,0-7,.29-10.43.33-4.32,0-8.66.32-13,.41-6.18.1-12.37.24-18.55h9.44a27.57,27.57,0,0,0-.28,2.84c0,.87.6,1.78-.32,2.51-.09.07,0,.46,0,.69a21.72,21.72,0,0,1,0,7.15,6.91,6.91,0,0,0,.23,3.55,1.93,1.93,0,0,1-.18,2,2.2,2.2,0,0,0-.18,2.18c.38,1.28,1,2.56.35,4a1.48,1.48,0,0,0,.15,1,3.07,3.07,0,0,1,.16,1.41c-.09,1.31-.6.07-.94.21,0,1.18,0,2.39,0,3.59,0,.42-.1,1,.09,1.23,1,1.42.58,3,.36,4.47-.34,2.28-1,4.53-.14,6.84.1.27,0,.62.08.89.36,1.11.31,1.95-.82,2.42-.49.21-.57.6,0,1,.16.1.09.66.1,1a24.68,24.68,0,0,0,.1,4,17,17,0,0,1-.1,5.18c-.09.7-.62,1.52.41,1.93.07,0,.12.33.09.48a35.86,35.86,0,0,0-.24,3.58,31.1,31.1,0,0,0,.32,10.37,65,65,0,0,1,1.07,12.3q0,6.49-.47,13c-.36,4.72-.52,9.44-.81,14.16-.21,3.42.17,6.84.28,10.25a4.1,4.1,0,0,1-.22,2.29,2,2,0,0,0-.21,1.48,67.1,67.1,0,0,1,.76,10c-.06,5.28,0,10.56-.28,15.84-.17,3.06,0,6.13,0,9.2,0,.59.17,1.26-.23,1.73a2.38,2.38,0,0,0-.28,2.2,13.07,13.07,0,0,1,.15,2c.16,2.23-.32,4.42-.29,6.64a19.84,19.84,0,0,1,.07,3.37,23.67,23.67,0,0,0-.41,5.71,8.86,8.86,0,0,1,0,1.26c0,.23-.11.6-.33.45-.78-.54-.75.27-.82.67a3.81,3.81,0,0,0,.43,2.59,2.06,2.06,0,0,1,.46,1.09c0,2.23,0,4.46-.11,6.67-.22,3-.56,6.08-.76,9.11a57,57,0,0,0-.18,10c.35,3.14.13,6.34.33,9.52.24,3.71.45,7.41.65,11.12.31,5.62.49,11.26.65,16.89a66.44,66.44,0,0,1-.24,8.81c-.05.5-.23,1.17.28,1.49s.39.57.33,1a2.62,2.62,0,0,0,.58,2.31c.18.18.33.42.19.61-.84,1.15-.09,2.29,0,3.41a5.69,5.69,0,0,1-.23,3.3c-.36,0-.36-.68-.79-.43a2.44,2.44,0,0,0-.05,1.23,89.2,89.2,0,0,1,.55,8.95c.06,3.49,0,7,0,10.46a24,24,0,0,0,.09,3.06c.5,4,.71,8.1.84,12.17.09,3,0,6,0,9a14.75,14.75,0,0,1-.43,4.09,5.71,5.71,0,0,0,0,2.47,21,21,0,0,1,.7,4.77c-.16,2.26-.56,4.5-.74,6.76a36.44,36.44,0,0,0-.38,7c.2,1.68.2,3.35.26,5,0,.36,0,.73.05,1.08a44.94,44.94,0,0,1,0,10,25.61,25.61,0,0,0-.38,4.47,16.29,16.29,0,0,1-.49,5.52,3,3,0,0,0,.11,2.27,5.46,5.46,0,0,1,.24,3.67,11.84,11.84,0,0,0-.2,2c-.13,5.52.21,11.05-.25,16.57-.32,3.75.78,7.47.32,11.26-.24,2-.13,4.06-.28,6.1-.35,4.84-.5,9.7-.7,14.55-.07,1.86-.05,3.72,0,5.59,0,1.2-.45,2.37-.23,3.57a26.27,26.27,0,0,1,.21,5.39c-.1,6.67.31,13.32.39,20,0,.24,0,.48,0,.72.32,4.66.67,9.32.6,14Zm-1.12-248.93c0-.51.78-1,0-1.66A2,2,0,0,0,240.11,227.28Z"/><path class="cls-3" d="M348.16,0c0,1.38-.88,2.78.08,4.15,0,.06-.09.37-.19.44-.76.46-.57,1.22-.44,1.9a20,20,0,0,1,0,6.08,8.44,8.44,0,0,0,.23,4.43,1.56,1.56,0,0,1-.19,1.66,2.29,2.29,0,0,0-.2,2.34c.23.66.34,1.38.52,2.07a1.32,1.32,0,0,1,0,1.05,2.28,2.28,0,0,0,0,2.34,1.32,1.32,0,0,1,0,1.21c-.37.63-.42-.07-.8-.34.1,1.79-.44,3.61.17,5.11a7.06,7.06,0,0,1,.39,3.45,30.87,30.87,0,0,1-.69,4,3.49,3.49,0,0,0,.05,2.1c.47,1.17.32,2.48.62,3.7.18.67-.32.72-.67,1s-1.2.63-.24,1.31c.06,0,0,.23,0,.35-.18,3.4.5,6.82-.17,10.21-.11.55-.22,1.06.39,1.34.41.18.24.55.21.91-.18,2.57-.47,5.12-.41,7.71A43.73,43.73,0,0,0,348,77.6a21.87,21.87,0,0,1,.47,4.44c.06,3.55.18,7.11,0,10.64q-.36,6.27-.79,12.54a133.07,133.07,0,0,0-.34,15.47c.06,1.25.26,2.5.26,3.76a3,3,0,0,1-.08,1.25c-.8,1.57-.26,3.13,0,4.67.18,1.25.22,2.52.28,3.76a151,151,0,0,1,0,15.49c-.06,1.08-.12,2.15-.13,3.23,0,3,0,6,0,9,0,1.16.21,2.33-.51,3.45a3.51,3.51,0,0,0,0,2.29,11,11,0,0,1,0,3.57,30.33,30.33,0,0,0-.1,5.22,12.66,12.66,0,0,1-.48,5.09.93.93,0,0,0-.06.52c.49,1.87-.16,3.68-.16,5.62-.5-.45,0-1.17-.51-1.58a3.5,3.5,0,0,0,.08,3.54,2.22,2.22,0,0,1,.47,1.28c0,1.62.06,3.26-.1,4.86a33.18,33.18,0,0,0-.2,3.58c0,2-.36,3.93-.52,5.89a65.18,65.18,0,0,0-.24,12.57,19.32,19.32,0,0,1,.08,2.15c0,3.91.26,7.79.6,11.67.18,2.08.17,4.19.28,6.28.15,2.75.39,5.5.41,8.27s0,5.27.25,7.91c.28,2.87-.33,5.74-.23,8.62,0,.67-.27,1.48.56,1.86.23.11.1.42.07.64a2.79,2.79,0,0,0,.58,2.49c.18.17.31.41.17.62-.86,1.27-.05,2.53.05,3.77a5.15,5.15,0,0,1-.32,2.89c-.29-.06-.31-.54-.64-.44-.06.08-.16.18-.16.26.17,2.69.36,5.37.53,8.06q.06.81.06,1.62c0,3.54,0,7.09,0,10.64a68.76,68.76,0,0,0,.58,7.87c0,.24.05.48.07.72.35,5.63.36,11.28.32,16.92a7,7,0,0,1-.23,1.59,11.66,11.66,0,0,0,0,5.32,20.68,20.68,0,0,1,.07,7.15,58,58,0,0,0-.67,11.1c.29,3.7.54,7.4.57,11.12a37.07,37.07,0,0,1-.46,5.18,13,13,0,0,0-.16,2.32,22.64,22.64,0,0,1-.56,6.42,2.79,2.79,0,0,0,.09,2.11,5.14,5.14,0,0,1,.36,3.47,44,44,0,0,0-.34,8.75,40.36,40.36,0,0,1-.07,7.37,29.75,29.75,0,0,0,.09,7.54,21,21,0,0,1,.13,2.87c.14,4.27-.18,8.53-.41,12.78-.26,4.79-.43,9.58-.66,14.36a104,104,0,0,0-.13,10.44c.23,4.68.06,9.37.28,14,.24,4.91.35,9.83.64,14.73.13,2.34.28,4.67.26,7l-10.7,0c-.07-1.56.16-3.11.24-4.66.17-3.65.09-7.31.3-11,.28-4.85-.05-9.72.32-14.58.27-3.58.1-7.19.3-10.8.31-5.5.19-11,.29-16.56.16-8.76.21-17.53-.12-26.3-.23-6.11-.22-12.25-.39-18.37-.08-3.12-.34-6.22-.41-9.34,0-1.6-.11-3.24-.31-4.84a116,116,0,0,1-.8-12.35c-.07-5.94-.16-11.88.16-17.83a87.93,87.93,0,0,0-.15-11.7c-.31-3.76.16-7.55.18-11.33.06-11.17.38-22.34-.22-33.51-.15-2.81-.13-5.63-.26-8.45-.25-5.39-.37-10.78-.69-16.17-.14-2.45-.16-4.91-.26-7.37a156.71,156.71,0,0,1,.32-20,37.42,37.42,0,0,0-.39-9.64,27.78,27.78,0,0,1-.35-4.47c0-4.86.49-9.68.88-14.51.32-4.06.43-8.14.66-12.2.3-5.09.47-10.19.6-15.28a159.87,159.87,0,0,0-.17-16.38c-.28-3.64-.17-7.31-.28-11-.25-7.68-.18-15.38.29-23a44.94,44.94,0,0,1,.8-7.66,11,11,0,0,0,.32-4.28,61.67,61.67,0,0,1-.26-8.81c0-.28-.09-.63.15-.84,1.48-1.26.85-2.78.25-4.13a3.42,3.42,0,0,1,.06-3.34,1.5,1.5,0,0,0,.14-1.3,6.9,6.9,0,0,1-.05-4.7,4.35,4.35,0,0,0,.1-1.42c.07-2.28-.28-4.55-.27-6.82,0-6.49-.21-13,.19-19.46.27-4.36,0-8.76.33-13.13.25-3.41.11-6.84.28-10.26.26-5.33.16-10.68.35-16,.15-4.14,0-8.29.06-12.44Z"/><path class="cls-3" d="M394.09,0h9.12c.06,1-.18,1.93-.16,2.85s.47,1.82-.35,2.59c-.07.07.11.44.13.68a20,20,0,0,1,.16,5.53,11.54,11.54,0,0,0-.11,4.27,4.2,4.2,0,0,1-.22,3.43,1.57,1.57,0,0,0,0,1.4c1,2.07.15,4.34.58,6.47.06.27.14.68-.11.87-.38-.06-.08-.62-.5-.62a24.18,24.18,0,0,1-.26,3.39,1.94,1.94,0,0,0,.46,2.11c.55.44.45,1.21.34,1.84-.28,1.52-.3,3.1-.72,4.6a5.66,5.66,0,0,0,0,3,9.54,9.54,0,0,1,.44,3c0,.35.1.84-.21,1-1.06.51-.77,1.46-.73,2.39.06,1.14.12,2.27.22,3.4a31.41,31.41,0,0,1,0,5c-.07,1-.58,2.07.3,3,.16.17.11.71.05,1a44.11,44.11,0,0,0-.3,7.18,24.84,24.84,0,0,0,.68,7.66c.76,2.57.64,5.22.85,7.82.34,4.32-.3,8.63-.28,13a1.09,1.09,0,0,1,0,.18c-.53,4-.62,8-.82,12-.23,4.5-.13,9,0,13.53a11.73,11.73,0,0,1-.32,4.38,2.77,2.77,0,0,0,0,1.25,97.1,97.1,0,0,1,.88,13.43c0,1.69-.24,3.34-.25,5-.05,4.81-.05,9.62-.09,14.43,0,1.41.32,2.88-.55,4.17-.15.23-.05.7-.05,1.06,0,3.67,0,7.34,0,11a6.62,6.62,0,0,1-.08,1.26,26.69,26.69,0,0,0-.53,5.86c0,1.14,0,2.29,0,3.43a1.52,1.52,0,0,1-.33-1,2.34,2.34,0,0,0-.12-1.05,3.68,3.68,0,0,0,0,3.9,2.2,2.2,0,0,1,.4,1.83,12.92,12.92,0,0,0-.2,3.22,59,59,0,0,1-.66,10.39,27.25,27.25,0,0,0-.3,5c.05,4.14,0,8.28.21,12.42.19,3.11.33,6.23.46,9.34.1,2.16.16,4.32.32,6.47.29,3.94.5,7.89.55,11.85s0,8.17,0,12.26a4.06,4.06,0,0,0,.16,1.76c.51,1.18.11,2.69,1,3.73.05.06,0,.36-.12.49a2.1,2.1,0,0,0,0,2,11.2,11.2,0,0,1,.21,3.75c0,.17-.07.43-.24.37-1.24-.48-.69.69-.69,1.09.07,3.18.45,6.34.35,9.53,0,.12,0,.24,0,.36a33.05,33.05,0,0,1,0,7.89,15,15,0,0,0,0,3.41c.45,3.62.76,7.26.85,10.91.05,1.74,0,3.49,0,5.23,0,1.08.44,2.14.2,3.21a17.7,17.7,0,0,0-.2,3.41,19.74,19.74,0,0,1-.28,3.75,6.62,6.62,0,0,0,0,3.22c.88,3,.54,6.07.07,9.08a59.67,59.67,0,0,0-.43,12c.18,3.94.67,7.86.26,11.82a26.84,26.84,0,0,0-.32,3.21,34.61,34.61,0,0,1-.68,8.2,2.84,2.84,0,0,0,.26,2.22,3.41,3.41,0,0,1,.29,2.6,24.48,24.48,0,0,0-.51,5.34c-.06,5.41.29,10.82-.25,16.21a3.9,3.9,0,0,0,.13,1.06,35,35,0,0,1,.37,9c-.25,3.65-.36,7.3-.58,10.95-.26,4.42-.56,8.85-.59,13.29-.07,7.57,0,15.13.26,22.7.11,3.72.5,7.42.38,11.15a3.26,3.26,0,0,0,0,.54c.34,3.4.38,6.81.55,10.22l-10.69,0c0-2.7.1-5.4.25-8.1.25-4.48,0-9,.32-13.5.27-4.12.05-8.27.3-12.41.27-4.55.29-9.13.32-13.68.1-16.53.32-33.05-.2-49.58-.13-4.14-.39-8.27-.44-12.41a51.08,51.08,0,0,0-.32-5.38,89.43,89.43,0,0,1-.78-10.19c0-15.56-.25-31.12.15-46.69.23-8.82.26-17.65-.14-26.49q-.3-6.74-.4-13.49c-.05-3.48-.47-6.95-.35-10.44a2.17,2.17,0,0,0,0-.36c-.5-3.62-.13-7.3-.53-10.95-.23-2.13.09-4.33-.18-6.47a30.47,30.47,0,0,1-.1-5.4c.12-2.87.46-5.73.51-8.6a81.91,81.91,0,0,0-.48-12,61,61,0,0,1,.29-14c.41-4.05.54-8.12.8-12.17.28-4.25.57-8.51.59-12.75,0-5.75.55-11.49.18-17.26-.26-4.19-.15-8.4-.33-12.6-.19-4.44,0-8.9-.09-13.35,0-5,.1-10,.37-14.94a24.23,24.23,0,0,1,.38-4.1,28.62,28.62,0,0,0,.52-7.5c-.07-2.28-.43-4.54-.28-6.83,0-.47-.11-1,.23-1.37,1.3-1.34.88-3,.37-4.37a3.9,3.9,0,0,1-.13-2.91,3.5,3.5,0,0,0,.05-2.73,4,4,0,0,1,0-2.81,6.06,6.06,0,0,0,.32-3.51,18.45,18.45,0,0,1-.19-2.87c.06-9.25-.28-18.5.24-27.75.21-3.65.15-7.32.26-11,.16-5.15.35-10.31.42-15.48C393.86,13.21,393.59,6.6,394.09,0Zm-3.23,225.64c-.54,1.18-.54,1.18-.1,1.8A2.77,2.77,0,0,0,390.86,225.64Z"/><path class="cls-3" d="M510.49,0a68.24,68.24,0,0,1,.37,7c.34,5.51.4,11,.67,16.53.28,5.71.14,11.41.26,17.11.64,31.5.14,63,.29,94.49,0,3.54-.39,7.06-.56,10.58s-.16,7.1,0,10.64c.15,4.2.13,8.41.35,12.6.38,7.21,0,14.42.31,21.61.29,6.31,0,12.62.33,18.91.25,4.87,0,9.74.3,14.59.27,4.5,0,9,.32,13.5.24,3.78,0,7.57.3,11.33s.06,7.45.33,11.16c.23,3.06.12,6.12.28,9.17.36,6.89.41,13.79.68,20.68.26,6.67,0,13.34.27,20,.18,4.8.1,9.61.33,14.4.49,9.91.33,19.83.16,29.73-.08,4.54-.37,9.09-.77,13.63-.2,2.19-.29,4.42-.37,6.63-.16,5.1-.54,10.18-.75,15.27-.09,2.33-.08,4.68-.26,7-.51,6.36-.27,12.73-.22,19.09,0,4.91.31,9.83.6,14.73.21,3.71.14,7.43.55,11.13,0,.23,0,.48,0,.72.1,9.07.49,18.13.37,27.21,0,1.8.37,3.57.27,5.38-.08,1.41,0,1.46-1.24,1.45-2.72,0-5.45.12-8.17-.08,0-2.77-.09-5.54,0-8.3.41-11.29.54-22.59.2-33.88-.43-14.42-.22-28.83-.14-43.25,0-5.46.3-10.93.13-16.38-.19-5.95,0-11.9-.31-17.83-.17-3.54,0-7.09-.29-10.61-.31-4.18-.33-8.37-.8-12.54-.26-2.31-.24-4.67-.34-7-.58-13.27-.38-26.55-.37-39.83l0-9.92c0-2.34,0-4.67.21-7,.19-2.56-.26-5.13-.23-7.72.06-6.91-.15-13.83.07-20.74.14-4.56.32-9.12.16-13.68-.13-3.83-.1-7.68-.3-11.51-.5-9.31-.4-18.62-.16-27.92.16-5.89.16-11.77.24-17.65a16.28,16.28,0,0,0-.43-4.09,22.79,22.79,0,0,1-.56-5.7c0-4.15-.15-8.31.11-12.44.25-3.91.27-7.8.18-11.7-.06-3-.41-6-.71-8.94-.07-.71-.17-1.42-.18-2.14,0-4.45,0-8.9,0-13.35a16.44,16.44,0,0,0-.49-4.44,8.91,8.91,0,0,1,0-4.75,3.83,3.83,0,0,0-.09-2.46,8.85,8.85,0,0,1-.4-3.72c.32-5.76.46-11.53.28-17.29-.12-3.88-.12-7.79-1.05-11.59a3.56,3.56,0,0,1,0-2.12,10.11,10.11,0,0,0,.06-5.48c-.43-2.2-.74-4.35.1-6.51.63-1.6.06-3.2-.12-4.78a20,20,0,0,1-.18-2.32c0-2.94,0-5.89,0-8.83a42.81,42.81,0,0,0-.57-6.79,5,5,0,0,1,.09-2.13,27.51,27.51,0,0,0,.6-8.7c-.27-5.88-.21-11.77,0-17.66,0-.82.16-1.66.21-2.5Z"/><path class="cls-3" d="M420.83,0h10.38c.08,3.9.19,7.8.24,11.7.15,11.84,0,23.68.11,35.52,0,5.89-.29,11.77-.37,17.65,0,.24,0,.48,0,.72-.28,3.76-.78,7.51-.82,11.27-.1,9.19-.15,18.37.16,27.57.22,6.47.38,13,.4,19.45,0,2-.26,3.94-.27,5.92,0,5.95-.05,11.9-.06,17.86,0,1.5-.48,3-.2,4.47a17.52,17.52,0,0,1,.19,3.23c0,3.24,0,6.49,0,9.73a14,14,0,0,0,.13,2.15,15.63,15.63,0,0,1,0,5.54,6.29,6.29,0,0,0,.14,3.19,6.6,6.6,0,0,1,.37,1.74c.08,2.34.4,4.66.34,7-.11,3.9-.2,7.8-.21,11.69,0,10.8-.61,21.62.48,32.41.35,3.5.53,7,.61,10.57.1,4.62.49,9.22.63,13.83.25,8,.11,16-.28,24,0,.12,0,.24,0,.36-.39,4.35-.35,8.71-.32,13.08,0,3.9.42,7.77.6,11.66s.54,7.9.38,11.87c-.08,1.86-.38,3.69-.29,5.57.14,3.18-.31,6.34-.41,9.52-.06,1.78-.13,3.59-.29,5.38-.35,3.94-.61,7.88-.58,11.84,0,1.91.28,3.84-.26,5.73a1.44,1.44,0,0,0,0,.71,40.3,40.3,0,0,1,.79,7.83c.33,5.68.31,11.39.67,17.07.16,2.57.12,5.16.25,7.73.19,3.65.29,7.32.39,11,.06,2.4.21,4.81.43,7.18.47,5.18.87,10.38,1.07,15.57.19,4.61.39,9.23.41,13.86,0,4.86-.33,9.71-.4,14.58,0,2-.14,4.07-.3,6.1-.27,3.39-.58,6.79-.86,10.18-.24,2.86-.37,5.74-.75,8.58-.16,1.23,0,2.54-.51,3.7L425,476.2c.83-6.75,2-13.44,2.6-20.24.44-4.65.6-9.32.74-14,.23-7.26.08-14.53-.19-21.8-.13-3.35-.51-6.7-.39-10.06,0-.12,0-.24,0-.36-.29-4.3-.65-8.59-.86-12.9-.11-2.27-.32-4.54-.42-6.81-.16-3.89-.62-7.75-.83-11.64-.2-3.52-.42-7.05-.62-10.58-.3-5.62-.57-11.26-.62-16.89-.05-6-.1-12,.16-18a196.75,196.75,0,0,0-.25-20.17c0-.18,0-.36,0-.54-.28-2.79-.62-5.58-.84-8.38-.26-3.34-.49-6.68-.61-10-.14-3.9-.22-7.8-.31-11.7-.28-12.67.23-25.35-.33-38-.19-4.32,0-8.64-.28-13-.31-4.91-.1-9.84-.3-14.77a130.86,130.86,0,0,1,.13-13.86c.27-3.94.27-7.91.35-11.87.16-8.17,0-16.35.09-24.52.07-7.57-.2-15.14.2-22.71.25-4.48.23-9,.35-13.49.33-12.43-.12-24.87.28-37.31.33-10.32,0-20.66.31-31,.15-4.67,0-9.36-.12-14-.19-8.7-.28-17.4-.71-26.09-.12-2.34-.28-4.67-.42-7C421.74,9.64,421.24,4.83,420.83,0Z"/><path class="cls-3" d="M381.2,476.21c.42-2.77.85-5.54,1.24-8.32s.73-5.68,1.08-8.52c.18-1.48.41-3,.47-4.45.1-2.58.25-5.16.41-7.72.47-7.39.25-14.78.19-22.16,0-5.15-.32-10.31-.62-15.45-.2-3.47-.46-6.93-.62-10.4-.19-3.76-.58-7.51-.85-11.27-.13-1.79-.2-3.59-.29-5.38-.12-2.52-.29-5-.46-7.54-.35-5-.36-9.94-.83-14.88a2.17,2.17,0,0,1,0-.36c.05-7-.64-14.06-.27-21.07.34-6.31.23-12.61.2-18.92a111.7,111.7,0,0,0-.83-12.53c-.17-1.36-.27-2.75-.32-4.11-.1-2.82-.29-5.64-.47-8.44-.23-3.84-.07-7.69-.28-11.52-.49-8.46-.12-16.93-.25-25.4-.06-4,.11-8.07-.07-12.08-.21-4.81-.1-9.61-.32-14.41-.52-11.59-.36-23.19-.15-34.78.09-5.1.05-10.21.29-15.3a85.77,85.77,0,0,0,.17-8.63c-.39-7.26-.27-14.53-.16-21.79.07-4.8,0-9.62.32-14.4.22-3.73.13-7.44.25-11.16.55-17.36,0-34.74.38-52.1.21-9.07.23-18.14.13-27.2,0-4.68-.06-9.37-.29-14-.2-4.31-.32-8.63-.59-12.93s-.5-8.49-1-12.7c-.24-2.08,0-4.22-.55-6.25h10.38c.1,2.21.26,4.43.27,6.64q.08,16.23.07,32.46c0,8.89.09,17.78-.35,26.66,0,.3,0,.61-.05.9a88.68,88.68,0,0,0-.8,10.91c-.13,8.28-.27,16.57.17,24.86.24,4.66.21,9.35.31,14,.13,5.94,0,11.88-.15,17.83-.22,10.27-.08,20.55-.09,30.83a14,14,0,0,0,.19,2.14,12.92,12.92,0,0,1-.05,5.67,5.52,5.52,0,0,0,.1,3,20.52,20.52,0,0,1,.69,5.31c0,6.9,0,13.81-.26,20.71-.08,2,0,4,0,5.95.09,5.16-.18,10.31.22,15.48.36,4.71.78,9.42.93,14.15s.5,9.58.63,14.36c.18,7.14.23,14.28-.15,21.43-.25,4.79-.56,9.59-.44,14.4.07,2.7-.11,5.42.12,8.11.51,6,.89,12.06.86,18.12,0,2.11-.3,4.19-.27,6.28,0,3.25-.32,6.47-.44,9.71-.07,1.72-.13,3.47-.28,5.2a119.38,119.38,0,0,0-.56,13.64,7,7,0,0,1-.05,2.15,7.32,7.32,0,0,0,.1,3.52,39.43,39.43,0,0,1,.48,5.18c.3,5.68.33,11.38.67,17.06.15,2.46.16,4.92.26,7.37q.28,8.08.67,16.17c.17,3.71.47,7.41.77,11.1.42,5.08.48,10.17.79,15.25.18,2.81.06,5.65.05,8.47,0,5.28-.29,10.55-.55,15.81-.18,3.72-.48,7.41-.74,11.11-.31,4.42-.83,8.81-1.21,13.21-.07.88-.41,1.12-1.11,1.1C385.92,476.25,383.56,476.24,381.2,476.21Z"/><path class="cls-3" d="M280.83,0c0,9.32-.15,18.64.11,28,.17,6.19.2,12.38.13,18.55C281,51.66,281,56.84,280.76,62c-.18,3.69-.26,7.42-.81,11.09,0,.12,0,.24,0,.36q-.62,11.25-.24,22.51c.13,3.9,0,7.81.26,11.7.54,9.49.41,19,.16,28.47-.23,9.07-.06,18.14-.19,27.21a22.76,22.76,0,0,0,.35,4.46,11,11,0,0,1-.09,5,6.13,6.13,0,0,0,.12,3.35,16.55,16.55,0,0,1,.56,4.61c0,9.74,0,19.48-.06,29.22,0,1.55-.26,3.09-.25,4.66,0,3.9.32,7.78.54,11.66.27,4.79.71,9.56.77,14.37a64.26,64.26,0,0,0,.49,8.42,3.08,3.08,0,0,1,0,.53c.08,5.29.56,10.56.3,15.85s-.37,10.54-.68,15.81c-.21,3.72-.27,7.44-.16,11.15.11,3.95.54,7.88.81,11.82.06.83.06,1.68.06,2.52,0,4.27.16,8.55,0,12.8-.24,4.6-.32,9.22-.81,13.81-.21,1.89-.13,3.82-.34,5.74-.17,1.59,0,3.22-.3,4.84s.27,3.45.24,5.19a5.9,5.9,0,0,1-.33,2.47,1.29,1.29,0,0,0-.13.85c1.05,6.28,1,12.64,1.18,19,.18,5.45.42,10.9.62,16.35.17,4.49.34,9,.61,13.47.3,4.9.77,9.78,1.17,14.67,0,.12,0,.24,0,.36.45,9.24.47,18.49.27,27.74-.09,3.95-.35,7.9-.62,11.84-.28,4.24-.84,8.45-1.13,12.68-.18,2.57-.52,5.12-.74,7.68l-7.83,0a12.47,12.47,0,0,1,0-1.62c.83-5.55,1.63-11.09,2.24-16.68.44-4.05.75-8.11.8-12.17.14-11.65.29-23.3-.52-34.94-.26-3.7-.4-7.41-.64-11.12-.3-4.66-.7-9.31-.92-14-.2-4.31-.62-8.6-.77-12.92-.08-2.21-.09-4.44-.31-6.64-.38-3.7-.37-7.43-.5-11.13-.19-5.71,0-11.42-.08-17.14-.07-8.4.36-16.82-.28-25.22-.24-3.1-.36-6.22-.7-9.3-.55-4.83-.62-9.69-.82-14.53-.35-8.34,0-16.69-.3-25-.32-9.06.15-18.14-.35-27.21-.23-4.13-.2-8.28-.26-12.42-.14-9.06-.38-18.14.15-27.21.22-3.76.22-7.55.31-11.33.15-7.09,0-14.19.05-21.28.08-8.95-.23-17.91.27-26.85.22-3.89.23-7.8.3-11.7.27-15.86-.11-31.73.31-47.59.25-9.37.11-18.76.07-28.14,0-4.44,0-8.87-.21-13.32-.24-5.75-.36-11.51-.67-17.26-.12-2.39-.32-4.78-.45-7.17-.08-1.43-.16-2.87-.3-4.3a61.74,61.74,0,0,1-.56-8Z"/><path class="cls-3" d="M466.76,0h9.44c.1,1.85.28,3.71.27,5.56-.1,14.6.35,29.2-.21,43.79-.15,3.78-.26,7.54-.64,11.3-.5,5-.3,10.06-.61,15.09-.13,2,.1,4.07.17,6.1.18,5.22.26,10.44.32,15.66.15,13,.34,26-.19,38.92-.26,6.61.4,13.2.26,19.81a6.53,6.53,0,0,0,.11,1.25,13.83,13.83,0,0,1,0,5.17,7.17,7.17,0,0,0,.14,3.56,5.89,5.89,0,0,1,.37,1.74c0,2.4.4,4.77.33,7.18-.08,3.12-.17,6.24-.22,9.35-.15,9.19-.07,18.39-.07,27.59,0,.48,0,1,0,1.44.29,3.64.6,7.27.85,10.91.15,2.21.14,4.43.26,6.64.21,4.19.54,8.38.64,12.56.14,5.82.19,11.64-.16,17.47-.33,5.5-.46,11-.64,16.53a75.73,75.73,0,0,0,.33,9.16c.14,1.61.13,3.23.32,4.84.43,3.63.34,7.3.41,10.94.05,2.31-.08,4.67-.18,7-.21,4.79-.38,9.58-.7,14.36-.21,3.28-.58,6.56-.58,9.86,0,2.16.13,4.34,0,6.48a17.7,17.7,0,0,0,.05,4.6,12,12,0,0,1,.27,1.77c.22,4.31.44,8.62.62,12.93.12,2.93.14,5.87.27,8.81.24,5.74.39,11.5.66,17.25.16,3.41.36,6.81.63,10.21.39,4.77.72,9.55.95,14.33.18,3.71.06,7.44.29,11.16a63.84,63.84,0,0,1-.15,7.18c-.22,3.89-.14,7.79-.35,11.69-.14,2.39-.34,4.78-.46,7.18-.08,1.42-.16,2.86-.3,4.29-.29,3-.56,6.07-.87,9.1-.25,2.43-.51,4.87-.84,7.29-.37,2.72-.86,5.42-1.07,8.16l-7.54,0a23.5,23.5,0,0,1,0-2.52c.62-5,1.17-10.09,1.94-15.09.72-4.72,1.34-9.46,1.73-14.22s.55-9.57.65-14.36c.13-6.49,0-13-.24-19.45-.11-3.18-.32-6.35-.43-9.53-.07-2-.14-4.07-.28-6.1-.27-3.88-.67-7.75-.84-11.63-.11-2.46-.36-4.9-.44-7.36-.06-1.73-.16-3.47-.3-5.2q-.62-7.51-.89-15.06c0-.6,0-1.21,0-1.8a111.69,111.69,0,0,1-.48-11.85c-.16-7.19-.23-14.4.13-21.61a102.45,102.45,0,0,0-.13-11.88c-.24-3.58-.32-7.17-.67-10.75-.44-4.46-.8-8.95-.92-13.43-.11-3.84-.31-7.67-.37-11.51-.19-12.26.26-24.52-.29-36.77-.2-4.43-.14-8.88-.25-13.32-.17-6.48-.42-13-.41-19.45,0-3.66-.16-7.35.08-11,.28-4.31.34-8.63.46-12.94.21-7.93,0-15.87.1-23.8s-.25-16.1.23-24.14c.22-3.71.2-7.44.3-11.16.35-14,.1-28.11.27-42.17.24-18.74.47-37.5-.13-56.24-.13-4-.44-7.91-.41-11.88,0-.23,0-.47-.06-.71A87.94,87.94,0,0,1,466.76,0Z"/><path class="cls-3" d="M486.59,476.23c-.11-5.82.36-11.63.41-17.46,0-2.56.14-5.15.21-7.73.54-20.84.38-41.7.24-62.55,0-4.79-.07-9.6-.33-14.39-.16-2.94-.05-5.89-.28-8.81-.35-4.59-.38-9.21-.8-13.8-.33-3.69-.56-7.4-.79-11.1s-.11-7.33-.3-11c-.25-5-.43-9.94-.63-14.91q-.3-7-.64-14c-.32-6.29-.42-12.59-.64-18.88-.46-13.4-.34-26.8-.13-40.19.22-13.82-.07-27.64.3-41.44.21-7.63,0-15.26.31-22.88.18-4.2.29-8.41.16-12.6-.43-13.33-.25-26.67-.17-40,0-4.38.07-8.77.33-13.14.15-2.7.11-5.39.25-8.09.31-5.86.45-11.74.69-17.61.11-2.51.07-5,.27-7.54.29-3.72.1-7.45.36-11.15.21-3,.1-6,.25-9,.31-6,.1-12.13.38-18.18.23-5,0-10.09.29-15.12.46-8.23.2-16.45.25-24.68h6.92c0,7.76.13,15.52-.09,23.27-.11,4.32,0,8.65-.29,13-.19,3.34-.37,6.69-.77,10a41.58,41.58,0,0,0,0,8.64,79.15,79.15,0,0,1,.16,10.44c-.17,3.71,0,7.44-.51,11.13a1.45,1.45,0,0,0,0,.36c.11,3.85-.27,7.68-.43,11.51s-.23,7.92-.25,11.88c0,1.36.42,2.79,0,4.06-1,2.74-.61,5.57-.5,8.33.42,10.15,0,20.31.3,30.46.47,16.71,0,33.42.32,50.12.1,5.22.07,10.46.33,15.67.17,3.42.09,6.84.27,10.25.29,5.39.32,10.8.67,16.18.42,6.43.36,12.86.15,19.27-.24,7.44-.53,14.87-.63,22.31,0,2.27-.28,4.56-.18,6.83.44,10,0,20,.35,29.92.31,9,0,18,.29,27,.35,10.34,0,20.68.34,31,.28,8.6,0,17.19.3,25.77.32,8.42,0,16.83.3,25.23.55,17.73.13,35.46.23,53.19,0,.12,0,.24,0,.37Z"/><path class="cls-3" d="M441.92,476.23c0-6.55.19-13.1.4-19.63.28-8.41.13-16.82.24-25.23,0-2.94.4-5.86.26-8.81-.45-9.06-.07-18.14-.38-27.2-.14-4.14-.05-8.29-.28-12.42-.28-5.09-.25-10.19-.62-15.27-.26-3.58-.37-7.17-.82-10.73-.27-2.13-.23-4.31-.41-6.46-.33-4-.17-8-.35-12.05-.23-4.85-.42-9.7-.62-14.55-.21-4.67-.42-9.34-.66-14-.14-2.64-.06-5.29-.29-7.91-.39-4.38-.11-8.76-.31-13.14-.52-11-.38-22-.16-33,.27-13.83-.06-27.65.3-41.46.21-8.11,0-16.23.31-24.32.3-6.91.33-13.82.13-20.72-.3-10.63-.17-21.26-.16-31.89,0-4.92.17-9.85.35-14.76.11-2.94.1-5.88.26-8.81.32-5.63.42-11.27.68-16.9.12-2.76,0-5.53.29-8.27.29-3.35.06-6.73.33-10.07.29-3.72,0-7.45.29-11.15.33-5.28.05-10.58.35-15.84.26-4.63,0-9.26.28-13.87.29-5.4.14-10.8.34-16.2a55.91,55.91,0,0,0,.16-6.46c-.38-5.05-.15-10.09-.24-15.13h6.93c-.1,12.49.28,25-.26,37.49-.13,2.82,0,5.65-.09,8.47-.06,2.15-.19,4.31-.39,6.46s-.45,4.15-.51,6.25c-.08,2.82.17,5.63.25,8.45.19,6.84-.17,13.67-.5,20.5-.17,3.65-.52,7.3-.41,11a6.5,6.5,0,0,1,0,1.08,76.86,76.86,0,0,0-.22,11.15c0,1.3.26,2.73-.17,3.83a12.48,12.48,0,0,0-.47,4.39c-.06,1.8.18,3.59.22,5.38.21,10.39-.15,20.79.32,31.18.14,2.93,0,5.89,0,8.83.13,14-.21,28,.26,42,.21,6.11.19,12.24.35,18.36.11,4.2.5,8.39.38,12.6,0,.12,0,.24,0,.36.4,3.75.51,7.53.55,11.3.08,6.24.26,12.49-.22,18.73-.21,2.8-.17,5.63-.29,8.45-.23,5.63,0,11.28-.37,16.92-.08,1.4.25,2.74.27,4.12.12,9.37-.06,18.74.25,28.11.34,10.08,0,20.18.34,30.27.3,9.12,0,18.25.29,27.38.35,9.3-.05,18.62.33,27.93.31,7.61.14,15.25.28,22.87.25,14.13.07,28.26.07,42.38Z"/><path class="cls-3" d="M298.14,0c0,6.61.09,13.23-.07,19.84-.17,7.27-.07,14.54-.34,21.8-.15,4,0,8.06-.59,12-.32,2-.13,4-.51,5.9-.24,1.24.21,2.5.22,3.75,0,6.14.14,12.27,0,18.4-.13,4.67-.37,9.35-.64,14-.17,2.82-.21,5.63-.24,8.45a33.53,33.53,0,0,0-.27,4.12c.46,4.36-.54,8.66-.39,13s0,8.66.09,13c.53,18.21,0,36.43.36,54.63.14,7.45,0,14.91.3,22.34.18,4.21,0,8.42.31,12.6.2,3.12.11,6.24.28,9.36.28,4.9.36,9.83.67,14.72.28,4.21.28,8.42.16,12.61-.19,6.11-.36,12.23-.63,18.34-.45,9.91-.34,19.83-.13,29.73.19,8.84-.05,17.67.27,26.49.37,10,0,20.08.33,30.1.31,8.89,0,17.79.3,26.67.31,9.13,0,18.27.34,27.39.27,7.57,0,15.15.29,22.7.42,10.22.09,20.43.21,30.64,0,.36,0,.73,0,1.09-.09,2.52-.15,2.59-2.34,2.59h-3.93c-.55,0-.88-.14-.76-1a19,19,0,0,0,.11-2.51c0-8.41.23-16.82.44-25.23.35-14.72.23-29.44.11-44.17,0-5,0-10-.29-14.94-.2-3.42-.06-6.85-.29-10.25-.31-4.49-.18-9-.62-13.47-.33-3.33-.5-6.68-.81-10a59.81,59.81,0,0,1-.39-6.28c.07-4.75-.3-9.48-.4-14.22s-.41-9.46-.62-14.19-.4-9.34-.65-14c-.16-3.12-.16-6.24-.26-9.35-.67-19.17-.3-38.35-.2-57.52.07-12.56,0-25.12.3-37.67.57-23.87-.08-47.73.3-71.59.07-4,.1-8.05.35-12.05.14-2.46.12-4.92.25-7.38.31-5.86.45-11.74.7-17.61.1-2.58.06-5.17.26-7.73.3-4,.1-8,.36-12.06.18-2.82.13-5.63.23-8.45.26-6.78.17-13.58.41-20.35.16-4.69,0-9.38.28-14,.46-7.93.15-15.85.22-23.78,0-2.16-.4-4.3-.28-6.47Z"/><path class="cls-3" d="M316,120.89l-.3,0c-.47-.48-.29-1.12-.29-1.69,0-3,0-6,0-9a29.2,29.2,0,0,1,.45-6.69c.52.47.46,1.1.5,1.71a35.13,35.13,0,0,1-.39,5.53,40.29,40.29,0,0,0,.06,9.63A3.15,3.15,0,0,1,316,120.89Z"/><path class="cls-3" d="M240.11,227.28a2,2,0,0,1,0-1.66C240.89,226.24,240.14,226.77,240.11,227.28Z"/><path class="cls-3" d="M390.86,225.64a2.77,2.77,0,0,1-.1,1.8C390.32,226.82,390.32,226.82,390.86,225.64Z"/></g><g class="cls-2"><path class="cls-3" d="M4.15,0H23c0,.3,0,.6,0,.9.1,4.92-.07,9.84.29,14.76.27,3.76.1,7.55.27,11.34.22,5,.28,10,.36,14.93.07,3.84-.12,7.68-.16,11.52-.1,8.82-.24,17.65.13,26.48.3,7.07.15,14.16.34,21.25.17,6.06.11,12.14.07,18.21-.09,15.5.26,31-.27,46.5-.18,5.28-.05,10.56-.33,15.84-.35,6.53.19,13.06,0,19.6-.14,5.16,0,10.34-.06,15.51a11.67,11.67,0,0,0,.49,4.07,5,5,0,0,1,.07,2.49,27,27,0,0,0-.23,4.49c-.07,3,0,6-.25,9-.3,3.29.24,6.58.36,9.88a28.73,28.73,0,0,1,0,4.82,12.25,12.25,0,0,0-.3,2.66,102.27,102.27,0,0,1,.09,14.22c-.22,4.07-.27,8.14-.42,12.21A144.22,144.22,0,0,0,23.63,299c.24,2.55-.61,5.1,0,7.67a16.67,16.67,0,0,1,.33,3.75c.09,5.05-.16,10.08-.3,15.12-.06,2-.06,4,0,5.95.06,2.39-.33,4.79.25,7.16a3.07,3.07,0,0,1-.09,1.07,37.26,37.26,0,0,0,0,7.54,22.41,22.41,0,0,1-.07,5.9c-.29,1.51.39,3.08-.27,4.55.64,1.45.48,3.06.68,4.59a12.54,12.54,0,0,1,0,5.18,15,15,0,0,0-.32,6c.31,3.39.81,6.76.82,10.19a82,82,0,0,0,.28,11,5.67,5.67,0,0,1-.05,2.32,10.28,10.28,0,0,0-.07,4.45,12.43,12.43,0,0,1,.1,4.12,24.23,24.23,0,0,0-.25,4.65c0,3,.13,6,.23,9,.29,9,.1,18,.29,27,.21,10,.31,20.07-.2,30.09-2.15,0-4.3,0-6.44-.06-1.45,0-1.47,0-1.47-1.73q0-6.57,0-13.16a8.43,8.43,0,0,0-.34-2.65,10.5,10.5,0,0,1-.19-5,12,12,0,0,0,.2-2.31c-.07-3.18-.46-6.34-.35-9.53a15.55,15.55,0,0,0,0-2.16,30.22,30.22,0,0,1,0-8.6,2.23,2.23,0,0,0,0-1.06,10.74,10.74,0,0,1-.28-3.39c0-1.73,0-3.46-.2-5.2a12.27,12.27,0,0,1,.4-5.86,1.35,1.35,0,0,0,0-1.36,3.69,3.69,0,0,1-.36-2.93,21.88,21.88,0,0,0,.19-3.23c.07-9.79,0-19.57-.52-29.35-.21-4.12-.52-8.26-.43-12.41a5.77,5.77,0,0,0,0-.72c-.46-4.36-.38-8.74-.53-13.11a99,99,0,0,1,.19-12.42c.25-2.56.27-5.17.27-7.72,0-5.28.68-10.52.2-15.83-.34-3.74-.12-7.55-.35-11.33a40.13,40.13,0,0,1,.2-6.1,21.84,21.84,0,0,0-.22-6.09c-.37-1.92.4-3.78.32-5.71,0-1.45-.29-2.86-.34-4.3-.18-5.05.3-10.08.33-15.12,0-.12,0-.24,0-.36.38-3.27.43-6.57.55-9.86s-.09-6.48-.2-9.72c-.28-7.86,0-15.73-.33-23.6-.23-4.79-.06-9.61-.09-14.42-.05-8.23.12-16.47-.32-24.69,0-.42,0-.84-.07-1.26a42.3,42.3,0,0,1-.11-9.34,60.31,60.31,0,0,0-.21-12,80.82,80.82,0,0,1-.86-10.54c.07-5.77.48-11.52.34-17.29a23.31,23.31,0,0,1,.22-4.49,9.24,9.24,0,0,0,0-2.87c-.31-2.18-.56-4.38-.83-6.57a3.17,3.17,0,0,0,0-.53,39.77,39.77,0,0,1-.06-9.63,34,34,0,0,0,.38-5.53c0-.61,0-1.24-.5-1.71a28.64,28.64,0,0,0-.44,6.69c0,3,0,6,0,9,0,.57-.17,1.21.29,1.69a10.39,10.39,0,0,1-.42,3.89,2.78,2.78,0,0,0-.07,1.4,69.13,69.13,0,0,1,.79,9.65c.15,4.14-.08,8.27-.22,12.41s0,8.54-.06,12.8c0,.54.17,1.18-.15,1.58a3.85,3.85,0,0,0-.46,2.57c0,3.54.19,7.11,0,10.63-.21,3.16-.65,6.29-.62,9.47,0,.2,0,.23-.18.11-.25-.4.09-1-.33-1.41-.61,1.68-.63,2.68.12,4a3.14,3.14,0,0,1,.39,1.86c-.16,2.45-.32,4.9-.29,7.36a25.08,25.08,0,0,1-.15,2.87,89.31,89.31,0,0,0-.79,9.11c0,5.64.22,11.27.57,16.9.22,3.76.46,7.53.62,11.29.17,4.14.5,8.26.42,12.41-.08,3.73,0,7.46,0,11.18,0,.48-.17,1.07.12,1.4a3.07,3.07,0,0,1,.48,2c.08,1.16,1,2.27.18,3.51-.06.08.23.38.27.6a9.75,9.75,0,0,1,.23,3.88c0,.19,0,.62-.26.49-1.09-.55-.65.48-.7.9a6.19,6.19,0,0,0,0,1.61c.5,2.91.3,5.86.49,8.79a42.93,42.93,0,0,1-.18,9.34,4.36,4.36,0,0,0,0,1.08,109,109,0,0,1,.89,12c0,.84.09,1.68.14,2.51a76.73,76.73,0,0,1,0,9.71c-.17,2.3-.82,4.58-.15,6.94a17.3,17.3,0,0,1,.14,6.42c-.29,3.09-.79,6.15-.79,9.29s.48,6.1.37,9.16a2.47,2.47,0,0,0,0,.54,25.3,25.3,0,0,1,0,6.62A28.34,28.34,0,0,0,13,363a16.33,16.33,0,0,1-.47,5.16,4.08,4.08,0,0,0,.07,3,4.28,4.28,0,0,1,.29,2.94,27.43,27.43,0,0,0-.49,4.81c.07,8-.16,16,.31,23.94.15,2.53-.33,5-.32,7.54,0,2.7-.21,5.4-.41,8.08-.28,3.65-.29,7.3-.46,10.95-.34,7.68.1,15.37.27,23.05.1,4.73.4,9.46.6,14.19.05,1.31.07,2.62.22,3.94a45.56,45.56,0,0,1,.12,4.68c0,.68-.27,1-.85,1-.42,0-.84,0-1.26,0l-8.65.07c0-2.46.12-4.91.26-7.37.24-4,.1-8,.33-12.06.26-4.54,0-9.11.31-13.68.27-3.64.11-7.31.3-11,.32-5.93.13-11.88.29-17.82.18-7.08.23-14.17-.13-21.26C3,387.52,3.2,381.8,3,376.1c-.17-4.25-.39-8.51-.47-12.77a49.38,49.38,0,0,0-.33-5,118.4,118.4,0,0,1-.8-12.18c-.1-7.32-.2-14.65.2-22,.14-2.51-.1-5-.19-7.55-.15-3.77.1-7.56.15-11.33.13-10.87.33-21.74-.14-32.62-.26-5.81-.41-11.62-.64-17.43C.54,250.15.29,245.06.12,240q-.34-10.8.29-21.61a4.93,4.93,0,0,1,.05-.54,17.51,17.51,0,0,0,0-4.46c-.15-2.15-.52-4.27-.48-6.44.08-5.7.1-11.38.56-17.08.43-5.3.76-10.64.76-16a5.77,5.77,0,0,1,0-.72c.55-4,.29-8.14.49-12.21a104.93,104.93,0,0,0-.15-13.5c-.28-3.4-.21-6.83-.3-10.25-.22-8.22-.22-16.46.29-24.67a42.13,42.13,0,0,1,.82-7.66,12.1,12.1,0,0,0,.18-4.26c-.25-2.24-.21-4.54-.38-6.81a3.72,3.72,0,0,1,.45-2.55c1.3-1.35.83-2.8.25-4a4.15,4.15,0,0,1-.13-3.39A3.5,3.5,0,0,0,3,81.94c-.15-1-.67-2-.24-3a10.63,10.63,0,0,0,.44-3.89c0-1.51-.3-3-.28-4.48.07-7.32-.22-14.65.21-22,.26-4.25,0-8.52.33-12.78.25-3.4.09-6.83.28-10.25.29-4.91.08-9.84.33-14.76C4.26,7.22,4.13,3.61,4.15,0Z"/><path class="cls-3" d="M216.82,0H229.4c0,9.61-.14,19.22.35,28.83,0,.24,0,.48,0,.72.3,4.41.63,8.83.87,13.25.17,3.17.44,6.33.58,9.5.22,4.85.58,9.7.65,14.54.11,8.11.24,16.21-.18,24.32-.26,5.21-.41,10.42-.64,15.63-.19,4.5-.67,8.95-1,13.43-.32,4.9-.62,9.82-.63,14.73,0,13.94-.27,27.87.2,41.81.31,9.12-.1,18.26.32,27.39.26,5.63-.08,11.28.3,16.92.28,4.07,0,8.16.32,12.24.27,3.28.06,6.59.3,9.89.27,3.76.22,7.56.31,11.33.29,12.13,0,24.27.34,36.4.18,6.42.17,12.83.61,19.24.36,5.2.59,10.4,1,15.6.24,3.16.43,6.33.58,9.49.28,5.57.42,11.15.66,16.72s.11,11,.27,16.56c.28,9.9,0,19.82.35,29.73.17,4.68,0,9.38,0,14.07a15,15,0,0,0,.07,2.33c.6,3.73.58,7.52.83,11.28.28,4.24,0,8.51.3,12.77s.15,8.76.3,13.14c.29,8.1.16,16.23,0,24.34l-11.92.05c0-3.3-.09-6.6.24-9.9a20.51,20.51,0,0,0,.34-5c-.52-3.46-.26-7-.48-10.42-.31-4.9-.13-9.83-.38-14.75-.2-4.08,0-8.16-.26-12.24-.27-4.49-.19-9-.34-13.5-.19-5.58-.05-11.18-.06-16.77,0-3.49.16-7-.1-10.46-.3-4.19-.25-8.38-.46-12.57-.29-5.93.1-11.88.2-17.83.17-10.57.21-21.14-.29-31.71,0-.36,0-.72-.06-1.08a103.61,103.61,0,0,1-.82-11.27c-.1-7.93,0-15.87-.08-23.81a61.29,61.29,0,0,0-.39-7.17q-.6-4.81-.76-9.65c-.15-4.56-.3-9.1-.63-13.65q-.43-5.82-.64-11.66-.28-8.26-.65-16.53c-.18-4.2-.13-8.4-.26-12.6-.26-8.22-.13-16.46-.37-24.68s0-16.21-.25-24.33c-.23-7.54-.31-15.1-.13-22.66q.12-5.4.25-10.8c.19-7.51.08-15,.08-22.54a4,4,0,0,0-.21-1.94,2.77,2.77,0,0,1,0-2.4,6.84,6.84,0,0,0,.3-3.32c-.24-1.84-.91-3.76.07-5.62.14-.27,0-.58,0-.88a15.81,15.81,0,0,1,.1-5.53,6.84,6.84,0,0,0,0-2.51,42.58,42.58,0,0,1-.52-5.53c-.05-4.08-.45-8.15-.35-12.23,0-.36-.07-.72-.1-1.08-.16-2.37-.83-4.71-.24-7.12a6.44,6.44,0,0,0,0-1.08c.24-4.28-.44-8.49-.71-12.73a43.36,43.36,0,0,1,0-8.6,4.61,4.61,0,0,0-.24-2.47,6.27,6.27,0,0,1-.29-3.18,88.48,88.48,0,0,0,0-14.56,26,26,0,0,1,0-4.14c.3-3.15.42-6.32.8-9.47A10.34,10.34,0,0,0,216.82,0Z"/><path class="cls-3" d="M153,0h8.49c.43,2.66.33,5.38.65,8.05.12.94-.37,1.73-.31,2.64.15,2,1.19,4,.38,6,.64,1.88.35,3.91.69,5.83a12,12,0,0,1,.13,4.29,10.77,10.77,0,0,0,.08,4.42c.46,2.12,0,4.33.58,6.43a1.18,1.18,0,0,1-.07.86c-.91,1.08-.57,2.4-.48,3.6.29,3.7.54,7.41.55,11.13,0,9.44,0,18.87,0,28.31a9.66,9.66,0,0,1-.11,1.62,11.1,11.1,0,0,0-.11,3.4c.35,3.64.45,7.31.5,11,.1,6.6.17,13.21-.16,19.82-.21,4.13-.52,8.25-.78,12.37-.24,3.65-.61,7.28-.57,10.94a41.67,41.67,0,0,1,0,4.33c-.31,3.52-.38,7.06-.52,10.59-.2,5.52-.08,11.06-.08,16.59a18.63,18.63,0,0,0,.22,2.68,19.34,19.34,0,0,1,0,5.21,6.49,6.49,0,0,0-.26,2.55,26.65,26.65,0,0,1,.59,6.05,92.7,92.7,0,0,1-.2,10.8,36.21,36.21,0,0,0,.18,5.2c.15,3.41.09,6.82.09,10.24,0,1.06.13,2.18-.68,3-.35.36-.05.8,0,1.18a28.6,28.6,0,0,1,.33,10.87,7.2,7.2,0,0,0,.15,4.21,5.31,5.31,0,0,1,.16,2c.17,3.73-.37,7.42-.33,11.15.06,6.07,0,12.15,0,18.22,0,4.09.13,8.19-.1,12.26-.25,4.61-.17,9.23-.52,13.84-.12,1.62.32,3.2.29,4.84-.1,6.36.14,12.72-.23,19.09-.24,4.19-.11,8.42-.11,12.62,0,11.17,0,22.34.59,33.5.21,3.95.5,7.91.42,11.87a3.45,3.45,0,0,0,0,.72c.47,3,.31,6.1.5,9.15.42,6.9-.17,13.8-.3,20.71a131.66,131.66,0,0,0,1.06,18.1q.74,6.06.87,12.17c0,1.75-.23,3.47-.27,5.2-.06,3.31,0,6.62-.06,9.92a10.55,10.55,0,0,0,.47,3.54,4.67,4.67,0,0,1,0,3c-.72,2.22-.44,4.48-.3,6.76a40.71,40.71,0,0,1,.34,6.44,41.67,41.67,0,0,0-.48,7l-12.91,0c0-2.77.05-5.52.24-8.27.24-3.41.07-6.83.3-10.26.29-4.3,0-8.63.32-12.95.29-4.48,0-9,.31-13.5s0-9,.32-13.49c.28-3.76,0-7.56.32-11.34.26-3.21.21-6.47.28-9.7.13-5.88.46-11.76.38-17.65,0-2-.28-4.05-.28-6.1,0-3.05-.06-6.11-.23-9.17-.27-5.2-.39-10.42-.67-15.63-.17-3.29-.06-6.59-.28-9.89-.28-4.3-.05-8.63-.32-13-.29-4.61-.08-9.24-.3-13.86-.34-7.13,0-14.29-.34-21.43-.31-5.88.3-11.76.23-17.64,0-1.81,0-3.61,0-5.41-.1-20.25.36-40.5-.23-60.75-.18-5.87-.35-11.74-.62-17.61-.19-4.13-.55-8.26-.42-12.41,0-.48-.07-1-.09-1.44-.08-3.25-.65-6.53.29-9.75a2.71,2.71,0,0,0-.1-.87,128.68,128.68,0,0,1-.71-13.46c.11-5.58-.17-11.16.27-16.74.24-3,.07-6.11.3-9.17.26-3.52.09-7.07.32-10.61.27-4.07.19-8.16.28-12.23.14-6.55.43-13.09.41-19.63,0-3.07.31-6.11.4-9.17a22.62,22.62,0,0,1,0-3.68,22.26,22.26,0,0,0,.23-4.31q0-6.21,0-12.44a13,13,0,0,1,.65-4.4c.09-.27.27-.69.18-.83a3.35,3.35,0,0,1-.08-3.39.67.67,0,0,0,0-.5,4.84,4.84,0,0,1-.53-2.77c0-2.27-.69-4.62.4-6.8a.83.83,0,0,0,0-.69,2.91,2.91,0,0,1,.06-2.26,8.08,8.08,0,0,0,.35-2.65,10.74,10.74,0,0,1,.26-3.57,1.22,1.22,0,0,0-.18-1.18c-.46-.54-.3-1.22-.38-1.86-.12-1,.53-1.89.21-2.82a4.61,4.61,0,0,1,.27-3.28,6.84,6.84,0,0,0,0-4.86,3.85,3.85,0,0,1-.38-1.7A75.79,75.79,0,0,0,153,0Z"/><path class="cls-3" d="M55.15,476.21c.29-5.1.14-10.21.37-15.3q.16-3.78.21-7.55c.07-6.37.28-12.73.43-19.09.09-4.08,0-8.18.28-12.24.24-3.42.05-6.85.31-10.25.25-3.12.08-6.25.3-9.35.46-6.13.25-12.25.2-18.38,0-5.15-.34-10.3-.59-15.45-.17-3.6-.17-7.2-.38-10.79-.18-2.94-.08-5.88-.26-8.81-.32-4.92-.1-9.86-.37-14.76-.25-4.63-.11-9.25-.26-13.87-.65-20.19-.28-40.38-.17-60.57.05-8.11.26-16.22.11-24.32-.12-6.61,0-13.22-.3-19.82-.13-3.17-.1-6.36-.28-9.53-.26-4.61-.38-9.22-.67-13.82-.27-4.39-.17-8.77-.27-13.15a8.09,8.09,0,0,0-.14-2.14,1.51,1.51,0,0,1-.06-.88c1-1.85.06-3.71.06-5.56,0-.3-.09-.6-.11-.89q-.6-10.08-.25-20.17c.12-3.24,0-6.49.29-9.71s.06-6.25.31-9.35c.34-4.09,0-8.18.33-12.24.32-4.5,0-9,.31-13.5.27-4.2.05-8.41.32-12.6.18-2.82.1-5.64.28-8.45.44-6.75.28-13.51.26-20.26a14.84,14.84,0,0,1,.49-4.26c.26-.86.56-1.67-.07-2.5a.83.83,0,0,1,0-.69c.93-1.76-.15-3.46-.09-5.2a21.09,21.09,0,0,0-.2-5.38c-.06-.29-.08-.75.14-.83.91-.33.63-.89.3-1.49a1.56,1.56,0,0,1,0-1.38,9.17,9.17,0,0,0,.42-3.54,9.13,9.13,0,0,1,.24-2.85,1.91,1.91,0,0,0,0-1.41,5,5,0,0,1-.13-4,1,1,0,0,0,0-.69c-.6-1.4-.09-2.66.34-4a5.34,5.34,0,0,0,.07-3.35c-.89-2.59-.52-5.24-.41-7.85.08-1.73.18-3.47.2-5.2,0-2.95,0-5.89,0-8.84h7.55c0,3.36.59,6.67.83,10,.2,2.87.73,5.77.4,8.61-.26,2.17.35,4.11.47,6.16,0,.24.21.57.14.68-.79,1.11.07,2.13.09,3.19,0,.06.06.12,0,.17-.35,2.29.44,4.47.52,6.72a3.74,3.74,0,0,1-.15,1.6,5.05,5.05,0,0,0-.07,3.65,6.37,6.37,0,0,1,.23,2.13A19.45,19.45,0,0,0,67.09,47c.16.84.44,1.6-.41,2.2-.33.24-.21.77-.18,1.19.36,3.81.46,7.65.61,11.48.27,6.78.45,13.58.19,20.35-.25,6.37-.44,12.74-.14,19.09.37,8,.23,16.09.19,24.14a115.75,115.75,0,0,1-.85,12.89c-.14,1.25-.2,2.52-.23,3.76-.08,3.23-.55,6.44-.36,9.7.13,2.37-.13,4.78-.23,7.17,0,.42-.13.83-.14,1.24-.19,6.78-.49,13.56-.38,20.35a35.63,35.63,0,0,0,.49,5.18,7.92,7.92,0,0,1,0,3.56,12.35,12.35,0,0,0,0,5.64,18.28,18.28,0,0,1,.18,2.33c0,6.31,0,12.62,0,18.93,0,2.64.42,5.26.29,7.91a9.33,9.33,0,0,1-.69,3.65,2.38,2.38,0,0,0-.07,1.72,28.77,28.77,0,0,1,.2,11.21,6.54,6.54,0,0,0,.12,3.13,9.78,9.78,0,0,1,.26,5,8.94,8.94,0,0,0-.11,1.8c-.21,11.83-.41,23.66-.32,35.5,0,4.21-.27,8.4-.43,12.59-.07,2,.11,3.93.1,5.9,0,7.33.2,14.68-.08,22-.37,9.43-.23,18.86-.16,28.29,0,4,.13,8,.31,12.05.22,4.91.32,9.83.64,14.73.55,8.33.76,16.67.49,25-.15,4.44-.27,8.88-.23,13.32,0,2.88.45,5.72.74,8.57s.52,5.6.83,8.39A75.77,75.77,0,0,1,68,449c-.18,3.42-.21,6.83-.25,10.25a10.08,10.08,0,0,0,.56,3.87,4.14,4.14,0,0,1,0,3.13,10,10,0,0,0-.35,5.29c.23,1.53.08,3.12.35,4.65Z"/><path class="cls-3" d="M108.28,0h7.55c0,.24,0,.48,0,.72a82.46,82.46,0,0,0,.73,9.3c.15,1.73.12,3.48.34,5.2a10.55,10.55,0,0,1,0,4.61,2.17,2.17,0,0,0,0,.88c.16,2,1.17,3.95.35,6a.26.26,0,0,0,0,.17c.7,1.93.38,4,.73,6a7.64,7.64,0,0,1,.21,3.72,7,7,0,0,0-.13,4c.58,2.2.11,4.55.63,6.77a1.44,1.44,0,0,1-.13,1.22,3.39,3.39,0,0,0-.41,2.91,51.66,51.66,0,0,1,.45,7.34c.13,5.7.38,11.4.36,17.1,0,1.55-.23,3.11-.21,4.66.07,8.29-.17,16.57.17,24.86q.47,11.5-.14,23c-.21,3.95-.55,7.89-.78,11.83-.22,3.65-.59,7.28-.54,10.94,0,1.2,0,2.41,0,3.61-.18,3.71-.49,7.41-.56,11.12-.11,5.35-.06,10.7-.06,16a21.07,21.07,0,0,0,.21,2.5,15.43,15.43,0,0,1-.07,5.71,4.71,4.71,0,0,0-.12,2,39.58,39.58,0,0,1,.59,6.24c0,6.55,0,13.11,0,19.66a16.55,16.55,0,0,0,.16,2.32,16.71,16.71,0,0,1-.4,6.58,6.13,6.13,0,0,0-.18,2.91,32.71,32.71,0,0,1,.2,9.83c-.11,1-.63,2.06-.18,3.16a9.28,9.28,0,0,1,.42,3.36c0,3.49-.27,7-.3,10.44-.08,10.15-.06,20.31-.08,30.47a15.4,15.4,0,0,1,0,1.8c-.48,4.05-.06,8.15-.53,12.21-.15,1.36.29,2.72.28,4.12,0,7.5-.08,15-.22,22.51-.24,11.89-.3,23.79.18,35.68l.6,14.19c.21,5.15.48,10.29.68,15.44.26,6.91-.14,13.81-.33,20.71a119.36,119.36,0,0,0,1,17.74c.43,3.56.74,7.13.84,10.72.07,2.64,0,5.27-.21,7.91-.2,3.11-.06,6.25-.09,9.38a10,10,0,0,0,.46,3.35,4.61,4.61,0,0,1,0,3,10.14,10.14,0,0,0-.42,4.78,56.89,56.89,0,0,0,.56,5.71h-.31c-.46-.6-1.08-.34-1.62-.35-3.75,0-7.51,0-11.26,0,0-2.52.08-5,.23-7.55.23-4,0-8,.29-12.06.3-4.72,0-9.48.34-14.22.27-4.25,0-8.52.3-12.78.28-4.06,0-8.16.33-12.24.25-3.1.08-6.23.29-9.35.26-3.88.21-7.8.32-11.7a123.92,123.92,0,0,0-.16-12.78c-.29-3.64-.12-7.31-.31-11-.26-5.15-.41-10.31-.66-15.46-.18-3.47-.07-6.95-.3-10.43-.28-4.25-.05-8.52-.3-12.78-.29-5-.2-10.08-.31-15.13-.22-9.79-.07-19.6-.12-29.4-.1-25,.42-50-.23-75-.15-5.51-.36-11-.6-16.53-.18-4-.55-8-.43-12.06,0-.95-.11-1.91-.17-2.86-.13-2.16-.08-4.33-.08-6.49a1.64,1.64,0,0,1,.24-.83,1.87,1.87,0,0,0,.17-1.52,83,83,0,0,1-.7-9.84c-.06-6.36-.26-12.73.21-19.09.22-3,0-6.12.29-9.18.27-3.34.1-6.71.32-10.07.28-4.13.2-8.28.28-12.42.13-7,.44-14,.44-21.07,0-3.06.32-6.11.37-9.17a34.13,34.13,0,0,1,0-3.51,34.76,34.76,0,0,0,.19-3.94q0-6.67,0-13.35a12.08,12.08,0,0,1,.4-3.19c.24-.91.68-1.71,0-2.67a2,2,0,0,1,0-1.57,2.58,2.58,0,0,0,.19-1.4,35.2,35.2,0,0,1-.6-7.67c0-.62-.22-1.35.59-1.64.33-.12.22-.51,0-.74a2.17,2.17,0,0,1-.12-2,10.56,10.56,0,0,0,.4-3.37,9.14,9.14,0,0,1,.26-3.21,1.41,1.41,0,0,0-.08-1.22c-.78-1.13-.47-2.39-.33-3.62a2.11,2.11,0,0,0,.07-1,2.44,2.44,0,0,1-.2-1.22c.06-.34.71.27.53-.43a3,3,0,0,1-.25-1.22,1.21,1.21,0,0,1,.08-.34c1-1.63.64-3.33.15-5a6.66,6.66,0,0,1-.25-2.12c0-2.76.12-5.51.26-8.27C108.39,7,108.27,3.49,108.28,0Z"/><path class="cls-3" d="M45.36,0c0,1.38-.87,2.78.08,4.15a.59.59,0,0,1-.19.44c-.76.46-.56,1.22-.44,1.9a19.68,19.68,0,0,1,0,6.08A8.44,8.44,0,0,0,45.07,17a1.56,1.56,0,0,1-.18,1.66A2.27,2.27,0,0,0,44.68,21c.24.66.34,1.38.52,2.07a1.32,1.32,0,0,1,0,1.05,2.24,2.24,0,0,0,0,2.34,1.39,1.39,0,0,1,0,1.21c-.38.63-.42-.07-.8-.34.1,1.79-.44,3.61.17,5.11A7.17,7.17,0,0,1,45,35.89a27.86,27.86,0,0,1-.69,4,3.42,3.42,0,0,0,.06,2.1c.47,1.17.31,2.48.62,3.7.17.67-.33.72-.68,1s-1.19.63-.23,1.31c.05,0,0,.23,0,.35-.18,3.4.5,6.82-.17,10.21-.11.55-.22,1.06.4,1.34.4.18.23.55.21.91-.19,2.57-.47,5.12-.42,7.71a43.07,43.07,0,0,0,1.08,9.06A21.17,21.17,0,0,1,45.64,82c.07,3.55.18,7.11,0,10.64-.25,4.18-.5,8.36-.79,12.54a130.89,130.89,0,0,0-.35,15.47c.07,1.25.26,2.5.26,3.76a3.18,3.18,0,0,1-.07,1.25c-.81,1.57-.26,3.13,0,4.67.18,1.25.22,2.52.28,3.76a151,151,0,0,1,0,15.49c0,1.08-.12,2.15-.13,3.23,0,3,0,6,0,9,0,1.16.22,2.33-.51,3.45-.36.56-.13,1.52,0,2.29a10.7,10.7,0,0,1,0,3.57,30.33,30.33,0,0,0-.09,5.22,12.84,12.84,0,0,1-.49,5.09,1,1,0,0,0-.06.52c.5,1.87-.16,3.68-.16,5.62-.5-.45,0-1.17-.51-1.58a3.5,3.5,0,0,0,.08,3.54,2.17,2.17,0,0,1,.48,1.28c0,1.62.06,3.26-.11,4.86a30.79,30.79,0,0,0-.19,3.58c0,2-.36,3.93-.53,5.89a65.18,65.18,0,0,0-.24,12.57,19.33,19.33,0,0,1,.09,2.15c0,3.91.25,7.79.59,11.67.18,2.08.17,4.19.28,6.28.15,2.75.39,5.5.42,8.27s0,5.27.24,7.91c.29,2.87-.33,5.74-.23,8.62,0,.67-.27,1.48.56,1.86.24.11.1.42.08.64a2.79,2.79,0,0,0,.57,2.49c.18.17.31.41.17.62-.85,1.27,0,2.53.06,3.77a5.24,5.24,0,0,1-.33,2.89c-.28-.06-.31-.54-.64-.44-.05.08-.16.18-.15.26.17,2.69.35,5.37.52,8.06q.06.81.06,1.62c0,3.54,0,7.09,0,10.64a68.75,68.75,0,0,0,.57,7.87c0,.24,0,.48.07.72.36,5.63.36,11.28.32,16.92a7,7,0,0,1-.22,1.59,11.52,11.52,0,0,0,0,5.32,21.19,21.19,0,0,1,.07,7.15,58,58,0,0,0-.68,11.1c.29,3.7.54,7.4.58,11.12a38.65,38.65,0,0,1-.47,5.18,15.17,15.17,0,0,0-.16,2.32,22.64,22.64,0,0,1-.56,6.42,2.79,2.79,0,0,0,.09,2.11,5,5,0,0,1,.36,3.47,43.29,43.29,0,0,0-.33,8.75,41.27,41.27,0,0,1-.07,7.37,29.29,29.29,0,0,0,.08,7.54,21,21,0,0,1,.14,2.87c.14,4.27-.19,8.53-.42,12.78-.26,4.79-.43,9.58-.66,14.36-.16,3.49-.3,7-.13,10.44.23,4.68.06,9.37.29,14,.23,4.91.35,9.83.63,14.73.13,2.34.28,4.67.26,7l-10.69,0c-.07-1.56.16-3.11.23-4.66.18-3.65.09-7.31.3-11,.29-4.85,0-9.72.33-14.58.27-3.58.1-7.19.3-10.8.3-5.5.18-11,.28-16.56.17-8.76.21-17.53-.12-26.3-.22-6.11-.22-12.25-.38-18.37-.09-3.12-.34-6.22-.42-9.34,0-1.6-.11-3.24-.3-4.84a116,116,0,0,1-.81-12.35c-.07-5.94-.15-11.88.16-17.83a87.93,87.93,0,0,0-.15-11.7c-.31-3.76.17-7.55.19-11.33.06-11.17.37-22.34-.23-33.51-.15-2.81-.12-5.63-.25-8.45-.26-5.39-.38-10.78-.69-16.17-.14-2.45-.17-4.91-.26-7.37a156.71,156.71,0,0,1,.31-20,37.42,37.42,0,0,0-.39-9.64A26.68,26.68,0,0,1,31.5,207c0-4.86.48-9.68.87-14.51.32-4.06.43-8.14.67-12.2.29-5.09.47-10.19.59-15.28a159.86,159.86,0,0,0-.16-16.38c-.28-3.64-.17-7.31-.29-11-.25-7.68-.18-15.38.29-23a44.94,44.94,0,0,1,.8-7.66,11.17,11.17,0,0,0,.33-4.28,63.17,63.17,0,0,1-.27-8.81c0-.28-.08-.63.15-.84,1.48-1.26.85-2.78.26-4.13a3.44,3.44,0,0,1,0-3.34,1.46,1.46,0,0,0,.14-1.3,6.9,6.9,0,0,1,0-4.7,3.87,3.87,0,0,0,.1-1.42c.07-2.28-.28-4.55-.27-6.82,0-6.49-.21-13,.19-19.46.27-4.36,0-8.76.33-13.13.26-3.41.12-6.84.28-10.26.26-5.33.16-10.68.36-16,.14-4.14,0-8.29.05-12.44Z"/><path class="cls-3" d="M91.29,0h9.13c0,1-.18,1.93-.17,2.85s.47,1.82-.34,2.59c-.07.07.1.44.13.68a20.85,20.85,0,0,1,.16,5.53,11.33,11.33,0,0,0-.12,4.27,4.16,4.16,0,0,1-.22,3.43,1.6,1.6,0,0,0,0,1.4c1,2.07.16,4.34.59,6.47,0,.27.14.68-.11.87-.38-.06-.09-.62-.51-.62a22.76,22.76,0,0,1-.26,3.39A1.94,1.94,0,0,0,100,33c.55.44.45,1.21.34,1.84-.28,1.52-.29,3.1-.71,4.6a5.66,5.66,0,0,0,0,3,9.84,9.84,0,0,1,.44,3c0,.35.1.84-.21,1-1.07.51-.78,1.46-.73,2.39,0,1.14.11,2.27.22,3.4a32.61,32.61,0,0,1,0,5c-.07,1-.57,2.07.3,3,.17.17.12.71,0,1a44.11,44.11,0,0,0-.3,7.18,24.84,24.84,0,0,0,.69,7.66c.76,2.57.64,5.22.84,7.82.35,4.32-.29,8.63-.28,13a1.09,1.09,0,0,1,0,.18c-.52,4-.62,8-.82,12-.23,4.5-.13,9,0,13.53a12,12,0,0,1-.33,4.38,2.64,2.64,0,0,0,0,1.25,100.31,100.31,0,0,1,.88,13.43c0,1.69-.24,3.34-.26,5-.05,4.81,0,9.62-.09,14.43,0,1.41.32,2.88-.54,4.17-.16.23-.06.7-.06,1.06q0,5.5,0,11a7.55,7.55,0,0,1-.08,1.26,26.1,26.1,0,0,0-.54,5.86c0,1.14,0,2.29,0,3.43a1.48,1.48,0,0,1-.34-1,2.34,2.34,0,0,0-.12-1.05,3.66,3.66,0,0,0,0,3.9,2.19,2.19,0,0,1,.39,1.83,13.42,13.42,0,0,0-.2,3.22,59,59,0,0,1-.66,10.39,27.25,27.25,0,0,0-.3,5c.06,4.14,0,8.28.21,12.42.19,3.11.34,6.23.47,9.34.09,2.16.15,4.32.31,6.47.3,3.94.51,7.89.56,11.85s0,8.17,0,12.26a4.06,4.06,0,0,0,.16,1.76c.52,1.18.11,2.69,1,3.73.06.06,0,.36-.11.49a2.1,2.1,0,0,0,0,2,11.47,11.47,0,0,1,.21,3.75c0,.17-.08.43-.24.37-1.25-.48-.7.69-.69,1.09.06,3.18.44,6.34.35,9.53a1.45,1.45,0,0,0,0,.36,33.06,33.06,0,0,1,0,7.89,15,15,0,0,0,0,3.41c.45,3.62.76,7.26.85,10.91,0,1.74,0,3.49,0,5.23,0,1.08.44,2.14.21,3.21a17.71,17.71,0,0,0-.21,3.41,19.74,19.74,0,0,1-.28,3.75,6.62,6.62,0,0,0,.05,3.22c.88,3,.54,6.07.07,9.08a60.42,60.42,0,0,0-.44,12c.18,3.94.67,7.86.26,11.82a26.82,26.82,0,0,0-.31,3.21,35.69,35.69,0,0,1-.68,8.2,2.8,2.8,0,0,0,.26,2.22,3.41,3.41,0,0,1,.28,2.6,25.11,25.11,0,0,0-.51,5.34c-.06,5.41.3,10.82-.25,16.21a3.56,3.56,0,0,0,.14,1.06,34.5,34.5,0,0,1,.36,9c-.24,3.65-.36,7.3-.58,10.95-.26,4.42-.55,8.85-.59,13.29-.07,7.57,0,15.13.26,22.7.11,3.72.5,7.42.38,11.15a4.9,4.9,0,0,0,0,.54c.33,3.4.37,6.81.54,10.22l-10.69,0c0-2.7.1-5.4.25-8.1.25-4.48,0-9,.32-13.5.27-4.12,0-8.27.3-12.41.27-4.55.3-9.13.32-13.68.1-16.53.32-33.05-.19-49.58-.13-4.14-.39-8.27-.45-12.41a51.07,51.07,0,0,0-.31-5.38A87.22,87.22,0,0,1,88.53,351c0-15.56-.25-31.12.15-46.69.23-8.82.26-17.65-.13-26.49q-.3-6.74-.4-13.49c-.06-3.48-.47-6.95-.36-10.44a2.17,2.17,0,0,0,0-.36c-.51-3.62-.14-7.3-.53-10.95-.23-2.13.09-4.33-.19-6.47a31.45,31.45,0,0,1-.1-5.4c.13-2.87.47-5.73.52-8.6a83.33,83.33,0,0,0-.49-12,61.52,61.52,0,0,1,.29-14c.42-4.05.54-8.12.81-12.17.27-4.25.56-8.51.58-12.75,0-5.75.55-11.49.19-17.26-.27-4.19-.16-8.4-.34-12.6-.19-4.44,0-8.9-.08-13.35,0-5,.1-10,.36-14.94a23.25,23.25,0,0,1,.39-4.1,29.05,29.05,0,0,0,.52-7.5,67.71,67.71,0,0,1-.29-6.83c0-.47-.11-1,.23-1.37,1.31-1.34.88-3,.37-4.37a3.94,3.94,0,0,1-.12-2.91,3.59,3.59,0,0,0,0-2.73,4,4,0,0,1,0-2.81,6.14,6.14,0,0,0,.31-3.51A19.77,19.77,0,0,1,90.05,74c.06-9.25-.27-18.5.25-27.75.2-3.65.14-7.32.26-11,.16-5.15.34-10.31.41-15.48C91.07,13.21,90.8,6.6,91.29,0ZM88.06,225.64c-.53,1.18-.53,1.18-.09,1.8A2.72,2.72,0,0,0,88.06,225.64Z"/><path class="cls-3" d="M207.7,0a68.22,68.22,0,0,1,.36,7c.34,5.51.4,11,.67,16.53.28,5.71.15,11.41.26,17.11.64,31.5.14,63,.3,94.49,0,3.54-.4,7.06-.57,10.58s-.16,7.1,0,10.64c.14,4.2.13,8.41.35,12.6.37,7.21,0,14.42.31,21.61.28,6.31,0,12.62.33,18.91.24,4.87,0,9.74.29,14.59.27,4.5,0,9,.33,13.5.24,3.78,0,7.57.3,11.33s.05,7.45.32,11.16c.23,3.06.12,6.12.28,9.17.37,6.89.42,13.79.69,20.68.26,6.67,0,13.34.27,20,.18,4.8.09,9.61.33,14.4.49,9.91.33,19.83.15,29.73-.08,4.54-.37,9.09-.77,13.63-.19,2.19-.29,4.42-.36,6.63-.17,5.1-.55,10.18-.76,15.27-.09,2.33-.07,4.68-.26,7-.51,6.36-.27,12.73-.21,19.09,0,4.91.3,9.83.59,14.73.22,3.71.14,7.43.56,11.13,0,.23,0,.48,0,.72.1,9.07.5,18.13.38,27.21,0,1.8.36,3.57.26,5.38-.08,1.41,0,1.46-1.24,1.45-2.72,0-5.45.12-8.17-.08,0-2.77-.09-5.54,0-8.3.42-11.29.55-22.59.21-33.88-.44-14.42-.22-28.83-.14-43.25,0-5.46.3-10.93.13-16.38-.19-5.95,0-11.9-.32-17.83-.17-3.54,0-7.09-.28-10.61-.31-4.18-.34-8.37-.81-12.54-.26-2.31-.24-4.67-.34-7-.57-13.27-.37-26.55-.36-39.83q0-4.95,0-9.92c0-2.34,0-4.67.2-7,.19-2.56-.25-5.13-.23-7.72.06-6.91-.14-13.83.07-20.74.14-4.56.32-9.12.17-13.68-.14-3.83-.11-7.68-.31-11.51-.5-9.31-.39-18.62-.15-27.92.15-5.89.16-11.77.23-17.65a15.84,15.84,0,0,0-.43-4.09,22.79,22.79,0,0,1-.56-5.7c0-4.15-.15-8.31.11-12.44.25-3.91.27-7.8.19-11.7-.07-3-.42-6-.72-8.94-.07-.71-.17-1.42-.17-2.14,0-4.45,0-8.9,0-13.35a16.44,16.44,0,0,0-.48-4.44,8.81,8.81,0,0,1,0-4.75,3.83,3.83,0,0,0-.1-2.46,9,9,0,0,1-.39-3.72c.31-5.76.45-11.53.27-17.29a55,55,0,0,0-1-11.59,3.56,3.56,0,0,1,0-2.12,9.92,9.92,0,0,0,.06-5.48c-.43-2.2-.74-4.35.11-6.51.62-1.6.05-3.2-.13-4.78a20,20,0,0,1-.18-2.32c0-2.94,0-5.89,0-8.83a41.67,41.67,0,0,0-.57-6.79,5,5,0,0,1,.09-2.13,27.22,27.22,0,0,0,.6-8.7c-.27-5.88-.21-11.77,0-17.66,0-.82.16-1.66.21-2.5Z"/><path class="cls-3" d="M118,0h10.39c.07,3.9.18,7.8.23,11.7.15,11.84,0,23.68.11,35.52,0,5.89-.29,11.77-.36,17.65,0,.24,0,.48,0,.72-.29,3.76-.79,7.51-.83,11.27-.1,9.19-.15,18.37.16,27.57.22,6.47.38,13,.41,19.45,0,2-.27,3.94-.27,5.92,0,5.95-.06,11.9-.07,17.86,0,1.5-.48,3-.2,4.47a18.44,18.44,0,0,1,.2,3.23c0,3.24,0,6.49,0,9.73a17,17,0,0,0,.13,2.15,15.63,15.63,0,0,1,0,5.54A6.29,6.29,0,0,0,128,176a6.6,6.6,0,0,1,.37,1.74c.08,2.34.4,4.66.33,7-.1,3.9-.2,7.8-.21,11.69,0,10.8-.6,21.62.48,32.41.36,3.5.54,7,.61,10.57.1,4.62.5,9.22.64,13.83.25,8,.1,16-.29,24,0,.12,0,.24,0,.36a129.67,129.67,0,0,0-.32,13.08c0,3.9.41,7.77.6,11.66s.53,7.9.37,11.87c-.08,1.86-.37,3.69-.29,5.57.15,3.18-.3,6.34-.4,9.52-.06,1.78-.13,3.59-.29,5.38-.36,3.94-.62,7.88-.59,11.84,0,1.91.29,3.84-.25,5.73a1.44,1.44,0,0,0,0,.71,39.54,39.54,0,0,1,.79,7.83c.33,5.68.32,11.39.67,17.07.16,2.57.13,5.16.26,7.73.18,3.65.28,7.32.38,11,.07,2.4.21,4.81.43,7.18.47,5.18.87,10.38,1.08,15.57.18,4.61.39,9.23.41,13.86,0,4.86-.33,9.71-.41,14.58,0,2-.13,4.07-.29,6.1-.27,3.39-.58,6.79-.87,10.18-.24,2.86-.37,5.74-.75,8.58-.16,1.23,0,2.54-.51,3.7l-7.83-.05c.82-6.75,2-13.44,2.6-20.24.43-4.65.59-9.32.74-14,.22-7.26.08-14.53-.2-21.8-.13-3.35-.5-6.7-.39-10.06a2.17,2.17,0,0,0,0-.36c-.29-4.3-.65-8.59-.86-12.9-.11-2.27-.32-4.54-.42-6.81-.16-3.89-.61-7.75-.83-11.64-.19-3.52-.42-7.05-.61-10.58-.31-5.62-.58-11.26-.63-16.89,0-6-.1-12,.16-18a196.75,196.75,0,0,0-.25-20.17l0-.54c-.29-2.79-.63-5.58-.85-8.38-.26-3.34-.49-6.68-.61-10-.14-3.9-.21-7.8-.3-11.7-.29-12.67.22-25.35-.34-38-.19-4.32,0-8.64-.28-13-.31-4.91-.1-9.84-.29-14.77a128.25,128.25,0,0,1,.13-13.86c.26-3.94.26-7.91.34-11.87.16-8.17,0-16.35.09-24.52.07-7.57-.2-15.14.21-22.71.24-4.48.23-9,.34-13.49.33-12.43-.12-24.87.28-37.31.34-10.32,0-20.66.32-31,.15-4.67,0-9.36-.13-14-.19-8.7-.28-17.4-.71-26.09-.11-2.34-.28-4.67-.41-7C118.94,9.64,118.44,4.83,118,0Z"/><path class="cls-3" d="M78.41,476.21c.41-2.77.85-5.54,1.23-8.32s.74-5.68,1.09-8.52c.18-1.48.4-3,.46-4.45.1-2.58.26-5.16.42-7.72.46-7.39.24-14.78.19-22.16,0-5.15-.33-10.31-.63-15.45-.2-3.47-.45-6.93-.62-10.4-.18-3.76-.58-7.51-.85-11.27-.13-1.79-.2-3.59-.29-5.38-.12-2.52-.28-5-.46-7.54-.34-5-.35-9.94-.83-14.88a2.17,2.17,0,0,1,0-.36c0-7-.65-14.06-.28-21.07.34-6.31.23-12.61.2-18.92a109.38,109.38,0,0,0-.83-12.53c-.16-1.36-.27-2.75-.32-4.11-.1-2.82-.29-5.64-.46-8.44-.24-3.84-.07-7.69-.29-11.52-.48-8.46-.11-16.93-.24-25.4-.06-4,.1-8.07-.08-12.08-.21-4.81-.1-9.61-.31-14.41-.52-11.59-.37-23.19-.16-34.78.09-5.1,0-10.21.29-15.3a85.78,85.78,0,0,0,.18-8.63c-.4-7.26-.28-14.53-.17-21.79.08-4.8,0-9.62.32-14.4.22-3.73.14-7.44.25-11.16.55-17.36,0-34.74.38-52.1.22-9.07.24-18.14.13-27.2,0-4.68-.06-9.37-.28-14-.21-4.31-.33-8.63-.6-12.93s-.5-8.49-1-12.7C74.61,4.17,74.88,2,74.3,0H84.69c.09,2.21.26,4.43.27,6.64Q85,22.87,85,39.1c0,8.89.09,17.78-.36,26.66,0,.3,0,.61,0,.9a88.66,88.66,0,0,0-.79,10.91c-.14,8.28-.27,16.57.16,24.86.25,4.66.21,9.35.32,14,.13,5.94,0,11.88-.16,17.83-.22,10.27-.08,20.55-.08,30.83a13.94,13.94,0,0,0,.18,2.14,12.92,12.92,0,0,1,0,5.67,5.42,5.42,0,0,0,.09,3,20.1,20.1,0,0,1,.69,5.31c.05,6.9,0,13.81-.25,20.71-.08,2,0,4,0,5.95.09,5.16-.18,10.31.22,15.48.36,4.71.78,9.42.93,14.15s.51,9.58.63,14.36c.18,7.14.23,14.28-.15,21.43-.25,4.79-.56,9.59-.43,14.4.07,2.7-.12,5.42.11,8.11.51,6,.89,12.06.87,18.12,0,2.11-.31,4.19-.28,6.28,0,3.25-.31,6.47-.44,9.71-.06,1.72-.13,3.47-.28,5.2a117.13,117.13,0,0,0-.55,13.64,7,7,0,0,1-.06,2.15,7.2,7.2,0,0,0,.11,3.52,39.41,39.41,0,0,1,.47,5.18c.31,5.68.33,11.38.68,17.06.15,2.46.16,4.92.25,7.37q.3,8.08.67,16.17c.18,3.71.48,7.41.78,11.1.41,5.08.47,10.17.79,15.25.17,2.81,0,5.65,0,8.47,0,5.28-.3,10.55-.56,15.81-.18,3.72-.48,7.41-.74,11.11-.31,4.42-.82,8.81-1.21,13.21-.07.88-.41,1.12-1.1,1.1C83.12,476.25,80.76,476.24,78.41,476.21Z"/><path class="cls-3" d="M164,0h9.43c.1,1.85.29,3.71.27,5.56-.09,14.6.35,29.2-.21,43.79-.14,3.78-.25,7.54-.63,11.3-.51,5-.31,10.06-.62,15.09-.12,2,.1,4.07.17,6.1.18,5.22.27,10.44.32,15.66.15,13,.34,26-.18,38.92-.27,6.61.4,13.2.25,19.81a7.45,7.45,0,0,0,.12,1.25,14,14,0,0,1,0,5.17,7.18,7.18,0,0,0,.15,3.56,6.2,6.2,0,0,1,.36,1.74c0,2.4.4,4.77.34,7.18q-.14,4.68-.23,9.35c-.14,9.19-.06,18.39-.07,27.59q0,.72.06,1.44c.28,3.64.6,7.27.85,10.91.15,2.21.13,4.43.25,6.64.22,4.19.55,8.38.64,12.56.14,5.82.19,11.64-.15,17.47-.33,5.5-.47,11-.65,16.53a80,80,0,0,0,.33,9.16c.14,1.61.14,3.23.33,4.84.43,3.63.34,7.3.41,10.94,0,2.31-.09,4.67-.19,7-.21,4.79-.38,9.58-.69,14.36-.22,3.28-.58,6.56-.59,9.86,0,2.16.14,4.34,0,6.48a17.27,17.27,0,0,0,.06,4.6,13.49,13.49,0,0,1,.26,1.77c.22,4.31.44,8.62.62,12.93.12,2.93.15,5.87.27,8.81.24,5.74.39,11.5.67,17.25.16,3.41.35,6.81.63,10.21q.59,7.16.94,14.33c.18,3.71.06,7.44.29,11.16a61.56,61.56,0,0,1-.15,7.18c-.22,3.89-.13,7.79-.35,11.69-.13,2.39-.34,4.78-.46,7.18-.07,1.42-.16,2.86-.3,4.29-.28,3-.56,6.07-.87,9.1-.25,2.43-.5,4.87-.84,7.29-.37,2.72-.85,5.42-1.07,8.16l-7.53,0a23.5,23.5,0,0,1,0-2.52c.61-5,1.17-10.09,1.93-15.09.72-4.72,1.35-9.46,1.73-14.22s.55-9.57.65-14.36c.14-6.49,0-13-.24-19.45-.11-3.18-.32-6.35-.43-9.53-.07-2-.14-4.07-.28-6.1-.27-3.88-.66-7.75-.83-11.63-.11-2.46-.36-4.9-.45-7.36,0-1.73-.16-3.47-.3-5.2q-.62-7.51-.89-15.06a18,18,0,0,0,0-1.8,111.69,111.69,0,0,1-.48-11.85c-.17-7.19-.23-14.4.13-21.61a104.73,104.73,0,0,0-.14-11.88c-.23-3.58-.32-7.17-.67-10.75-.43-4.46-.8-8.95-.92-13.43-.11-3.84-.31-7.67-.37-11.51-.19-12.26.26-24.52-.29-36.77-.19-4.43-.14-8.88-.25-13.32-.16-6.48-.41-13-.4-19.45,0-3.66-.17-7.35.07-11,.28-4.31.35-8.63.46-12.94.22-7.93,0-15.87.1-23.8s-.25-16.1.23-24.14c.23-3.71.21-7.44.3-11.16.35-14,.1-28.11.28-42.17.23-18.74.47-37.5-.14-56.24-.13-4-.44-7.91-.41-11.88,0-.23,0-.47-.06-.71A85.35,85.35,0,0,1,164,0Z"/><path class="cls-3" d="M183.8,476.23c-.11-5.82.35-11.63.4-17.46,0-2.56.14-5.15.21-7.73.55-20.84.38-41.7.24-62.55,0-4.79-.07-9.6-.33-14.39-.16-2.94,0-5.89-.27-8.81-.35-4.59-.39-9.21-.8-13.8-.34-3.69-.56-7.4-.79-11.1s-.12-7.33-.31-11c-.25-5-.42-9.94-.63-14.91q-.28-7-.64-14c-.31-6.29-.41-12.59-.63-18.88-.47-13.4-.35-26.8-.14-40.19.23-13.82-.07-27.64.3-41.44.21-7.63,0-15.26.31-22.88.18-4.2.29-8.41.16-12.6-.43-13.33-.25-26.67-.17-40,0-4.38.08-8.77.33-13.14.15-2.7.12-5.39.26-8.09.3-5.86.44-11.74.69-17.61.1-2.51.06-5,.26-7.54.3-3.72.1-7.45.36-11.15.22-3,.1-6,.25-9,.31-6,.11-12.13.38-18.18.23-5,0-10.09.29-15.12.46-8.23.2-16.45.26-24.68h6.92c0,7.76.12,15.52-.09,23.27-.12,4.32,0,8.65-.29,13-.2,3.34-.38,6.69-.77,10a42.28,42.28,0,0,0,0,8.64,77.47,77.47,0,0,1,.16,10.44c-.17,3.71,0,7.44-.51,11.13,0,.12,0,.24,0,.36.11,3.85-.27,7.68-.43,11.51s-.22,7.92-.25,11.88c0,1.36.42,2.79,0,4.06-1,2.74-.61,5.57-.49,8.33.42,10.15,0,20.31.29,30.46.47,16.71,0,33.42.33,50.12.1,5.22.06,10.46.33,15.67.17,3.42.08,6.84.26,10.25.29,5.39.32,10.8.67,16.18.42,6.43.36,12.86.15,19.27-.24,7.44-.53,14.87-.63,22.31,0,2.27-.28,4.56-.18,6.83.45,10,0,20,.35,29.92.31,9,0,18,.3,27,.35,10.34,0,20.68.34,31,.27,8.6,0,17.19.29,25.77.32,8.42,0,16.83.31,25.23.54,17.73.12,35.46.22,53.19,0,.12,0,.24,0,.37Z"/><path class="cls-3" d="M139.13,476.23c0-6.55.19-13.1.4-19.63.27-8.41.13-16.82.23-25.23,0-2.94.4-5.86.26-8.81-.45-9.06-.07-18.14-.37-27.2-.14-4.14-.05-8.29-.29-12.42-.28-5.09-.25-10.19-.62-15.27-.26-3.58-.37-7.17-.82-10.73-.27-2.13-.23-4.31-.4-6.46-.33-4-.17-8-.36-12.05-.22-4.85-.41-9.7-.62-14.55q-.3-7-.66-14c-.13-2.64-.06-5.29-.29-7.91-.39-4.38-.11-8.76-.31-13.14-.51-11-.37-22-.16-33,.27-13.83-.06-27.65.3-41.46.21-8.11,0-16.23.31-24.32q.45-10.37.14-20.72c-.31-10.63-.18-21.26-.17-31.89,0-4.92.17-9.85.36-14.76.11-2.94.09-5.88.26-8.81.31-5.63.41-11.27.67-16.9.13-2.76,0-5.53.29-8.27.29-3.35.06-6.73.33-10.07.3-3.72,0-7.45.29-11.15.34-5.28,0-10.58.35-15.84.26-4.63,0-9.26.28-13.87.3-5.4.15-10.8.35-16.2a58.24,58.24,0,0,0,.16-6.46C138.65,10.08,138.89,5,138.8,0h6.92c-.1,12.49.28,25-.26,37.49-.12,2.82,0,5.65-.09,8.47-.06,2.15-.19,4.31-.38,6.46s-.46,4.15-.52,6.25c-.08,2.82.18,5.63.25,8.45.2,6.84-.17,13.67-.49,20.5-.17,3.65-.52,7.3-.42,11a6.5,6.5,0,0,1,0,1.08,76.86,76.86,0,0,0-.22,11.15c0,1.3.27,2.73-.16,3.83a12.48,12.48,0,0,0-.47,4.39c-.06,1.8.18,3.59.21,5.38.22,10.39-.15,20.79.33,31.18.13,2.93,0,5.89,0,8.83.14,14-.2,28,.27,42,.2,6.11.19,12.24.35,18.36.1,4.2.5,8.39.38,12.6a2.17,2.17,0,0,0,0,.36c.39,3.75.5,7.53.55,11.3.07,6.24.26,12.49-.22,18.73-.22,2.8-.18,5.63-.3,8.45-.23,5.63,0,11.28-.36,16.92-.08,1.4.25,2.74.26,4.12.13,9.37-.06,18.74.26,28.11.33,10.08,0,20.18.33,30.27.31,9.12,0,18.25.3,27.38.34,9.3-.05,18.62.33,27.93.31,7.61.14,15.25.27,22.87.25,14.13.08,28.26.08,42.38Z"/><path class="cls-3" d="M13.24,120.89l-.3,0c-.46-.48-.29-1.12-.29-1.69,0-3,0-6,0-9a28.64,28.64,0,0,1,.44-6.69c.53.47.46,1.1.5,1.71a34,34,0,0,1-.38,5.53,39.77,39.77,0,0,0,.06,9.63A3.17,3.17,0,0,1,13.24,120.89Z"/><path class="cls-3" d="M88.06,225.64a2.72,2.72,0,0,1-.09,1.8C87.53,226.82,87.53,226.82,88.06,225.64Z"/></g></g></g></g></svg>