<?xml version="1.0" encoding="UTF-8" standalone="no"?>
<svg
   xmlns:dc="http://purl.org/dc/elements/1.1/"
   xmlns:cc="http://creativecommons.org/ns#"
   xmlns:rdf="http://www.w3.org/1999/02/22-rdf-syntax-ns#"
   xmlns:svg="http://www.w3.org/2000/svg"
   xmlns="http://www.w3.org/2000/svg"
   xmlns:sodipodi="http://sodipodi.sourceforge.net/DTD/sodipodi-0.dtd"
   xmlns:inkscape="http://www.inkscape.org/namespaces/inkscape"
   width="104"
   height="20"
   version="1.1"
   id="svg4919"
   sodipodi:docname="thoughtworks.svg"
   style="fill:#050505"
   inkscape:version="0.92.4 (unknown)">
  <metadata
     id="metadata4925">
    <rdf:RDF>
      <cc:Work
         rdf:about="">
        <dc:format>image/svg+xml</dc:format>
        <dc:type
           rdf:resource="http://purl.org/dc/dcmitype/StillImage" />
        <dc:title></dc:title>
      </cc:Work>
    </rdf:RDF>
  </metadata>
  <defs
     id="defs4923" />
  <sodipodi:namedview
     pagecolor="#ffffff"
     bordercolor="#666666"
     borderopacity="1"
     objecttolerance="10"
     gridtolerance="10"
     guidetolerance="10"
     inkscape:pageopacity="0"
     inkscape:pageshadow="2"
     inkscape:window-width="1853"
     inkscape:window-height="1025"
     id="namedview4921"
     showgrid="false"
     inkscape:zoom="2.85"
     inkscape:cx="60"
     inkscape:cy="30"
     inkscape:window-x="67"
     inkscape:window-y="27"
     inkscape:window-maximized="1"
     inkscape:current-layer="svg4919" />
  <path
     d="m 14.634825,4.108263 h -2.452 v 12.897 h 2.452 v -6.5 c 0.455,-0.5 1.028,-1.014 1.742,-1.014 1.06,0 1,1.178 1,1.924 v 5.6 h 2.453 v -6.578 c 0,-2.274 -1.424,-2.898 -2.438,-2.898 a 4.47,4.47 0 0 0 -2.766,1.16 z m 10.3,3.412 c -2.73,0 -4.094,2.37 -4.094,4.836 0,2.466 1.365,4.84 4.094,4.84 2.729,0 4.094,-2.388 4.094,-4.84 0,-2.452 -1.365,-4.836 -4.094,-4.836 m 0,7.87 c -1.328,0 -1.56,-1.874 -1.56,-3.034 0,-1.16 0.232,-3.03 1.56,-3.03 1.328,0 1.57,1.87 1.57,3.03 0,1.16 -0.232,3.034 -1.556,3.034 m 12.78,-7.67 h -2.452 v 6.5 c -0.455,0.496 -1.028,1 -1.742,1 -1.06,0 -1,-1.174 -1,-1.92 v -5.582 h -2.452 v 6.573 c 0,2.274 1.424,2.902 2.438,2.902 a 4.47,4.47 0 0 0 2.766,-1.137 v 0.96 h 2.443 z m 8.88,-0.315 a 2.27,2.27 0 0 0 -1.674,0.76 4.46,4.46 0 0 0 -2.274,-0.646 c -2.002,0 -3.744,1.192 -3.744,3.248 a 3.5,3.5 0 0 0 1.146,2.552 c -0.7,0.455 -1.2,0.942 -1.2,1.85 a 1.46,1.46 0 0 0 0.732,1.178 c -0.564,0.332 -1.014,0.696 -1.014,1.4 0,1.205 1.096,2.334 4.294,2.334 3.676,0 4.604,-1.456 4.604,-2.834 0,-2.22 -2.406,-2.274 -4.276,-2.274 h -0.4 c -0.996,0 -1.76,-0.023 -1.76,-0.455 a 0.63,0.63 0 0 1 0.696,-0.578 l 0.9,0.068 c 2.006,0 3.73,-1.196 3.73,-3.248 a 3.69,3.69 0 0 0 -0.5,-1.574 1.34,1.34 0 0 1 0.664,-0.2 2.14,2.14 0 0 1 0.778,0.2 v -1.738 a 3.42,3.42 0 0 0 -0.7,-0.064 m -3.962,5.004 c -0.942,0 -1.365,-0.696 -1.365,-1.542 0,-0.846 0.318,-1.738 1.365,-1.738 0.9,0 1.328,0.7 1.328,1.556 0,0.856 -0.3,1.724 -1.328,1.724 m 0.25,6.1 c -0.582,0 -2.32,-0.05 -2.32,-0.9 a 0.63,0.63 0 0 1 0.382,-0.578 l 2.73,0.182 c 1.46,0.082 1.788,0.032 1.788,0.514 0,0.74 -2.152,0.792 -2.566,0.792 m 7.917,-14.4 h -2.45 v 12.907 h 2.45 v -6.5 c 0.455,-0.5 1.028,-1.014 1.742,-1.014 1.06,0 1,1.178 1,1.924 v 5.6 h 2.452 v -6.578 c 0,-2.274 -1.424,-2.898 -2.434,-2.898 a 4.47,4.47 0 0 0 -2.77,1.16 z m 9.66,1.292 h -2.447 v 2.32 h -1.146 v 2.038 h 1.146 v 4.55 c 0,2.02 1.256,2.884 2.78,2.884 a 5.7,5.7 0 0 0 1.574,-0.282 v -1.87 a 1.74,1.74 0 0 1 -0.978,0.35 c -0.792,0 -0.9,-0.455 -0.9,-0.9 v -4.722 h 1.906 v -2.038 h -1.895 z m 18.158,2.188 c -2.038,0 -3.662,1.406 -3.662,4.836 0,3.43 1.624,4.836 3.662,4.836 2.038,0 3.64,-1.406 3.64,-4.836 0,-3.43 -1.624,-4.836 -3.64,-4.836 m 0,8.58 c -1.988,0 -2.37,-2.188 -2.37,-3.744 0,-1.556 0.382,-3.744 2.37,-3.744 1.988,0 2.365,2.188 2.365,3.744 0,1.556 -0.378,3.744 -2.365,3.744 m 9.026,-8.448 h -0.496 c -1.365,0 -2.02,1 -2.534,2.102 h -0.032 v -1.952 h -1.282 v 9.143 h 1.292 v -5.204 c 0.455,-1.246 1.274,-2.934 2.775,-2.934 a 2.02,2.02 0 0 1 0.287,0 z"
     id="path4913"
     inkscape:connector-curvature="0" />
  <path
     d="m 98.689825,7.588263 c -1.506,0 -2.798,0.96 -2.798,2.534 0,3.28 4.816995,2.184 4.816995,4.5 0,1.042 -0.841995,1.556 -1.787995,1.556 a 2.56,2.56 0 0 1 -2.375,-1.474 l -1.028,0.646 a 3.76,3.76 0 0 0 3.412,1.92 c 1.723995,0 2.997995,-1.092 2.997995,-2.88 0,-3.084 -4.821995,-2.106 -4.821995,-4.344 0,-0.9 0.796,-1.365 1.642,-1.365 a 2.36,2.36 0 0 1 2.087995,1.21 l 0.9,-0.714 a 3.5,3.5 0 0 0 -3.047995,-1.588 m -96.7580004,-1.284 v -2.188 h 9.2750004 v 2.188 H 7.8618246 v 10.7 h -2.584 v -10.7 z"
     id="path4915"
     inkscape:connector-curvature="0" />
  <path
     d="m 62.726825,4.108263 h 1.292 l 2.12,10.403 2.352,-10.403 h 1.278 l 2.234,10.403 2.27,-10.403 h 1.278 l -2.953,12.897 h -1.324 l -2.188,-10.535 -2.333,10.535 h -1.323 z m 26.003,0 h 1.292 v 7.983 l 3.394,-4.24 h 1.442 l -2.516,3.13 2.888,6.024 h -1.392 l -2.334,-4.967 -1.492,1.838 v 3.13 h -1.282 z"
     id="path4917"
     inkscape:connector-curvature="0" />
</svg>
