<svg width="319" height="70" viewBox="0 0 319 70" fill="none" xmlns="http://www.w3.org/2000/svg">
<path fill-rule="evenodd" clip-rule="evenodd" d="M0.231633 62.3757C4.81423 61.1469 9.88853 62.078 14.7065 61.9717C35.8595 61.4986 95.0802 60.4992 104.348 60.1492C110.476 59.9181 116.98 59.6398 123.14 59.1371C126.773 58.8411 144.927 58.6092 150.311 58.3275C152.88 58.1934 155.415 57.7034 157.93 57.7203C162.665 57.7523 166.976 57.4799 171.642 57.3155C177.632 57.1046 183.755 57.9623 189.927 58.3275C196.934 58.7433 204.041 58.3258 211.003 58.5299C214.69 58.6379 218.244 59.1962 221.923 59.1371C225.36 59.0823 228.849 58.7138 232.335 58.7332C235.912 58.7517 239.398 58.077 242.999 57.9227C250.8 57.5887 260.775 57.9935 270.68 57.5179C276.181 57.2547 281.73 56.8052 287.185 56.7082C289.924 56.6602 311.58 54.3746 314.523 54.7634C317.684 55.1809 317.584 63.6037 317.405 64.6031C315.67 66.1768 313.501 65.4996 311.311 65.4127C299.343 64.9345 285.622 66.5706 273.219 65.8167C262.214 65.1479 165.866 65.2297 159.2 65.4127C153.408 65.5704 147.562 64.921 141.677 65.007C131.077 65.1631 119.406 66.2561 106.888 65.8167C103.794 65.7087 92.1113 66.0317 89.1116 66.2223C84.7633 66.4973 80.2698 66.1591 75.9072 66.4239C71.2641 66.7064 66.6771 66.9451 62.1935 67.032C57.4514 67.1231 52.9579 66.7418 48.4809 66.8287C44.4626 66.9071 40.5906 67.8222 36.547 68.2456C32.3054 68.6892 28.0385 68.3965 23.8497 68.6504C17.1034 69.0603 9.49253 69.2011 1.50103 69.2576C0.163433 67.6712 0.193133 64.6655 0.231633 62.3757" fill="#7F1D18"/>
<path fill-rule="evenodd" clip-rule="evenodd" d="M317.477 6.75918C308.094 6.53653 299.237 7.91207 289.445 7.68605C287.531 7.64135 285.945 7.61099 283.739 7.68605C273.51 8.03183 262.92 7.41954 252.482 7.68605C245.98 7.85135 239.567 8.26376 233.132 8.34725C221.28 8.50159 209.508 8.54038 197.905 8.08243C179.47 8.0993 161.511 8.31352 143.826 8.61207C139.337 8.68797 134.688 8.41388 130.18 8.47966C124.504 8.56231 119.822 8.71749 114.304 8.61207C107.193 8.47544 99.8588 8.83303 92.7231 8.87689C90.3251 8.89123 87.9711 8.7352 85.528 8.74448C68.6815 8.81195 52.5896 9.22267 35.665 9.5381C32.8787 9.58954 6.87255 10.5029 0.687248 10.0677C0.776348 8.69135 -0.462252 6.66641 0.191148 5.03954C2.92575 5.32966 5.67465 4.5993 8.37625 4.5099C10.2517 4.44749 12.0293 4.70472 13.8344 4.64231C16.8176 4.53773 19.6655 4.17508 22.7653 3.98026C31.0406 3.46159 39.7603 4.04014 48.3172 3.71629C52.8173 3.54508 56.6805 3.23556 61.4644 3.05424C65.8699 2.88725 70.3877 3.104 74.8603 2.92183C80.0699 2.7093 85.7217 2.9134 90.2416 2.39219C112.442 1.98569 159.187 0.788939 163.671 0.804119C172.733 0.837854 179.392 0.837011 187.982 0.804119C193.988 0.782192 199.095 0.525806 205.595 0.540143C217.073 0.564601 228.2 0.169059 241.319 0.276168C246.896 0.320866 252.061 0.347011 257.691 0.407734C262.786 0.46171 267.608 -0.0814228 272.328 0.0105049C286.958 0.297252 301.389 -0.0485313 315.988 0.276168C316.657 2.63255 319.303 4.76966 317.477 6.75918" fill="#7F1D18"/>
</svg>
